<?xml version="1.0" standalone="no"?>
<!DOCTYPE svg PUBLIC "-//W3C//DTD SVG 1.1//EN" "http://www.w3.org/Graphics/SVG/1.1/DTD/svg11.dtd" >
<svg xmlns="http://www.w3.org/2000/svg" xmlns:xlink="http://www.w3.org/1999/xlink" version="1.1">
<metadata>
Created by FontForge 20190801 at Wed Mar 29 02:42:23 2017
 By Jimmy Wärting
Copyright \(c\) 2015 by Connary Fagen. All rights reserved.
</metadata>
<defs>
<font id="ArgentCF-Bold" horiz-adv-x="565" >
  <font-face 
    font-family="Argent CF"
    font-weight="700"
    font-stretch="normal"
    units-per-em="1000"
    panose-1="0 0 8 0 0 0 0 0 0 0"
    ascent="800"
    descent="-200"
    x-height="501"
    cap-height="621"
    bbox="-444.148 -329.277 1070 859.25"
    underline-thickness="50"
    underline-position="-100"
    stemh="69"
    stemv="140"
    unicode-range="U+0020-FB02"
  />
<missing-glyph horiz-adv-x="515" 
d="M422 800v-1030h-326v1030h326zM343 731h-170v-34h67v-38h-68v-34h171v34h-68v38h68v34zM275 598h-103v-107h171v35h-68v72zM240 563v-37h-34v37h34zM343 463h-171v-34h68v-38h-68v-34h103v72h68v34zM343 401h-34v-68h-137v-35h171v103zM343 276h-103v-58h35v24h34v-49
h-103v83h-34v-117h171v117zM343 98h-171v-117h171v117zM309 64v-49h-103v49h103zM343 -43h-171v-34h72l-72 -48v-34h171v34h-105l72 48h33v34z" />
    <glyph glyph-name="fi" unicode="fi" horiz-adv-x="688" 
d="M479 589c0 -35 -22 -54 -54 -54c-87 0 -38 119 -119 119c-58 0 -72 -62 -72 -153h99v-46h-99v-378c0 -25 26 -33 64 -37v-40c-94 2 -189 2 -283 0v40c35 4 62 12 62 37v378h-58v46h58c1 148 115 198 223 198c104 0 179 -43 179 -110zM604 77c0 -25 26 -33 64 -37v-40
c-94 2 -189 2 -283 0v40c35 4 62 12 62 37v280c0 43 -21 54 -62 47v40c66 12 137 33 195 67c14 -6 24 -16 30 -29c-6 -48 -6 -86 -6 -150v-255z" />
    <glyph glyph-name="fl" unicode="fl" horiz-adv-x="683" 
d="M599 77c0 -25 26 -33 64 -37v-40c-94 2 -189 2 -283 0v40c35 4 62 12 62 37v428c0 75 -12 150 -104 150s-103 -72 -104 -154h99v-46h-99v-374c0 -25 27 -33 65 -37v-44c-94 3 -190 3 -284 0v44c35 4 62 12 62 37v374h-58v46h58c4 131 105 198 264 198
c160 0 258 -67 258 -204v-418z" />
    <glyph glyph-name=".notdef" horiz-adv-x="515" 
d="M422 800v-1030h-326v1030h326zM343 731h-170v-34h67v-38h-68v-34h171v34h-68v38h68v34zM275 598h-103v-107h171v35h-68v72zM240 563v-37h-34v37h34zM343 463h-171v-34h68v-38h-68v-34h103v72h68v34zM343 401h-34v-68h-137v-35h171v103zM343 276h-103v-58h35v24h34v-49
h-103v83h-34v-117h171v117zM343 98h-171v-117h171v117zM309 64v-49h-103v49h103zM343 -43h-171v-34h72l-72 -48v-34h171v34h-105l72 48h33v34z" />
    <glyph glyph-name="A" unicode="A" horiz-adv-x="702" 
d="M579 146c27 -74 50 -101 113 -106v-40c-113 3 -222 3 -334 0v40c51 3 89 13 74 53l-38 104h-184l-33 -101c-14 -42 33 -53 111 -56v-40c-93 3 -187 3 -278 0v40c74 5 103 25 119 71l176 515h95zM224 241h153l-82 222z" />
    <glyph glyph-name="Aacute" unicode="&#xc1;" horiz-adv-x="702" 
d="M422 740l-167 -59l-17 26l135 116c32 27 65 27 85 0c19 -28 5 -68 -36 -83zM579 146c27 -74 50 -101 113 -106v-40c-113 3 -222 3 -334 0v40c51 3 89 13 74 53l-38 104h-184l-33 -101c-14 -42 33 -53 111 -56v-40c-93 3 -187 3 -278 0v40c74 5 103 25 119 71l176 515h95z
M224 241h153l-82 222z" />
    <glyph glyph-name="Abreve" unicode="&#x102;" horiz-adv-x="702" 
d="M351 690c-81 0 -148 43 -154 139h69c6 -28 40 -50 85 -50s79 22 85 50h69c-6 -96 -73 -139 -154 -139zM579 146c27 -74 50 -101 113 -106v-40c-113 3 -222 3 -334 0v40c51 3 89 13 74 53l-38 104h-184l-33 -101c-14 -42 33 -53 111 -56v-40c-93 3 -187 3 -278 0v40
c74 5 103 25 119 71l176 515h95zM224 241h153l-82 222z" />
    <glyph glyph-name="uni01CD" unicode="&#x1cd;" horiz-adv-x="702" 
d="M361 641h-22l-153 175l26 22l139 -110l138 110l25 -22zM579 146c27 -74 50 -101 113 -106v-40c-113 3 -222 3 -334 0v40c51 3 89 13 74 53l-38 104h-184l-33 -101c-14 -42 33 -53 111 -56v-40c-93 3 -187 3 -278 0v40c74 5 103 25 119 71l176 515h95zM224 241h153
l-82 222z" />
    <glyph glyph-name="Acircumflex" unicode="&#xc2;" horiz-adv-x="702" 
d="M351 749l-139 -110l-26 22l153 175h22l153 -175l-25 -22zM579 146c27 -74 50 -101 113 -106v-40c-113 3 -222 3 -334 0v40c51 3 89 13 74 53l-38 104h-184l-33 -101c-14 -42 33 -53 111 -56v-40c-93 3 -187 3 -278 0v40c74 5 103 25 119 71l176 515h95zM224 241h153
l-82 222z" />
    <glyph glyph-name="Adieresis" unicode="&#xc4;" horiz-adv-x="702" 
d="M238 680c-39 0 -72 33 -72 72s33 71 72 71c40 0 71 -32 71 -71s-31 -72 -71 -72zM465 680c-39 0 -72 33 -72 72s33 71 72 71s71 -32 71 -71s-32 -72 -71 -72zM579 146c27 -74 50 -101 113 -106v-40c-113 3 -222 3 -334 0v40c51 3 89 13 74 53l-38 104h-184l-33 -101
c-14 -42 33 -53 111 -56v-40c-93 3 -187 3 -278 0v40c74 5 103 25 119 71l176 515h95zM224 241h153l-82 222z" />
    <glyph glyph-name="Agrave" unicode="&#xc0;" horiz-adv-x="702" 
d="M281 740c-41 15 -55 55 -36 83c20 27 53 27 85 0l135 -116l-17 -26zM579 146c27 -74 50 -101 113 -106v-40c-113 3 -222 3 -334 0v40c51 3 89 13 74 53l-38 104h-184l-33 -101c-14 -42 33 -53 111 -56v-40c-93 3 -187 3 -278 0v40c74 5 103 25 119 71l176 515h95z
M224 241h153l-82 222z" />
    <glyph glyph-name="Amacron" unicode="&#x100;" horiz-adv-x="702" 
d="M202 702c-12 0 -19 6 -19 19v46c0 13 7 18 19 18h298c13 0 19 -5 19 -18v-46c0 -13 -6 -19 -19 -19h-298zM579 146c27 -74 50 -101 113 -106v-40c-113 3 -222 3 -334 0v40c51 3 89 13 74 53l-38 104h-184l-33 -101c-14 -42 33 -53 111 -56v-40c-93 3 -187 3 -278 0v40
c74 5 103 25 119 71l176 515h95zM224 241h153l-82 222z" />
    <glyph glyph-name="Aogonek" unicode="&#x104;" horiz-adv-x="702" 
d="M579 146c29 -74 50 -97 113 -102v-44c-39 5 -72 7 -101 7c-119 0 -191 -30 -191 -94c0 -33 28 -50 53 -50c20 0 41 7 61 31l33 -22c-17 -33 -67 -74 -153 -74c-51 0 -117 17 -117 85c0 46 33 79 98 120c38 24 62 30 62 66c0 6 -2 16 -5 24l-45 119h-169l-38 -116
c-18 -45 52 -49 108 -52v-44c-51 2 -225 2 -278 0v44c74 5 103 21 119 67l173 515h96zM233 257h137l-74 194z" />
    <glyph glyph-name="Aring" unicode="&#xc5;" horiz-adv-x="702" 
d="M351 673c-45 0 -79 36 -79 79c0 44 34 78 79 78s79 -34 79 -78c0 -43 -34 -79 -79 -79zM351 787c-18 0 -35 -18 -35 -35c0 -18 17 -36 35 -36s35 18 35 36c0 17 -17 35 -35 35zM579 146c27 -74 50 -101 113 -106v-40c-113 3 -222 3 -334 0v40c51 3 89 13 74 53l-38 104
h-184l-33 -101c-14 -42 33 -53 111 -56v-40c-93 3 -187 3 -278 0v40c74 5 103 25 119 71l176 515h95zM224 241h153l-82 222z" />
    <glyph glyph-name="Atilde" unicode="&#xc3;" horiz-adv-x="702" 
d="M207 708h-46c-27 75 26 125 100 125c85 0 139 -55 198 -55c27 0 36 24 32 38h49c33 -87 -36 -129 -90 -129c-85 0 -139 60 -208 60c-35 0 -40 -29 -35 -39zM579 146c27 -74 50 -101 113 -106v-40c-113 3 -222 3 -334 0v40c51 3 89 13 74 53l-38 104h-184l-33 -101
c-14 -42 33 -53 111 -56v-40c-93 3 -187 3 -278 0v40c74 5 103 25 119 71l176 515h95zM224 241h153l-82 222z" />
    <glyph glyph-name="AE" unicode="&#xc6;" horiz-adv-x="1022" 
d="M992 184c-23 -64 -35 -125 -34 -184c-166 5 -318 5 -476 0v40c56 4 73 15 73 50v122h-266l-98 -116c-30 -33 20 -47 96 -52v-44c-91 3 -186 3 -277 0v44c74 5 99 30 130 67l390 463c-12 4 -27 6 -48 7v40h458c13 0 15 -3 17 -18l18 -125h-38l-12 22
c-30 56 -48 80 -129 80h-48c-16 0 -25 -7 -28 -20v-212h95c50 0 68 16 79 59h31c-5 -60 -5 -109 0 -169h-31c-11 41 -28 62 -79 62h-95v-180h-1v-30c0 -35 14 -45 46 -45h11c75 0 105 21 135 71l42 68h39zM327 257h228v270z" />
    <glyph glyph-name="B" unicode="B" horiz-adv-x="654" 
d="M453 337c129 -26 181 -85 181 -166c0 -111 -97 -171 -291 -171h-318v40c56 4 73 15 73 50v443c0 36 -19 44 -65 48v40c102 -4 197 0 245 0c228 0 290 -75 290 -156c0 -58 -32 -102 -115 -128zM262 579v-240c116 21 155 61 155 132c0 59 -29 109 -107 109
c-22 0 -34 0 -48 -1zM343 45c78 0 127 38 127 130c0 80 -38 129 -139 129l-69 -13v-196c0 -35 4 -50 52 -50h29z" />
    <glyph glyph-name="C" unicode="C" horiz-adv-x="637" 
d="M563 170h54c-23 -92 -94 -186 -256 -186c-195 0 -326 139 -326 333c0 197 135 320 313 320c77 0 102 -26 165 -26c13 0 26 0 57 9c3 -59 15 -118 38 -176h-82c-39 84 -91 143 -174 143c-103 0 -144 -90 -144 -238c0 -170 59 -313 189 -313c58 0 129 29 166 134z" />
    <glyph glyph-name="Cacute" unicode="&#x106;" horiz-adv-x="637" 
d="M207 707l17 -26l167 59c41 15 55 55 36 83c-20 27 -53 27 -85 0zM563 170h54c-23 -92 -94 -186 -256 -186c-195 0 -326 139 -326 333c0 197 135 320 313 320c77 0 102 -26 165 -26c13 0 26 0 57 9c3 -59 15 -118 38 -176h-82c-39 84 -91 143 -174 143
c-103 0 -144 -90 -144 -238c0 -170 59 -313 189 -313c58 0 129 29 166 134z" />
    <glyph glyph-name="Ccaron" unicode="&#x10c;" horiz-adv-x="637" 
d="M330 641h-22l-153 175l26 22l139 -110l138 110l25 -22zM563 170h54c-23 -92 -94 -186 -256 -186c-195 0 -326 139 -326 333c0 197 135 320 313 320c77 0 102 -26 165 -26c13 0 26 0 57 9c3 -59 15 -118 38 -176h-82c-39 84 -91 143 -174 143c-103 0 -144 -90 -144 -238
c0 -170 59 -313 189 -313c58 0 129 29 166 134z" />
    <glyph glyph-name="Ccedilla" unicode="&#xc7;" horiz-adv-x="637" 
d="M361 -16c-8 0 -16 0 -23 1l-4 -14c43 -14 120 -40 120 -94c0 -52 -72 -77 -130 -77c-65 0 -117 21 -117 67c0 21 17 36 38 36c64 0 12 -76 80 -76c32 0 40 16 40 41c0 32 -28 50 -70 61c-16 4 -24 10 -24 21c0 10 6 19 19 40c-155 30 -255 158 -255 327
c0 197 135 320 313 320c77 0 102 -26 165 -26c13 0 26 0 57 9c3 -59 15 -118 38 -176h-82c-39 84 -91 143 -174 143c-103 0 -144 -90 -144 -238c0 -170 59 -313 189 -313c58 0 129 29 166 134h54c-23 -92 -94 -186 -256 -186z" />
    <glyph glyph-name="D" unicode="D" horiz-adv-x="688" 
d="M308 621c196 0 340 -81 340 -313c0 -281 -219 -308 -281 -308c-48 0 -103 18 -187 18c-64 0 -108 -11 -155 -18v40c50 11 73 18 73 52v441c0 36 -19 44 -65 48v40c102 -4 184 0 275 0zM316 45c115 0 149 114 149 265c0 176 -55 270 -165 270c-7 0 -21 0 -38 -2v-490
c0 -40 37 -43 54 -43z" />
    <glyph glyph-name="Eth" unicode="&#xd0;" horiz-adv-x="682" 
d="M305 621c196 0 340 -81 340 -313c0 -281 -219 -308 -281 -308c-48 0 -103 18 -187 18c-64 0 -108 -11 -155 -18v40c50 11 73 18 73 52v186h-70v65h70v190c0 36 -19 44 -65 48v40c102 -4 184 0 275 0zM313 45c115 0 149 114 149 265c0 176 -55 270 -165 270
c-7 0 -21 0 -38 -2v-235h69v-65h-69v-190c0 -40 37 -43 54 -43z" />
    <glyph glyph-name="Dcaron" unicode="&#x10e;" horiz-adv-x="688" 
d="M352 641h-22l-153 175l26 22l139 -110l138 110l25 -22zM308 621c196 0 340 -81 340 -313c0 -281 -219 -308 -281 -308c-48 0 -103 18 -187 18c-64 0 -108 -11 -155 -18v40c50 11 73 18 73 52v441c0 36 -19 44 -65 48v40c102 -4 184 0 275 0zM316 45
c115 0 149 114 149 265c0 176 -55 270 -165 270c-7 0 -21 0 -38 -2v-490c0 -40 37 -43 54 -43z" />
    <glyph glyph-name="Dcroat" unicode="&#x110;" horiz-adv-x="682" 
d="M305 621c196 0 340 -81 340 -313c0 -281 -219 -308 -281 -308c-48 0 -103 18 -187 18c-64 0 -108 -11 -155 -18v40c50 11 73 18 73 52v186h-70v65h70v190c0 36 -19 44 -65 48v40c102 -4 184 0 275 0zM313 45c115 0 149 114 149 265c0 176 -55 270 -165 270
c-7 0 -21 0 -38 -2v-235h69v-65h-69v-190c0 -40 37 -43 54 -43z" />
    <glyph glyph-name="uni1E0C" unicode="&#x1e0c;" horiz-adv-x="685" 
d="M308 621c196 0 340 -81 340 -313c0 -281 -219 -308 -281 -308c-48 0 -103 18 -187 18c-64 0 -108 -11 -155 -18v40c50 11 73 18 73 52v441c0 36 -19 44 -65 48v40c102 -4 184 0 275 0zM316 45c115 0 149 114 149 265c0 176 -55 270 -165 270c-7 0 -21 0 -38 -2v-490
c0 -40 37 -43 54 -43zM326 -212c-45 0 -81 37 -81 82s36 80 81 80s80 -35 80 -80s-35 -82 -80 -82z" />
    <glyph glyph-name="E" unicode="E" 
d="M535 184c-23 -64 -35 -125 -34 -184c-166 5 -318 5 -476 0v40c56 4 73 15 73 50v451c0 29 -17 36 -73 40v40h458c13 0 15 -3 17 -18l18 -125h-38l-12 22c-30 56 -48 80 -129 80h-48c-19 0 -29 -10 -29 -30v-202h96c50 0 68 16 79 59h31c-5 -60 -5 -109 0 -169h-31
c-11 41 -28 62 -79 62h-96v-210c0 -35 14 -45 46 -45h11c75 0 105 21 135 71l42 68h39z" />
    <glyph glyph-name="Eacute" unicode="&#xc9;" 
d="M350 740l-167 -59l-17 26l135 116c32 27 65 27 85 0c19 -28 5 -68 -36 -83zM535 184c-23 -64 -35 -125 -34 -184c-166 5 -318 5 -476 0v40c56 4 73 15 73 50v451c0 29 -17 36 -73 40v40h458c13 0 15 -3 17 -18l18 -125h-38l-12 22c-30 56 -48 80 -129 80h-48
c-19 0 -29 -10 -29 -30v-202h96c50 0 68 16 79 59h31c-5 -60 -5 -109 0 -169h-31c-11 41 -28 62 -79 62h-96v-210c0 -35 14 -45 46 -45h11c75 0 105 21 135 71l42 68h39z" />
    <glyph glyph-name="Ecaron" unicode="&#x11a;" 
d="M289 641h-22l-153 175l26 22l139 -110l138 110l25 -22zM535 184c-23 -64 -35 -125 -34 -184c-166 5 -318 5 -476 0v40c56 4 73 15 73 50v451c0 29 -17 36 -73 40v40h458c13 0 15 -3 17 -18l18 -125h-38l-12 22c-30 56 -48 80 -129 80h-48c-19 0 -29 -10 -29 -30v-202h96
c50 0 68 16 79 59h31c-5 -60 -5 -109 0 -169h-31c-11 41 -28 62 -79 62h-96v-210c0 -35 14 -45 46 -45h11c75 0 105 21 135 71l42 68h39z" />
    <glyph glyph-name="Ecircumflex" unicode="&#xca;" 
d="M279 749l-139 -110l-26 22l153 175h22l153 -175l-25 -22zM535 184c-23 -64 -35 -125 -34 -184c-166 5 -318 5 -476 0v40c56 4 73 15 73 50v451c0 29 -17 36 -73 40v40h458c13 0 15 -3 17 -18l18 -125h-38l-12 22c-30 56 -48 80 -129 80h-48c-19 0 -29 -10 -29 -30v-202
h96c50 0 68 16 79 59h31c-5 -60 -5 -109 0 -169h-31c-11 41 -28 62 -79 62h-96v-210c0 -35 14 -45 46 -45h11c75 0 105 21 135 71l42 68h39z" />
    <glyph glyph-name="Edieresis" unicode="&#xcb;" 
d="M166 680c-39 0 -72 33 -72 72s33 71 72 71c40 0 71 -32 71 -71s-31 -72 -71 -72zM393 680c-39 0 -72 33 -72 72s33 71 72 71s71 -32 71 -71s-32 -72 -71 -72zM535 184c-23 -64 -35 -125 -34 -184c-166 5 -318 5 -476 0v40c56 4 73 15 73 50v451c0 29 -17 36 -73 40v40
h458c13 0 15 -3 17 -18l18 -125h-38l-12 22c-30 56 -48 80 -129 80h-48c-19 0 -29 -10 -29 -30v-202h96c50 0 68 16 79 59h31c-5 -60 -5 -109 0 -169h-31c-11 41 -28 62 -79 62h-96v-210c0 -35 14 -45 46 -45h11c75 0 105 21 135 71l42 68h39z" />
    <glyph glyph-name="Edotaccent" unicode="&#x116;" 
d="M279 670c-45 0 -81 37 -81 82s36 80 81 80s80 -35 80 -80s-35 -82 -80 -82zM535 184c-23 -64 -35 -125 -34 -184c-166 5 -318 5 -476 0v40c56 4 73 15 73 50v451c0 29 -17 36 -73 40v40h458c13 0 15 -3 17 -18l18 -125h-38l-12 22c-30 56 -48 80 -129 80h-48
c-19 0 -29 -10 -29 -30v-202h96c50 0 68 16 79 59h31c-5 -60 -5 -109 0 -169h-31c-11 41 -28 62 -79 62h-96v-210c0 -35 14 -45 46 -45h11c75 0 105 21 135 71l42 68h39z" />
    <glyph glyph-name="Egrave" unicode="&#xc8;" 
d="M209 740c-41 15 -55 55 -36 83c20 27 53 27 85 0l135 -116l-17 -26zM535 184c-23 -64 -35 -125 -34 -184c-166 5 -318 5 -476 0v40c56 4 73 15 73 50v451c0 29 -17 36 -73 40v40h458c13 0 15 -3 17 -18l18 -125h-38l-12 22c-30 56 -48 80 -129 80h-48
c-19 0 -29 -10 -29 -30v-202h96c50 0 68 16 79 59h31c-5 -60 -5 -109 0 -169h-31c-11 41 -28 62 -79 62h-96v-210c0 -35 14 -45 46 -45h11c75 0 105 21 135 71l42 68h39z" />
    <glyph glyph-name="Emacron" unicode="&#x112;" 
d="M130 702c-12 0 -19 6 -19 19v46c0 13 7 18 19 18h298c13 0 19 -5 19 -18v-46c0 -13 -6 -19 -19 -19h-298zM535 184c-23 -64 -35 -125 -34 -184c-166 5 -318 5 -476 0v40c56 4 73 15 73 50v451c0 29 -17 36 -73 40v40h458c13 0 15 -3 17 -18l18 -125h-38l-12 22
c-30 56 -48 80 -129 80h-48c-19 0 -29 -10 -29 -30v-202h96c50 0 68 16 79 59h31c-5 -60 -5 -109 0 -169h-31c-11 41 -28 62 -79 62h-96v-210c0 -35 14 -45 46 -45h11c75 0 105 21 135 71l42 68h39z" />
    <glyph glyph-name="Eogonek" unicode="&#x118;" 
d="M407 2c-69 -18 -84 -57 -84 -84c0 -36 28 -53 53 -53c21 0 41 7 61 31l33 -22c-17 -33 -67 -74 -153 -74c-51 0 -117 17 -117 88c0 49 50 99 126 115c-101 1 -200 0 -301 -3v40c56 4 73 15 73 50v451c0 29 -17 36 -73 40v40h458c13 0 15 -3 17 -18l18 -125h-38l-12 22
c-30 56 -48 80 -129 80h-48c-19 0 -29 -10 -29 -30v-202h96c50 0 68 16 79 59h31c-5 -60 -5 -109 0 -169h-31c-11 41 -28 62 -79 62h-96v-210c0 -35 14 -45 46 -45h11c75 0 105 21 135 71l42 68h39c-23 -64 -35 -125 -34 -184c-32 1 -63 2 -94 2z" />
    <glyph glyph-name="F" unicode="F" horiz-adv-x="546" 
d="M502 603l18 -125h-38l-12 22c-30 56 -48 80 -129 80h-48c-19 0 -29 -10 -29 -30v-208h96c50 0 68 17 79 60h31c-5 -60 -5 -110 0 -170h-31c-11 42 -28 63 -79 63h-96v-205c0 -35 19 -46 76 -50v-40c-104 3 -211 3 -315 0v40c56 4 75 15 75 50v451c0 29 -17 36 -73 40v40
h458c13 0 15 -3 17 -18z" />
    <glyph glyph-name="G" unicode="G" horiz-adv-x="688" 
d="M384 297c102 -2 181 -2 284 0v-39l-20 -2c-38 -5 -37 -57 -37 -106c0 -53 13 -91 39 -96v-45c-22 4 -45 6 -73 6c-104 0 -134 -31 -225 -31c-188 0 -317 124 -317 333c0 197 135 320 313 320c77 0 102 -26 165 -26c13 0 26 0 57 9c3 -59 15 -118 38 -176h-82
c-39 84 -91 143 -174 143c-103 0 -144 -90 -144 -238c0 -178 54 -313 177 -313c71 0 78 46 78 114c0 82 -12 104 -54 106l-25 2v39z" />
    <glyph glyph-name="Gcommaaccent" unicode="&#x122;" horiz-adv-x="688" 
d="M384 297c102 -2 181 -2 284 0v-39l-20 -2c-38 -5 -37 -57 -37 -106c0 -53 13 -91 39 -96v-45c-22 4 -45 6 -73 6c-104 0 -134 -31 -225 -31c-188 0 -317 124 -317 333c0 197 135 320 313 320c77 0 102 -26 165 -26c13 0 26 0 57 9c3 -59 15 -118 38 -176h-82
c-39 84 -91 143 -174 143c-103 0 -144 -90 -144 -238c0 -178 54 -313 177 -313c71 0 78 46 78 114c0 82 -12 104 -54 106l-25 2v39zM356 -323c-8 -8 -16 -8 -23 -2l-11 12c28 31 37 64 37 91c0 3 0 7 -2 12c-5 -1 -10 -2 -18 -2c-48 0 -77 39 -77 75c0 43 35 78 81 78
c53 0 82 -46 82 -103c0 -71 -36 -127 -69 -161z" />
    <glyph glyph-name="H" unicode="H" horiz-adv-x="718" 
d="M693 581c-57 -4 -76 -15 -76 -50v-441c0 -35 19 -46 76 -50v-40c-104 3 -211 3 -315 0v40c56 4 75 15 75 50v199h-189v-199c0 -35 19 -46 76 -50v-40c-104 3 -211 3 -315 0v40c56 4 75 15 75 50v441c0 35 -19 46 -75 50v40c104 -3 211 -3 315 0v-40
c-57 -4 -76 -15 -76 -50v-197h189v197c0 35 -19 46 -75 50v40c104 -3 211 -3 315 0v-40z" />
    <glyph glyph-name="Hbar" unicode="&#x126;" horiz-adv-x="718" 
d="M693 581c-57 -4 -76 -15 -76 -50v-441c0 -35 19 -46 76 -50v-40c-104 3 -211 3 -315 0v40c56 4 75 15 75 50v199h-189v-199c0 -35 19 -46 76 -50v-40c-104 3 -211 3 -315 0v40c56 4 75 15 75 50v441c0 35 -19 46 -75 50v40c104 -3 211 -3 315 0v-40
c-57 -4 -76 -15 -76 -50v-84h189v84c0 35 -19 46 -75 50v40c104 -3 211 -3 315 0v-40zM264 334h189v67h-189v-67z" />
    <glyph glyph-name="uni1E24" unicode="&#x1e24;" horiz-adv-x="718" 
d="M693 581c-57 -4 -76 -15 -76 -50v-441c0 -35 19 -46 76 -50v-40c-104 3 -211 3 -315 0v40c56 4 75 15 75 50v199h-189v-199c0 -35 19 -46 76 -50v-40c-104 3 -211 3 -315 0v40c56 4 75 15 75 50v441c0 35 -19 46 -75 50v40c104 -3 211 -3 315 0v-40
c-57 -4 -76 -15 -76 -50v-197h189v197c0 35 -19 46 -75 50v40c104 -3 211 -3 315 0v-40zM359 -50c45 0 80 -35 80 -80s-35 -82 -80 -82s-81 37 -81 82s36 80 81 80z" />
    <glyph glyph-name="I" unicode="I" horiz-adv-x="365" 
d="M264 90c0 -35 19 -46 76 -50v-40c-104 3 -211 3 -315 0v40c56 4 75 15 75 50v441c0 35 -19 46 -75 50v40c104 -3 211 -3 315 0v-40c-57 -4 -76 -15 -76 -50v-441z" />
    <glyph glyph-name="IJ" unicode="&#x132;" horiz-adv-x="737" 
d="M264 90c0 -35 19 -46 76 -50v-40c-104 3 -211 3 -315 0v40c56 4 75 15 75 50v441c0 35 -19 46 -75 50v40c104 -3 211 -3 315 0v-40c-57 -4 -76 -15 -76 -50v-441zM397 621c104 -3 211 -3 315 0v-40c-56 -4 -75 -15 -75 -50v-389c0 -237 -108 -319 -297 -319v44
c70 4 133 49 133 192v472c0 35 -19 46 -76 50v40z" />
    <glyph glyph-name="Iacute" unicode="&#xcd;" horiz-adv-x="365" 
d="M70 707l17 -26l167 59c41 15 55 55 36 83c-20 27 -53 27 -85 0zM264 90c0 -35 19 -46 76 -50v-40c-104 3 -211 3 -315 0v40c56 4 75 15 75 50v441c0 35 -19 46 -75 50v40c104 -3 211 -3 315 0v-40c-57 -4 -76 -15 -76 -50v-441z" />
    <glyph glyph-name="Icircumflex" unicode="&#xce;" horiz-adv-x="365" 
d="M193 836l153 -175l-25 -22l-138 110l-139 -110l-26 22l153 175h22zM264 90c0 -35 19 -46 76 -50v-40c-104 3 -211 3 -315 0v40c56 4 75 15 75 50v441c0 35 -19 46 -75 50v40c104 -3 211 -3 315 0v-40c-57 -4 -76 -15 -76 -50v-441z" />
    <glyph glyph-name="Idieresis" unicode="&#xcf;" horiz-adv-x="365" 
d="M70 680c-39 0 -72 33 -72 72s33 71 72 71c40 0 71 -32 71 -71s-31 -72 -71 -72zM297 680c-39 0 -72 33 -72 72s33 71 72 71s71 -32 71 -71s-32 -72 -71 -72zM264 90c0 -35 19 -46 76 -50v-40c-104 3 -211 3 -315 0v40c56 4 75 15 75 50v441c0 35 -19 46 -75 50v40
c104 -3 211 -3 315 0v-40c-57 -4 -76 -15 -76 -50v-441z" />
    <glyph glyph-name="Igrave" unicode="&#xcc;" horiz-adv-x="365" 
d="M297 707l-135 116c-32 27 -65 27 -85 0c-19 -28 -5 -68 36 -83l167 -59zM264 90c0 -35 19 -46 76 -50v-40c-104 3 -211 3 -315 0v40c56 4 75 15 75 50v441c0 35 -19 46 -75 50v40c104 -3 211 -3 315 0v-40c-57 -4 -76 -15 -76 -50v-441z" />
    <glyph glyph-name="Imacron" unicode="&#x12a;" horiz-adv-x="365" 
d="M15 767c0 13 7 18 19 18h298c13 0 19 -5 19 -18v-46c0 -13 -6 -19 -19 -19h-298c-12 0 -19 6 -19 19v46zM264 90c0 -35 19 -46 76 -50v-40c-104 3 -211 3 -315 0v40c56 4 75 15 75 50v441c0 35 -19 46 -75 50v40c104 -3 211 -3 315 0v-40c-57 -4 -76 -15 -76 -50v-441z
" />
    <glyph glyph-name="Iogonek" unicode="&#x12e;" horiz-adv-x="365" 
d="M340 581c-57 -4 -76 -15 -76 -50v-441c0 -35 19 -46 76 -50v-40c-30 1 -60 1 -90 2c-68 -19 -83 -57 -83 -84c0 -36 28 -53 53 -53c21 0 41 7 61 31l33 -22c-17 -33 -67 -74 -153 -74c-51 0 -117 17 -117 88c0 48 48 97 121 114c-47 0 -94 -1 -140 -2v40
c56 4 75 15 75 50v441c0 35 -19 46 -75 50v40c104 -3 211 -3 315 0v-40z" />
    <glyph glyph-name="J" unicode="J" horiz-adv-x="377" 
d="M37 621c104 -3 211 -3 315 0v-40c-56 -4 -75 -15 -75 -50v-389c0 -237 -108 -319 -297 -319v44c70 4 133 49 133 192v472c0 35 -19 46 -76 50v40z" />
    <glyph glyph-name="K" unicode="K" horiz-adv-x="707" 
d="M536 155c55 -76 98 -122 156 -128l-37 -44c-69 0 -164 2 -237 102l-125 173l-34 -38v-130c0 -35 19 -46 76 -50v-40c-104 3 -211 3 -315 0v40c56 4 75 15 75 50v441c0 35 -19 46 -75 50v40c104 -3 211 -3 315 0v-40c-57 -4 -76 -15 -76 -50v-237l190 207
c44 48 13 75 -49 80v40c83 -3 165 -3 249 0v-40c-62 -5 -92 -33 -127 -70l-137 -151z" />
    <glyph glyph-name="Kcommaaccent" unicode="&#x136;" horiz-adv-x="707" 
d="M536 155c55 -76 98 -122 156 -128l-37 -44c-69 0 -164 2 -237 102l-125 173l-34 -38v-130c0 -35 19 -46 76 -50v-40c-104 3 -211 3 -315 0v40c56 4 75 15 75 50v441c0 35 -19 46 -75 50v40c104 -3 211 -3 315 0v-40c-57 -4 -76 -15 -76 -50v-237l190 207
c44 48 13 75 -49 80v40c83 -3 165 -3 249 0v-40c-62 -5 -92 -33 -127 -70l-137 -151zM352 -59c53 0 82 -46 82 -103c0 -71 -36 -127 -69 -161c-8 -8 -16 -8 -23 -2l-11 12c28 31 37 64 37 91c0 3 0 7 -2 12c-5 -1 -10 -2 -18 -2c-48 0 -77 39 -77 75c0 43 35 78 81 78z" />
    <glyph glyph-name="L" unicode="L" horiz-adv-x="557" 
d="M498 184h39c-23 -64 -35 -125 -34 -184c-166 5 -318 5 -476 0v40c56 4 73 15 73 50v441c0 35 -19 46 -75 50v40c104 -3 211 -3 315 0v-40c-57 -4 -76 -15 -76 -50v-441c0 -35 14 -45 46 -45h11c75 0 105 21 135 71z" />
    <glyph glyph-name="Lacute" unicode="&#x139;" horiz-adv-x="557" 
d="M196 707l17 -26l167 59c41 15 55 55 36 83c-20 27 -53 27 -85 0zM498 184h39c-23 -64 -35 -125 -34 -184c-166 5 -318 5 -476 0v40c56 4 73 15 73 50v441c0 35 -19 46 -75 50v40c104 -3 211 -3 315 0v-40c-57 -4 -76 -15 -76 -50v-441c0 -35 14 -45 46 -45h11
c75 0 105 21 135 71z" />
    <glyph glyph-name="Lcaron" unicode="&#x13d;" horiz-adv-x="576" 
d="M482 360c-8 -8 -16 -8 -23 -2l-11 12c28 31 37 64 37 91c0 3 0 7 -2 12c-5 -1 -10 -2 -18 -2c-48 0 -77 39 -77 75c0 43 35 78 81 78c53 0 82 -46 82 -103c0 -71 -36 -127 -69 -161zM498 184h39c-23 -64 -35 -125 -34 -184c-166 5 -318 5 -476 0v40c56 4 73 15 73 50v441
c0 35 -19 46 -75 50v40c104 -3 211 -3 315 0v-40c-57 -4 -76 -15 -76 -50v-441c0 -35 14 -45 46 -45h11c75 0 105 21 135 71z" />
    <glyph glyph-name="Lcommaaccent" unicode="&#x13b;" horiz-adv-x="557" 
d="M498 184h39c-23 -64 -35 -125 -34 -184c-166 5 -318 5 -476 0v40c56 4 73 15 73 50v441c0 35 -19 46 -75 50v40c104 -3 211 -3 315 0v-40c-57 -4 -76 -15 -76 -50v-441c0 -35 14 -45 46 -45h11c75 0 105 21 135 71zM306 -323c-8 -8 -16 -8 -23 -2l-11 12
c28 31 37 64 37 91c0 3 0 7 -2 12c-5 -1 -10 -2 -18 -2c-48 0 -77 39 -77 75c0 43 35 78 81 78c53 0 82 -46 82 -103c0 -71 -36 -127 -69 -161z" />
    <glyph glyph-name="Ldot" unicode="&#x13f;" horiz-adv-x="557" 
d="M498 184h39c-23 -64 -35 -125 -34 -184c-166 5 -318 5 -476 0v40c56 4 73 15 73 50v441c0 35 -19 46 -75 50v40c104 -3 211 -3 315 0v-40c-57 -4 -76 -15 -76 -50v-441c0 -35 14 -45 46 -45h11c75 0 105 21 135 71zM412 321c-41 0 -75 34 -75 76c0 41 34 75 75 75
s75 -34 75 -75c0 -42 -34 -76 -75 -76z" />
    <glyph glyph-name="Lslash" unicode="&#x141;" horiz-adv-x="576" 
d="M557 184c-23 -64 -35 -125 -34 -184c-166 5 -318 5 -476 0v40c56 4 73 15 73 50v159l-105 -32v47l105 32v235c0 35 -19 46 -75 50v40c104 -3 211 -3 315 0v-40c-57 -4 -76 -15 -76 -50v-185l125 38v-48l-125 -38v-208c0 -35 14 -45 46 -45h11c75 0 105 21 135 71l42 68
h39z" />
    <glyph glyph-name="M" unicode="M" horiz-adv-x="837" 
d="M747 108c0 -49 19 -64 75 -68v-40c-104 3 -211 3 -315 0v40c57 4 76 19 76 68v385l-182 -493h-14l-207 493v-385c0 -49 54 -63 120 -68v-40c-96 3 -193 3 -285 0v40c60 5 113 19 113 68v387c0 52 -38 82 -94 86v40c79 -3 171 -3 250 0l156 -372l138 372
c84 -3 158 -3 245 0v-40c-57 -4 -76 -15 -76 -66v-407z" />
    <glyph glyph-name="N" unicode="N" horiz-adv-x="686" 
d="M394 621c95 -3 193 -3 277 0v-40c-53 -5 -106 -19 -106 -67v-514h-51l-342 479v-371c0 -49 53 -63 121 -68v-40c-97 3 -195 3 -278 0v40c52 5 105 19 105 68v387c0 53 -38 82 -94 86v40c79 -3 159 -3 239 0l248 -349v242c0 48 -53 62 -119 67v40z" />
    <glyph glyph-name="Nacute" unicode="&#x143;" horiz-adv-x="686" 
d="M230 707l17 -26l167 59c41 15 55 55 36 83c-20 27 -53 27 -85 0zM394 621c95 -3 193 -3 277 0v-40c-53 -5 -106 -19 -106 -67v-514h-51l-342 479v-371c0 -49 53 -63 121 -68v-40c-97 3 -195 3 -278 0v40c52 5 105 19 105 68v387c0 53 -38 82 -94 86v40
c79 -3 159 -3 239 0l248 -349v242c0 48 -53 62 -119 67v40z" />
    <glyph glyph-name="Ncaron" unicode="&#x147;" horiz-adv-x="686" 
d="M353 641h-22l-153 175l26 22l139 -110l138 110l25 -22zM394 621c95 -3 193 -3 277 0v-40c-53 -5 -106 -19 -106 -67v-514h-51l-342 479v-371c0 -49 53 -63 121 -68v-40c-97 3 -195 3 -278 0v40c52 5 105 19 105 68v387c0 53 -38 82 -94 86v40c79 -3 159 -3 239 0
l248 -349v242c0 48 -53 62 -119 67v40z" />
    <glyph glyph-name="Ncommaaccent" unicode="&#x145;" horiz-adv-x="686" 
d="M394 621c95 -3 193 -3 277 0v-40c-53 -5 -106 -19 -106 -67v-514h-51l-342 479v-371c0 -49 53 -63 121 -68v-40c-97 3 -195 3 -278 0v40c52 5 105 19 105 68v387c0 53 -38 82 -94 86v40c79 -3 159 -3 239 0l248 -349v242c0 48 -53 62 -119 67v40zM340 -323
c-8 -8 -16 -8 -23 -2l-11 12c28 31 37 64 37 91c0 3 0 7 -2 12c-5 -1 -10 -2 -18 -2c-48 0 -77 39 -77 75c0 43 35 78 81 78c53 0 82 -46 82 -103c0 -71 -36 -127 -69 -161z" />
    <glyph glyph-name="Eng" unicode="&#x14a;" horiz-adv-x="683" 
d="M394 621c95 -3 193 -3 277 0v-40c-53 -5 -106 -19 -106 -67v-514h-2c0 -113 -77 -177 -270 -177v43c60 0 106 -1 106 134v161l-227 318v-371c0 -49 53 -63 121 -68v-40c-97 3 -195 3 -278 0v40c52 5 105 19 105 68v387c0 53 -38 82 -94 86v40c79 -3 159 -3 239 0
l248 -349v242c0 48 -53 62 -119 67v40z" />
    <glyph glyph-name="Ntilde" unicode="&#xd1;" horiz-adv-x="686" 
d="M532 816c33 -87 -36 -129 -90 -129c-85 0 -139 60 -208 60c-35 0 -40 -29 -35 -39h-46c-27 75 26 125 100 125c85 0 139 -55 198 -55c27 0 36 24 32 38h49zM394 621c95 -3 193 -3 277 0v-40c-53 -5 -106 -19 -106 -67v-514h-51l-342 479v-371c0 -49 53 -63 121 -68v-40
c-97 3 -195 3 -278 0v40c52 5 105 19 105 68v387c0 53 -38 82 -94 86v40c79 -3 159 -3 239 0l248 -349v242c0 48 -53 62 -119 67v40z" />
    <glyph glyph-name="O" unicode="O" horiz-adv-x="683" 
d="M342 637c174 0 306 -124 306 -332c0 -189 -135 -321 -307 -321c-173 0 -306 124 -306 332c0 189 135 321 307 321zM360 33c73 0 115 90 115 247c0 170 -57 308 -149 308c-75 0 -118 -91 -118 -248c0 -169 58 -307 152 -307z" />
    <glyph glyph-name="Oacute" unicode="&#xd3;" horiz-adv-x="683" 
d="M229 707l17 -26l167 59c41 15 55 55 36 83c-20 27 -53 27 -85 0zM342 637c174 0 306 -124 306 -332c0 -189 -135 -321 -307 -321c-173 0 -306 124 -306 332c0 189 135 321 307 321zM360 33c73 0 115 90 115 247c0 170 -57 308 -149 308c-75 0 -118 -91 -118 -248
c0 -169 58 -307 152 -307z" />
    <glyph glyph-name="Ocircumflex" unicode="&#xd4;" horiz-adv-x="683" 
d="M352 836l153 -175l-25 -22l-138 110l-139 -110l-26 22l153 175h22zM342 637c174 0 306 -124 306 -332c0 -189 -135 -321 -307 -321c-173 0 -306 124 -306 332c0 189 135 321 307 321zM360 33c73 0 115 90 115 247c0 170 -57 308 -149 308c-75 0 -118 -91 -118 -248
c0 -169 58 -307 152 -307z" />
    <glyph glyph-name="Odieresis" unicode="&#xd6;" horiz-adv-x="683" 
d="M229 680c-39 0 -72 33 -72 72s33 71 72 71c40 0 71 -32 71 -71s-31 -72 -71 -72zM456 680c-39 0 -72 33 -72 72s33 71 72 71s71 -32 71 -71s-32 -72 -71 -72zM342 637c174 0 306 -124 306 -332c0 -189 -135 -321 -307 -321c-173 0 -306 124 -306 332
c0 189 135 321 307 321zM360 33c73 0 115 90 115 247c0 170 -57 308 -149 308c-75 0 -118 -91 -118 -248c0 -169 58 -307 152 -307z" />
    <glyph glyph-name="Ograve" unicode="&#xd2;" horiz-adv-x="683" 
d="M456 707l-135 116c-32 27 -65 27 -85 0c-19 -28 -5 -68 36 -83l167 -59zM342 637c174 0 306 -124 306 -332c0 -189 -135 -321 -307 -321c-173 0 -306 124 -306 332c0 189 135 321 307 321zM360 33c73 0 115 90 115 247c0 170 -57 308 -149 308c-75 0 -118 -91 -118 -248
c0 -169 58 -307 152 -307z" />
    <glyph glyph-name="Ohungarumlaut" unicode="&#x150;" horiz-adv-x="683" 
d="M176 707l16 -26l151 59c37 15 50 55 33 83c-18 27 -48 27 -77 0zM356 707l16 -26l151 59c37 15 50 55 33 83c-18 27 -48 27 -77 0zM342 637c174 0 306 -124 306 -332c0 -189 -135 -321 -307 -321c-173 0 -306 124 -306 332c0 189 135 321 307 321zM360 33
c73 0 115 90 115 247c0 170 -57 308 -149 308c-75 0 -118 -91 -118 -248c0 -169 58 -307 152 -307z" />
    <glyph glyph-name="Omacron" unicode="&#x14c;" horiz-adv-x="683" 
d="M174 767c0 13 7 18 19 18h298c13 0 19 -5 19 -18v-46c0 -13 -6 -19 -19 -19h-298c-12 0 -19 6 -19 19v46zM342 637c174 0 306 -124 306 -332c0 -189 -135 -321 -307 -321c-173 0 -306 124 -306 332c0 189 135 321 307 321zM360 33c73 0 115 90 115 247
c0 170 -57 308 -149 308c-75 0 -118 -91 -118 -248c0 -169 58 -307 152 -307z" />
    <glyph glyph-name="Oslash" unicode="&#xd8;" horiz-adv-x="683" 
d="M568 541c50 -57 80 -137 80 -236c0 -189 -135 -321 -307 -321c-60 0 -114 15 -161 42l-31 -41l-72 59l33 43c-47 56 -75 134 -75 229c0 189 135 321 307 321c56 0 108 -13 153 -38l29 39l72 -60zM208 340c0 -39 3 -76 9 -110l211 281c-25 48 -60 77 -102 77
c-75 0 -118 -91 -118 -248zM360 33c73 0 115 90 115 247c0 44 -4 85 -11 123l-214 -283c27 -54 64 -87 110 -87z" />
    <glyph glyph-name="Otilde" unicode="&#xd5;" horiz-adv-x="683" 
d="M531 816c33 -87 -36 -129 -90 -129c-85 0 -139 60 -208 60c-35 0 -40 -29 -35 -39h-46c-27 75 26 125 100 125c85 0 139 -55 198 -55c27 0 36 24 32 38h49zM342 637c174 0 306 -124 306 -332c0 -189 -135 -321 -307 -321c-173 0 -306 124 -306 332c0 189 135 321 307 321
zM360 33c73 0 115 90 115 247c0 170 -57 308 -149 308c-75 0 -118 -91 -118 -248c0 -169 58 -307 152 -307z" />
    <glyph glyph-name="OE" unicode="&#x152;" horiz-adv-x="976" 
d="M946 184c-23 -64 -35 -125 -34 -184c-165 5 -316 5 -472 0c-23 -7 -44 -16 -89 -16c-194 0 -316 128 -316 335c0 200 146 318 299 318c47 0 77 -9 105 -16h455c13 0 15 -3 17 -18l18 -125h-38l-12 22c-30 56 -48 80 -129 80h-48c-19 0 -29 -10 -29 -30v-202h96
c50 0 68 16 79 59h31c-5 -60 -5 -109 0 -169h-31c-11 41 -28 62 -79 62h-96v-210c0 -35 14 -45 46 -45h11c75 0 105 21 135 71l42 68h39zM208 334c0 -144 46 -301 157 -301c64 0 108 33 144 99v324c-33 92 -99 132 -166 132c-94 0 -135 -104 -135 -254z" />
    <glyph glyph-name="P" unicode="P" horiz-adv-x="615" 
d="M262 231v-141c0 -35 17 -46 74 -50v-40c-104 3 -207 3 -311 0v40c56 4 73 15 73 50v456c0 31 -19 31 -65 35v40c102 -4 199 0 253 0c227 0 304 -68 304 -175c0 -118 -93 -185 -309 -213zM262 277l15 1c115 8 161 72 161 161c0 80 -36 141 -123 141h-53v-303z" />
    <glyph glyph-name="Thorn" unicode="&#xde;" horiz-adv-x="602" 
d="M296 124h-32v-34c0 -35 19 -46 76 -50v-40c-104 3 -211 3 -315 0v40c56 4 75 15 75 50v441c0 35 -19 46 -75 50v40c104 -3 211 -3 315 0v-40c-57 -4 -76 -15 -76 -50v-30h32c166 0 281 -69 281 -190c0 -118 -115 -187 -281 -187zM295 452h-31v-279h31
c91 0 129 62 129 138c0 79 -38 141 -129 141z" />
    <glyph glyph-name="Q" unicode="Q" horiz-adv-x="676" 
d="M615 -72h69c0 -98 -62 -176 -157 -176c-118 0 -146 122 -243 122c-40 0 -74 -21 -86 -37h-130c22 46 116 110 270 147c-174 0 -303 124 -303 332c0 184 132 321 303 321c174 0 303 -124 303 -332c0 -119 -55 -217 -140 -273c-100 -67 -275 -100 -303 -148
c27 14 60 29 110 29c84 0 151 -44 221 -44c49 0 79 23 86 59zM208 340c0 -169 54 -306 148 -306c73 0 112 89 112 246c0 170 -54 307 -146 307c-75 0 -114 -90 -114 -247z" />
    <glyph glyph-name="R" unicode="R" horiz-adv-x="664" 
d="M490 170c60 -81 104 -127 159 -134l-27 -44c-67 1 -169 0 -259 127l-81 114h-1l-19 -2v-141c0 -35 17 -46 74 -50v-40c-104 3 -207 3 -311 0v40c56 4 73 15 73 50v456c0 31 -19 31 -65 35v40c102 -4 199 0 253 0c227 0 304 -68 304 -175c0 -88 -52 -148 -169 -184z
M262 580v-303l15 1c115 8 161 72 161 161c0 80 -36 141 -123 141h-53z" />
    <glyph glyph-name="Racute" unicode="&#x154;" horiz-adv-x="664" 
d="M408 740l-167 -59l-17 26l135 116c32 27 65 27 85 0c19 -28 5 -68 -36 -83zM490 170c60 -81 104 -127 159 -134l-27 -44c-67 1 -169 0 -259 127l-81 114h-1l-19 -2v-141c0 -35 17 -46 74 -50v-40c-104 3 -207 3 -311 0v40c56 4 73 15 73 50v456c0 31 -19 31 -65 35v40
c102 -4 199 0 253 0c227 0 304 -68 304 -175c0 -88 -52 -148 -169 -184zM262 580v-303l15 1c115 8 161 72 161 161c0 80 -36 141 -123 141h-53z" />
    <glyph glyph-name="Rcaron" unicode="&#x158;" horiz-adv-x="664" 
d="M347 641h-22l-153 175l26 22l139 -110l138 110l25 -22zM490 170c60 -81 104 -127 159 -134l-27 -44c-67 1 -169 0 -259 127l-81 114h-1l-19 -2v-141c0 -35 17 -46 74 -50v-40c-104 3 -207 3 -311 0v40c56 4 73 15 73 50v456c0 31 -19 31 -65 35v40c102 -4 199 0 253 0
c227 0 304 -68 304 -175c0 -88 -52 -148 -169 -184zM262 580v-303l15 1c115 8 161 72 161 161c0 80 -36 141 -123 141h-53z" />
    <glyph glyph-name="Rcommaaccent" unicode="&#x156;" horiz-adv-x="664" 
d="M490 170c60 -81 104 -127 159 -134l-27 -44c-67 1 -169 0 -259 127l-81 114h-1l-19 -2v-141c0 -35 17 -46 74 -50v-40c-104 3 -207 3 -311 0v40c56 4 73 15 73 50v456c0 31 -19 31 -65 35v40c102 -4 199 0 253 0c227 0 304 -68 304 -175c0 -88 -52 -148 -169 -184z
M262 580v-303l15 1c115 8 161 72 161 161c0 80 -36 141 -123 141h-53zM321 -59c53 0 82 -46 82 -103c0 -71 -36 -127 -69 -161c-8 -8 -16 -8 -23 -2l-11 12c28 31 37 64 37 91c0 3 0 7 -2 12c-5 -1 -10 -2 -18 -2c-48 0 -77 39 -77 75c0 43 35 78 81 78z" />
    <glyph glyph-name="S" unicode="S" horiz-adv-x="516" 
d="M336 122c0 46 -25 84 -124 134c-90 46 -178 99 -178 208c0 112 91 173 198 173c69 0 104 -25 129 -25c12 0 22 6 24 17h47l9 -150h-38c-44 95 -100 110 -137 110c-55 0 -86 -35 -86 -76c0 -52 41 -84 112 -117c73 -35 199 -86 199 -222s-124 -189 -218 -189
c-81 0 -117 44 -155 44c-23 0 -34 -18 -36 -29h-46l-11 158h46c38 -87 116 -121 172 -121s93 33 93 85z" />
    <glyph glyph-name="Sacute" unicode="&#x15a;" horiz-adv-x="516" 
d="M147 707l17 -26l167 59c41 15 55 55 36 83c-20 27 -53 27 -85 0zM336 122c0 46 -25 84 -124 134c-90 46 -178 99 -178 208c0 112 91 173 198 173c69 0 104 -25 129 -25c12 0 22 6 24 17h47l9 -150h-38c-44 95 -100 110 -137 110c-55 0 -86 -35 -86 -76
c0 -52 41 -84 112 -117c73 -35 199 -86 199 -222s-124 -189 -218 -189c-81 0 -117 44 -155 44c-23 0 -34 -18 -36 -29h-46l-11 158h46c38 -87 116 -121 172 -121s93 33 93 85z" />
    <glyph glyph-name="Scaron" unicode="&#x160;" horiz-adv-x="516" 
d="M270 641h-22l-153 175l26 22l139 -110l138 110l25 -22zM336 122c0 46 -25 84 -124 134c-90 46 -178 99 -178 208c0 112 91 173 198 173c69 0 104 -25 129 -25c12 0 22 6 24 17h47l9 -150h-38c-44 95 -100 110 -137 110c-55 0 -86 -35 -86 -76c0 -52 41 -84 112 -117
c73 -35 199 -86 199 -222s-124 -189 -218 -189c-81 0 -117 44 -155 44c-23 0 -34 -18 -36 -29h-46l-11 158h46c38 -87 116 -121 172 -121s93 33 93 85z" />
    <glyph glyph-name="Scedilla" unicode="&#x15e;" horiz-adv-x="516" 
d="M491 174c0 -134 -120 -187 -213 -189l-4 -14c43 -14 120 -40 120 -94c0 -52 -72 -77 -130 -77c-65 0 -117 21 -117 67c0 21 17 36 38 36c64 0 12 -76 80 -76c32 0 40 16 40 41c0 32 -28 50 -70 61c-16 4 -24 10 -24 21c0 10 6 19 19 40c-52 11 -82 39 -112 39
c-23 0 -34 -18 -36 -29h-46l-11 158h46c38 -87 116 -121 172 -121s93 33 93 85c0 46 -25 84 -124 134c-90 46 -178 99 -178 208c0 112 91 173 198 173c69 0 104 -25 129 -25c12 0 22 6 24 17h47l9 -150h-38c-44 95 -100 110 -137 110c-55 0 -86 -35 -86 -76
c0 -52 41 -84 112 -117c73 -35 199 -86 199 -222z" />
    <glyph glyph-name="Scommaaccent" unicode="&#x218;" horiz-adv-x="516" 
d="M336 122c0 46 -25 84 -124 134c-90 46 -178 99 -178 208c0 112 91 173 198 173c69 0 104 -25 129 -25c12 0 22 6 24 17h47l9 -150h-38c-44 95 -100 110 -137 110c-55 0 -86 -35 -86 -76c0 -52 41 -84 112 -117c73 -35 199 -86 199 -222s-124 -189 -218 -189
c-81 0 -117 44 -155 44c-23 0 -34 -18 -36 -29h-46l-11 158h46c38 -87 116 -121 172 -121s93 33 93 85zM257 -323c-8 -8 -16 -8 -23 -2l-11 12c28 31 37 64 37 91c0 3 0 7 -2 12c-5 -1 -10 -2 -18 -2c-48 0 -77 39 -77 75c0 43 35 78 81 78c53 0 82 -46 82 -103
c0 -71 -36 -127 -69 -161z" />
    <glyph glyph-name="uni1E62" unicode="&#x1e62;" horiz-adv-x="516" 
d="M336 122c0 46 -25 84 -124 134c-90 46 -178 99 -178 208c0 112 91 173 198 173c69 0 104 -25 129 -25c12 0 22 6 24 17h47l9 -150h-38c-44 95 -100 110 -137 110c-55 0 -86 -35 -86 -76c0 -52 41 -84 112 -117c73 -35 199 -86 199 -222s-124 -189 -218 -189
c-81 0 -117 44 -155 44c-23 0 -34 -18 -36 -29h-46l-11 158h46c38 -87 116 -121 172 -121s93 33 93 85zM262 -212c-45 0 -81 37 -81 82s36 80 81 80s80 -35 80 -80s-35 -82 -80 -82z" />
    <glyph glyph-name="T" unicode="T" horiz-adv-x="592" 
d="M537 627h40l-34 -138h-39c9 77 -28 85 -60 85h-69v-484c0 -35 19 -46 86 -50v-40c-114 3 -221 3 -335 0v40c66 4 85 15 85 50v484h-58c-43 0 -66 -15 -98 -85h-40l31 138h40c36 -7 73 -6 130 -6h194c54 0 91 -1 127 6z" />
    <glyph glyph-name="Tbar" unicode="&#x166;" horiz-adv-x="592" 
d="M537 627h40l-34 -138h-39c9 77 -28 85 -60 85h-69v-234h68c11 0 15 -5 15 -16v-25c0 -11 -4 -16 -15 -16h-68v-193c0 -35 19 -46 86 -50v-40c-114 3 -221 3 -335 0v40c66 4 85 15 85 50v193h-61c-11 0 -15 5 -15 16v25c0 11 4 16 15 16h61v234h-58c-43 0 -66 -15 -98 -85
h-40l31 138h40c36 -7 73 -6 130 -6h194c54 0 91 -1 127 6z" />
    <glyph glyph-name="Tcaron" unicode="&#x164;" horiz-adv-x="592" 
d="M304 641h-22l-153 175l26 22l139 -110l138 110l25 -22zM537 627h40l-34 -138h-39c9 77 -28 85 -60 85h-69v-484c0 -35 19 -46 86 -50v-40c-114 3 -221 3 -335 0v40c66 4 85 15 85 50v484h-58c-43 0 -66 -15 -98 -85h-40l31 138h40c36 -7 73 -6 130 -6h194
c54 0 91 -1 127 6z" />
    <glyph glyph-name="uni0162" unicode="&#x162;" horiz-adv-x="592" 
d="M537 627h40l-34 -138h-39c9 77 -28 85 -60 85h-69v-484c0 -35 19 -46 86 -50v-40c-49 1 -97 2 -144 2l-9 -31c43 -14 120 -40 120 -94c0 -52 -72 -77 -130 -77c-65 0 -117 21 -117 67c0 21 17 36 38 36c64 0 12 -76 80 -76c32 0 40 16 40 41c0 32 -28 50 -70 61
c-16 4 -24 10 -24 21c0 12 8 22 27 52c-48 0 -97 -1 -146 -2v40c66 4 85 15 85 50v484h-58c-43 0 -66 -15 -98 -85h-40l31 138h40c36 -7 73 -6 130 -6h194c54 0 91 -1 127 6z" />
    <glyph glyph-name="uni021A" unicode="&#x21a;" horiz-adv-x="592" 
d="M537 627h40l-34 -138h-39c9 77 -28 85 -60 85h-69v-484c0 -35 19 -46 86 -50v-40c-114 3 -221 3 -335 0v40c66 4 85 15 85 50v484h-58c-43 0 -66 -15 -98 -85h-40l31 138h40c36 -7 73 -6 130 -6h194c54 0 91 -1 127 6zM278 -59c53 0 82 -46 82 -103
c0 -71 -36 -127 -69 -161c-8 -8 -16 -8 -23 -2l-11 12c28 31 37 64 37 91c0 3 0 7 -2 12c-5 -1 -10 -2 -18 -2c-48 0 -77 39 -77 75c0 43 35 78 81 78z" />
    <glyph glyph-name="uni1E6C" unicode="&#x1e6c;" horiz-adv-x="592" 
d="M537 627h40l-34 -138h-39c9 77 -28 85 -60 85h-69v-484c0 -35 19 -46 86 -50v-40c-114 3 -221 3 -335 0v40c66 4 85 15 85 50v484h-58c-43 0 -66 -15 -98 -85h-40l31 138h40c36 -7 73 -6 130 -6h194c54 0 91 -1 127 6zM299 -50c45 0 80 -35 80 -80s-35 -82 -80 -82
s-81 37 -81 82s36 80 81 80z" />
    <glyph glyph-name="U" unicode="U" horiz-adv-x="743" 
d="M728 581c-57 -4 -76 -15 -76 -50v-450c0 -25 19 -37 76 -41v-40c-104 3 -176 3 -254 0v40c8 6 14 17 14 53v15c-30 -57 -84 -118 -196 -118c-130 0 -202 80 -202 199v342c0 35 -19 46 -75 50v40c104 -3 211 -3 315 0v-40c-57 -4 -76 -15 -76 -50v-340
c0 -96 30 -150 95 -150c72 0 117 69 139 129v361c0 35 -19 46 -75 50v40c104 -3 211 -3 315 0v-40z" />
    <glyph glyph-name="Uacute" unicode="&#xda;" horiz-adv-x="743" 
d="M457 740l-167 -59l-17 26l135 116c32 27 65 27 85 0c19 -28 5 -68 -36 -83zM728 581c-57 -4 -76 -15 -76 -50v-450c0 -25 19 -37 76 -41v-40c-104 3 -176 3 -254 0v40c8 6 14 17 14 53v15c-30 -57 -84 -118 -196 -118c-130 0 -202 80 -202 199v342c0 35 -19 46 -75 50v40
c104 -3 211 -3 315 0v-40c-57 -4 -76 -15 -76 -50v-340c0 -96 30 -150 95 -150c72 0 117 69 139 129v361c0 35 -19 46 -75 50v40c104 -3 211 -3 315 0v-40z" />
    <glyph glyph-name="Ucircumflex" unicode="&#xdb;" horiz-adv-x="743" 
d="M386 749l-139 -110l-26 22l153 175h22l153 -175l-25 -22zM728 581c-57 -4 -76 -15 -76 -50v-450c0 -25 19 -37 76 -41v-40c-104 3 -176 3 -254 0v40c8 6 14 17 14 53v15c-30 -57 -84 -118 -196 -118c-130 0 -202 80 -202 199v342c0 35 -19 46 -75 50v40
c104 -3 211 -3 315 0v-40c-57 -4 -76 -15 -76 -50v-340c0 -96 30 -150 95 -150c72 0 117 69 139 129v361c0 35 -19 46 -75 50v40c104 -3 211 -3 315 0v-40z" />
    <glyph glyph-name="Udieresis" unicode="&#xdc;" horiz-adv-x="743" 
d="M273 680c-39 0 -72 33 -72 72s33 71 72 71c40 0 71 -32 71 -71s-31 -72 -71 -72zM500 680c-39 0 -72 33 -72 72s33 71 72 71s71 -32 71 -71s-32 -72 -71 -72zM728 581c-57 -4 -76 -15 -76 -50v-450c0 -25 19 -37 76 -41v-40c-104 3 -176 3 -254 0v40c8 6 14 17 14 53v15
c-30 -57 -84 -118 -196 -118c-130 0 -202 80 -202 199v342c0 35 -19 46 -75 50v40c104 -3 211 -3 315 0v-40c-57 -4 -76 -15 -76 -50v-340c0 -96 30 -150 95 -150c72 0 117 69 139 129v361c0 35 -19 46 -75 50v40c104 -3 211 -3 315 0v-40z" />
    <glyph glyph-name="Ugrave" unicode="&#xd9;" horiz-adv-x="743" 
d="M316 740c-41 15 -55 55 -36 83c20 27 53 27 85 0l135 -116l-17 -26zM728 581c-57 -4 -76 -15 -76 -50v-450c0 -25 19 -37 76 -41v-40c-104 3 -176 3 -254 0v40c8 6 14 17 14 53v15c-30 -57 -84 -118 -196 -118c-130 0 -202 80 -202 199v342c0 35 -19 46 -75 50v40
c104 -3 211 -3 315 0v-40c-57 -4 -76 -15 -76 -50v-340c0 -96 30 -150 95 -150c72 0 117 69 139 129v361c0 35 -19 46 -75 50v40c104 -3 211 -3 315 0v-40z" />
    <glyph glyph-name="Uhungarumlaut" unicode="&#x170;" horiz-adv-x="743" 
d="M387 740l-151 -59l-16 26l123 116c29 27 59 27 77 0c17 -28 4 -68 -33 -83zM416 681l-16 26l123 116c29 27 59 27 77 0c17 -28 4 -68 -33 -83zM728 581c-57 -4 -76 -15 -76 -50v-450c0 -25 19 -37 76 -41v-40c-104 3 -176 3 -254 0v40c8 6 14 17 14 53v15
c-30 -57 -84 -118 -196 -118c-130 0 -202 80 -202 199v342c0 35 -19 46 -75 50v40c104 -3 211 -3 315 0v-40c-57 -4 -76 -15 -76 -50v-340c0 -96 30 -150 95 -150c72 0 117 69 139 129v361c0 35 -19 46 -75 50v40c104 -3 211 -3 315 0v-40z" />
    <glyph glyph-name="Umacron" unicode="&#x16a;" horiz-adv-x="743" 
d="M237 702c-12 0 -19 6 -19 19v46c0 13 7 18 19 18h298c13 0 19 -5 19 -18v-46c0 -13 -6 -19 -19 -19h-298zM728 581c-57 -4 -76 -15 -76 -50v-450c0 -25 19 -37 76 -41v-40c-104 3 -176 3 -254 0v40c8 6 14 17 14 53v15c-30 -57 -84 -118 -196 -118
c-130 0 -202 80 -202 199v342c0 35 -19 46 -75 50v40c104 -3 211 -3 315 0v-40c-57 -4 -76 -15 -76 -50v-340c0 -96 30 -150 95 -150c72 0 117 69 139 129v361c0 35 -19 46 -75 50v40c104 -3 211 -3 315 0v-40z" />
    <glyph glyph-name="Uogonek" unicode="&#x172;" horiz-adv-x="743" 
d="M728 581c-57 -4 -76 -15 -76 -50v-450c0 -25 19 -37 76 -41v-40c-104 3 -176 3 -254 0v40c8 6 14 17 14 53v15c-22 -41 -56 -84 -115 -105h8c-76 -19 -92 -59 -92 -87c0 -36 28 -53 54 -53c20 0 41 7 60 31l34 -22c-17 -33 -67 -74 -153 -74c-51 0 -117 17 -117 88
c0 41 35 84 91 106c-108 13 -168 89 -168 197v342c0 35 -19 46 -75 50v40c104 -3 211 -3 315 0v-40c-57 -4 -76 -15 -76 -50v-340c0 -96 30 -150 95 -150c72 0 117 69 139 129v361c0 35 -19 46 -75 50v40c104 -3 211 -3 315 0v-40z" />
    <glyph glyph-name="Uring" unicode="&#x16e;" horiz-adv-x="743" 
d="M386 673c-45 0 -79 36 -79 79c0 44 34 78 79 78s79 -34 79 -78c0 -43 -34 -79 -79 -79zM386 787c-18 0 -35 -18 -35 -35c0 -18 17 -36 35 -36s35 18 35 36c0 17 -17 35 -35 35zM728 581c-57 -4 -76 -15 -76 -50v-450c0 -25 19 -37 76 -41v-40c-104 3 -176 3 -254 0v40
c8 6 14 17 14 53v15c-30 -57 -84 -118 -196 -118c-130 0 -202 80 -202 199v342c0 35 -19 46 -75 50v40c104 -3 211 -3 315 0v-40c-57 -4 -76 -15 -76 -50v-340c0 -96 30 -150 95 -150c72 0 117 69 139 129v361c0 35 -19 46 -75 50v40c104 -3 211 -3 315 0v-40z" />
    <glyph glyph-name="V" unicode="V" horiz-adv-x="702" 
d="M414 621c92 -3 186 -3 278 0v-40c-74 -5 -103 -25 -122 -80l-174 -506h-95l-178 480c-28 75 -50 101 -113 106v40c112 -3 221 -3 334 0v-40c-51 -3 -89 -12 -74 -52l137 -371l115 358c17 51 -30 62 -108 65v40z" />
    <glyph glyph-name="W" unicode="W" horiz-adv-x="999" 
d="M756 621c78 -3 155 -3 233 0v-40c-57 -4 -80 -11 -95 -58l-169 -532h-60l-170 455l-146 -455h-59l-199 532c-18 47 -25 54 -81 58v40c104 -3 216 -3 324 0v-40c-60 -2 -94 -11 -78 -58l113 -334l98 332l-1 2c-17 47 -29 56 -89 58v40c107 -3 221 -3 325 0v-40
c-56 -2 -86 -11 -71 -58l114 -334l99 334c13 47 -32 56 -88 58v40z" />
    <glyph glyph-name="Wacute" unicode="&#x1e82;" horiz-adv-x="999" 
d="M568 740l-167 -59l-17 26l135 116c32 27 65 27 85 0c19 -28 5 -68 -36 -83zM756 621c78 -3 155 -3 233 0v-40c-57 -4 -80 -11 -95 -58l-169 -532h-60l-170 455l-146 -455h-59l-199 532c-18 47 -25 54 -81 58v40c104 -3 216 -3 324 0v-40c-60 -2 -94 -11 -78 -58l113 -334
l98 332l-1 2c-17 47 -29 56 -89 58v40c107 -3 221 -3 325 0v-40c-56 -2 -86 -11 -71 -58l114 -334l99 334c13 47 -32 56 -88 58v40z" />
    <glyph glyph-name="Wcircumflex" unicode="&#x174;" horiz-adv-x="999" 
d="M497 749l-139 -110l-26 22l153 175h22l153 -175l-25 -22zM756 621c78 -3 155 -3 233 0v-40c-57 -4 -80 -11 -95 -58l-169 -532h-60l-170 455l-146 -455h-59l-199 532c-18 47 -25 54 -81 58v40c104 -3 216 -3 324 0v-40c-60 -2 -94 -11 -78 -58l113 -334l98 332l-1 2
c-17 47 -29 56 -89 58v40c107 -3 221 -3 325 0v-40c-56 -2 -86 -11 -71 -58l114 -334l99 334c13 47 -32 56 -88 58v40z" />
    <glyph glyph-name="Wdieresis" unicode="&#x1e84;" horiz-adv-x="999" 
d="M384 680c-39 0 -72 33 -72 72s33 71 72 71c40 0 71 -32 71 -71s-31 -72 -71 -72zM611 680c-39 0 -72 33 -72 72s33 71 72 71s71 -32 71 -71s-32 -72 -71 -72zM756 621c78 -3 155 -3 233 0v-40c-57 -4 -80 -11 -95 -58l-169 -532h-60l-170 455l-146 -455h-59l-199 532
c-18 47 -25 54 -81 58v40c104 -3 216 -3 324 0v-40c-60 -2 -94 -11 -78 -58l113 -334l98 332l-1 2c-17 47 -29 56 -89 58v40c107 -3 221 -3 325 0v-40c-56 -2 -86 -11 -71 -58l114 -334l99 334c13 47 -32 56 -88 58v40z" />
    <glyph glyph-name="Wgrave" unicode="&#x1e80;" horiz-adv-x="999" 
d="M427 740c-41 15 -55 55 -36 83c20 27 53 27 85 0l135 -116l-17 -26zM756 621c78 -3 155 -3 233 0v-40c-57 -4 -80 -11 -95 -58l-169 -532h-60l-170 455l-146 -455h-59l-199 532c-18 47 -25 54 -81 58v40c104 -3 216 -3 324 0v-40c-60 -2 -94 -11 -78 -58l113 -334l98 332
l-1 2c-17 47 -29 56 -89 58v40c107 -3 221 -3 325 0v-40c-56 -2 -86 -11 -71 -58l114 -334l99 334c13 47 -32 56 -88 58v40z" />
    <glyph glyph-name="X" unicode="X" horiz-adv-x="665" 
d="M543 103c27 -43 50 -60 97 -63v-40c-97 3 -200 3 -296 0v40c31 4 61 16 40 50l-83 136l-93 -128c-25 -34 -1 -54 38 -58v-40c-68 3 -135 3 -221 0v40c63 3 96 29 126 69l121 166l-150 246c-28 45 -50 55 -95 60v40c95 -3 185 -3 285 0v-40c-33 -5 -50 -19 -34 -46
l83 -136l92 126c23 32 -6 51 -46 56v40c73 -3 144 -3 217 0v-40c-43 -5 -85 -25 -113 -65l-120 -165z" />
    <glyph glyph-name="Y" unicode="Y" horiz-adv-x="654" 
d="M435 621c69 -4 138 -4 204 0v-40c-41 -5 -74 -19 -97 -64l-134 -258v-158c0 -45 19 -57 79 -62v-39c-107 3 -214 3 -321 0v40c59 4 78 16 78 61v149l-149 271c-19 35 -23 55 -80 60v40c104 -4 211 -4 318 0v-40c-60 -5 -68 -25 -49 -61l106 -200l103 197
c24 45 -19 59 -58 64v40z" />
    <glyph glyph-name="Yacute" unicode="&#xdd;" horiz-adv-x="654" 
d="M395 740l-167 -59l-17 26l135 116c32 27 65 27 85 0c19 -28 5 -68 -36 -83zM435 621c69 -4 138 -4 204 0v-40c-41 -5 -74 -19 -97 -64l-134 -258v-158c0 -45 19 -57 79 -62v-39c-107 3 -214 3 -321 0v40c59 4 78 16 78 61v149l-149 271c-19 35 -23 55 -80 60v40
c104 -4 211 -4 318 0v-40c-60 -5 -68 -25 -49 -61l106 -200l103 197c24 45 -19 59 -58 64v40z" />
    <glyph glyph-name="Ycircumflex" unicode="&#x176;" horiz-adv-x="654" 
d="M324 749l-139 -110l-26 22l153 175h22l153 -175l-25 -22zM435 621c69 -4 138 -4 204 0v-40c-41 -5 -74 -19 -97 -64l-134 -258v-158c0 -45 19 -57 79 -62v-39c-107 3 -214 3 -321 0v40c59 4 78 16 78 61v149l-149 271c-19 35 -23 55 -80 60v40c104 -4 211 -4 318 0v-40
c-60 -5 -68 -25 -49 -61l106 -200l103 197c24 45 -19 59 -58 64v40z" />
    <glyph glyph-name="Ydieresis" unicode="&#x178;" horiz-adv-x="654" 
d="M211 680c-39 0 -72 33 -72 72s33 71 72 71c40 0 71 -32 71 -71s-31 -72 -71 -72zM438 680c-39 0 -72 33 -72 72s33 71 72 71s71 -32 71 -71s-32 -72 -71 -72zM435 621c69 -4 138 -4 204 0v-40c-41 -5 -74 -19 -97 -64l-134 -258v-158c0 -45 19 -57 79 -62v-39
c-107 3 -214 3 -321 0v40c59 4 78 16 78 61v149l-149 271c-19 35 -23 55 -80 60v40c104 -4 211 -4 318 0v-40c-60 -5 -68 -25 -49 -61l106 -200l103 197c24 45 -19 59 -58 64v40z" />
    <glyph glyph-name="Ygrave" unicode="&#x1ef2;" horiz-adv-x="654" 
d="M254 740c-41 15 -55 55 -36 83c20 27 53 27 85 0l135 -116l-17 -26zM435 621c69 -4 138 -4 204 0v-40c-41 -5 -74 -19 -97 -64l-134 -258v-158c0 -45 19 -57 79 -62v-39c-107 3 -214 3 -321 0v40c59 4 78 16 78 61v149l-149 271c-19 35 -23 55 -80 60v40
c104 -4 211 -4 318 0v-40c-60 -5 -68 -25 -49 -61l106 -200l103 197c24 45 -19 59 -58 64v40z" />
    <glyph glyph-name="Z" unicode="Z" horiz-adv-x="605" 
d="M525 48c13 -3 22 -9 22 -19v-29c-176 3 -351 3 -527 0l350 576h-158c-68 0 -91 -28 -118 -93h-48l34 144h54c36 -7 59 -6 117 -6h319l-350 -577h60c88 0 138 18 190 83l48 58h58c-30 -41 -55 -87 -77 -133z" />
    <glyph glyph-name="Zacute" unicode="&#x179;" horiz-adv-x="605" 
d="M188 707l17 -26l167 59c41 15 55 55 36 83c-20 27 -53 27 -85 0zM525 48c13 -3 22 -9 22 -19v-29c-176 3 -351 3 -527 0l350 576h-158c-68 0 -91 -28 -118 -93h-48l34 144h54c36 -7 59 -6 117 -6h319l-350 -577h60c88 0 138 18 190 83l48 58h58c-30 -41 -55 -87 -77 -133
z" />
    <glyph glyph-name="Zcaron" unicode="&#x17d;" horiz-adv-x="605" 
d="M311 641h-22l-153 175l26 22l139 -110l138 110l25 -22zM525 48c13 -3 22 -9 22 -19v-29c-176 3 -351 3 -527 0l350 576h-158c-68 0 -91 -28 -118 -93h-48l34 144h54c36 -7 59 -6 117 -6h319l-350 -577h60c88 0 138 18 190 83l48 58h58c-30 -41 -55 -87 -77 -133z" />
    <glyph glyph-name="Zdotaccent" unicode="&#x17b;" horiz-adv-x="605" 
d="M301 670c-45 0 -81 37 -81 82s36 80 81 80s80 -35 80 -80s-35 -82 -80 -82zM525 48c13 -3 22 -9 22 -19v-29c-176 3 -351 3 -527 0l350 576h-158c-68 0 -91 -28 -118 -93h-48l34 144h54c36 -7 59 -6 117 -6h319l-350 -577h60c88 0 138 18 190 83l48 58h58
c-30 -41 -55 -87 -77 -133z" />
    <glyph glyph-name="uni1E92" unicode="&#x1e92;" horiz-adv-x="605" 
d="M525 48c13 -3 22 -9 22 -19v-29c-176 3 -351 3 -527 0l350 576h-158c-68 0 -91 -28 -118 -93h-48l34 144h54c36 -7 59 -6 117 -6h319l-350 -577h60c88 0 138 18 190 83l48 58h58c-30 -41 -55 -87 -77 -133zM299 -212c-45 0 -81 37 -81 82s36 80 81 80s80 -35 80 -80
s-35 -82 -80 -82z" />
    <glyph glyph-name="a" unicode="a" horiz-adv-x="563" 
d="M478 123c0 -48 26 -66 65 -70v-42c-69 -1 -137 -14 -188 -25c-15 6 -24 16 -28 28l5 60h-10c-11 -19 -54 -88 -150 -88c-75 0 -147 40 -147 134c0 93 72 141 296 189v61c0 80 -19 102 -59 102c-111 0 -26 -156 -142 -156c-46 0 -66 24 -66 57c0 75 103 137 252 137
c86 0 172 -19 172 -142v-245zM236 54c47 0 74 52 85 79v143c-130 -32 -140 -115 -140 -144c0 -45 20 -78 55 -78z" />
    <glyph glyph-name="aacute" unicode="&#xe1;" horiz-adv-x="563" 
d="M345 620l-167 -59l-17 26l135 116c32 27 65 27 85 0c19 -28 5 -68 -36 -83zM478 123c0 -48 26 -66 65 -70v-42c-69 -1 -137 -14 -188 -25c-15 6 -24 16 -28 28l5 60h-10c-11 -19 -54 -88 -150 -88c-75 0 -147 40 -147 134c0 93 72 141 296 189v61c0 80 -19 102 -59 102
c-111 0 -26 -156 -142 -156c-46 0 -66 24 -66 57c0 75 103 137 252 137c86 0 172 -19 172 -142v-245zM236 54c47 0 74 52 85 79v143c-130 -32 -140 -115 -140 -144c0 -45 20 -78 55 -78z" />
    <glyph glyph-name="abreve" unicode="&#x103;" horiz-adv-x="563" 
d="M274 570c-81 0 -148 43 -154 139h69c6 -28 40 -50 85 -50s79 22 85 50h69c-6 -96 -73 -139 -154 -139zM478 123c0 -48 26 -66 65 -70v-42c-69 -1 -137 -14 -188 -25c-15 6 -24 16 -28 28l5 60h-10c-11 -19 -54 -88 -150 -88c-75 0 -147 40 -147 134c0 93 72 141 296 189
v61c0 80 -19 102 -59 102c-111 0 -26 -156 -142 -156c-46 0 -66 24 -66 57c0 75 103 137 252 137c86 0 172 -19 172 -142v-245zM236 54c47 0 74 52 85 79v143c-130 -32 -140 -115 -140 -144c0 -45 20 -78 55 -78z" />
    <glyph glyph-name="uni01CE" unicode="&#x1ce;" horiz-adv-x="563" 
d="M284 521h-22l-153 175l26 22l139 -110l138 110l25 -22zM478 123c0 -48 26 -66 65 -70v-42c-69 -1 -137 -14 -188 -25c-15 6 -24 16 -28 28l5 60h-10c-11 -19 -54 -88 -150 -88c-75 0 -147 40 -147 134c0 93 72 141 296 189v61c0 80 -19 102 -59 102
c-111 0 -26 -156 -142 -156c-46 0 -66 24 -66 57c0 75 103 137 252 137c86 0 172 -19 172 -142v-245zM236 54c47 0 74 52 85 79v143c-130 -32 -140 -115 -140 -144c0 -45 20 -78 55 -78z" />
    <glyph glyph-name="acircumflex" unicode="&#xe2;" horiz-adv-x="563" 
d="M274 629l-139 -110l-26 22l153 175h22l153 -175l-25 -22zM478 123c0 -48 26 -66 65 -70v-42c-69 -1 -137 -14 -188 -25c-15 6 -24 16 -28 28l5 60h-10c-11 -19 -54 -88 -150 -88c-75 0 -147 40 -147 134c0 93 72 141 296 189v61c0 80 -19 102 -59 102
c-111 0 -26 -156 -142 -156c-46 0 -66 24 -66 57c0 75 103 137 252 137c86 0 172 -19 172 -142v-245zM236 54c47 0 74 52 85 79v143c-130 -32 -140 -115 -140 -144c0 -45 20 -78 55 -78z" />
    <glyph glyph-name="adieresis" unicode="&#xe4;" horiz-adv-x="563" 
d="M161 560c-39 0 -72 33 -72 72s33 71 72 71c40 0 71 -32 71 -71s-31 -72 -71 -72zM388 560c-39 0 -72 33 -72 72s33 71 72 71s71 -32 71 -71s-32 -72 -71 -72zM478 123c0 -48 26 -66 65 -70v-42c-69 -1 -137 -14 -188 -25c-15 6 -24 16 -28 28l5 60h-10
c-11 -19 -54 -88 -150 -88c-75 0 -147 40 -147 134c0 93 72 141 296 189v61c0 80 -19 102 -59 102c-111 0 -26 -156 -142 -156c-46 0 -66 24 -66 57c0 75 103 137 252 137c86 0 172 -19 172 -142v-245zM236 54c47 0 74 52 85 79v143c-130 -32 -140 -115 -140 -144
c0 -45 20 -78 55 -78z" />
    <glyph glyph-name="agrave" unicode="&#xe0;" horiz-adv-x="563" 
d="M204 620c-41 15 -55 55 -36 83c20 27 53 27 85 0l135 -116l-17 -26zM478 123c0 -48 26 -66 65 -70v-42c-69 -1 -137 -14 -188 -25c-15 6 -24 16 -28 28l5 60h-10c-11 -19 -54 -88 -150 -88c-75 0 -147 40 -147 134c0 93 72 141 296 189v61c0 80 -19 102 -59 102
c-111 0 -26 -156 -142 -156c-46 0 -66 24 -66 57c0 75 103 137 252 137c86 0 172 -19 172 -142v-245zM236 54c47 0 74 52 85 79v143c-130 -32 -140 -115 -140 -144c0 -45 20 -78 55 -78z" />
    <glyph glyph-name="amacron" unicode="&#x101;" horiz-adv-x="563" 
d="M125 582c-12 0 -19 6 -19 19v46c0 13 7 18 19 18h298c13 0 19 -5 19 -18v-46c0 -13 -6 -19 -19 -19h-298zM478 123c0 -48 26 -66 65 -70v-42c-69 -1 -137 -14 -188 -25c-15 6 -24 16 -28 28l5 60h-10c-11 -19 -54 -88 -150 -88c-75 0 -147 40 -147 134
c0 93 72 141 296 189v61c0 80 -19 102 -59 102c-111 0 -26 -156 -142 -156c-46 0 -66 24 -66 57c0 75 103 137 252 137c86 0 172 -19 172 -142v-245zM236 54c47 0 74 52 85 79v143c-130 -32 -140 -115 -140 -144c0 -45 20 -78 55 -78z" />
    <glyph glyph-name="aogonek" unicode="&#x105;" horiz-adv-x="563" 
d="M543 11c-173 -7 -189 -64 -189 -93c0 -38 28 -55 56 -55c19 0 39 7 58 31l34 -22c-17 -33 -63 -74 -142 -74c-58 0 -128 23 -128 90c0 41 27 84 108 107c-6 5 -11 12 -13 19l5 60h-10c-11 -19 -54 -88 -150 -88c-75 0 -147 40 -147 134c0 93 72 141 296 189v61
c0 80 -19 102 -59 102c-111 0 -26 -156 -142 -156c-46 0 -66 24 -66 57c0 75 103 137 252 137c86 0 172 -19 172 -142v-245c0 -48 26 -66 65 -70v-42zM236 54c47 0 74 52 85 79v143c-130 -32 -140 -115 -140 -144c0 -45 20 -78 55 -78z" />
    <glyph glyph-name="aring" unicode="&#xe5;" horiz-adv-x="563" 
d="M274 553c-45 0 -79 36 -79 79c0 44 34 78 79 78s79 -34 79 -78c0 -43 -34 -79 -79 -79zM274 667c-18 0 -35 -18 -35 -35c0 -18 17 -36 35 -36s35 18 35 36c0 17 -17 35 -35 35zM478 123c0 -48 26 -66 65 -70v-42c-69 -1 -137 -14 -188 -25c-15 6 -24 16 -28 28l5 60h-10
c-11 -19 -54 -88 -150 -88c-75 0 -147 40 -147 134c0 93 72 141 296 189v61c0 80 -19 102 -59 102c-111 0 -26 -156 -142 -156c-46 0 -66 24 -66 57c0 75 103 137 252 137c86 0 172 -19 172 -142v-245zM236 54c47 0 74 52 85 79v143c-130 -32 -140 -115 -140 -144
c0 -45 20 -78 55 -78z" />
    <glyph glyph-name="atilde" unicode="&#xe3;" horiz-adv-x="563" 
d="M130 588h-46c-27 75 26 125 100 125c85 0 139 -55 198 -55c27 0 36 24 32 38h49c33 -87 -36 -129 -90 -129c-85 0 -139 60 -208 60c-35 0 -40 -29 -35 -39zM478 123c0 -48 26 -66 65 -70v-42c-69 -1 -137 -14 -188 -25c-15 6 -24 16 -28 28l5 60h-10
c-11 -19 -54 -88 -150 -88c-75 0 -147 40 -147 134c0 93 72 141 296 189v61c0 80 -19 102 -59 102c-111 0 -26 -156 -142 -156c-46 0 -66 24 -66 57c0 75 103 137 252 137c86 0 172 -19 172 -142v-245zM236 54c47 0 74 52 85 79v143c-130 -32 -140 -115 -140 -144
c0 -45 20 -78 55 -78z" />
    <glyph glyph-name="ae" unicode="&#xe6;" horiz-adv-x="812" 
d="M621 34c43 0 87 16 115 71h42c-40 -86 -116 -116 -190 -116c-36 0 -71 6 -103 19c-47 -5 -93 -14 -130 -22c-15 6 -24 16 -28 28l5 60h-10c-11 -19 -54 -88 -150 -88c-75 0 -147 40 -147 134c0 93 72 141 296 189v61c0 80 -19 102 -59 102c-111 0 -26 -156 -142 -156
c-46 0 -66 24 -66 57c0 75 103 137 252 137c51 0 101 -7 134 -37c41 25 88 37 134 37c131 0 215 -96 215 -200c0 -51 -17 -75 -64 -75h-237c0 -94 29 -201 133 -201zM573 466c-55 0 -85 -70 -85 -190h159c0 120 -17 190 -74 190zM236 54c47 0 74 52 85 79v143
c-130 -32 -140 -115 -140 -144c0 -45 20 -78 55 -78z" />
    <glyph glyph-name="b" unicode="b" horiz-adv-x="623" 
d="M362 510c104 0 226 -85 226 -266c0 -186 -133 -255 -225 -255c-91 0 -104 68 -159 68c-32 0 -56 -24 -61 -57h-25c-24 0 -37 13 -37 36v514c0 43 -21 54 -61 47v40c65 12 137 33 195 67c13 -6 24 -16 29 -29c-6 -48 -6 -86 -6 -150v-66c21 22 63 51 124 51zM346 34
c58 0 73 79 73 172c0 160 -41 254 -106 254c-32 0 -60 -24 -75 -48v-269c4 -62 65 -109 108 -109z" />
    <glyph glyph-name="c" unicode="c" horiz-adv-x="522" 
d="M488 105c-41 -87 -107 -116 -189 -116c-136 0 -269 85 -269 265c0 174 135 256 262 256c108 0 200 -58 200 -139c0 -30 -20 -64 -69 -64c-47 0 -67 32 -67 64c0 45 -4 95 -58 95c-74 0 -102 -89 -102 -200c0 -114 30 -232 137 -232c38 0 87 15 112 71h43z" />
    <glyph glyph-name="cacute" unicode="&#x107;" horiz-adv-x="522" 
d="M160 587l17 -26l167 59c41 15 55 55 36 83c-20 27 -53 27 -85 0zM488 105c-41 -87 -107 -116 -189 -116c-136 0 -269 85 -269 265c0 174 135 256 262 256c108 0 200 -58 200 -139c0 -30 -20 -64 -69 -64c-47 0 -67 32 -67 64c0 45 -4 95 -58 95c-74 0 -102 -89 -102 -200
c0 -114 30 -232 137 -232c38 0 87 15 112 71h43z" />
    <glyph glyph-name="ccaron" unicode="&#x10d;" horiz-adv-x="522" 
d="M283 521h-22l-153 175l26 22l139 -110l138 110l25 -22zM488 105c-41 -87 -107 -116 -189 -116c-136 0 -269 85 -269 265c0 174 135 256 262 256c108 0 200 -58 200 -139c0 -30 -20 -64 -69 -64c-47 0 -67 32 -67 64c0 45 -4 95 -58 95c-74 0 -102 -89 -102 -200
c0 -114 30 -232 137 -232c38 0 87 15 112 71h43z" />
    <glyph glyph-name="ccedilla" unicode="&#xe7;" horiz-adv-x="522" 
d="M333 34c38 0 87 15 112 71h43c-41 -87 -107 -116 -189 -116h-7l-5 -18c43 -14 120 -40 120 -94c0 -52 -72 -77 -130 -77c-65 0 -117 21 -117 67c0 21 17 36 38 36c64 0 12 -76 80 -76c32 0 40 16 40 41c0 32 -28 50 -70 61c-16 4 -24 10 -24 21s6 20 21 44
c-115 19 -215 104 -215 260c0 174 135 256 262 256c108 0 200 -58 200 -139c0 -30 -20 -64 -69 -64c-47 0 -67 32 -67 64c0 45 -4 95 -58 95c-74 0 -102 -89 -102 -200c0 -114 30 -232 137 -232z" />
    <glyph glyph-name="d" unicode="d" horiz-adv-x="623" 
d="M538 123c0 -48 26 -66 65 -70v-42c-69 -1 -138 -14 -187 -25c-17 6 -25 16 -30 28l7 47h-7c-15 -33 -53 -72 -125 -72c-101 0 -231 78 -231 263c0 176 124 258 228 258c76 0 109 -41 123 -55v95c0 43 -21 54 -61 47v40c65 12 136 33 195 67c13 -6 23 -16 29 -29
c-6 -48 -6 -86 -6 -150v-402zM381 131v275c-13 17 -49 60 -95 60c-61 0 -92 -78 -92 -183c0 -149 50 -250 107 -250c44 0 75 58 80 98z" />
    <glyph glyph-name="eth" unicode="&#xf0;" horiz-adv-x="619" 
d="M534 141c0 -38 26 -47 65 -39v-49c-106 -28 -162 -69 -187 -69c-26 0 -38 16 -35 46l5 39c-14 -41 -44 -86 -127 -86c-91 0 -225 86 -225 273c0 164 126 253 223 253c64 0 104 -36 124 -69v75c0 21 -2 39 -7 53l-127 -34v41l105 28c-23 20 -59 20 -105 11v43
c141 34 220 38 259 -13l78 21v-41l-60 -16c10 -29 14 -68 14 -118v-349zM377 139v250c-18 33 -59 72 -101 72c-60 0 -77 -73 -77 -157c0 -170 42 -271 101 -271c43 0 69 50 77 106z" />
    <glyph glyph-name="dcaron" unicode="&#x10f;" horiz-adv-x="705" 
d="M538 123c0 -48 26 -66 65 -70v-42c-69 -1 -138 -14 -187 -25c-17 6 -25 16 -30 28l7 47h-7c-15 -33 -53 -72 -125 -72c-101 0 -231 78 -231 263c0 176 124 258 228 258c76 0 109 -41 123 -55v95c0 43 -21 54 -61 47v40c65 12 136 33 195 67c13 -6 23 -16 29 -29
c-6 -48 -6 -86 -6 -150v-402zM637 688c53 0 82 -46 82 -103c0 -71 -36 -127 -69 -161c-8 -8 -16 -8 -23 -2l-11 12c28 31 37 64 37 91c0 3 0 7 -2 12c-5 -1 -10 -2 -18 -2c-48 0 -77 39 -77 75c0 43 35 78 81 78zM381 131v275c-13 17 -49 60 -95 60c-61 0 -92 -78 -92 -183
c0 -149 50 -250 107 -250c44 0 75 58 80 98z" />
    <glyph glyph-name="dcroat" unicode="&#x111;" horiz-adv-x="623" 
d="M538 123c0 -48 26 -66 65 -70v-42c-69 -1 -138 -14 -187 -25c-17 6 -25 16 -30 28l7 47h-7c-15 -33 -53 -72 -125 -72c-101 0 -231 78 -231 263c0 176 124 258 228 258c22 0 41 -3 56 -9v32h67v17c0 43 -21 54 -61 47v40c65 12 136 33 195 67c13 -6 23 -16 29 -29
c-6 -46 -6 -83 -6 -142h57v-32h-57v-378zM381 501h-66c37 -13 56 -36 66 -46v46zM381 131v275c-13 17 -49 60 -95 60c-61 0 -92 -78 -92 -183c0 -149 50 -250 107 -250c44 0 75 58 80 98z" />
    <glyph glyph-name="uni1E0D" unicode="&#x1e0d;" horiz-adv-x="623" 
d="M538 123c0 -48 26 -66 65 -70v-42c-69 -1 -138 -14 -187 -25c-17 6 -25 16 -30 28l7 47h-7c-15 -33 -53 -72 -125 -72c-101 0 -231 78 -231 263c0 176 124 258 228 258c76 0 109 -41 123 -55v95c0 43 -21 54 -61 47v40c65 12 136 33 195 67c13 -6 23 -16 29 -29
c-6 -48 -6 -86 -6 -150v-402zM381 131v275c-13 17 -49 60 -95 60c-61 0 -92 -78 -92 -183c0 -149 50 -250 107 -250c44 0 75 58 80 98zM311 -50c45 0 80 -35 80 -80s-35 -82 -80 -82s-81 37 -81 82s36 80 81 80z" />
    <glyph glyph-name="e" unicode="e" horiz-adv-x="523" 
d="M482 105c-40 -86 -116 -116 -190 -116c-137 0 -262 93 -262 262c0 173 126 259 248 259c131 0 215 -96 215 -200c0 -51 -17 -75 -64 -75h-237c0 -94 29 -201 133 -201c43 0 87 16 115 71h42zM351 276c0 120 -17 190 -74 190c-55 0 -85 -70 -85 -190h159z" />
    <glyph glyph-name="eacute" unicode="&#xe9;" horiz-adv-x="523" 
d="M164 587l17 -26l167 59c41 15 55 55 36 83c-20 27 -53 27 -85 0zM482 105c-40 -86 -116 -116 -190 -116c-137 0 -262 93 -262 262c0 173 126 259 248 259c131 0 215 -96 215 -200c0 -51 -17 -75 -64 -75h-237c0 -94 29 -201 133 -201c43 0 87 16 115 71h42zM351 276
c0 120 -17 190 -74 190c-55 0 -85 -70 -85 -190h159z" />
    <glyph glyph-name="ecaron" unicode="&#x11b;" horiz-adv-x="523" 
d="M287 521h-22l-153 175l26 22l139 -110l138 110l25 -22zM482 105c-40 -86 -116 -116 -190 -116c-137 0 -262 93 -262 262c0 173 126 259 248 259c131 0 215 -96 215 -200c0 -51 -17 -75 -64 -75h-237c0 -94 29 -201 133 -201c43 0 87 16 115 71h42zM351 276
c0 120 -17 190 -74 190c-55 0 -85 -70 -85 -190h159z" />
    <glyph glyph-name="ecircumflex" unicode="&#xea;" horiz-adv-x="523" 
d="M287 716l153 -175l-25 -22l-138 110l-139 -110l-26 22l153 175h22zM482 105c-40 -86 -116 -116 -190 -116c-137 0 -262 93 -262 262c0 173 126 259 248 259c131 0 215 -96 215 -200c0 -51 -17 -75 -64 -75h-237c0 -94 29 -201 133 -201c43 0 87 16 115 71h42zM351 276
c0 120 -17 190 -74 190c-55 0 -85 -70 -85 -190h159z" />
    <glyph glyph-name="edieresis" unicode="&#xeb;" horiz-adv-x="523" 
d="M164 560c-39 0 -72 33 -72 72s33 71 72 71c40 0 71 -32 71 -71s-31 -72 -71 -72zM391 560c-39 0 -72 33 -72 72s33 71 72 71s71 -32 71 -71s-32 -72 -71 -72zM482 105c-40 -86 -116 -116 -190 -116c-137 0 -262 93 -262 262c0 173 126 259 248 259
c131 0 215 -96 215 -200c0 -51 -17 -75 -64 -75h-237c0 -94 29 -201 133 -201c43 0 87 16 115 71h42zM351 276c0 120 -17 190 -74 190c-55 0 -85 -70 -85 -190h159z" />
    <glyph glyph-name="edotaccent" unicode="&#x117;" horiz-adv-x="523" 
d="M277 550c-45 0 -81 37 -81 82s36 80 81 80s80 -35 80 -80s-35 -82 -80 -82zM482 105c-40 -86 -116 -116 -190 -116c-137 0 -262 93 -262 262c0 173 126 259 248 259c131 0 215 -96 215 -200c0 -51 -17 -75 -64 -75h-237c0 -94 29 -201 133 -201c43 0 87 16 115 71h42z
M351 276c0 120 -17 190 -74 190c-55 0 -85 -70 -85 -190h159z" />
    <glyph glyph-name="egrave" unicode="&#xe8;" horiz-adv-x="523" 
d="M391 587l-135 116c-32 27 -65 27 -85 0c-19 -28 -5 -68 36 -83l167 -59zM482 105c-40 -86 -116 -116 -190 -116c-137 0 -262 93 -262 262c0 173 126 259 248 259c131 0 215 -96 215 -200c0 -51 -17 -75 -64 -75h-237c0 -94 29 -201 133 -201c43 0 87 16 115 71h42z
M351 276c0 120 -17 190 -74 190c-55 0 -85 -70 -85 -190h159z" />
    <glyph glyph-name="emacron" unicode="&#x113;" horiz-adv-x="523" 
d="M109 647c0 13 7 18 19 18h298c13 0 19 -5 19 -18v-46c0 -13 -6 -19 -19 -19h-298c-12 0 -19 6 -19 19v46zM482 105c-40 -86 -116 -116 -190 -116c-137 0 -262 93 -262 262c0 173 126 259 248 259c131 0 215 -96 215 -200c0 -51 -17 -75 -64 -75h-237
c0 -94 29 -201 133 -201c43 0 87 16 115 71h42zM351 276c0 120 -17 190 -74 190c-55 0 -85 -70 -85 -190h159z" />
    <glyph glyph-name="eogonek" unicode="&#x119;" horiz-adv-x="516" 
d="M325 34c43 0 87 16 115 71h42c-27 -59 -71 -91 -120 -106h2l-8 -2c-2 0 -4 -1 -6 -1c-62 -17 -76 -54 -76 -80c0 -36 28 -53 53 -53c20 0 41 7 61 31l33 -22c-17 -33 -67 -74 -153 -74c-51 0 -117 17 -117 88c0 43 38 87 99 106c-120 17 -220 108 -220 259
c0 173 126 259 248 259c131 0 215 -96 215 -200c0 -51 -17 -75 -64 -75h-237c0 -94 29 -201 133 -201zM277 466c-55 0 -85 -70 -85 -190h159c0 120 -17 190 -74 190z" />
    <glyph glyph-name="f" unicode="f" horiz-adv-x="445" 
d="M289 701c87 0 156 -39 156 -96c0 -30 -20 -46 -56 -46c-85 0 -21 98 -87 98c-49 0 -63 -57 -63 -150v-6h99v-46h-99v-378c0 -25 26 -33 64 -37v-40c-94 2 -189 2 -283 0v40c35 4 62 12 62 37v378h-58v46h58v8c0 150 116 192 207 192z" />
    <glyph glyph-name="g" unicode="g" horiz-adv-x="582" 
d="M504 508c39 0 58 -19 58 -58c0 -23 -7 -53 -39 -53c-15 0 -25 7 -38 7c-12 0 -15 -9 -14 -17c3 -12 9 -33 9 -62c0 -109 -96 -173 -219 -173c-59 0 -91 15 -107 15c-13 0 -23 -4 -23 -20c0 -18 15 -29 74 -39l108 -17c142 -22 215 -49 215 -131
c0 -110 -126 -178 -283 -178c-127 0 -225 45 -225 131c0 50 34 80 79 80c34 0 65 -17 65 -57c0 -19 -8 -33 -8 -52c0 -33 33 -63 102 -63c71 0 141 30 141 96c0 32 -15 52 -65 62l-178 33c-99 17 -130 57 -130 99c0 44 33 77 97 83c-51 25 -83 75 -83 136
c0 105 92 180 219 180c81 0 122 -28 162 -63c13 37 38 61 83 61zM259 196c53 0 70 65 70 134s-17 137 -70 137c-54 0 -70 -68 -70 -137s16 -134 70 -134z" />
    <glyph glyph-name="gcommaaccent" unicode="&#x123;" horiz-adv-x="582" 
d="M267 796c8 8 16 8 23 2l11 -12c-28 -31 -37 -64 -37 -91c0 -3 0 -7 2 -12c5 1 10 2 18 2c48 0 77 -39 77 -75c0 -43 -35 -78 -81 -78c-53 0 -82 46 -82 103c0 71 36 127 69 161zM504 508c39 0 58 -19 58 -58c0 -23 -7 -53 -39 -53c-15 0 -25 7 -38 7
c-12 0 -15 -9 -14 -17c3 -12 9 -33 9 -62c0 -109 -96 -173 -219 -173c-59 0 -91 15 -107 15c-13 0 -23 -4 -23 -20c0 -18 15 -29 74 -39l108 -17c142 -22 215 -49 215 -131c0 -110 -126 -178 -283 -178c-127 0 -225 45 -225 131c0 50 34 80 79 80c34 0 65 -17 65 -57
c0 -19 -8 -33 -8 -52c0 -33 33 -63 102 -63c71 0 141 30 141 96c0 32 -15 52 -65 62l-178 33c-99 17 -130 57 -130 99c0 44 33 77 97 83c-51 25 -83 75 -83 136c0 105 92 180 219 180c81 0 122 -28 162 -63c13 37 38 61 83 61zM259 196c53 0 70 65 70 134s-17 137 -70 137
c-54 0 -70 -68 -70 -137s16 -134 70 -134z" />
    <glyph glyph-name="h" unicode="h" horiz-adv-x="642" 
d="M562 77c0 -25 27 -33 65 -37v-40c-95 3 -190 3 -287 0v40c38 3 66 12 66 37v257c0 75 -26 106 -69 106c-59 0 -92 -59 -98 -88v-275c0 -25 26 -33 64 -37v-40c-94 2 -189 2 -283 0v40c35 4 62 12 62 37v473c0 43 -21 54 -62 47v40c66 12 137 33 195 67
c14 -6 24 -16 30 -29c-6 -48 -6 -86 -6 -150v-64l-12 -62c20 38 80 113 185 113c71 0 150 -35 150 -178v-257z" />
    <glyph glyph-name="hbar" unicode="&#x127;" horiz-adv-x="642" 
d="M562 77c0 -25 27 -33 65 -37v-40c-95 3 -190 3 -287 0v40c38 3 66 12 66 37v257c0 75 -26 106 -69 106c-59 0 -92 -59 -98 -88v-275c0 -25 26 -33 64 -37v-40c-94 2 -189 2 -283 0v40c35 4 62 12 62 37v412h-62v34h62v27c0 43 -21 54 -62 47v40c66 12 137 33 195 67
c14 -6 24 -16 30 -29c-6 -48 -6 -86 -6 -150v-2h71v-34h-71v-28l-12 -62c20 38 80 113 185 113c71 0 150 -35 150 -178v-257z" />
    <glyph glyph-name="uni1E25" unicode="&#x1e25;" horiz-adv-x="642" 
d="M562 77c0 -25 27 -33 65 -37v-40c-95 3 -190 3 -287 0v40c38 3 66 12 66 37v257c0 75 -26 106 -69 106c-59 0 -92 -59 -98 -88v-275c0 -25 26 -33 64 -37v-40c-94 2 -189 2 -283 0v40c35 4 62 12 62 37v473c0 43 -21 54 -62 47v40c66 12 137 33 195 67
c14 -6 24 -16 30 -29c-6 -48 -6 -86 -6 -150v-64l-12 -62c20 38 80 113 185 113c71 0 150 -35 150 -178v-257zM320 -50c45 0 80 -35 80 -80s-35 -82 -80 -82s-81 37 -81 82s36 80 81 80z" />
    <glyph glyph-name="i" unicode="i" horiz-adv-x="323" 
d="M158 560c-45 0 -82 37 -82 82s37 80 82 80s80 -35 80 -80s-35 -82 -80 -82zM239 77c0 -25 26 -33 64 -37v-40c-94 2 -189 2 -283 0v40c35 4 62 12 62 37v280c0 44 -21 55 -62 48v40c66 12 137 33 195 67c14 -6 24 -16 30 -29c-6 -48 -6 -86 -6 -151v-255z" />
    <glyph glyph-name="dotlessi" unicode="&#x131;" horiz-adv-x="323" 
d="M239 77c0 -25 26 -33 64 -37v-40c-94 2 -189 2 -283 0v40c35 4 62 12 62 37v280c0 43 -21 54 -62 47v40c66 12 137 33 195 67c14 -6 24 -16 30 -29c-6 -48 -6 -86 -6 -150v-255z" />
    <glyph glyph-name="iacute" unicode="&#xed;" horiz-adv-x="323" 
d="M50 587l17 -26l167 59c41 15 55 55 36 83c-20 27 -53 27 -85 0zM239 77c0 -25 26 -33 64 -37v-40c-94 2 -189 2 -283 0v40c35 4 62 12 62 37v280c0 43 -21 54 -62 47v40c66 12 137 33 195 67c14 -6 24 -16 30 -29c-6 -48 -6 -86 -6 -150v-255z" />
    <glyph glyph-name="icircumflex" unicode="&#xee;" horiz-adv-x="323" 
d="M173 716l153 -175l-25 -22l-138 110l-139 -110l-26 22l153 175h22zM239 77c0 -25 26 -33 64 -37v-40c-94 2 -189 2 -283 0v40c35 4 62 12 62 37v280c0 43 -21 54 -62 47v40c66 12 137 33 195 67c14 -6 24 -16 30 -29c-6 -48 -6 -86 -6 -150v-255z" />
    <glyph glyph-name="idieresis" unicode="&#xef;" horiz-adv-x="323" 
d="M50 560c-39 0 -72 33 -72 72s33 71 72 71c40 0 71 -32 71 -71s-31 -72 -71 -72zM277 560c-39 0 -72 33 -72 72s33 71 72 71s71 -32 71 -71s-32 -72 -71 -72zM239 77c0 -25 26 -33 64 -37v-40c-94 2 -189 2 -283 0v40c35 4 62 12 62 37v280c0 43 -21 54 -62 47v40
c66 12 137 33 195 67c14 -6 24 -16 30 -29c-6 -48 -6 -86 -6 -150v-255z" />
    <glyph glyph-name="igrave" unicode="&#xec;" horiz-adv-x="323" 
d="M277 587l-135 116c-32 27 -65 27 -85 0c-19 -28 -5 -68 36 -83l167 -59zM239 77c0 -25 26 -33 64 -37v-40c-94 2 -189 2 -283 0v40c35 4 62 12 62 37v280c0 43 -21 54 -62 47v40c66 12 137 33 195 67c14 -6 24 -16 30 -29c-6 -48 -6 -86 -6 -150v-255z" />
    <glyph glyph-name="ij" unicode="&#x133;" horiz-adv-x="610" 
d="M158 560c-45 0 -82 37 -82 82s37 80 82 80s80 -35 80 -80s-35 -82 -80 -82zM464 560c-45 0 -82 37 -82 82s37 80 82 80s80 -35 80 -80s-35 -82 -80 -82zM239 77c0 -25 26 -33 64 -37v-40c-94 2 -189 2 -283 0v40c35 4 62 12 62 37v280c0 44 -21 55 -62 48v40
c66 12 137 33 195 67c14 -6 24 -16 30 -29c-6 -48 -6 -86 -6 -151v-255zM521 512c14 -6 24 -16 29 -29c-6 -48 -6 -86 -6 -151v-244c0 -223 -100 -305 -278 -305l-6 46c82 7 128 44 128 177v351c0 44 -21 55 -62 48v40c66 12 137 33 195 67z" />
    <glyph glyph-name="imacron" unicode="&#x12b;" horiz-adv-x="323" 
d="M-5 647c0 13 7 18 19 18h298c13 0 19 -5 19 -18v-46c0 -13 -6 -19 -19 -19h-298c-12 0 -19 6 -19 19v46zM239 77c0 -25 26 -33 64 -37v-40c-94 2 -189 2 -283 0v40c35 4 62 12 62 37v280c0 43 -21 54 -62 47v40c66 12 137 33 195 67c14 -6 24 -16 30 -29
c-6 -48 -6 -86 -6 -150v-255z" />
    <glyph glyph-name="iogonek" unicode="&#x12f;" horiz-adv-x="325" 
d="M163 550c-45 0 -81 37 -81 82s36 80 81 80s80 -35 80 -80s-35 -82 -80 -82zM222 1c-60 -19 -74 -55 -74 -81c0 -36 28 -53 53 -53c21 0 41 7 61 31l33 -22c-17 -33 -67 -74 -153 -74c-51 0 -117 17 -117 88c0 46 43 92 111 111c-39 0 -78 0 -116 -1v40c35 4 62 12 62 37
v280c0 43 -21 54 -62 47v40c66 12 137 33 195 67c14 -6 24 -16 30 -29c-6 -48 -6 -86 -6 -150v-255c0 -25 26 -33 64 -37v-40c-27 1 -54 1 -81 1z" />
    <glyph glyph-name="j" unicode="j" horiz-adv-x="320" 
d="M174 560c-45 0 -82 37 -82 82s37 80 82 80s80 -35 80 -80s-35 -82 -80 -82zM231 512c14 -6 24 -16 29 -29c-6 -48 -6 -86 -6 -151v-244c0 -223 -100 -305 -278 -305l-6 46c82 7 128 44 128 177v351c0 44 -21 55 -62 48v40c66 12 137 33 195 67z" />
    <glyph glyph-name="uni0237" unicode="&#x237;" horiz-adv-x="320" 
d="M231 511c14 -6 24 -16 29 -29c-6 -48 -6 -86 -6 -150v-244c0 -223 -100 -305 -278 -305l-6 46c82 7 128 44 128 177v351c0 43 -21 54 -62 47v40c66 12 137 33 195 67z" />
    <glyph glyph-name="k" unicode="k" horiz-adv-x="603" 
d="M473 114c41 -55 77 -82 120 -87l-37 -44c-63 0 -143 -1 -208 85l-109 137v-128c0 -25 26 -33 64 -37v-40c-94 2 -189 2 -283 0v40c35 4 62 12 62 37v473c0 43 -21 54 -62 47v40c66 12 137 33 195 67c14 -6 24 -16 30 -29c-6 -48 -6 -86 -6 -150v-247c56 42 93 86 118 126
c16 26 -3 45 -45 49v48c82 -3 162 -3 245 0v-48c-41 -4 -63 -21 -96 -47l-128 -105z" />
    <glyph glyph-name="kcommaaccent" unicode="&#x137;" horiz-adv-x="603" 
d="M473 114c41 -55 77 -82 120 -87l-37 -44c-63 0 -143 -1 -208 85l-109 137v-128c0 -25 26 -33 64 -37v-40c-94 2 -189 2 -283 0v40c35 4 62 12 62 37v473c0 43 -21 54 -62 47v40c66 12 137 33 195 67c14 -6 24 -16 30 -29c-6 -48 -6 -86 -6 -150v-247c56 42 93 86 118 126
c16 26 -3 45 -45 49v48c82 -3 162 -3 245 0v-48c-41 -4 -63 -21 -96 -47l-128 -105zM297 -59c53 0 82 -46 82 -103c0 -71 -36 -127 -69 -161c-8 -8 -16 -8 -23 -2l-11 12c28 31 37 64 37 91c0 3 0 7 -2 12c-5 -1 -10 -2 -18 -2c-48 0 -77 39 -77 75c0 43 35 78 81 78z" />
    <glyph glyph-name="l" unicode="l" horiz-adv-x="323" 
d="M239 77c0 -25 26 -33 64 -37v-40c-94 2 -189 2 -283 0v40c35 4 62 12 62 37v473c0 43 -21 54 -62 47v40c66 12 137 33 195 67c14 -6 24 -16 30 -29c-6 -48 -6 -86 -6 -150v-448z" />
    <glyph glyph-name="lacute" unicode="&#x13a;" horiz-adv-x="323" 
d="M49 723l17 -26l167 59c41 15 55 55 36 83c-20 27 -53 27 -85 0zM239 77c0 -25 26 -33 64 -37v-40c-94 2 -189 2 -283 0v40c35 4 62 12 62 37v473c0 43 -21 54 -62 47v40c66 12 137 33 195 67c14 -6 24 -16 30 -29c-6 -48 -6 -86 -6 -150v-448z" />
    <glyph glyph-name="lcaron" unicode="&#x13e;" horiz-adv-x="399" 
d="M239 77c0 -25 26 -33 64 -37v-40c-94 2 -189 2 -283 0v40c35 4 62 12 62 37v473c0 43 -21 54 -62 47v40c66 12 137 33 195 67c14 -6 24 -16 30 -29c-6 -48 -6 -86 -6 -150v-448zM345 414c-8 -8 -16 -8 -23 -2l-11 12c28 31 37 64 37 91c0 3 0 7 -2 12
c-5 -1 -10 -2 -18 -2c-48 0 -77 39 -77 75c0 43 35 78 81 78c53 0 82 -46 82 -103c0 -71 -36 -127 -69 -161z" />
    <glyph glyph-name="lcommaaccent" unicode="&#x13c;" horiz-adv-x="323" 
d="M239 77c0 -25 26 -33 64 -37v-40c-94 2 -189 2 -283 0v40c35 4 62 12 62 37v473c0 43 -21 54 -62 47v40c66 12 137 33 195 67c14 -6 24 -16 30 -29c-6 -48 -6 -86 -6 -150v-448zM159 -323c-8 -8 -16 -8 -23 -2l-11 12c28 31 37 64 37 91c0 3 0 7 -2 12
c-5 -1 -10 -2 -18 -2c-48 0 -77 39 -77 75c0 43 35 78 81 78c53 0 82 -46 82 -103c0 -71 -36 -127 -69 -161z" />
    <glyph glyph-name="ldot" unicode="&#x140;" horiz-adv-x="432" 
d="M239 77c0 -25 26 -33 64 -37v-40c-94 2 -189 2 -283 0v40c35 4 62 12 62 37v473c0 43 -21 54 -62 47v40c66 12 137 33 195 67c14 -6 24 -16 30 -29c-6 -48 -6 -86 -6 -150v-448zM328 319c-41 0 -75 34 -75 76c0 41 34 75 75 75s75 -34 75 -75c0 -42 -34 -76 -75 -76z" />
    <glyph glyph-name="lslash" unicode="&#x142;" horiz-adv-x="311" 
d="M301 334l-69 -21v-236c0 -25 26 -33 64 -37v-40c-94 2 -189 2 -283 0v40c35 4 62 12 62 37v189l-65 -19v48l65 19v236c0 43 -21 54 -62 47v40c66 12 137 33 195 67c14 -6 24 -16 30 -29c-6 -48 -6 -86 -6 -150v-164l69 21v-48z" />
    <glyph glyph-name="m" unicode="m" horiz-adv-x="938" 
d="M858 77c0 -25 27 -33 65 -37v-40c-96 3 -190 3 -287 0v40c38 3 65 12 65 37v257c0 75 -20 106 -61 106c-56 0 -85 -57 -93 -86v-20v-257c0 -25 27 -33 65 -37v-40c-96 3 -190 3 -288 0v40c38 3 66 12 66 37v257c0 75 -20 106 -61 106c-58 0 -86 -59 -94 -88v-275
c0 -25 27 -34 65 -37v-40c-96 3 -190 3 -286 0v40c37 4 64 12 64 37v280c0 43 -24 55 -61 48v40c69 15 123 31 186 67c13 -6 24 -16 29 -29l-13 -84h6c17 36 75 113 179 113c55 0 114 -23 135 -106c22 39 79 106 176 106c70 0 143 -35 143 -178v-257z" />
    <glyph glyph-name="n" unicode="n" horiz-adv-x="639" 
d="M559 77c0 -25 27 -33 65 -37v-40c-96 3 -190 3 -287 0v40c38 3 65 12 65 37v257c0 75 -25 106 -68 106c-58 0 -93 -59 -99 -88v-275c0 -25 27 -34 65 -37v-40c-96 3 -190 3 -286 0v40c37 4 64 12 64 37v280c0 44 -24 55 -61 48v40c69 15 123 31 186 67
c13 -6 24 -16 29 -29l-13 -84h6c19 38 79 113 184 113c71 0 150 -35 150 -178v-257z" />
    <glyph glyph-name="nacute" unicode="&#x144;" horiz-adv-x="639" 
d="M206 587l17 -26l167 59c41 15 55 55 36 83c-20 27 -53 27 -85 0zM559 77c0 -25 27 -33 65 -37v-40c-96 3 -190 3 -287 0v40c38 3 65 12 65 37v257c0 75 -25 106 -68 106c-58 0 -93 -59 -99 -88v-275c0 -25 27 -34 65 -37v-40c-96 3 -190 3 -286 0v40c37 4 64 12 64 37
v280c0 44 -24 55 -61 48v40c69 15 123 31 186 67c13 -6 24 -16 29 -29l-13 -84h6c19 38 79 113 184 113c71 0 150 -35 150 -178v-257z" />
    <glyph glyph-name="ncaron" unicode="&#x148;" horiz-adv-x="639" 
d="M329 521h-22l-153 175l26 22l139 -110l138 110l25 -22zM559 77c0 -25 27 -33 65 -37v-40c-96 3 -190 3 -287 0v40c38 3 65 12 65 37v257c0 75 -25 106 -68 106c-58 0 -93 -59 -99 -88v-275c0 -25 27 -34 65 -37v-40c-96 3 -190 3 -286 0v40c37 4 64 12 64 37v280
c0 44 -24 55 -61 48v40c69 15 123 31 186 67c13 -6 24 -16 29 -29l-13 -84h6c19 38 79 113 184 113c71 0 150 -35 150 -178v-257z" />
    <glyph glyph-name="ncommaaccent" unicode="&#x146;" horiz-adv-x="639" 
d="M559 77c0 -25 27 -33 65 -37v-40c-96 3 -190 3 -287 0v40c38 3 65 12 65 37v257c0 75 -25 106 -68 106c-58 0 -93 -59 -99 -88v-275c0 -25 27 -34 65 -37v-40c-96 3 -190 3 -286 0v40c37 4 64 12 64 37v280c0 44 -24 55 -61 48v40c69 15 123 31 186 67
c13 -6 24 -16 29 -29l-13 -84h6c19 38 79 113 184 113c71 0 150 -35 150 -178v-257zM316 -323c-8 -8 -16 -8 -23 -2l-11 12c28 31 37 64 37 91c0 3 0 7 -2 12c-5 -1 -10 -2 -18 -2c-48 0 -77 39 -77 75c0 43 35 78 81 78c53 0 82 -46 82 -103c0 -71 -36 -127 -69 -161z" />
    <glyph glyph-name="eng" unicode="&#x14b;" horiz-adv-x="619" 
d="M408 512c71 0 151 -35 151 -178v-246c0 -223 -100 -305 -279 -305l-5 46c81 7 127 44 127 177v328c0 75 -26 107 -69 107c-59 0 -92 -60 -98 -89v-275c0 -25 27 -34 65 -37v-40c-96 3 -190 3 -286 0v40c37 4 64 12 64 37v280c0 43 -24 54 -61 47v40c69 15 123 31 186 67
c13 -6 24 -16 29 -29l-13 -83h6c19 38 78 113 183 113z" />
    <glyph glyph-name="ntilde" unicode="&#xf1;" horiz-adv-x="639" 
d="M508 696c33 -87 -36 -129 -90 -129c-85 0 -139 60 -208 60c-35 0 -40 -29 -35 -39h-46c-27 75 26 125 100 125c85 0 139 -55 198 -55c27 0 36 24 32 38h49zM559 77c0 -25 27 -33 65 -37v-40c-96 3 -190 3 -287 0v40c38 3 65 12 65 37v257c0 75 -25 106 -68 106
c-58 0 -93 -59 -99 -88v-275c0 -25 27 -34 65 -37v-40c-96 3 -190 3 -286 0v40c37 4 64 12 64 37v280c0 44 -24 55 -61 48v40c69 15 123 31 186 67c13 -6 24 -16 29 -29l-13 -84h6c19 38 79 113 184 113c71 0 150 -35 150 -178v-257z" />
    <glyph glyph-name="o" unicode="o" 
d="M283 510c111 0 252 -86 252 -262c0 -181 -141 -259 -253 -259c-111 0 -252 86 -252 262c0 181 141 259 253 259zM299 33c49 0 72 67 72 165c0 158 -44 268 -105 268c-49 0 -72 -67 -72 -164c0 -158 44 -269 105 -269z" />
    <glyph glyph-name="oacute" unicode="&#xf3;" 
d="M170 587l17 -26l167 59c41 15 55 55 36 83c-20 27 -53 27 -85 0zM283 510c111 0 252 -86 252 -262c0 -181 -141 -259 -253 -259c-111 0 -252 86 -252 262c0 181 141 259 253 259zM299 33c49 0 72 67 72 165c0 158 -44 268 -105 268c-49 0 -72 -67 -72 -164
c0 -158 44 -269 105 -269z" />
    <glyph glyph-name="ocircumflex" unicode="&#xf4;" 
d="M293 716l153 -175l-25 -22l-138 110l-139 -110l-26 22l153 175h22zM283 510c111 0 252 -86 252 -262c0 -181 -141 -259 -253 -259c-111 0 -252 86 -252 262c0 181 141 259 253 259zM299 33c49 0 72 67 72 165c0 158 -44 268 -105 268c-49 0 -72 -67 -72 -164
c0 -158 44 -269 105 -269z" />
    <glyph glyph-name="odieresis" unicode="&#xf6;" 
d="M170 560c-39 0 -72 33 -72 72s33 71 72 71c40 0 71 -32 71 -71s-31 -72 -71 -72zM397 560c-39 0 -72 33 -72 72s33 71 72 71s71 -32 71 -71s-32 -72 -71 -72zM283 510c111 0 252 -86 252 -262c0 -181 -141 -259 -253 -259c-111 0 -252 86 -252 262c0 181 141 259 253 259
zM299 33c49 0 72 67 72 165c0 158 -44 268 -105 268c-49 0 -72 -67 -72 -164c0 -158 44 -269 105 -269z" />
    <glyph glyph-name="ograve" unicode="&#xf2;" 
d="M397 587l-135 116c-32 27 -65 27 -85 0c-19 -28 -5 -68 36 -83l167 -59zM283 510c111 0 252 -86 252 -262c0 -181 -141 -259 -253 -259c-111 0 -252 86 -252 262c0 181 141 259 253 259zM299 33c49 0 72 67 72 165c0 158 -44 268 -105 268c-49 0 -72 -67 -72 -164
c0 -158 44 -269 105 -269z" />
    <glyph glyph-name="ohungarumlaut" unicode="&#x151;" 
d="M117 587l16 -26l151 59c37 15 50 55 33 83c-18 27 -48 27 -77 0zM297 587l16 -26l151 59c37 15 50 55 33 83c-18 27 -48 27 -77 0zM283 510c111 0 252 -86 252 -262c0 -181 -141 -259 -253 -259c-111 0 -252 86 -252 262c0 181 141 259 253 259zM299 33
c49 0 72 67 72 165c0 158 -44 268 -105 268c-49 0 -72 -67 -72 -164c0 -158 44 -269 105 -269z" />
    <glyph glyph-name="omacron" unicode="&#x14d;" 
d="M115 647c0 13 7 18 19 18h298c13 0 19 -5 19 -18v-46c0 -13 -6 -19 -19 -19h-298c-12 0 -19 6 -19 19v46zM283 510c111 0 252 -86 252 -262c0 -181 -141 -259 -253 -259c-111 0 -252 86 -252 262c0 181 141 259 253 259zM299 33c49 0 72 67 72 165
c0 158 -44 268 -105 268c-49 0 -72 -67 -72 -164c0 -158 44 -269 105 -269z" />
    <glyph glyph-name="oslash" unicode="&#xf8;" 
d="M459 437c45 -43 76 -106 76 -189c0 -181 -141 -259 -253 -259c-43 0 -90 13 -132 39l-29 -38l-43 32l29 39c-45 43 -77 106 -77 190c0 181 141 259 253 259c44 0 92 -13 135 -40l26 34l42 -31zM194 302c0 -42 3 -81 9 -115l144 189c-19 57 -47 90 -81 90
c-49 0 -72 -67 -72 -164zM299 33c49 0 72 67 72 165c0 41 -3 78 -8 112l-144 -190c19 -55 47 -87 80 -87z" />
    <glyph glyph-name="otilde" unicode="&#xf5;" 
d="M472 696c33 -87 -36 -129 -90 -129c-85 0 -139 60 -208 60c-35 0 -40 -29 -35 -39h-46c-27 75 26 125 100 125c85 0 139 -55 198 -55c27 0 36 24 32 38h49zM283 510c111 0 252 -86 252 -262c0 -181 -141 -259 -253 -259c-111 0 -252 86 -252 262c0 181 141 259 253 259z
M299 33c49 0 72 67 72 165c0 158 -44 268 -105 268c-49 0 -72 -67 -72 -164c0 -158 44 -269 105 -269z" />
    <glyph glyph-name="oe" unicode="&#x153;" horiz-adv-x="863" 
d="M673 34c43 0 87 16 115 71h42c-40 -86 -116 -116 -190 -116c-69 0 -134 23 -183 68c-50 -47 -116 -68 -175 -68c-111 0 -252 86 -252 262c0 181 141 259 253 259c57 0 121 -22 170 -67c47 45 111 67 173 67c131 0 215 -96 215 -200c0 -51 -17 -75 -64 -75h-237
c0 -94 29 -201 133 -201zM299 33c49 0 72 67 72 165c0 158 -44 268 -105 268c-49 0 -72 -67 -72 -164c0 -158 44 -269 105 -269zM625 466c-55 0 -85 -70 -85 -190h159c0 120 -17 190 -74 190z" />
    <glyph glyph-name="p" unicode="p" horiz-adv-x="613" 
d="M359 510c102 0 224 -85 224 -263c0 -189 -133 -258 -232 -258c-54 0 -91 22 -118 47v-85c0 -49 23 -57 70 -55v-41c-73 -10 -156 -37 -214 -72c-15 4 -27 16 -32 33c10 14 19 40 19 101v440c0 44 -21 55 -61 48v40c65 12 137 33 194 67c13 -6 24 -16 29 -29
c-1 -8 -2 -16 -2 -23c31 29 74 50 123 50zM340 34c59 0 74 79 74 172c0 160 -37 253 -104 253c-28 0 -54 -16 -76 -38c-1 -26 -1 -54 -1 -89v-176c4 -75 63 -122 107 -122z" />
    <glyph glyph-name="thorn" unicode="&#xfe;" horiz-adv-x="630" 
d="M370 509c88 0 225 -90 225 -273c0 -159 -146 -253 -248 -253c-46 0 -81 22 -107 48v-88c0 -39 26 -44 73 -38v-48c-120 -23 -197 -74 -234 -74c-16 0 -26 8 -26 22c0 29 30 17 30 115v612c0 39 -26 46 -63 40v44c110 24 159 75 188 75c25 0 32 -13 32 -39v-195
c26 27 63 52 130 52zM349 28c62 0 77 79 77 173c0 166 -47 258 -103 258c-32 0 -59 -20 -83 -48v-266c13 -70 64 -117 109 -117z" />
    <glyph glyph-name="q" unicode="q" horiz-adv-x="620" 
d="M265 -11c-105 0 -235 78 -235 263c0 176 124 258 230 258c88 0 105 -62 158 -62c32 0 52 21 57 53h25c25 0 37 -13 37 -36v-514c0 -49 26 -57 73 -54v-40c-91 -8 -165 -45 -197 -74c-15 4 -27 16 -33 33v225c-22 -28 -56 -52 -115 -52zM282 466c-57 0 -89 -78 -89 -185
c0 -147 50 -248 107 -248c40 0 76 45 80 93v229c-12 72 -59 111 -98 111z" />
    <glyph glyph-name="r" unicode="r" horiz-adv-x="486" 
d="M384 512c53 0 92 -28 92 -79c0 -45 -32 -64 -61 -64c-43 0 -60 40 -101 40c-51 0 -71 -67 -75 -89v-243c0 -25 28 -33 67 -37v-40c-94 2 -192 2 -286 0v40c35 4 62 12 62 37v280c0 44 -25 55 -62 48v40c69 15 123 32 186 67c13 -6 23 -16 29 -29l-20 -114h8
c34 84 86 143 161 143z" />
    <glyph glyph-name="racute" unicode="&#x155;" horiz-adv-x="486" 
d="M132 587l17 -26l167 59c41 15 55 55 36 83c-20 27 -53 27 -85 0zM384 512c53 0 92 -28 92 -79c0 -45 -32 -64 -61 -64c-43 0 -60 40 -101 40c-51 0 -71 -67 -75 -89v-243c0 -25 28 -33 67 -37v-40c-94 2 -192 2 -286 0v40c35 4 62 12 62 37v280c0 44 -25 55 -62 48v40
c69 15 123 32 186 67c13 -6 23 -16 29 -29l-20 -114h8c34 84 86 143 161 143z" />
    <glyph glyph-name="rcaron" unicode="&#x159;" horiz-adv-x="486" 
d="M255 521h-22l-153 175l26 22l139 -110l138 110l25 -22zM384 512c53 0 92 -28 92 -79c0 -45 -32 -64 -61 -64c-43 0 -60 40 -101 40c-51 0 -71 -67 -75 -89v-243c0 -25 28 -33 67 -37v-40c-94 2 -192 2 -286 0v40c35 4 62 12 62 37v280c0 44 -25 55 -62 48v40
c69 15 123 32 186 67c13 -6 23 -16 29 -29l-20 -114h8c34 84 86 143 161 143z" />
    <glyph glyph-name="rcommaaccent" unicode="&#x157;" horiz-adv-x="486" 
d="M384 512c53 0 92 -28 92 -79c0 -45 -32 -64 -61 -64c-43 0 -60 40 -101 40c-51 0 -71 -67 -75 -89v-243c0 -25 28 -33 67 -37v-40c-94 2 -192 2 -286 0v40c35 4 62 12 62 37v280c0 44 -25 55 -62 48v40c69 15 123 32 186 67c13 -6 23 -16 29 -29l-20 -114h8
c34 84 86 143 161 143zM157 -323c-8 -8 -16 -8 -23 -2l-11 12c28 31 37 64 37 91c0 3 0 7 -2 12c-5 -1 -10 -2 -18 -2c-48 0 -77 39 -77 75c0 43 35 78 81 78c53 0 82 -46 82 -103c0 -71 -36 -127 -69 -161z" />
    <glyph glyph-name="s" unicode="s" horiz-adv-x="451" 
d="M426 140c0 -95 -94 -154 -180 -154c-70 0 -115 39 -137 39c-10 0 -17 -9 -17 -25h-46l-13 143h36c24 -73 110 -115 162 -115c39 0 64 23 64 60c0 47 -40 68 -92 91c-64 29 -173 73 -173 183c0 90 73 147 168 147c64 0 94 -28 120 -28c16 0 24 9 26 20h41l9 -143h-34
c-38 85 -97 109 -138 109c-43 0 -67 -25 -67 -60c0 -42 38 -65 86 -86c59 -27 185 -71 185 -181z" />
    <glyph glyph-name="sacute" unicode="&#x15b;" horiz-adv-x="451" 
d="M107 587l17 -26l167 59c41 15 55 55 36 83c-20 27 -53 27 -85 0zM426 140c0 -95 -94 -154 -180 -154c-70 0 -115 39 -137 39c-10 0 -17 -9 -17 -25h-46l-13 143h36c24 -73 110 -115 162 -115c39 0 64 23 64 60c0 47 -40 68 -92 91c-64 29 -173 73 -173 183
c0 90 73 147 168 147c64 0 94 -28 120 -28c16 0 24 9 26 20h41l9 -143h-34c-38 85 -97 109 -138 109c-43 0 -67 -25 -67 -60c0 -42 38 -65 86 -86c59 -27 185 -71 185 -181z" />
    <glyph glyph-name="scaron" unicode="&#x161;" horiz-adv-x="451" 
d="M230 521h-22l-153 175l26 22l139 -110l138 110l25 -22zM426 140c0 -95 -94 -154 -180 -154c-70 0 -115 39 -137 39c-10 0 -17 -9 -17 -25h-46l-13 143h36c24 -73 110 -115 162 -115c39 0 64 23 64 60c0 47 -40 68 -92 91c-64 29 -173 73 -173 183c0 90 73 147 168 147
c64 0 94 -28 120 -28c16 0 24 9 26 20h41l9 -143h-34c-38 85 -97 109 -138 109c-43 0 -67 -25 -67 -60c0 -42 38 -65 86 -86c59 -27 185 -71 185 -181z" />
    <glyph glyph-name="scedilla" unicode="&#x15f;" horiz-adv-x="451" 
d="M246 -14h-8l-4 -15c43 -14 120 -40 120 -94c0 -52 -72 -77 -130 -77c-65 0 -117 21 -117 67c0 21 17 36 38 36c64 0 12 -76 80 -76c32 0 40 16 40 41c0 32 -28 50 -70 61c-16 4 -24 10 -24 21s6 20 21 44c-40 11 -67 31 -83 31c-10 0 -17 -9 -17 -25h-46l-13 143h36
c24 -73 110 -115 162 -115c39 0 64 23 64 60c0 47 -40 68 -92 91c-64 29 -173 73 -173 183c0 90 73 147 168 147c64 0 94 -28 120 -28c16 0 24 9 26 20h41l9 -143h-34c-38 85 -97 109 -138 109c-43 0 -67 -25 -67 -60c0 -42 38 -65 86 -86c59 -27 185 -71 185 -181
c0 -95 -94 -154 -180 -154z" />
    <glyph glyph-name="scommaaccent" unicode="&#x219;" horiz-adv-x="451" 
d="M426 140c0 -95 -94 -154 -180 -154c-70 0 -115 39 -137 39c-10 0 -17 -9 -17 -25h-46l-13 143h36c24 -73 110 -115 162 -115c39 0 64 23 64 60c0 47 -40 68 -92 91c-64 29 -173 73 -173 183c0 90 73 147 168 147c64 0 94 -28 120 -28c16 0 24 9 26 20h41l9 -143h-34
c-38 85 -97 109 -138 109c-43 0 -67 -25 -67 -60c0 -42 38 -65 86 -86c59 -27 185 -71 185 -181zM217 -323c-8 -8 -16 -8 -23 -2l-11 12c28 31 37 64 37 91c0 3 0 7 -2 12c-5 -1 -10 -2 -18 -2c-48 0 -77 39 -77 75c0 43 35 78 81 78c53 0 82 -46 82 -103
c0 -71 -36 -127 -69 -161z" />
    <glyph glyph-name="uni1E63" unicode="&#x1e63;" horiz-adv-x="451" 
d="M426 140c0 -95 -94 -154 -180 -154c-70 0 -115 39 -137 39c-10 0 -17 -9 -17 -25h-46l-13 143h36c24 -73 110 -115 162 -115c39 0 64 23 64 60c0 47 -40 68 -92 91c-64 29 -173 73 -173 183c0 90 73 147 168 147c64 0 94 -28 120 -28c16 0 24 9 26 20h41l9 -143h-34
c-38 85 -97 109 -138 109c-43 0 -67 -25 -67 -60c0 -42 38 -65 86 -86c59 -27 185 -71 185 -181zM229 -212c-45 0 -81 37 -81 82s36 80 81 80s80 -35 80 -80s-35 -82 -80 -82z" />
    <glyph glyph-name="germandbls" unicode="&#xdf;" horiz-adv-x="636" 
d="M257 105c0 -77 -37 -105 -88 -105h-149v40c56 4 73 15 73 50v332c0 126 54 199 234 199c172 0 223 -76 223 -151c0 -63 -35 -108 -93 -129c108 -19 159 -73 159 -161c0 -122 -99 -180 -294 -180h-13v40h13c80 0 129 41 129 129c0 90 -52 129 -157 129l-37 -6v-187z
M257 439v-101l21 2c77 8 119 28 119 123c0 65 -17 114 -71 114c-62 0 -69 -63 -69 -138z" />
    <glyph glyph-name="t" unicode="t" horiz-adv-x="369" 
d="M339 33c-23 -22 -61 -40 -117 -40c-91 0 -148 51 -148 162v300h-54v46c98 0 137 38 161 136h50v-136h108v-46h-108v-319c0 -47 8 -86 47 -86c23 0 46 14 61 27v-44z" />
    <glyph glyph-name="tbar" unicode="&#x167;" horiz-adv-x="374" 
d="M344 455h-108v-89h82c11 0 17 -7 17 -18v-15c0 -11 -6 -17 -17 -17h-82v-180c0 -47 8 -86 47 -86c23 0 46 14 61 27v-44c-23 -22 -61 -40 -117 -40c-91 0 -148 51 -148 162v161h-41c-12 0 -18 6 -18 17v15c0 11 6 18 18 18h41v89h-54v46c98 0 137 38 161 136h50v-136h108
v-46z" />
    <glyph glyph-name="tcaron" unicode="&#x165;" horiz-adv-x="483" 
d="M418 380c-8 -8 -16 -8 -23 -2l-11 12c28 31 37 64 37 91c0 3 0 7 -2 12c-5 -1 -10 -2 -18 -2c-48 0 -77 39 -77 75c0 43 35 78 81 78c53 0 82 -46 82 -103c0 -71 -36 -127 -69 -161zM339 33c-23 -22 -61 -40 -117 -40c-91 0 -148 51 -148 162v300h-54v46
c98 0 137 38 161 136h50v-136h108v-46h-108v-319c0 -47 8 -86 47 -86c23 0 46 14 61 27v-44z" />
    <glyph glyph-name="uni0163" unicode="&#x163;" horiz-adv-x="369" 
d="M339 455h-108v-319c0 -47 8 -86 47 -86c23 0 46 14 61 27v-44c-23 -22 -61 -40 -117 -40h-10l-6 -22c43 -14 120 -40 120 -94c0 -52 -72 -77 -130 -77c-65 0 -117 21 -117 67c0 21 17 36 38 36c64 0 12 -76 80 -76c32 0 40 16 40 41c0 32 -28 50 -70 61
c-16 4 -24 10 -24 21c0 12 8 21 25 50c-59 18 -94 68 -94 155v300h-54v46c98 0 137 38 161 136h50v-136h108v-46z" />
    <glyph glyph-name="uni021B" unicode="&#x21b;" horiz-adv-x="369" 
d="M339 33c-23 -22 -61 -40 -117 -40c-91 0 -148 51 -148 162v300h-54v46c98 0 137 38 161 136h50v-136h108v-46h-108v-319c0 -47 8 -86 47 -86c23 0 46 14 61 27v-44zM189 -323c-8 -8 -16 -8 -23 -2l-11 12c28 31 37 64 37 91c0 3 0 7 -2 12c-5 -1 -10 -2 -18 -2
c-48 0 -77 39 -77 75c0 43 35 78 81 78c53 0 82 -46 82 -103c0 -71 -36 -127 -69 -161z" />
    <glyph glyph-name="uni1E6D" unicode="&#x1e6d;" horiz-adv-x="369" 
d="M339 33c-23 -22 -61 -40 -117 -40c-91 0 -148 51 -148 162v300h-54v46c98 0 137 38 161 136h50v-136h108v-46h-108v-319c0 -47 8 -86 47 -86c23 0 46 14 61 27v-44zM195 -212c-45 0 -81 37 -81 82s36 80 81 80s80 -35 80 -80s-35 -82 -80 -82z" />
    <glyph glyph-name="u" unicode="u" horiz-adv-x="632" 
d="M552 123c0 -48 26 -66 65 -70v-42c-69 -1 -137 -14 -188 -25c-15 6 -24 16 -28 28l9 91h-7c-14 -36 -70 -121 -176 -121c-70 0 -154 37 -154 180v259c0 21 -8 29 -28 30l-30 1v40l184 11c16 1 31 -8 31 -28v-304c0 -69 12 -119 60 -119c55 0 93 67 105 104v265
c0 21 -8 29 -28 30l-30 1v40l185 11c14 1 30 -8 30 -28v-354z" />
    <glyph glyph-name="uacute" unicode="&#xfa;" horiz-adv-x="632" 
d="M206 587l17 -26l167 59c41 15 55 55 36 83c-20 27 -53 27 -85 0zM552 123c0 -48 26 -66 65 -70v-42c-69 -1 -137 -14 -188 -25c-15 6 -24 16 -28 28l9 91h-7c-14 -36 -70 -121 -176 -121c-70 0 -154 37 -154 180v259c0 21 -8 29 -28 30l-30 1v40l184 11
c16 1 31 -8 31 -28v-304c0 -69 12 -119 60 -119c55 0 93 67 105 104v265c0 21 -8 29 -28 30l-30 1v40l185 11c14 1 30 -8 30 -28v-354z" />
    <glyph glyph-name="ubreve" unicode="&#x16d;" horiz-adv-x="632" 
d="M319 570c-81 0 -148 43 -154 139h69c6 -28 40 -50 85 -50s79 22 85 50h69c-6 -96 -73 -139 -154 -139zM552 123c0 -48 26 -66 65 -70v-42c-69 -1 -137 -14 -188 -25c-15 6 -24 16 -28 28l9 91h-7c-14 -36 -70 -121 -176 -121c-70 0 -154 37 -154 180v259
c0 21 -8 29 -28 30l-30 1v40l184 11c16 1 31 -8 31 -28v-304c0 -69 12 -119 60 -119c55 0 93 67 105 104v265c0 21 -8 29 -28 30l-30 1v40l185 11c14 1 30 -8 30 -28v-354z" />
    <glyph glyph-name="ucircumflex" unicode="&#xfb;" horiz-adv-x="632" 
d="M329 716l153 -175l-25 -22l-138 110l-139 -110l-26 22l153 175h22zM552 123c0 -48 26 -66 65 -70v-42c-69 -1 -137 -14 -188 -25c-15 6 -24 16 -28 28l9 91h-7c-14 -36 -70 -121 -176 -121c-70 0 -154 37 -154 180v259c0 21 -8 29 -28 30l-30 1v40l184 11
c16 1 31 -8 31 -28v-304c0 -69 12 -119 60 -119c55 0 93 67 105 104v265c0 21 -8 29 -28 30l-30 1v40l185 11c14 1 30 -8 30 -28v-354z" />
    <glyph glyph-name="udieresis" unicode="&#xfc;" horiz-adv-x="632" 
d="M206 560c-39 0 -72 33 -72 72s33 71 72 71c40 0 71 -32 71 -71s-31 -72 -71 -72zM433 560c-39 0 -72 33 -72 72s33 71 72 71s71 -32 71 -71s-32 -72 -71 -72zM552 123c0 -48 26 -66 65 -70v-42c-69 -1 -137 -14 -188 -25c-15 6 -24 16 -28 28l9 91h-7
c-14 -36 -70 -121 -176 -121c-70 0 -154 37 -154 180v259c0 21 -8 29 -28 30l-30 1v40l184 11c16 1 31 -8 31 -28v-304c0 -69 12 -119 60 -119c55 0 93 67 105 104v265c0 21 -8 29 -28 30l-30 1v40l185 11c14 1 30 -8 30 -28v-354z" />
    <glyph glyph-name="ugrave" unicode="&#xf9;" horiz-adv-x="632" 
d="M433 587l-135 116c-32 27 -65 27 -85 0c-19 -28 -5 -68 36 -83l167 -59zM552 123c0 -48 26 -66 65 -70v-42c-69 -1 -137 -14 -188 -25c-15 6 -24 16 -28 28l9 91h-7c-14 -36 -70 -121 -176 -121c-70 0 -154 37 -154 180v259c0 21 -8 29 -28 30l-30 1v40l184 11
c16 1 31 -8 31 -28v-304c0 -69 12 -119 60 -119c55 0 93 67 105 104v265c0 21 -8 29 -28 30l-30 1v40l185 11c14 1 30 -8 30 -28v-354z" />
    <glyph glyph-name="uhungarumlaut" unicode="&#x171;" horiz-adv-x="632" 
d="M153 587l16 -26l151 59c37 15 50 55 33 83c-18 27 -48 27 -77 0zM333 587l16 -26l151 59c37 15 50 55 33 83c-18 27 -48 27 -77 0zM552 123c0 -48 26 -66 65 -70v-42c-69 -1 -137 -14 -188 -25c-15 6 -24 16 -28 28l9 91h-7c-14 -36 -70 -121 -176 -121
c-70 0 -154 37 -154 180v259c0 21 -8 29 -28 30l-30 1v40l184 11c16 1 31 -8 31 -28v-304c0 -69 12 -119 60 -119c55 0 93 67 105 104v265c0 21 -8 29 -28 30l-30 1v40l185 11c14 1 30 -8 30 -28v-354z" />
    <glyph glyph-name="umacron" unicode="&#x16b;" horiz-adv-x="632" 
d="M151 647c0 13 7 18 19 18h298c13 0 19 -5 19 -18v-46c0 -13 -6 -19 -19 -19h-298c-12 0 -19 6 -19 19v46zM552 123c0 -48 26 -66 65 -70v-42c-69 -1 -137 -14 -188 -25c-15 6 -24 16 -28 28l9 91h-7c-14 -36 -70 -121 -176 -121c-70 0 -154 37 -154 180v259
c0 21 -8 29 -28 30l-30 1v40l184 11c16 1 31 -8 31 -28v-304c0 -69 12 -119 60 -119c55 0 93 67 105 104v265c0 21 -8 29 -28 30l-30 1v40l185 11c14 1 30 -8 30 -28v-354z" />
    <glyph glyph-name="uogonek" unicode="&#x173;" horiz-adv-x="632" 
d="M482 -3c-50 -33 -56 -64 -56 -82c0 -35 28 -52 53 -52c21 0 41 7 61 31l33 -22c-17 -33 -66 -74 -153 -74c-51 0 -117 17 -117 88c0 35 25 80 102 120c-2 2 -3 5 -4 8l9 91h-7c-14 -36 -70 -121 -176 -121c-70 0 -154 37 -154 180v259c0 21 -8 29 -28 30l-30 1v40l184 11
c16 1 31 -8 31 -28v-304c0 -69 12 -119 60 -119c55 0 93 67 105 104v265c0 21 -8 29 -28 30l-30 1v40l185 11c14 1 30 -8 30 -28v-354c0 -48 26 -66 65 -70v-42c-47 -1 -94 -7 -135 -14z" />
    <glyph glyph-name="uring" unicode="&#x16f;" horiz-adv-x="632" 
d="M319 553c-45 0 -79 36 -79 79c0 44 34 78 79 78s79 -34 79 -78c0 -43 -34 -79 -79 -79zM319 596c18 0 35 18 35 36c0 17 -17 35 -35 35s-35 -18 -35 -35c0 -18 17 -36 35 -36zM552 123c0 -48 26 -66 65 -70v-42c-69 -1 -137 -14 -188 -25c-15 6 -24 16 -28 28l9 91h-7
c-14 -36 -70 -121 -176 -121c-70 0 -154 37 -154 180v259c0 21 -8 29 -28 30l-30 1v40l184 11c16 1 31 -8 31 -28v-304c0 -69 12 -119 60 -119c55 0 93 67 105 104v265c0 21 -8 29 -28 30l-30 1v40l185 11c14 1 30 -8 30 -28v-354z" />
    <glyph glyph-name="v" unicode="v" horiz-adv-x="586" 
d="M238 -3l-134 389c-16 46 -24 69 -68 72l-21 2v41h280v-41l-19 -2c-30 -3 -40 -23 -23 -72l88 -272l79 273c15 51 -16 71 -53 71l-35 2v41h239v-41l-22 -2c-43 -4 -66 -24 -80 -71l-117 -390h-114z" />
    <glyph glyph-name="w" unicode="w" horiz-adv-x="903" 
d="M649 501h239v-41l-22 -2c-43 -4 -66 -24 -80 -71l-117 -390h-114l-109 316l-94 -316h-114l-134 389c-16 46 -24 67 -68 72l-21 2v41h280v-41l-19 -2c-30 -3 -40 -23 -23 -72l88 -272l80 273c-16 45 -24 66 -68 71l-21 2v41h280v-41l-19 -2c-30 -3 -40 -23 -23 -72
l88 -272l79 273c15 51 -16 71 -53 71l-35 2v41z" />
    <glyph glyph-name="wacute" unicode="&#x1e83;" horiz-adv-x="903" 
d="M523 620l-167 -59l-17 26l135 116c32 27 65 27 85 0c19 -28 5 -68 -36 -83zM649 501h239v-41l-22 -2c-43 -4 -66 -24 -80 -71l-117 -390h-114l-109 316l-94 -316h-114l-134 389c-16 46 -24 67 -68 72l-21 2v41h280v-41l-19 -2c-30 -3 -40 -23 -23 -72l88 -272l80 273
c-16 45 -24 66 -68 71l-21 2v41h280v-41l-19 -2c-30 -3 -40 -23 -23 -72l88 -272l79 273c15 51 -16 71 -53 71l-35 2v41z" />
    <glyph glyph-name="wcircumflex" unicode="&#x175;" horiz-adv-x="903" 
d="M452 629l-139 -110l-26 22l153 175h22l153 -175l-25 -22zM649 501h239v-41l-22 -2c-43 -4 -66 -24 -80 -71l-117 -390h-114l-109 316l-94 -316h-114l-134 389c-16 46 -24 67 -68 72l-21 2v41h280v-41l-19 -2c-30 -3 -40 -23 -23 -72l88 -272l80 273c-16 45 -24 66 -68 71
l-21 2v41h280v-41l-19 -2c-30 -3 -40 -23 -23 -72l88 -272l79 273c15 51 -16 71 -53 71l-35 2v41z" />
    <glyph glyph-name="wdieresis" unicode="&#x1e85;" horiz-adv-x="903" 
d="M339 560c-39 0 -72 33 -72 72s33 71 72 71c40 0 71 -32 71 -71s-31 -72 -71 -72zM566 560c-39 0 -72 33 -72 72s33 71 72 71s71 -32 71 -71s-32 -72 -71 -72zM649 501h239v-41l-22 -2c-43 -4 -66 -24 -80 -71l-117 -390h-114l-109 316l-94 -316h-114l-134 389
c-16 46 -24 67 -68 72l-21 2v41h280v-41l-19 -2c-30 -3 -40 -23 -23 -72l88 -272l80 273c-16 45 -24 66 -68 71l-21 2v41h280v-41l-19 -2c-30 -3 -40 -23 -23 -72l88 -272l79 273c15 51 -16 71 -53 71l-35 2v41z" />
    <glyph glyph-name="wgrave" unicode="&#x1e81;" horiz-adv-x="903" 
d="M382 620c-41 15 -55 55 -36 83c20 27 53 27 85 0l135 -116l-17 -26zM649 501h239v-41l-22 -2c-43 -4 -66 -24 -80 -71l-117 -390h-114l-109 316l-94 -316h-114l-134 389c-16 46 -24 67 -68 72l-21 2v41h280v-41l-19 -2c-30 -3 -40 -23 -23 -72l88 -272l80 273
c-16 45 -24 66 -68 71l-21 2v41h280v-41l-19 -2c-30 -3 -40 -23 -23 -72l88 -272l79 273c15 51 -16 71 -53 71l-35 2v41z" />
    <glyph glyph-name="x" unicode="x" horiz-adv-x="566" 
d="M528 43l18 -3v-40c-89 3 -178 3 -264 0v41l16 2c20 2 19 20 4 45l-48 77l-54 -75c-18 -25 -9 -47 12 -47l37 -2v-41c-75 3 -154 3 -229 0v40l16 3c52 8 74 24 105 65l79 110l-119 188c-23 37 -41 50 -64 52l-18 3v40h270v-41l-15 -1c-20 -2 -27 -19 -8 -49l44 -68l50 69
c18 25 3 47 -22 48l-28 1v41h227v-40l-14 -3c-53 -8 -76 -24 -105 -65l-74 -103l125 -195c26 -42 35 -48 59 -52z" />
    <glyph glyph-name="y" unicode="y" horiz-adv-x="598" 
d="M373 501h210v-41l-33 -2c-34 -1 -45 -29 -60 -69l-240 -604h-60l88 204l-178 402c-18 41 -32 66 -53 67l-32 2v41h278v-41l-29 -2c-26 -1 -34 -27 -17 -68l98 -237l96 236c17 43 1 67 -32 69l-36 2v41z" />
    <glyph glyph-name="yacute" unicode="&#xfd;" horiz-adv-x="598" 
d="M369 620l-167 -59l-17 26l135 116c32 27 65 27 85 0c19 -28 5 -68 -36 -83zM373 501h210v-41l-33 -2c-34 -1 -45 -29 -60 -69l-240 -604h-60l88 204l-178 402c-18 41 -32 66 -53 67l-32 2v41h278v-41l-29 -2c-26 -1 -34 -27 -17 -68l98 -237l96 236c17 43 1 67 -32 69
l-36 2v41z" />
    <glyph glyph-name="ycircumflex" unicode="&#x177;" horiz-adv-x="598" 
d="M298 629l-139 -110l-26 22l153 175h22l153 -175l-25 -22zM373 501h210v-41l-33 -2c-34 -1 -45 -29 -60 -69l-240 -604h-60l88 204l-178 402c-18 41 -32 66 -53 67l-32 2v41h278v-41l-29 -2c-26 -1 -34 -27 -17 -68l98 -237l96 236c17 43 1 67 -32 69l-36 2v41z" />
    <glyph glyph-name="ydieresis" unicode="&#xff;" horiz-adv-x="598" 
d="M185 560c-39 0 -72 33 -72 72s33 71 72 71c40 0 71 -32 71 -71s-31 -72 -71 -72zM412 560c-39 0 -72 33 -72 72s33 71 72 71s71 -32 71 -71s-32 -72 -71 -72zM373 501h210v-41l-33 -2c-34 -1 -45 -29 -60 -69l-240 -604h-60l88 204l-178 402c-18 41 -32 66 -53 67l-32 2
v41h278v-41l-29 -2c-26 -1 -34 -27 -17 -68l98 -237l96 236c17 43 1 67 -32 69l-36 2v41z" />
    <glyph glyph-name="ygrave" unicode="&#x1ef3;" horiz-adv-x="598" 
d="M228 620c-41 15 -55 55 -36 83c20 27 53 27 85 0l135 -116l-17 -26zM373 501h210v-41l-33 -2c-34 -1 -45 -29 -60 -69l-240 -604h-60l88 204l-178 402c-18 41 -32 66 -53 67l-32 2v41h278v-41l-29 -2c-26 -1 -34 -27 -17 -68l98 -237l96 236c17 43 1 67 -32 69l-36 2v41z
" />
    <glyph glyph-name="z" unicode="z" horiz-adv-x="500" 
d="M468 151l-35 -151h-386c-27 0 -35 22 -20 45l269 417l-115 -1c-60 0 -73 -25 -107 -87h-37l35 133h53c36 -7 59 -6 110 -6c87 0 153 0 245 2l-297 -463l110 1c59 0 92 22 136 110h39z" />
    <glyph glyph-name="zacute" unicode="&#x17a;" horiz-adv-x="500" 
d="M137 587l17 -26l167 59c41 15 55 55 36 83c-20 27 -53 27 -85 0zM468 151l-35 -151h-386c-27 0 -35 22 -20 45l269 417l-115 -1c-60 0 -73 -25 -107 -87h-37l35 133h53c36 -7 59 -6 110 -6c87 0 153 0 245 2l-297 -463l110 1c59 0 92 22 136 110h39z" />
    <glyph glyph-name="zcaron" unicode="&#x17e;" horiz-adv-x="500" 
d="M260 521h-22l-153 175l26 22l139 -110l138 110l25 -22zM468 151l-35 -151h-386c-27 0 -35 22 -20 45l269 417l-115 -1c-60 0 -73 -25 -107 -87h-37l35 133h53c36 -7 59 -6 110 -6c87 0 153 0 245 2l-297 -463l110 1c59 0 92 22 136 110h39z" />
    <glyph glyph-name="zdotaccent" unicode="&#x17c;" horiz-adv-x="500" 
d="M250 550c-45 0 -81 37 -81 82s36 80 81 80s80 -35 80 -80s-35 -82 -80 -82zM468 151l-35 -151h-386c-27 0 -35 22 -20 45l269 417l-115 -1c-60 0 -73 -25 -107 -87h-37l35 133h53c36 -7 59 -6 110 -6c87 0 153 0 245 2l-297 -463l110 1c59 0 92 22 136 110h39z" />
    <glyph glyph-name="uni1E93" unicode="&#x1e93;" horiz-adv-x="500" 
d="M468 151l-35 -151h-386c-27 0 -35 22 -20 45l269 417l-115 -1c-60 0 -73 -25 -107 -87h-37l35 133h53c36 -7 59 -6 110 -6c87 0 153 0 245 2l-297 -463l110 1c59 0 92 22 136 110h39zM254 -212c-45 0 -81 37 -81 82s36 80 81 80s80 -35 80 -80s-35 -82 -80 -82z" />
    <glyph glyph-name="f_b" horiz-adv-x="984" 
d="M722 510c105 0 227 -85 227 -266c0 -186 -133 -255 -225 -255c-91 0 -104 68 -159 68c-33 0 -56 -24 -61 -57h-25c-25 0 -37 13 -37 36v469c0 75 -12 150 -104 150s-103 -72 -104 -154h99v-46h-99v-374c0 -25 27 -33 65 -37v-44c-94 3 -190 3 -284 0v44c35 4 62 12 62 37
v374h-58v46h58c4 131 105 198 264 198c160 0 258 -67 258 -204v-36c21 22 63 51 123 51zM707 34c58 0 73 79 73 172c0 160 -41 254 -106 254c-33 0 -60 -24 -75 -48v-269c3 -62 65 -109 108 -109z" />
    <glyph glyph-name="f_h" horiz-adv-x="1003" 
d="M923 77c0 -25 27 -33 65 -37v-40c-96 3 -190 3 -288 0v40c38 3 66 12 66 37v257c0 75 -26 107 -69 107c-60 0 -93 -60 -98 -89v-275c0 -25 27 -34 65 -37v-40c-96 3 -190 3 -286 0v40c36 4 64 12 64 37v428c0 75 -12 150 -104 150s-103 -72 -104 -154h99v-46h-99v-374
c0 -25 27 -33 65 -37v-44c-94 3 -190 3 -284 0v44c35 4 62 12 62 37v374h-58v46h58c4 131 105 198 264 198c160 0 258 -67 258 -204l-17 -96h7c19 38 78 113 183 113c71 0 151 -35 151 -178v-257z" />
    <glyph glyph-name="f_k" horiz-adv-x="964" 
d="M833 114c42 -55 77 -82 121 -87l-38 -44c-63 0 -142 -1 -208 85l-109 137v-128c0 -25 26 -33 64 -37v-40c-94 2 -189 2 -283 0v40c35 4 62 12 62 37v428c0 75 -12 150 -104 150s-103 -72 -104 -154h99v-46h-99v-374c0 -25 27 -33 65 -37v-44c-94 3 -190 3 -284 0v44
c35 4 62 12 62 37v374h-58v46h58c4 131 105 198 264 198c160 0 258 -67 258 -204v-217c56 42 92 86 118 126c16 26 -3 45 -45 49v48c82 -3 162 -3 245 0v-48c-40 -4 -63 -21 -96 -47l-127 -105z" />
    <glyph glyph-name="a.sc" horiz-adv-x="652" 
d="M524 146c28 -74 50 -97 113 -102v-44c-113 3 -215 3 -327 0v44c52 3 82 9 67 49l-18 47h-159l-15 -44c-14 -42 24 -49 101 -52v-44c-90 3 -180 3 -271 0v44c74 5 103 21 119 67l146 430h96zM215 186h127l-68 180z" />
    <glyph glyph-name="b.sc" horiz-adv-x="656" 
d="M443 297c130 -22 178 -76 178 -141c0 -95 -94 -156 -288 -156h-303v44c56 4 73 11 73 36v382c0 23 -19 31 -65 35v44c102 -4 192 0 240 0c218 0 277 -71 277 -134c0 -51 -28 -83 -112 -110zM267 496v-197c101 21 137 46 137 113c0 40 -26 84 -94 84h-43zM333 49
c78 0 124 38 124 112c0 59 -35 104 -129 105l-61 -15v-166c0 -25 3 -36 48 -36h18z" />
    <glyph glyph-name="c.sc" horiz-adv-x="642" 
d="M518 170h99c-29 -52 -59 -117 -65 -169c-36 8 -50 8 -63 8c-65 0 -72 -25 -150 -25c-179 0 -299 110 -299 288c0 164 120 285 295 285c72 0 103 -25 158 -25c13 0 23 0 55 8c4 -59 18 -118 43 -176h-86c-41 84 -100 144 -177 144c-88 0 -117 -91 -117 -206
c0 -160 49 -269 143 -269c76 0 115 62 164 137z" />
    <glyph glyph-name="d.sc" horiz-adv-x="684" 
d="M313 541c195 0 331 -98 331 -270c0 -228 -212 -271 -261 -271c-59 0 -114 18 -198 18c-64 0 -108 -11 -155 -18v45c50 11 73 19 73 49v359c0 34 -19 40 -65 44v44c102 -4 184 0 275 0zM340 44c90 -3 121 114 121 232c0 129 -52 219 -156 219c-5 0 -19 0 -38 -2v-416
c0 -30 36 -32 73 -33z" />
    <glyph glyph-name="e.sc" horiz-adv-x="567" 
d="M532 163c-19 -57 -28 -111 -27 -164c-167 6 -317 6 -475 0v43c56 3 73 12 73 37v382c0 25 -17 32 -73 36v44h456c13 0 15 -3 17 -18l16 -105h-60l-5 7c-27 47 -43 67 -102 67h-66c-11 0 -19 -7 -19 -18v-163h94c50 0 67 15 76 58h38c-5 -59 -5 -109 0 -169h-38
c-9 42 -24 62 -76 62h-94v-194c0 -10 8 -18 19 -18h30c80 0 113 11 139 65l21 48h56z" />
    <glyph glyph-name="f.sc" horiz-adv-x="547" 
d="M437 365h38c-5 -60 -5 -110 0 -170h-38c-9 42 -24 62 -76 62h-94v-175c0 -25 17 -34 74 -38v-44c-104 3 -207 3 -311 0v44c56 4 73 13 73 38v379c0 25 -17 32 -73 36v44h453c13 0 15 -3 17 -18l17 -114h-56l-6 9c-32 53 -48 74 -107 74h-62c-11 0 -19 -7 -19 -18v-168h94
c50 0 67 15 76 59z" />
    <glyph glyph-name="g.sc" horiz-adv-x="678" 
d="M372 297c102 -2 173 -2 276 0v-45l-19 -2c-38 -5 -36 -51 -36 -110c0 -24 1 -50 4 -82l18 -2c12 -1 16 -6 16 -18v-29c-22 3 -45 3 -62 3c-114 0 -137 -28 -230 -28c-181 0 -299 110 -299 288c0 164 120 285 295 285c72 0 103 -25 158 -25c13 0 23 0 55 8
c4 -59 18 -118 43 -176h-86c-41 84 -100 144 -177 144c-88 0 -117 -91 -117 -206c0 -160 49 -269 143 -269c89 0 95 45 95 143c0 50 0 71 -42 73l-35 3v45z" />
    <glyph glyph-name="h.sc" horiz-adv-x="729" 
d="M699 497c-57 -4 -76 -12 -76 -37v-379c0 -25 19 -33 76 -37v-44c-104 3 -211 3 -315 0v44c56 4 75 12 75 37v168h-190v-168c0 -25 19 -33 76 -37v-44c-104 3 -211 3 -315 0v44c56 4 75 12 75 37v379c0 25 -19 33 -75 37v44c104 -3 211 -3 315 0v-44
c-57 -4 -76 -12 -76 -37v-166h190v166c0 25 -19 33 -75 37v44c104 -3 211 -3 315 0v-44z" />
    <glyph glyph-name="i.sc" horiz-adv-x="375" 
d="M269 81c0 -25 19 -33 76 -37v-44c-104 3 -211 3 -315 0v44c56 4 75 12 75 37v379c0 25 -19 33 -75 37v44c104 -3 211 -3 315 0v-44c-57 -4 -76 -12 -76 -37v-379z" />
    <glyph glyph-name="j.sc" horiz-adv-x="385" 
d="M37 541c104 -3 211 -3 315 0v-44c-56 -4 -75 -12 -75 -37v-318c0 -237 -108 -319 -297 -319v46c82 0 133 19 133 190v401c0 25 -19 33 -76 37v44z" />
    <glyph glyph-name="k.sc" horiz-adv-x="722" 
d="M544 147c34 -46 90 -114 148 -120l-37 -44c-77 0 -160 5 -232 101l-96 129l-58 -64v-68c0 -25 19 -33 76 -37v-44c-104 3 -211 3 -315 0v44c56 4 75 12 75 37v379c0 25 -19 33 -75 37v44c104 -3 211 -3 315 0v-44c-57 -4 -76 -12 -76 -37v-229l204 221
c16 18 -15 40 -73 45v44c83 -3 165 -3 249 0v-44c-62 -5 -89 -29 -108 -49l-121 -133z" />
    <glyph glyph-name="l.sc" horiz-adv-x="556" 
d="M484 184h52c-23 -64 -35 -125 -34 -184c-166 3 -312 3 -470 0v42c56 4 73 13 73 38v380c0 25 -19 33 -75 37v44c104 -3 211 -3 315 0v-44c-57 -4 -76 -12 -76 -37v-393c0 -10 8 -18 19 -18h26c80 0 112 12 138 67z" />
    <glyph glyph-name="m.sc" horiz-adv-x="826" 
d="M731 81c0 -25 19 -33 75 -37v-44c-103 3 -201 3 -301 0v44c53 4 62 12 62 37v319l-181 -400l-201 399v-318c0 -25 44 -32 106 -37v-44c-92 3 -179 3 -271 0v44c60 5 113 12 113 37v360c0 26 -38 52 -94 56v44c79 -3 160 -3 238 0l148 -296l138 296c87 -3 157 -3 245 0
v-45c-58 -3 -77 -10 -77 -35v-380z" />
    <glyph glyph-name="n.sc" horiz-adv-x="674" 
d="M396 541c92 -3 176 -3 258 0v-44c-52 -5 -105 -12 -105 -37v-460h-51l-322 399v-318c0 -25 40 -32 102 -37v-44c-92 3 -176 3 -258 0v44c51 5 103 12 103 37v362c0 21 -37 50 -94 54v44c80 -3 146 -3 225 0l243 -299v218c0 25 -40 32 -101 37v44z" />
    <glyph glyph-name="o.sc" horiz-adv-x="651" 
d="M326 557c167 0 285 -120 285 -287c0 -163 -120 -286 -286 -286c-167 0 -285 120 -285 286c0 164 121 287 286 287zM341 34c68 0 101 76 101 206c0 140 -47 267 -132 267c-67 0 -100 -76 -100 -207c0 -139 46 -266 131 -266z" />
    <glyph glyph-name="oe.sc" horiz-adv-x="951" 
d="M916 163c-19 -57 -28 -111 -27 -164c-162 6 -308 6 -461 1c-22 -8 -44 -16 -89 -16c-179 0 -299 115 -299 293c0 154 120 280 295 280c43 0 71 -9 99 -16h436c13 0 15 -3 17 -18l16 -105h-60l-5 7c-27 47 -43 67 -102 67h-66c-11 0 -19 -7 -19 -18v-163h94
c50 0 67 15 76 58h38c-5 -59 -5 -109 0 -169h-38c-9 42 -24 62 -76 62h-94v-194c0 -10 8 -18 19 -18h30c80 0 113 11 139 65l21 48h56zM211 302c0 -160 49 -269 143 -269c59 0 96 38 133 90v274c-40 66 -93 111 -159 111c-88 0 -117 -91 -117 -206z" />
    <glyph glyph-name="p.sc" horiz-adv-x="623" 
d="M267 172v-92c0 -25 17 -32 74 -36v-44c-104 3 -207 3 -311 0v44c56 4 73 11 73 36v382c0 23 -19 31 -65 35v44c102 -4 204 0 273 0c215 0 287 -66 287 -178c0 -107 -94 -182 -316 -191h-15zM267 220l15 1c111 3 164 48 164 146c0 79 -35 129 -113 129c-25 0 -49 0 -66 -1
v-275z" />
    <glyph glyph-name="q.sc" horiz-adv-x="669" 
d="M616 -69h70c0 -98 -58 -176 -154 -176c-119 0 -140 120 -236 120c-40 0 -75 -21 -86 -37h-131c22 46 112 109 248 146c-174 0 -292 114 -292 290c0 156 121 283 293 283c167 0 290 -126 290 -284c0 -128 -83 -232 -193 -272c-51 -20 -180 -79 -216 -117
c27 14 60 29 112 29c91 0 140 -41 205 -41c53 0 83 23 90 59zM205 300c0 -139 46 -266 135 -266c74 0 108 66 108 202c0 143 -47 271 -136 271c-74 0 -107 -76 -107 -207z" />
    <glyph glyph-name="r.sc" horiz-adv-x="670" 
d="M496 162c46 -75 91 -121 149 -126l-27 -44c-69 0 -171 -5 -251 119l-42 64l-43 -3h-15v-92c0 -25 17 -32 74 -36v-44c-104 3 -207 3 -311 0v44c56 4 73 11 73 36v382c0 23 -19 31 -65 35v44c102 -4 204 0 273 0c215 0 287 -66 287 -178c0 -69 -40 -125 -128 -159z
M267 220l15 1c111 3 164 48 164 146c0 79 -35 129 -113 129c-25 0 -49 0 -66 -1v-275z" />
    <glyph glyph-name="s.sc" horiz-adv-x="520" 
d="M340 94c0 49 -45 74 -117 111c-89 45 -180 86 -180 195c0 104 95 156 198 156c72 0 105 -25 130 -25c12 0 22 6 24 17h47l9 -150l-29 1c-19 1 -29 5 -38 25c-28 60 -77 84 -116 84c-49 0 -80 -26 -80 -64c0 -47 46 -65 116 -99c72 -37 191 -90 191 -207
c0 -126 -119 -153 -194 -153c-95 0 -139 40 -172 40c-26 0 -32 -14 -34 -26h-49l-11 159h37c20 0 30 -4 35 -21c19 -66 90 -100 155 -100c48 0 78 15 78 57z" />
    <glyph glyph-name="t.sc" horiz-adv-x="600" 
d="M526 547h54l-39 -138h-52c11 77 -10 82 -44 82h-64v-410c0 -25 19 -33 75 -37v-44c-103 3 -210 3 -314 0v44c56 4 75 12 75 37v410h-66c-33 0 -46 -12 -78 -82h-53l34 138h54c36 -7 59 -6 117 -6h186c56 0 79 -1 115 6z" />
    <glyph glyph-name="u.sc" horiz-adv-x="753" 
d="M723 497c-57 -4 -76 -12 -76 -37v-379c0 -25 19 -33 76 -37v-44c-104 3 -176 3 -254 0v44c8 6 14 11 14 37v27c-30 -57 -83 -118 -178 -118c-132 0 -205 70 -205 199v271c0 25 -19 33 -75 37v44c104 -3 216 -3 320 0v-44c-56 -4 -80 -12 -80 -37v-269
c0 -106 25 -151 80 -151c65 0 113 67 138 130v290c0 25 -24 33 -80 37v44c104 -3 216 -3 320 0v-44z" />
    <glyph glyph-name="v.sc" horiz-adv-x="652" 
d="M128 395c-29 75 -50 97 -113 102v44c112 -3 215 -3 327 0v-44c-52 -3 -82 -8 -67 -48l103 -274l89 270c13 42 -24 49 -102 52v44c91 -3 180 -3 272 0v-44c-74 -5 -104 -21 -120 -67l-145 -430h-96z" />
    <glyph glyph-name="w.sc" horiz-adv-x="998" 
d="M712 541c91 -3 180 -3 271 0v-44c-73 -5 -103 -21 -119 -67l-145 -430h-96l-133 351l-118 -351h-96l-148 395c-29 75 -50 97 -113 102v44c112 -3 215 -3 327 0v-44c-52 -3 -82 -8 -67 -48l103 -274l82 253c-22 49 -45 65 -98 69v44c112 -3 214 -3 327 0v-44
c-52 -3 -82 -8 -67 -48l103 -274l89 270c13 42 -24 49 -102 52v44z" />
    <glyph glyph-name="x.sc" horiz-adv-x="653" 
d="M537 96c26 -36 45 -49 91 -52v-44c-97 3 -200 3 -294 0v44c29 4 61 14 48 32l-87 121l-96 -111c-18 -21 8 -38 47 -42v-44c-68 3 -135 3 -221 0v44c63 3 94 28 121 58l119 138l-150 208c-27 36 -45 44 -90 49v44c95 -3 186 -3 281 0v-44c-29 -5 -47 -16 -38 -28l89 -123
l97 113c14 17 -17 33 -57 38v44c73 -3 144 -3 217 0v-44c-43 -5 -81 -23 -108 -54l-119 -139z" />
    <glyph glyph-name="y.sc" horiz-adv-x="661" 
d="M443 541c66 -4 132 -4 198 0v-44c-41 -5 -63 -15 -85 -52l-142 -257v-107c0 -25 19 -33 75 -38v-43c-103 3 -211 3 -314 0v44c56 4 75 12 75 37v105l-159 270c-12 20 -14 36 -71 41v44c104 -4 211 -4 315 0v-44c-57 -5 -65 -21 -54 -41l114 -198l104 187
c21 37 -19 47 -56 52v44z" />
    <glyph glyph-name="z.sc" horiz-adv-x="578" 
d="M498 48c13 -3 21 -9 21 -19v-29c-176 3 -327 3 -499 0l326 496h-154c-42 0 -53 -28 -83 -87h-62l35 138h53c36 -7 59 -6 117 -6h291l-327 -497h57c79 0 93 22 127 63l68 78h80c-30 -41 -55 -87 -77 -133z" />
    <glyph glyph-name="ordfeminine" unicode="&#xaa;" horiz-adv-x="358" 
d="M299 393c0 -7 -1 -11 1 -11c5 0 14 7 34 16v-56c-47 -19 -56 -20 -72 -20c-17 0 -33 11 -43 28c-22 -18 -53 -28 -87 -28c-53 0 -108 27 -108 81c0 48 35 91 183 113v1c0 28 -3 73 -28 73c-34 0 -39 -7 -43 -41c-3 -21 -30 -32 -55 -32c-27 0 -41 16 -41 38
c0 51 74 77 133 77c99 0 126 -40 126 -114v-125zM147 374c32 0 46 25 60 51v47c-82 -15 -88 -44 -88 -68c0 -22 9 -30 28 -30zM54 270h249v-72h-249v72z" />
    <glyph glyph-name="ordmasculine" unicode="&#xba;" horiz-adv-x="356" 
d="M178 631c79 -1 154 -61 154 -152c0 -94 -75 -156 -154 -156c-78 0 -154 62 -154 151c0 96 76 156 154 157zM239 467c0 79 -33 125 -65 125c-37 0 -57 -34 -57 -106c0 -78 32 -125 68 -125s54 34 54 106zM54 270h249v-72h-249v72z" />
    <glyph glyph-name="uni0410" unicode="&#x410;" horiz-adv-x="702" 
d="M579 146c27 -74 50 -101 113 -106v-40c-113 3 -222 3 -334 0v40c51 3 89 13 74 53l-38 104h-184l-33 -101c-14 -42 33 -53 111 -56v-40c-93 3 -187 3 -278 0v40c74 5 103 25 119 71l176 515h95zM224 241h153l-82 222z" />
    <glyph glyph-name="uni0411" unicode="&#x411;" horiz-adv-x="626" 
d="M299 386c214 -7 307 -88 307 -201c0 -107 -83 -185 -266 -185c-104 3 -211 3 -315 0v44c56 4 75 12 75 37v459c0 25 -19 33 -75 37v44h479c13 0 15 -3 17 -18l18 -125h-51l-13 21c-32 52 -47 72 -106 72h-105v-184zM339 44c82 3 115 66 115 142c0 89 -45 152 -160 155
l-30 1v-261c0 -15 7 -24 24 -29c3 -1 6 -2 8 -2c11 -3 25 -5 43 -6z" />
    <glyph glyph-name="uni0412" unicode="&#x412;" horiz-adv-x="654" 
d="M453 337c129 -26 181 -85 181 -166c0 -111 -97 -171 -291 -171h-318v40c56 4 73 15 73 50v443c0 36 -19 44 -65 48v40c102 -4 197 0 245 0c228 0 290 -75 290 -156c0 -58 -32 -102 -115 -128zM262 579v-240c116 21 155 61 155 132c0 59 -29 109 -107 109
c-22 0 -34 0 -48 -1zM343 45c78 0 127 38 127 130c0 80 -38 129 -139 129l-69 -13v-196c0 -35 4 -50 52 -50h29z" />
    <glyph glyph-name="uni0413" unicode="&#x413;" horiz-adv-x="554" 
d="M521 603l18 -125h-51l-13 21c-32 52 -47 72 -106 72h-105v-490c0 -25 19 -33 76 -37v-44c-104 3 -211 3 -315 0v44c56 4 75 12 75 37v459c0 25 -19 33 -75 37v44h479c13 0 15 -3 17 -18z" />
    <glyph glyph-name="uni0403" unicode="&#x403;" horiz-adv-x="554" 
d="M164 707l17 -26l167 59c41 15 55 55 36 83c-20 27 -53 27 -85 0zM521 603l18 -125h-51l-13 21c-32 52 -47 72 -106 72h-105v-490c0 -25 19 -33 76 -37v-44c-104 3 -211 3 -315 0v44c56 4 75 12 75 37v459c0 25 -19 33 -75 37v44h479c13 0 15 -3 17 -18z" />
    <glyph glyph-name="uni0490" unicode="&#x490;" horiz-adv-x="554" 
d="M488 714h51l-18 -125c-2 -15 -4 -18 -17 -18h-240v-490c0 -25 19 -33 76 -37v-44c-104 3 -211 3 -315 0v44c56 4 75 12 75 37v459c0 25 -19 33 -75 37v44h344c59 0 74 20 106 72z" />
    <glyph glyph-name="uni0414" unicode="&#x414;" horiz-adv-x="676" 
d="M651 577c-57 -4 -76 -12 -76 -37v-459c0 -25 19 -32 76 -36v-180h-41c-7 80 -16 135 -140 135h-280c-124 0 -132 -55 -140 -135h-40v180c80 0 120 42 120 159v336c0 25 -19 33 -76 37v44h597v-44zM189 45h147c56 0 75 11 75 36v459c0 25 -19 37 -75 37h-31
c-57 0 -76 -12 -76 -37v-271c0 -117 -5 -185 -40 -224z" />
    <glyph glyph-name="uni0415" unicode="&#x415;" 
d="M535 184c-23 -64 -35 -125 -34 -184c-166 5 -318 5 -476 0v40c56 4 73 15 73 50v451c0 29 -17 36 -73 40v40h458c13 0 15 -3 17 -18l18 -125h-38l-12 22c-30 56 -48 80 -129 80h-48c-19 0 -29 -10 -29 -30v-202h96c50 0 68 16 79 59h31c-5 -60 -5 -109 0 -169h-31
c-11 41 -28 62 -79 62h-96v-210c0 -35 14 -45 46 -45h11c75 0 105 21 135 71l42 68h39z" />
    <glyph glyph-name="uni0401" unicode="&#x401;" 
d="M170 680c-39 0 -72 33 -72 72s33 71 72 71c40 0 71 -32 71 -71s-31 -72 -71 -72zM397 680c-39 0 -72 33 -72 72s33 71 72 71s71 -32 71 -71s-32 -72 -71 -72zM535 184c-23 -64 -35 -125 -34 -184c-166 5 -318 5 -476 0v40c56 4 73 15 73 50v451c0 29 -17 36 -73 40v40
h458c13 0 15 -3 17 -18l18 -125h-38l-12 22c-30 56 -48 80 -129 80h-48c-19 0 -29 -10 -29 -30v-202h96c50 0 68 16 79 59h31c-5 -60 -5 -109 0 -169h-31c-11 41 -28 62 -79 62h-96v-210c0 -35 14 -45 46 -45h11c75 0 105 21 135 71l42 68h39z" />
    <glyph glyph-name="uni0416" unicode="&#x416;" horiz-adv-x="1085" 
d="M926 145c48 -66 86 -112 144 -118l-38 -44c-76 0 -160 5 -224 93l-149 203l-32 -36v-162c0 -25 19 -33 75 -37v-44c-104 3 -211 3 -315 0v44c56 4 75 12 75 37v162l-32 36l-149 -203c-64 -88 -148 -93 -224 -93l-38 44c58 6 96 52 144 118l174 239l-132 150
c-25 28 -36 28 -44 28c-32 0 -14 -59 -80 -59c-24 0 -56 15 -56 56c0 38 31 68 91 68c84 0 115 -41 188 -123l158 -178v214c0 25 -19 33 -75 37v44c104 -3 211 -3 315 0v-44c-56 -4 -75 -12 -75 -37v-214l158 178c73 82 104 123 188 123c60 0 91 -30 91 -68
c0 -41 -32 -56 -56 -56c-66 0 -48 59 -80 59c-8 0 -19 0 -44 -28l-132 -150z" />
    <glyph glyph-name="uni0417" unicode="&#x417;" horiz-adv-x="608" 
d="M366 350c118 21 212 -46 212 -150c0 -146 -149 -216 -293 -216c-157 0 -225 94 -250 186h58c36 -104 102 -134 183 -134c90 0 149 57 149 151c0 69 -34 121 -90 121c-27 0 -45 -10 -77 -22l-17 45l38 17c72 33 102 77 102 133c0 65 -30 105 -89 106
c-66 0 -121 -59 -162 -143h-87c25 58 39 117 43 176c32 -8 42 -8 56 -8c55 0 86 25 170 25c115 0 201 -63 201 -148c0 -72 -76 -121 -147 -139z" />
    <glyph glyph-name="uni0418" unicode="&#x418;" horiz-adv-x="721" 
d="M696 577c-57 -4 -76 -12 -76 -37v-459c0 -25 19 -33 76 -37v-44c-104 3 -211 3 -315 0v44c56 4 75 12 75 37v323l-192 -260v-63c0 -25 19 -33 76 -37v-44c-104 3 -211 3 -315 0v44c56 4 75 12 75 37v459c0 25 -19 33 -75 37v44c104 -3 211 -3 315 0v-44
c-57 -4 -76 -12 -76 -37v-327l192 258v69c0 25 -19 33 -75 37v44c104 -3 211 -3 315 0v-44z" />
    <glyph glyph-name="uni0419" unicode="&#x419;" horiz-adv-x="721" 
d="M366 690c-81 0 -148 43 -154 139h69c6 -28 40 -50 85 -50s79 22 85 50h69c-6 -96 -73 -139 -154 -139zM696 577c-57 -4 -76 -12 -76 -37v-459c0 -25 19 -33 76 -37v-44c-104 3 -211 3 -315 0v44c56 4 75 12 75 37v323l-192 -260v-63c0 -25 19 -33 76 -37v-44
c-104 3 -211 3 -315 0v44c56 4 75 12 75 37v459c0 25 -19 33 -75 37v44c104 -3 211 -3 315 0v-44c-57 -4 -76 -12 -76 -37v-327l192 258v69c0 25 -19 33 -75 37v44c104 -3 211 -3 315 0v-44z" />
    <glyph glyph-name="uni041A" unicode="&#x41a;" horiz-adv-x="718" 
d="M559 145c48 -66 86 -112 144 -118l-38 -44c-76 0 -160 5 -224 93l-149 203l-33 -37v-161c0 -25 19 -33 76 -37v-44c-104 3 -211 3 -315 0v44c56 4 75 12 75 37v459c0 25 -19 33 -75 37v44c104 -3 211 -3 315 0v-44c-57 -4 -76 -12 -76 -37v-215l159 179
c73 82 104 123 188 123c60 0 91 -30 91 -68c0 -41 -32 -56 -56 -56c-66 0 -48 59 -80 59c-8 0 -19 0 -44 -28l-132 -150z" />
    <glyph glyph-name="uni040C" unicode="&#x40c;" horiz-adv-x="718" 
d="M430 740l-167 -59l-17 26l135 116c32 27 65 27 85 0c19 -28 5 -68 -36 -83zM559 145c48 -66 86 -112 144 -118l-38 -44c-76 0 -160 5 -224 93l-149 203l-33 -37v-161c0 -25 19 -33 76 -37v-44c-104 3 -211 3 -315 0v44c56 4 75 12 75 37v459c0 25 -19 33 -75 37v44
c104 -3 211 -3 315 0v-44c-57 -4 -76 -12 -76 -37v-215l159 179c73 82 104 123 188 123c60 0 91 -30 91 -68c0 -41 -32 -56 -56 -56c-66 0 -48 59 -80 59c-8 0 -19 0 -44 -28l-132 -150z" />
    <glyph glyph-name="uni041B" unicode="&#x41b;" horiz-adv-x="719" 
d="M694 577c-57 -4 -76 -12 -76 -37v-459c0 -25 19 -33 76 -37v-44c-104 3 -211 3 -315 0v44c56 4 75 12 75 37v459c0 25 -19 37 -75 37h-41c-57 0 -76 -12 -76 -37v-268c0 -234 -51 -282 -252 -282v45c80 0 120 42 120 159v346c0 25 -19 33 -76 37v44h640v-44z" />
    <glyph glyph-name="uni041C" unicode="&#x41c;" horiz-adv-x="837" 
d="M747 108c0 -49 19 -64 75 -68v-40c-104 3 -211 3 -315 0v40c57 4 76 19 76 68v385l-182 -493h-14l-207 493v-385c0 -49 54 -63 120 -68v-40c-96 3 -193 3 -285 0v40c60 5 113 19 113 68v387c0 52 -38 82 -94 86v40c79 -3 171 -3 250 0l156 -372l138 372
c84 -3 158 -3 245 0v-40c-57 -4 -76 -15 -76 -66v-407z" />
    <glyph glyph-name="uni041D" unicode="&#x41d;" horiz-adv-x="718" 
d="M693 581c-57 -4 -76 -15 -76 -50v-441c0 -35 19 -46 76 -50v-40c-104 3 -211 3 -315 0v40c56 4 75 15 75 50v199h-189v-199c0 -35 19 -46 76 -50v-40c-104 3 -211 3 -315 0v40c56 4 75 15 75 50v441c0 35 -19 46 -75 50v40c104 -3 211 -3 315 0v-40
c-57 -4 -76 -15 -76 -50v-197h189v197c0 35 -19 46 -75 50v40c104 -3 211 -3 315 0v-40z" />
    <glyph glyph-name="uni041E" unicode="&#x41e;" horiz-adv-x="683" 
d="M342 637c174 0 306 -124 306 -332c0 -189 -135 -321 -307 -321c-173 0 -306 124 -306 332c0 189 135 321 307 321zM360 33c73 0 115 90 115 247c0 170 -57 308 -149 308c-75 0 -118 -91 -118 -248c0 -169 58 -307 152 -307z" />
    <glyph glyph-name="uni041F" unicode="&#x41f;" horiz-adv-x="721" 
d="M696 577c-57 -4 -76 -12 -76 -37v-459c0 -25 19 -33 76 -37v-44c-104 3 -211 3 -315 0v44c56 4 75 12 75 37v459c0 25 -19 37 -75 37h-41c-57 0 -76 -12 -76 -37v-459c0 -25 19 -33 76 -37v-44c-104 3 -211 3 -315 0v44c56 4 75 12 75 37v459c0 25 -19 33 -75 37v44h671
v-44z" />
    <glyph glyph-name="uni0420" unicode="&#x420;" horiz-adv-x="615" 
d="M262 231v-141c0 -35 17 -46 74 -50v-40c-104 3 -207 3 -311 0v40c56 4 73 15 73 50v456c0 31 -19 31 -65 35v40c102 -4 199 0 253 0c227 0 304 -68 304 -175c0 -118 -93 -185 -309 -213zM262 277l15 1c115 8 161 72 161 161c0 80 -36 141 -123 141h-53v-303z" />
    <glyph glyph-name="uni0421" unicode="&#x421;" horiz-adv-x="637" 
d="M563 170h54c-23 -92 -94 -186 -256 -186c-195 0 -326 139 -326 333c0 197 135 320 313 320c77 0 102 -26 165 -26c13 0 26 0 57 9c3 -59 15 -118 38 -176h-82c-39 84 -91 143 -174 143c-103 0 -144 -90 -144 -238c0 -170 59 -313 189 -313c58 0 129 29 166 134z" />
    <glyph glyph-name="uni0422" unicode="&#x422;" horiz-adv-x="592" 
d="M537 627h40l-34 -138h-39c9 77 -28 85 -60 85h-69v-484c0 -35 19 -46 86 -50v-40c-114 3 -221 3 -335 0v40c66 4 85 15 85 50v484h-58c-43 0 -66 -15 -98 -85h-40l31 138h40c36 -7 73 -6 130 -6h194c54 0 91 -1 127 6z" />
    <glyph glyph-name="uni0423" unicode="&#x423;" horiz-adv-x="654" 
d="M441 621c66 -4 132 -4 198 0v-44c-41 -5 -66 -15 -85 -52l-265 -508c-8 -15 -12 -22 -41 -22c-30 0 -34 5 -25 22l75 135l-212 384c-11 20 -14 36 -71 41v44c104 -4 211 -4 315 0v-44c-57 -5 -65 -21 -54 -41l114 -216l107 205c20 37 -19 47 -56 52v44z" />
    <glyph glyph-name="uni040E" unicode="&#x40e;" horiz-adv-x="654" 
d="M327 690c-81 0 -148 43 -154 139h69c6 -28 40 -50 85 -50s79 22 85 50h69c-6 -96 -73 -139 -154 -139zM441 621c66 -4 132 -4 198 0v-44c-41 -5 -66 -15 -85 -52l-265 -508c-8 -15 -12 -22 -41 -22c-30 0 -34 5 -25 22l75 135l-212 384c-11 20 -14 36 -71 41v44
c104 -4 211 -4 315 0v-44c-57 -5 -65 -21 -54 -41l114 -216l107 205c20 37 -19 47 -56 52v44z" />
    <glyph glyph-name="uni0424" unicode="&#x424;" horiz-adv-x="869" 
d="M834 311c0 -147 -122 -226 -317 -229v-1c0 -25 19 -33 75 -37v-44c-103 3 -210 3 -314 0v44c56 4 75 12 75 37v1c-200 2 -318 82 -318 229s118 227 318 229c0 25 -19 33 -75 37v44c104 -3 211 -3 314 0v-44c-56 -4 -75 -12 -75 -37c195 -3 317 -82 317 -229zM218 311
c0 -94 38 -178 135 -183v366c-97 -5 -135 -89 -135 -183zM651 311c0 94 -38 177 -134 183v-366c96 6 134 89 134 183z" />
    <glyph glyph-name="uni0425" unicode="&#x425;" horiz-adv-x="665" 
d="M543 103c27 -43 50 -60 97 -63v-40c-97 3 -200 3 -296 0v40c31 4 61 16 40 50l-83 136l-93 -128c-25 -34 -1 -54 38 -58v-40c-68 3 -135 3 -221 0v40c63 3 96 29 126 69l121 166l-150 246c-28 45 -50 55 -95 60v40c95 -3 185 -3 285 0v-40c-33 -5 -50 -19 -34 -46
l83 -136l92 126c23 32 -6 51 -46 56v40c73 -3 144 -3 217 0v-40c-43 -5 -85 -25 -113 -65l-120 -165z" />
    <glyph glyph-name="uni0427" unicode="&#x427;" horiz-adv-x="721" 
d="M696 577c-56 -4 -75 -12 -75 -37v-459c0 -25 19 -33 75 -37v-44c-103 3 -210 3 -314 0v44c56 4 75 12 75 37v135l8 65c-26 -38 -71 -103 -184 -103c-64 0 -181 19 -181 178v184c0 25 -19 33 -75 37v44c104 -3 211 -3 315 0v-44c-57 -4 -76 -12 -76 -37v-176
c0 -83 30 -113 71 -113c71 0 113 71 122 97v192c0 25 -19 33 -75 37v44c104 -3 211 -3 314 0v-44z" />
    <glyph glyph-name="uni0426" unicode="&#x426;" horiz-adv-x="721" 
d="M696 577c-57 -4 -76 -12 -76 -37v-459c0 -25 19 -33 76 -37v-179h-40c-8 80 -17 135 -141 135h-490v44c56 4 75 12 75 37v459c0 25 -19 33 -75 37v44c104 -3 211 -3 315 0v-44c-57 -4 -76 -12 -76 -37v-459c0 -25 19 -37 76 -37h41c56 0 75 12 75 37v459
c0 25 -19 33 -75 37v44c104 -3 211 -3 315 0v-44z" />
    <glyph glyph-name="uni0428" unicode="&#x428;" horiz-adv-x="1041" 
d="M1016 577c-56 -4 -75 -12 -75 -37v-459c0 -25 19 -33 75 -37v-44h-991v44c56 4 75 12 75 37v459c0 25 -19 33 -75 37v44c104 -3 211 -3 315 0v-44c-57 -4 -76 -12 -76 -37v-459c0 -25 19 -37 76 -37h23c56 0 75 12 75 37v459c0 25 -19 33 -75 37v44c104 -3 211 -3 315 0
v-44c-56 -4 -75 -12 -75 -37v-459c0 -25 19 -37 75 -37h23c57 0 76 12 76 37v459c0 25 -19 33 -76 37v44c104 -3 211 -3 315 0v-44z" />
    <glyph glyph-name="uni0429" unicode="&#x429;" horiz-adv-x="1041" 
d="M1016 577c-56 -4 -75 -12 -75 -37v-459c0 -25 19 -33 75 -37v-179h-40c-8 80 -16 135 -140 135h-811v44c56 4 75 12 75 37v459c0 25 -19 33 -75 37v44c104 -3 211 -3 315 0v-44c-57 -4 -76 -12 -76 -37v-459c0 -25 19 -37 76 -37h23c56 0 75 12 75 37v459
c0 25 -19 33 -75 37v44c104 -3 211 -3 315 0v-44c-56 -4 -75 -12 -75 -37v-459c0 -25 19 -37 75 -37h23c57 0 76 12 76 37v459c0 25 -19 33 -76 37v44c104 -3 211 -3 315 0v-44z" />
    <glyph glyph-name="uni042C" unicode="&#x42c;" horiz-adv-x="641" 
d="M299 386c214 -7 307 -88 307 -201c0 -107 -83 -185 -266 -185c-104 3 -211 3 -315 0v44c56 4 75 12 75 37v459c0 25 -19 33 -75 37v44c104 -3 211 -3 315 0v-44c-57 -4 -76 -12 -76 -37v-153zM333 44c86 0 121 64 121 142c0 89 -45 152 -160 155l-30 1v-261
c0 -22 18 -37 69 -37z" />
    <glyph glyph-name="uni042A" unicode="&#x42a;" horiz-adv-x="761" 
d="M419 386c214 -7 307 -88 307 -201c0 -107 -83 -185 -266 -185c-104 3 -211 3 -315 0v44c56 4 75 12 75 37v490h-40c-59 0 -74 -20 -106 -72l-13 -21h-51l18 125c2 15 4 18 17 18h415v-44c-57 -4 -76 -12 -76 -37v-153zM453 44c86 0 121 64 121 142c0 89 -45 152 -160 155
l-30 1v-261c0 -22 18 -37 69 -37z" />
    <glyph glyph-name="uni042B" unicode="&#x42b;" horiz-adv-x="983" 
d="M299 386c214 -7 307 -88 307 -201c0 -107 -83 -185 -266 -185c-104 3 -211 3 -315 0v44c56 4 75 12 75 37v459c0 25 -19 33 -75 37v44c104 -3 211 -3 315 0v-44c-57 -4 -76 -12 -76 -37v-153zM883 90c0 -35 19 -46 76 -50v-40c-104 3 -211 3 -315 0v40c56 4 75 15 75 50
v441c0 35 -19 46 -75 50v40c104 -3 211 -3 315 0v-40c-57 -4 -76 -15 -76 -50v-441zM333 44c86 0 121 64 121 142c0 89 -45 152 -160 155l-30 1v-261c0 -22 18 -37 69 -37z" />
    <glyph glyph-name="uni0404" unicode="&#x404;" horiz-adv-x="641" 
d="M563 170h58c-25 -92 -99 -186 -260 -186c-195 0 -326 124 -326 328c0 188 137 325 309 325c84 0 115 -25 170 -25c14 0 24 0 56 8c4 -59 18 -118 43 -176h-87c-41 84 -100 143 -180 143c-94 0 -138 -90 -138 -246h242v-48h-240c10 -143 68 -257 181 -257
c63 0 136 30 172 134z" />
    <glyph glyph-name="uni042D" unicode="&#x42d;" horiz-adv-x="656" 
d="M312 637c172 0 309 -137 309 -325c0 -204 -131 -328 -326 -328c-161 0 -235 94 -260 186h58c36 -104 109 -134 172 -134c113 0 171 114 181 257h-240v48h242c0 156 -44 246 -138 246c-80 0 -139 -59 -180 -143h-87c25 58 39 117 43 176c32 -8 42 -8 56 -8
c55 0 86 25 170 25z" />
    <glyph glyph-name="uni0406" unicode="&#x406;" horiz-adv-x="365" 
d="M264 90c0 -35 19 -46 76 -50v-40c-104 3 -211 3 -315 0v40c56 4 75 15 75 50v441c0 35 -19 46 -75 50v40c104 -3 211 -3 315 0v-40c-57 -4 -76 -15 -76 -50v-441z" />
    <glyph glyph-name="uni0407" unicode="&#x407;" horiz-adv-x="365" 
d="M70 680c-39 0 -72 33 -72 72s33 71 72 71c40 0 71 -32 71 -71s-31 -72 -71 -72zM297 680c-39 0 -72 33 -72 72s33 71 72 71s71 -32 71 -71s-32 -72 -71 -72zM264 90c0 -35 19 -46 76 -50v-40c-104 3 -211 3 -315 0v40c56 4 75 15 75 50v441c0 35 -19 46 -75 50v40
c104 -3 211 -3 315 0v-40c-57 -4 -76 -15 -76 -50v-441z" />
    <glyph glyph-name="uni042E" unicode="&#x42e;" horiz-adv-x="1002" 
d="M661 637c174 0 306 -124 306 -332c0 -189 -135 -321 -307 -321c-162 0 -289 109 -304 294h-92v-188c0 -35 19 -46 76 -50v-40c-104 3 -211 3 -315 0v40c56 4 75 15 75 50v441c0 35 -19 46 -75 50v40c104 -3 211 -3 315 0v-40c-57 -4 -76 -15 -76 -50v-203h90
c6 183 139 309 307 309zM679 33c73 0 115 90 115 247c0 170 -57 308 -149 308c-75 0 -118 -91 -118 -248c0 -169 58 -307 152 -307z" />
    <glyph glyph-name="uni042F" unicode="&#x42f;" horiz-adv-x="664" 
d="M566 90c0 -35 17 -46 73 -50v-40c-104 3 -207 3 -311 0v40c57 4 74 15 74 50v141l-19 2h-1l-81 -114c-90 -127 -192 -126 -259 -127l-27 44c55 7 99 53 159 134l69 92c-117 36 -169 96 -169 184c0 107 77 175 304 175c54 0 151 -4 253 0v-40c-46 -4 -65 -4 -65 -35v-456z
M402 277v303h-53c-87 0 -123 -61 -123 -141c0 -89 46 -153 161 -161z" />
    <glyph glyph-name="uni04D0" unicode="&#x4d0;" horiz-adv-x="702" 
d="M351 690c-81 0 -148 43 -154 139h69c6 -28 40 -50 85 -50s79 22 85 50h69c-6 -96 -73 -139 -154 -139zM579 146c27 -74 50 -101 113 -106v-40c-113 3 -222 3 -334 0v40c51 3 89 13 74 53l-38 104h-184l-33 -101c-14 -42 33 -53 111 -56v-40c-93 3 -187 3 -278 0v40
c74 5 103 25 119 71l176 515h95zM224 241h153l-82 222z" />
    <glyph glyph-name="uni04D2" unicode="&#x4d2;" horiz-adv-x="702" 
d="M238 680c-39 0 -72 33 -72 72s33 71 72 71c40 0 71 -32 71 -71s-31 -72 -71 -72zM465 680c-39 0 -72 33 -72 72s33 71 72 71s71 -32 71 -71s-32 -72 -71 -72zM579 146c27 -74 50 -101 113 -106v-40c-113 3 -222 3 -334 0v40c51 3 89 13 74 53l-38 104h-184l-33 -101
c-14 -42 33 -53 111 -56v-40c-93 3 -187 3 -278 0v40c74 5 103 25 119 71l176 515h95zM224 241h153l-82 222z" />
    <glyph glyph-name="uni04D6" unicode="&#x4d6;" 
d="M283 690c-81 0 -148 43 -154 139h69c6 -28 40 -50 85 -50s79 22 85 50h69c-6 -96 -73 -139 -154 -139zM535 184c-23 -64 -35 -125 -34 -184c-166 5 -318 5 -476 0v40c56 4 73 15 73 50v451c0 29 -17 36 -73 40v40h458c13 0 15 -3 17 -18l18 -125h-38l-12 22
c-30 56 -48 80 -129 80h-48c-19 0 -29 -10 -29 -30v-202h96c50 0 68 16 79 59h31c-5 -60 -5 -109 0 -169h-31c-11 41 -28 62 -79 62h-96v-210c0 -35 14 -45 46 -45h11c75 0 105 21 135 71l42 68h39z" />
    <glyph glyph-name="uni04EC" unicode="&#x4ec;" horiz-adv-x="656" 
d="M216 680c-39 0 -72 33 -72 72s33 71 72 71c40 0 71 -32 71 -71s-31 -72 -71 -72zM443 680c-39 0 -72 33 -72 72s33 71 72 71s71 -32 71 -71s-32 -72 -71 -72zM312 637c172 0 309 -137 309 -325c0 -204 -131 -328 -326 -328c-161 0 -235 94 -260 186h58
c36 -104 109 -134 172 -134c113 0 171 114 181 257h-240v48h242c0 156 -44 246 -138 246c-80 0 -139 -59 -180 -143h-87c25 58 39 117 43 176c32 -8 42 -8 56 -8c55 0 86 25 170 25z" />
    <glyph glyph-name="Aacutecy" horiz-adv-x="702" 
d="M422 740l-167 -59l-17 26l135 116c32 27 65 27 85 0c19 -28 5 -68 -36 -83zM579 146c27 -74 50 -101 113 -106v-40c-113 3 -222 3 -334 0v40c51 3 89 13 74 53l-38 104h-184l-33 -101c-14 -42 33 -53 111 -56v-40c-93 3 -187 3 -278 0v40c74 5 103 25 119 71l176 515h95z
M224 241h153l-82 222z" />
    <glyph glyph-name="Ieacutecy" 
d="M354 740l-167 -59l-17 26l135 116c32 27 65 27 85 0c19 -28 5 -68 -36 -83zM535 184c-23 -64 -35 -125 -34 -184c-166 5 -318 5 -476 0v40c56 4 73 15 73 50v451c0 29 -17 36 -73 40v40h458c13 0 15 -3 17 -18l18 -125h-38l-12 22c-30 56 -48 80 -129 80h-48
c-19 0 -29 -10 -29 -30v-202h96c50 0 68 16 79 59h31c-5 -60 -5 -109 0 -169h-31c-11 41 -28 62 -79 62h-96v-210c0 -35 14 -45 46 -45h11c75 0 105 21 135 71l42 68h39z" />
    <glyph glyph-name="Iiacutecy" horiz-adv-x="721" 
d="M437 740l-167 -59l-17 26l135 116c32 27 65 27 85 0c19 -28 5 -68 -36 -83zM696 577c-57 -4 -76 -12 -76 -37v-459c0 -25 19 -33 76 -37v-44c-104 3 -211 3 -315 0v44c56 4 75 12 75 37v323l-192 -260v-63c0 -25 19 -33 76 -37v-44c-104 3 -211 3 -315 0v44
c56 4 75 12 75 37v459c0 25 -19 33 -75 37v44c104 -3 211 -3 315 0v-44c-57 -4 -76 -12 -76 -37v-327l192 258v69c0 25 -19 33 -75 37v44c104 -3 211 -3 315 0v-44z" />
    <glyph glyph-name="Oacutecy" horiz-adv-x="683" 
d="M229 707l17 -26l167 59c41 15 55 55 36 83c-20 27 -53 27 -85 0zM342 637c174 0 306 -124 306 -332c0 -189 -135 -321 -307 -321c-173 0 -306 124 -306 332c0 189 135 321 307 321zM360 33c73 0 115 90 115 247c0 170 -57 308 -149 308c-75 0 -118 -91 -118 -248
c0 -169 58 -307 152 -307z" />
    <glyph glyph-name="Uacutecy" horiz-adv-x="654" 
d="M398 740l-167 -59l-17 26l135 116c32 27 65 27 85 0c19 -28 5 -68 -36 -83zM441 621c66 -4 132 -4 198 0v-44c-41 -5 -66 -15 -85 -52l-265 -508c-8 -15 -12 -22 -41 -22c-30 0 -34 5 -25 22l75 135l-212 384c-11 20 -14 36 -71 41v44c104 -4 211 -4 315 0v-44
c-57 -5 -65 -21 -54 -41l114 -216l107 205c20 37 -19 47 -56 52v44z" />
    <glyph glyph-name="Yeruacutecy" horiz-adv-x="983" 
d="M378 707l17 -26l167 59c41 15 55 55 36 83c-20 27 -53 27 -85 0zM299 386c214 -7 307 -88 307 -201c0 -107 -83 -185 -266 -185c-104 3 -211 3 -315 0v44c56 4 75 12 75 37v459c0 25 -19 33 -75 37v44c104 -3 211 -3 315 0v-44c-57 -4 -76 -12 -76 -37v-153zM883 90
c0 -35 19 -46 76 -50v-40c-104 3 -211 3 -315 0v40c56 4 75 15 75 50v441c0 35 -19 46 -75 50v40c104 -3 211 -3 315 0v-40c-57 -4 -76 -15 -76 -50v-441zM333 44c86 0 121 64 121 142c0 89 -45 152 -160 155l-30 1v-261c0 -22 18 -37 69 -37z" />
    <glyph glyph-name="Ereversedacutecy" horiz-adv-x="656" 
d="M400 740l-167 -59l-17 26l135 116c32 27 65 27 85 0c19 -28 5 -68 -36 -83zM312 637c172 0 309 -137 309 -325c0 -204 -131 -328 -326 -328c-161 0 -235 94 -260 186h58c36 -104 109 -134 172 -134c113 0 171 114 181 257h-240v48h242c0 156 -44 246 -138 246
c-80 0 -139 -59 -180 -143h-87c25 58 39 117 43 176c32 -8 42 -8 56 -8c55 0 86 25 170 25z" />
    <glyph glyph-name="Iuacutecy" horiz-adv-x="1002" 
d="M573 740l-167 -59l-17 26l135 116c32 27 65 27 85 0c19 -28 5 -68 -36 -83zM661 637c174 0 306 -124 306 -332c0 -189 -135 -321 -307 -321c-162 0 -289 109 -304 294h-92v-188c0 -35 19 -46 76 -50v-40c-104 3 -211 3 -315 0v40c56 4 75 15 75 50v441
c0 35 -19 46 -75 50v40c104 -3 211 -3 315 0v-40c-57 -4 -76 -15 -76 -50v-203h90c6 183 139 309 307 309zM679 33c73 0 115 90 115 247c0 170 -57 308 -149 308c-75 0 -118 -91 -118 -248c0 -169 58 -307 152 -307z" />
    <glyph glyph-name="Iaacutecy" horiz-adv-x="664" 
d="M404 740l-167 -59l-17 26l135 116c32 27 65 27 85 0c19 -28 5 -68 -36 -83zM566 90c0 -35 17 -46 73 -50v-40c-104 3 -207 3 -311 0v40c57 4 74 15 74 50v141l-19 2h-1l-81 -114c-90 -127 -192 -126 -259 -127l-27 44c55 7 99 53 159 134l69 92c-117 36 -169 96 -169 184
c0 107 77 175 304 175c54 0 151 -4 253 0v-40c-46 -4 -65 -4 -65 -35v-456zM402 277v303h-53c-87 0 -123 -61 -123 -141c0 -89 46 -153 161 -161z" />
    <glyph glyph-name="uni0430" unicode="&#x430;" horiz-adv-x="563" 
d="M478 123c0 -48 26 -66 65 -70v-42c-69 -1 -137 -14 -188 -25c-15 6 -24 16 -28 28l5 60h-10c-11 -19 -54 -88 -150 -88c-75 0 -147 40 -147 134c0 93 72 141 296 189v61c0 80 -19 102 -59 102c-111 0 -26 -156 -142 -156c-46 0 -66 24 -66 57c0 75 103 137 252 137
c86 0 172 -19 172 -142v-245zM236 54c47 0 74 52 85 79v143c-130 -32 -140 -115 -140 -144c0 -45 20 -78 55 -78z" />
    <glyph glyph-name="uni0431" unicode="&#x431;" horiz-adv-x="561" 
d="M287 509c113 0 252 -74 252 -264c0 -173 -139 -255 -252 -255c-116 0 -252 81 -252 298c0 199 45 387 263 387h145c40 0 54 0 80 24h18c0 -29 -36 -133 -145 -133h-134c-91 0 -138 -53 -156 -131c50 46 120 74 181 74zM300 36c52 0 72 69 72 168c0 163 -37 259 -97 259
c-51 0 -72 -68 -72 -189c0 -140 37 -238 97 -238z" />
    <glyph glyph-name="uni0432" unicode="&#x432;" horiz-adv-x="615" 
d="M407 281c134 -24 178 -76 178 -135c0 -83 -77 -146 -256 -146h-309v44c56 4 73 11 73 36v342c0 23 -19 31 -65 35v44c102 -4 198 0 246 0c203 0 250 -60 250 -119c0 -42 -29 -74 -117 -101zM250 456v-175c91 20 123 46 123 101c0 40 -27 74 -80 74h-43zM315 49
c64 0 106 38 106 102c0 55 -25 102 -101 103l-70 -16v-153c0 -25 3 -36 48 -36h17z" />
    <glyph glyph-name="uni0433" unicode="&#x433;" horiz-adv-x="522" 
d="M484 483l18 -125h-51l-13 21c-32 52 -47 72 -106 72h-80v-370c0 -25 19 -33 75 -37v-44c-103 3 -203 3 -307 0v44c56 4 75 12 75 37v339c0 25 -19 33 -75 37v44h447c13 0 15 -3 17 -18z" />
    <glyph glyph-name="uni0453" unicode="&#x453;" horiz-adv-x="522" 
d="M332 620l-167 -59l-17 26l135 116c32 27 65 27 85 0c19 -28 5 -68 -36 -83zM484 483l18 -125h-51l-13 21c-32 52 -47 72 -106 72h-80v-370c0 -25 19 -33 75 -37v-44c-103 3 -203 3 -307 0v44c56 4 75 12 75 37v339c0 25 -19 33 -75 37v44h447c13 0 15 -3 17 -18z" />
    <glyph glyph-name="uni0491" unicode="&#x491;" horiz-adv-x="517" 
d="M446 594h51l-18 -125c-2 -15 -4 -18 -17 -18h-210v-370c0 -25 19 -33 75 -37v-44c-103 3 -203 3 -307 0v44c56 4 75 12 75 37v339c0 25 -19 33 -75 37v44h307c59 0 74 20 106 72z" />
    <glyph glyph-name="uni0434" unicode="&#x434;" horiz-adv-x="632" 
d="M612 457c-56 -4 -75 -12 -75 -37v-339c0 -25 19 -33 75 -37v-149h-40c-8 70 -16 105 -140 105h-242c-124 0 -132 -35 -140 -105h-40v149c80 0 120 42 120 159v217c0 25 -19 33 -76 37v44h558v-44zM169 44h136c56 4 75 12 75 37v339c0 25 -19 37 -75 37h-8
c-56 0 -75 -12 -75 -37v-146c0 -114 -10 -188 -53 -230z" />
    <glyph glyph-name="uni0435" unicode="&#x435;" horiz-adv-x="523" 
d="M482 105c-40 -86 -116 -116 -190 -116c-137 0 -262 93 -262 262c0 173 126 259 248 259c131 0 215 -96 215 -200c0 -51 -17 -75 -64 -75h-237c0 -94 29 -201 133 -201c43 0 87 16 115 71h42zM351 276c0 120 -17 190 -74 190c-55 0 -85 -70 -85 -190h159z" />
    <glyph glyph-name="uni0451" unicode="&#x451;" horiz-adv-x="523" 
d="M149 560c-39 0 -72 33 -72 72s33 71 72 71c40 0 71 -32 71 -71s-31 -72 -71 -72zM376 560c-39 0 -72 33 -72 72s33 71 72 71s71 -32 71 -71s-32 -72 -71 -72zM482 105c-40 -86 -116 -116 -190 -116c-137 0 -262 93 -262 262c0 173 126 259 248 259
c131 0 215 -96 215 -200c0 -51 -17 -75 -64 -75h-237c0 -94 29 -201 133 -201c43 0 87 16 115 71h42zM351 276c0 120 -17 190 -74 190c-55 0 -85 -70 -85 -190h159z" />
    <glyph glyph-name="uni0436" unicode="&#x436;" horiz-adv-x="965" 
d="M812 153c35 -47 86 -120 143 -126l-37 -44c-68 0 -138 4 -204 90l-119 159l-34 -38v-113c0 -25 19 -33 75 -37v-44c-52 1 -103 2 -153 2c-51 0 -102 -1 -154 -2v44c56 4 75 12 75 37v113l-34 38l-119 -159c-66 -86 -136 -90 -204 -90l-37 44c57 6 108 79 143 126l130 178
l-75 84c-24 28 -30 28 -44 28c-32 0 -14 -59 -79 -59c-24 0 -57 15 -57 57c0 39 32 67 91 67c64 0 109 -40 182 -123l103 -115v150c0 25 -19 33 -75 37v44c52 -1 103 -2 154 -2c50 0 101 1 153 2v-44c-56 -4 -75 -12 -75 -37v-150l103 115c73 83 118 123 182 123
c59 0 91 -28 91 -67c0 -42 -33 -57 -57 -57c-65 0 -47 59 -79 59c-14 0 -20 0 -44 -28l-75 -84z" />
    <glyph glyph-name="uni0437" unicode="&#x437;" horiz-adv-x="506" 
d="M352 291c70 -7 124 -56 124 -124c0 -102 -107 -177 -245 -177c-96 0 -177 54 -201 152h61c22 -64 64 -106 133 -106c67 0 104 54 104 122c0 49 -24 83 -56 83c-12 0 -16 0 -66 -19l-20 47l39 16c51 23 71 54 71 96c0 44 -20 81 -61 81c-53 1 -87 -45 -109 -106h-88
c19 43 32 92 34 144c33 -10 43 -10 55 -10c38 0 56 19 127 19c111 0 172 -53 172 -116c0 -44 -31 -77 -74 -102z" />
    <glyph glyph-name="uni0438" unicode="&#x438;" horiz-adv-x="687" 
d="M667 457c-57 -4 -76 -12 -76 -37v-339c0 -25 19 -33 76 -37v-44c-104 3 -204 3 -308 0v44c56 4 75 12 75 37v241l-182 -213v-28c0 -25 19 -33 75 -37v-44c-103 3 -203 3 -307 0v44c56 4 75 12 75 37v339c0 25 -19 33 -75 37v44c104 -3 204 -3 307 0v-44
c-56 -4 -75 -12 -75 -37v-246l182 213v33c0 25 -19 33 -75 37v44c104 -3 204 -3 308 0v-44z" />
    <glyph glyph-name="uni0439" unicode="&#x439;" horiz-adv-x="687" 
d="M343 570c-81 0 -148 43 -154 139h69c6 -28 40 -50 85 -50s79 22 85 50h69c-6 -96 -73 -139 -154 -139zM667 457c-57 -4 -76 -12 -76 -37v-339c0 -25 19 -33 76 -37v-44c-104 3 -204 3 -308 0v44c56 4 75 12 75 37v241l-182 -213v-28c0 -25 19 -33 75 -37v-44
c-103 3 -203 3 -307 0v44c56 4 75 12 75 37v339c0 25 -19 33 -75 37v44c104 -3 204 -3 307 0v-44c-56 -4 -75 -12 -75 -37v-246l182 213v33c0 25 -19 33 -75 37v44c104 -3 204 -3 308 0v-44z" />
    <glyph glyph-name="uni043A" unicode="&#x43a;" horiz-adv-x="666" 
d="M503 153c35 -47 86 -120 143 -126l-37 -44c-68 0 -138 4 -204 90l-119 159l-34 -38v-113c0 -25 19 -33 75 -37v-44c-103 3 -203 3 -307 0v44c56 4 75 12 75 37v339c0 25 -19 33 -75 37v44c104 -3 204 -3 307 0v-44c-56 -4 -75 -12 -75 -37v-150l103 115
c73 83 118 123 182 123c59 0 91 -28 91 -67c0 -42 -33 -57 -57 -57c-65 0 -47 59 -79 59c-14 0 -20 0 -44 -28l-75 -84z" />
    <glyph glyph-name="uni045C" unicode="&#x45c;" horiz-adv-x="666" 
d="M405 620l-167 -59l-17 26l135 116c32 27 65 27 85 0c19 -28 5 -68 -36 -83zM503 153c35 -47 86 -120 143 -126l-37 -44c-68 0 -138 4 -204 90l-119 159l-34 -38v-113c0 -25 19 -33 75 -37v-44c-103 3 -203 3 -307 0v44c56 4 75 12 75 37v339c0 25 -19 33 -75 37v44
c104 -3 204 -3 307 0v-44c-56 -4 -75 -12 -75 -37v-150l103 115c73 83 118 123 182 123c59 0 91 -28 91 -67c0 -42 -33 -57 -57 -57c-65 0 -47 59 -79 59c-14 0 -20 0 -44 -28l-75 -84z" />
    <glyph glyph-name="uni043B" unicode="&#x43b;" horiz-adv-x="673" 
d="M653 457c-57 -4 -76 -12 -76 -37v-339c0 -25 19 -33 76 -37v-44c-104 3 -204 3 -308 0v44c57 4 76 12 76 37v339c0 25 -19 37 -76 37h-7c-57 0 -76 -12 -76 -37v-148c0 -234 -51 -282 -252 -282v45c80 0 120 42 120 159v226c0 25 -19 33 -76 37v44h599v-44z" />
    <glyph glyph-name="uni043C" unicode="&#x43c;" horiz-adv-x="799" 
d="M704 81c0 -25 19 -33 75 -37v-44c-104 3 -194 3 -294 0v44c53 4 62 12 62 37v279l-171 -360l-191 359v-278c0 -25 44 -32 106 -37v-44c-92 3 -179 3 -271 0v44c60 5 113 12 113 37v320c0 26 -38 52 -94 56v44c79 -3 158 -3 237 0l142 -269l126 269c88 -3 149 -3 236 0
v-45c-57 -3 -76 -10 -76 -35v-340z" />
    <glyph glyph-name="uni043D" unicode="&#x43d;" horiz-adv-x="687" 
d="M667 457c-57 -4 -76 -12 -76 -37v-339c0 -25 19 -33 76 -37v-44c-104 3 -204 3 -308 0v44c56 4 75 12 75 37v143h-182v-143c0 -25 19 -33 75 -37v-44c-103 3 -203 3 -307 0v44c56 4 75 12 75 37v339c0 25 -19 33 -75 37v44c104 -3 204 -3 307 0v-44
c-56 -4 -75 -12 -75 -37v-138h182v138c0 25 -19 33 -75 37v44c104 -3 204 -3 308 0v-44z" />
    <glyph glyph-name="uni043E" unicode="&#x43e;" 
d="M283 510c111 0 252 -86 252 -262c0 -181 -141 -259 -253 -259c-111 0 -252 86 -252 262c0 181 141 259 253 259zM299 33c49 0 72 67 72 165c0 158 -44 268 -105 268c-49 0 -72 -67 -72 -164c0 -158 44 -269 105 -269z" />
    <glyph glyph-name="uni043F" unicode="&#x43f;" horiz-adv-x="687" 
d="M667 457c-57 -4 -76 -12 -76 -37v-339c0 -25 19 -33 76 -37v-44c-104 3 -204 3 -308 0v44c56 4 75 12 75 37v339c0 25 -19 37 -75 37h-32c-56 0 -75 -12 -75 -37v-339c0 -25 19 -33 75 -37v-44c-103 3 -203 3 -307 0v44c56 4 75 12 75 37v339c0 25 -19 33 -75 37v44h647
v-44z" />
    <glyph glyph-name="uni0440" unicode="&#x440;" horiz-adv-x="613" 
d="M359 510c102 0 224 -85 224 -263c0 -189 -133 -258 -232 -258c-54 0 -91 22 -118 47v-85c0 -49 23 -57 70 -55v-41c-73 -10 -156 -37 -214 -72c-15 4 -27 16 -32 33c10 14 19 40 19 101v440c0 44 -21 55 -61 48v40c65 12 137 33 194 67c13 -6 24 -16 29 -29
c-1 -8 -2 -16 -2 -23c31 29 74 50 123 50zM340 34c59 0 74 79 74 172c0 160 -37 253 -104 253c-28 0 -54 -16 -76 -38c-1 -26 -1 -54 -1 -89v-176c4 -75 63 -122 107 -122z" />
    <glyph glyph-name="uni0441" unicode="&#x441;" horiz-adv-x="522" 
d="M488 105c-41 -87 -107 -116 -189 -116c-136 0 -269 85 -269 265c0 174 135 256 262 256c108 0 200 -58 200 -139c0 -30 -20 -64 -69 -64c-47 0 -67 32 -67 64c0 45 -4 95 -58 95c-74 0 -102 -89 -102 -200c0 -114 30 -232 137 -232c38 0 87 15 112 71h43z" />
    <glyph glyph-name="uni0442" unicode="&#x442;" horiz-adv-x="573" 
d="M509 507h54l-39 -132h-52c11 77 -10 82 -44 82h-61v-376c0 -25 19 -33 75 -37v-44c-104 3 -204 3 -308 0v44c57 4 76 12 76 37v376h-64c-33 0 -46 -12 -78 -82h-53l34 132h54c36 -7 59 -6 117 -6h174c56 0 79 -1 115 6z" />
    <glyph glyph-name="uni0443" unicode="&#x443;" horiz-adv-x="598" 
d="M373 501h210v-41l-33 -2c-34 -1 -45 -29 -60 -69l-240 -604h-60l88 204l-178 402c-18 41 -32 66 -53 67l-32 2v41h278v-41l-29 -2c-26 -1 -34 -27 -17 -68l98 -237l96 236c17 43 1 67 -32 69l-36 2v41z" />
    <glyph glyph-name="uni045E" unicode="&#x45e;" horiz-adv-x="598" 
d="M302 570c-81 0 -148 43 -154 139h69c6 -28 40 -50 85 -50s79 22 85 50h69c-6 -96 -73 -139 -154 -139zM373 501h210v-41l-33 -2c-34 -1 -45 -29 -60 -69l-240 -604h-60l88 204l-178 402c-18 41 -32 66 -53 67l-32 2v41h278v-41l-29 -2c-26 -1 -34 -27 -17 -68l98 -237
l96 236c17 43 1 67 -32 69l-36 2v41z" />
    <glyph glyph-name="uni0444" unicode="&#x444;" horiz-adv-x="866" 
d="M635 509c90 0 201 -84 201 -248c0 -193 -116 -271 -207 -271c-68 0 -102 31 -117 67v-176c0 -25 19 -33 75 -37v-44c-104 3 -204 3 -308 0v44c57 4 76 12 76 37v178c-15 -36 -47 -69 -117 -69c-92 0 -208 78 -208 271c0 164 111 248 201 248c65 0 104 -36 124 -69v99
c0 39 -26 51 -64 44v43c111 22 160 65 188 65c26 0 33 -13 33 -39v-212c19 33 59 69 123 69zM273 37c45 0 73 51 82 103v251c-18 33 -57 70 -99 70c-52 0 -70 -73 -70 -200c0 -121 36 -224 87 -224zM593 37c51 0 87 103 87 224c0 127 -18 200 -70 200c-42 0 -81 -37 -98 -70
v-251c8 -52 36 -103 81 -103z" />
    <glyph glyph-name="uni0445" unicode="&#x445;" horiz-adv-x="566" 
d="M528 43l18 -3v-40c-89 3 -178 3 -264 0v41l16 2c20 2 19 20 4 45l-48 77l-54 -75c-18 -25 -9 -47 12 -47l37 -2v-41c-75 3 -154 3 -229 0v40l16 3c52 8 74 24 105 65l79 110l-119 188c-23 37 -41 50 -64 52l-18 3v40h270v-41l-15 -1c-20 -2 -27 -19 -8 -49l44 -68l50 69
c18 25 3 47 -22 48l-28 1v41h227v-40l-14 -3c-53 -8 -76 -24 -105 -65l-74 -103l125 -195c26 -42 35 -48 59 -52z" />
    <glyph glyph-name="uni0447" unicode="&#x447;" horiz-adv-x="690" 
d="M670 457c-56 -4 -75 -12 -75 -37v-339c0 -25 19 -33 75 -37v-44c-104 3 -204 3 -307 0v44c56 4 75 12 75 37v73l8 65c-26 -39 -71 -102 -171 -102c-68 0 -180 17 -180 174v129c0 25 -19 33 -75 37v44c104 -3 207 -3 307 0v-44c-56 -4 -75 -12 -75 -37v-121
c0 -80 26 -109 72 -109c63 0 105 70 114 96v134c0 25 -19 33 -75 37v44c103 -3 203 -3 307 0v-44z" />
    <glyph glyph-name="uni0446" unicode="&#x446;" horiz-adv-x="687" 
d="M20 501c104 -3 204 -3 307 0v-44c-56 -4 -75 -12 -75 -37v-339c0 -25 19 -37 75 -37v-44h-307v44c56 4 75 12 75 37v339c0 25 -19 33 -75 37v44zM667 457c-57 -4 -76 -12 -76 -37v-339c0 -25 19 -33 76 -37v-149h-41c-7 70 -16 105 -140 105h-150v44h23c56 0 75 12 75 37
v339c0 25 -19 33 -75 37v44c104 -3 204 -3 308 0v-44z" />
    <glyph glyph-name="uni0448" unicode="&#x448;" horiz-adv-x="969" 
d="M949 457c-56 -4 -75 -12 -75 -37v-339c0 -25 19 -33 75 -37v-44h-929v44c56 4 75 12 75 37v339c0 25 -19 33 -75 37v44c104 -3 199 -3 303 0v-44c-57 -4 -71 -12 -71 -37v-339c0 -25 19 -37 75 -37h4c56 0 75 12 75 37v339c0 25 -14 33 -70 37v44c103 -3 194 -3 297 0
v-44c-56 -4 -70 -12 -70 -37v-339c0 -25 19 -37 75 -37h4c56 0 75 12 75 37v339c0 25 -14 33 -71 37v44c104 -3 199 -3 303 0v-44z" />
    <glyph glyph-name="uni0449" unicode="&#x449;" horiz-adv-x="969" 
d="M949 457c-56 -4 -75 -12 -75 -37v-339c0 -25 19 -33 75 -37v-149h-40c-8 70 -16 105 -140 105h-749v44c56 4 75 12 75 37v339c0 25 -19 33 -75 37v44c104 -3 199 -3 303 0v-44c-57 -4 -71 -12 -71 -37v-339c0 -25 19 -37 75 -37h4c56 0 75 12 75 37v339
c0 25 -14 33 -70 37v44c103 -3 194 -3 297 0v-44c-56 -4 -70 -12 -70 -37v-339c0 -25 19 -33 75 -37h4c56 0 75 12 75 37v339c0 25 -14 33 -71 37v44c104 -3 199 -3 303 0v-44z" />
    <glyph glyph-name="uni044C" unicode="&#x44c;" horiz-adv-x="583" 
d="M250 349h15c207 -8 298 -84 298 -181c0 -102 -69 -168 -269 -168c-70 0 -164 4 -266 0v44c46 4 65 12 65 35v342c0 25 -17 32 -73 36v44c104 -3 200 -3 303 0v-44c-56 -4 -73 -11 -73 -36v-72zM250 301v-255c17 -1 41 -1 65 -1c64 0 96 50 96 119c0 88 -50 132 -146 137
h-15z" />
    <glyph glyph-name="uni044A" unicode="&#x44a;" horiz-adv-x="709" 
d="M380 349c208 -8 299 -84 299 -181c0 -102 -69 -168 -269 -168c-70 0 -164 4 -266 0v44c46 4 65 12 65 35v378h-29c-56 0 -71 -28 -101 -78l-13 -21h-51l18 125c2 15 4 18 17 18h389v-44c-56 -4 -73 -11 -73 -36v-72h14zM431 45c64 0 95 50 95 119c0 88 -49 132 -146 137
h-14v-255c17 -1 41 -1 65 -1z" />
    <glyph glyph-name="uni044B" unicode="&#x44b;" horiz-adv-x="923" 
d="M250 349h15c207 -8 298 -84 298 -181c0 -102 -69 -168 -269 -168c-70 0 -164 4 -266 0v44c46 4 65 12 65 35v342c0 25 -17 32 -73 36v44c104 -3 200 -3 303 0v-44c-56 -4 -73 -11 -73 -36v-72zM828 81c0 -25 19 -33 75 -37v-44c-104 3 -203 3 -307 0v44c56 4 75 12 75 37
v339c0 25 -19 33 -75 37v44c104 -3 203 -3 307 0v-44c-56 -4 -75 -12 -75 -37v-339zM250 301v-255c17 -1 41 -1 65 -1c64 0 96 50 96 119c0 88 -50 132 -146 137h-15z" />
    <glyph glyph-name="uni0454" unicode="&#x454;" horiz-adv-x="531" 
d="M431 189c52 0 70 -28 70 -59c0 -81 -93 -138 -213 -138c-121 0 -258 83 -258 254c0 183 135 265 265 265c84 0 147 -35 175 -94c7 -14 7 -32 -12 -32h-24c-10 0 -17 4 -21 14c-11 33 -36 66 -99 66c-75 0 -107 -87 -114 -179h144v-53h-145c2 -115 32 -195 104 -195
c62 0 69 47 65 92c-3 32 16 59 63 59z" />
    <glyph glyph-name="uni044D" unicode="&#x44d;" horiz-adv-x="531" 
d="M236 511c130 0 265 -82 265 -265c0 -171 -137 -254 -258 -254c-120 0 -213 57 -213 138c0 31 18 59 70 59c47 0 66 -27 63 -59c-4 -45 3 -92 65 -92c72 0 102 80 104 195h-145v53h144c-7 92 -39 179 -114 179c-63 0 -88 -33 -99 -66c-4 -10 -11 -14 -21 -14h-24
c-19 0 -19 18 -12 32c28 59 91 94 175 94z" />
    <glyph glyph-name="uni0456" unicode="&#x456;" horiz-adv-x="323" 
d="M158 560c-45 0 -82 37 -82 82s37 80 82 80s80 -35 80 -80s-35 -82 -80 -82zM239 77c0 -25 26 -33 64 -37v-40c-94 2 -189 2 -283 0v40c35 4 62 12 62 37v280c0 44 -21 55 -62 48v40c66 12 137 33 195 67c14 -6 24 -16 30 -29c-6 -48 -6 -86 -6 -151v-255z" />
    <glyph glyph-name="uni0457" unicode="&#x457;" horiz-adv-x="437" 
d="M39 560c-39 0 -72 33 -72 72s33 71 72 71c40 0 71 -32 71 -71s-31 -72 -71 -72zM266 560c-39 0 -72 33 -72 72s33 71 72 71s71 -32 71 -71s-32 -72 -71 -72zM297 81c0 -25 19 -33 75 -37v-44c-104 3 -203 3 -307 0v44c56 4 75 12 75 37v339c0 25 -19 33 -75 37v44
c104 -3 203 -3 307 0v-44c-56 -4 -75 -12 -75 -37v-339z" />
    <glyph glyph-name="uni044E" unicode="&#x44e;" horiz-adv-x="892" 
d="M610 510c111 0 252 -86 252 -262c0 -181 -141 -259 -253 -259c-104 0 -234 76 -250 230h-107v-138c0 -25 19 -33 75 -37v-44c-103 3 -203 3 -307 0v44c56 4 75 12 75 37v339c0 25 -19 33 -75 37v44c104 -3 204 -3 307 0v-44c-56 -4 -75 -12 -75 -37v-155h105
c7 171 144 245 253 245zM626 33c49 0 72 67 72 165c0 158 -44 268 -105 268c-49 0 -72 -67 -72 -164c0 -158 44 -269 105 -269z" />
    <glyph glyph-name="uni044F" unicode="&#x44f;" horiz-adv-x="608" 
d="M514 80c0 -25 17 -32 74 -36v-44c-104 3 -200 3 -304 0v44c56 4 73 11 73 36v72h-14l-44 3l-26 -44c-75 -128 -180 -119 -232 -119l-26 44c59 7 108 47 148 126l9 19c-87 33 -127 88 -127 152c0 102 69 168 268 168c70 0 165 -4 267 0v-44c-47 -4 -66 -12 -66 -35v-342z
M357 200v255c-17 1 -40 1 -65 1c-63 0 -95 -50 -95 -119c0 -88 50 -132 146 -136z" />
    <glyph glyph-name="uni04D1" unicode="&#x4d1;" horiz-adv-x="563" 
d="M274 570c-81 0 -148 43 -154 139h69c6 -28 40 -50 85 -50s79 22 85 50h69c-6 -96 -73 -139 -154 -139zM478 123c0 -48 26 -66 65 -70v-42c-69 -1 -137 -14 -188 -25c-15 6 -24 16 -28 28l5 60h-10c-11 -19 -54 -88 -150 -88c-75 0 -147 40 -147 134c0 93 72 141 296 189
v61c0 80 -19 102 -59 102c-111 0 -26 -156 -142 -156c-46 0 -66 24 -66 57c0 75 103 137 252 137c86 0 172 -19 172 -142v-245zM236 54c47 0 74 52 85 79v143c-130 -32 -140 -115 -140 -144c0 -45 20 -78 55 -78z" />
    <glyph glyph-name="uni04D3" unicode="&#x4d3;" horiz-adv-x="563" 
d="M161 560c-39 0 -72 33 -72 72s33 71 72 71c40 0 71 -32 71 -71s-31 -72 -71 -72zM388 560c-39 0 -72 33 -72 72s33 71 72 71s71 -32 71 -71s-32 -72 -71 -72zM478 123c0 -48 26 -66 65 -70v-42c-69 -1 -137 -14 -188 -25c-15 6 -24 16 -28 28l5 60h-10
c-11 -19 -54 -88 -150 -88c-75 0 -147 40 -147 134c0 93 72 141 296 189v61c0 80 -19 102 -59 102c-111 0 -26 -156 -142 -156c-46 0 -66 24 -66 57c0 75 103 137 252 137c86 0 172 -19 172 -142v-245zM236 54c47 0 74 52 85 79v143c-130 -32 -140 -115 -140 -144
c0 -45 20 -78 55 -78z" />
    <glyph glyph-name="uni04D7" unicode="&#x4d7;" horiz-adv-x="523" 
d="M262 570c-81 0 -148 43 -154 139h69c6 -28 40 -50 85 -50s79 22 85 50h69c-6 -96 -73 -139 -154 -139zM482 105c-40 -86 -116 -116 -190 -116c-137 0 -262 93 -262 262c0 173 126 259 248 259c131 0 215 -96 215 -200c0 -51 -17 -75 -64 -75h-237c0 -94 29 -201 133 -201
c43 0 87 16 115 71h42zM351 276c0 120 -17 190 -74 190c-55 0 -85 -70 -85 -190h159z" />
    <glyph glyph-name="uni04ED" unicode="&#x4ed;" horiz-adv-x="531" 
d="M153 560c-39 0 -72 33 -72 72s33 71 72 71c40 0 71 -32 71 -71s-31 -72 -71 -72zM380 560c-39 0 -72 33 -72 72s33 71 72 71s71 -32 71 -71s-32 -72 -71 -72zM236 511c130 0 265 -82 265 -265c0 -171 -137 -254 -258 -254c-120 0 -213 57 -213 138c0 31 18 59 70 59
c47 0 66 -27 63 -59c-4 -45 3 -92 65 -92c72 0 102 80 104 195h-145v53h144c-7 92 -39 179 -114 179c-63 0 -88 -33 -99 -66c-4 -10 -11 -14 -21 -14h-24c-19 0 -19 18 -12 32c28 59 91 94 175 94z" />
    <glyph glyph-name="aacutecy" horiz-adv-x="563" 
d="M345 620l-167 -59l-17 26l135 116c32 27 65 27 85 0c19 -28 5 -68 -36 -83zM478 123c0 -48 26 -66 65 -70v-42c-69 -1 -137 -14 -188 -25c-15 6 -24 16 -28 28l5 60h-10c-11 -19 -54 -88 -150 -88c-75 0 -147 40 -147 134c0 93 72 141 296 189v61c0 80 -19 102 -59 102
c-111 0 -26 -156 -142 -156c-46 0 -66 24 -66 57c0 75 103 137 252 137c86 0 172 -19 172 -142v-245zM236 54c47 0 74 52 85 79v143c-130 -32 -140 -115 -140 -144c0 -45 20 -78 55 -78z" />
    <glyph glyph-name="ieacutecy" horiz-adv-x="523" 
d="M149 587l17 -26l167 59c41 15 55 55 36 83c-20 27 -53 27 -85 0zM482 105c-40 -86 -116 -116 -190 -116c-137 0 -262 93 -262 262c0 173 126 259 248 259c131 0 215 -96 215 -200c0 -51 -17 -75 -64 -75h-237c0 -94 29 -201 133 -201c43 0 87 16 115 71h42zM351 276
c0 120 -17 190 -74 190c-55 0 -85 -70 -85 -190h159z" />
    <glyph glyph-name="iiacutecy" horiz-adv-x="687" 
d="M414 620l-167 -59l-17 26l135 116c32 27 65 27 85 0c19 -28 5 -68 -36 -83zM667 457c-57 -4 -76 -12 -76 -37v-339c0 -25 19 -33 76 -37v-44c-104 3 -204 3 -308 0v44c56 4 75 12 75 37v241l-182 -213v-28c0 -25 19 -33 75 -37v-44c-103 3 -203 3 -307 0v44
c56 4 75 12 75 37v339c0 25 -19 33 -75 37v44c104 -3 204 -3 307 0v-44c-56 -4 -75 -12 -75 -37v-246l182 213v33c0 25 -19 33 -75 37v44c104 -3 204 -3 308 0v-44z" />
    <glyph glyph-name="oacutecy" 
d="M169 587l17 -26l167 59c41 15 55 55 36 83c-20 27 -53 27 -85 0zM283 510c111 0 252 -86 252 -262c0 -181 -141 -259 -253 -259c-111 0 -252 86 -252 262c0 181 141 259 253 259zM299 33c49 0 72 67 72 165c0 158 -44 268 -105 268c-49 0 -72 -67 -72 -164
c0 -158 44 -269 105 -269z" />
    <glyph glyph-name="uacutecy" horiz-adv-x="598" 
d="M373 620l-167 -59l-17 26l135 116c32 27 65 27 85 0c19 -28 5 -68 -36 -83zM373 501h210v-41l-33 -2c-34 -1 -45 -29 -60 -69l-240 -604h-60l88 204l-178 402c-18 41 -32 66 -53 67l-32 2v41h278v-41l-29 -2c-26 -1 -34 -27 -17 -68l98 -237l96 236c17 43 1 67 -32 69
l-36 2v41z" />
    <glyph glyph-name="yeruacutecy" horiz-adv-x="923" 
d="M348 587l17 -26l167 59c41 15 55 55 36 83c-20 27 -53 27 -85 0zM250 349h15c207 -8 298 -84 298 -181c0 -102 -69 -168 -269 -168c-70 0 -164 4 -266 0v44c46 4 65 12 65 35v342c0 25 -17 32 -73 36v44c104 -3 200 -3 303 0v-44c-56 -4 -73 -11 -73 -36v-72zM828 81
c0 -25 19 -33 75 -37v-44c-104 3 -203 3 -307 0v44c56 4 75 12 75 37v339c0 25 -19 33 -75 37v44c104 -3 203 -3 307 0v-44c-56 -4 -75 -12 -75 -37v-339zM250 301v-255c17 -1 41 -1 65 -1c64 0 96 50 96 119c0 88 -50 132 -146 137h-15z" />
    <glyph glyph-name="ereversedacutecy" horiz-adv-x="531" 
d="M337 620l-167 -59l-17 26l135 116c32 27 65 27 85 0c19 -28 5 -68 -36 -83zM236 511c130 0 265 -82 265 -265c0 -171 -137 -254 -258 -254c-120 0 -213 57 -213 138c0 31 18 59 70 59c47 0 66 -27 63 -59c-4 -45 3 -92 65 -92c72 0 102 80 104 195h-145v53h144
c-7 92 -39 179 -114 179c-63 0 -88 -33 -99 -66c-4 -10 -11 -14 -21 -14h-24c-19 0 -19 18 -12 32c28 59 91 94 175 94z" />
    <glyph glyph-name="iuacutecy" horiz-adv-x="892" 
d="M517 620l-167 -59l-17 26l135 116c32 27 65 27 85 0c19 -28 5 -68 -36 -83zM610 510c111 0 252 -86 252 -262c0 -181 -141 -259 -253 -259c-104 0 -234 76 -250 230h-107v-138c0 -25 19 -33 75 -37v-44c-103 3 -203 3 -307 0v44c56 4 75 12 75 37v339c0 25 -19 33 -75 37
v44c104 -3 204 -3 307 0v-44c-56 -4 -75 -12 -75 -37v-155h105c7 171 144 245 253 245zM626 33c49 0 72 67 72 165c0 158 -44 268 -105 268c-49 0 -72 -67 -72 -164c0 -158 44 -269 105 -269z" />
    <glyph glyph-name="iaacutecy" horiz-adv-x="608" 
d="M375 620l-167 -59l-17 26l135 116c32 27 65 27 85 0c19 -28 5 -68 -36 -83zM514 80c0 -25 17 -32 74 -36v-44c-104 3 -200 3 -304 0v44c56 4 73 11 73 36v72h-14l-44 3l-26 -44c-75 -128 -180 -119 -232 -119l-26 44c59 7 108 47 148 126l9 19c-87 33 -127 88 -127 152
c0 102 69 168 268 168c70 0 165 -4 267 0v-44c-47 -4 -66 -12 -66 -35v-342zM357 200v255c-17 1 -40 1 -65 1c-63 0 -95 -50 -95 -119c0 -88 50 -132 146 -136z" />
    <glyph glyph-name="uni0394" unicode="&#x394;" horiz-adv-x="669" 
d="M649 0h-629l298 634zM129 110h341l-176 331z" />
    <glyph glyph-name="uni03A9" unicode="&#x3a9;" horiz-adv-x="769" 
d="M653 128h76l-39 -105c-5 -15 -17 -23 -28 -23h-221v174c69 7 114 89 114 182c0 113 -60 203 -171 203c-110 0 -170 -90 -170 -203c0 -93 45 -175 115 -182v-174h-222c-11 0 -23 8 -28 23l-39 105h75l18 -23c20 -26 38 -30 71 -30h44c5 0 12 4 14 8
c-117 35 -200 129 -200 260c0 151 124 294 322 294s323 -143 323 -294c0 -122 -83 -222 -198 -258c3 -5 7 -10 12 -10h50c27 0 45 4 63 30z" />
    <glyph glyph-name="uni03BC" unicode="&#x3bc;" horiz-adv-x="632" 
d="M552 123c0 -48 26 -66 65 -70v-42c-69 -1 -137 -14 -188 -25c-15 6 -24 16 -28 28l9 91h-7c-14 -36 -70 -121 -176 -121c-24 0 -49 4 -72 16c16 -100 72 -108 69 -133c-11 -74 -151 -100 -151 -12v568c0 21 -8 29 -28 30l-30 1v40l184 11c16 1 31 -8 31 -28v-304
c0 -69 12 -119 60 -119c55 0 93 67 105 104v265c0 21 -8 29 -28 30l-30 1v40l185 11c14 1 30 -8 30 -28v-354z" />
    <glyph glyph-name="pi" unicode="&#x3c0;" horiz-adv-x="891" 
d="M781 135c32 0 55 -20 55 -56c0 -72 -63 -89 -143 -89c-130 0 -186 48 -186 140v277h-74v-268c0 -97 -93 -145 -184 -145c-37 0 -78 2 -101 12l-13 68c52 -15 133 -26 133 82v251h-33c-48 0 -38 -103 -12 -139l-140 16c-62 87 -16 167 67 167h665v-44h-83
c-36 0 -60 -18 -60 -61v-238c0 -27 4 -69 24 -69c41 0 13 96 85 96z" />
    <glyph glyph-name="zero" unicode="0" horiz-adv-x="628" 
d="M593 313c0 -178 -103 -328 -278 -328s-280 148 -280 328c0 176 105 323 280 323s278 -147 278 -323zM315 34c95 0 111 162 111 279c0 113 -16 275 -111 275c-96 0 -113 -162 -113 -275c0 -117 17 -279 113 -279z" />
    <glyph glyph-name="one" unicode="1" horiz-adv-x="380" 
d="M268 77c0 -25 27 -33 72 -37v-40c-102 2 -196 2 -298 0v40c42 4 69 12 69 37v395c0 43 -21 54 -72 50v40c76 12 148 33 206 67c13 -6 24 -16 29 -29c-6 -48 -6 -86 -6 -150v-373z" />
    <glyph glyph-name="two" unicode="2" horiz-adv-x="546" 
d="M521 182l-39 -159c-4 -15 -17 -23 -32 -23h-416l-4 43c91 84 307 269 307 442c0 64 -29 106 -84 106c-56 0 -86 -43 -86 -108c0 -43 12 -47 12 -75c0 -33 -28 -63 -70 -63c-57 0 -82 52 -82 107c0 106 89 185 231 185c138 0 232 -71 232 -183c0 -146 -166 -252 -322 -349
h166c56 0 99 4 121 37l28 40h38z" />
    <glyph glyph-name="three" unicode="3" horiz-adv-x="585" 
d="M342 344c118 22 213 -42 213 -148c0 -132 -146 -209 -281 -209c-143 0 -239 75 -239 154c0 38 21 69 67 69c56 0 68 -49 68 -77c0 -47 29 -101 104 -101c88 0 126 76 126 150c0 69 -34 122 -89 122c-27 0 -46 -8 -78 -19l-16 42l38 17c72 33 105 81 105 145
c0 62 -31 102 -86 102c-53 0 -91 -40 -91 -101c0 -35 12 -42 12 -72c0 -35 -25 -56 -60 -56c-49 0 -79 41 -79 98c0 102 89 177 219 177c134 0 213 -69 213 -147c0 -76 -75 -127 -146 -146z" />
    <glyph glyph-name="four" unicode="4" horiz-adv-x="589" 
d="M530 300h29l-26 -107c-4 -15 -17 -23 -34 -23h-70v-89c0 -25 19 -33 76 -37v-44c-104 3 -211 3 -325 0v44c66 4 85 12 85 37v89h-208l-22 79l321 388h73v-386h21c43 0 58 -1 70 26zM265 251v211l-177 -211h177z" />
    <glyph glyph-name="five" unicode="5" horiz-adv-x="578" 
d="M314 428c94 0 229 -58 229 -210c0 -151 -136 -230 -277 -230c-122 0 -211 56 -228 132c-11 46 10 82 59 82c53 0 56 -41 66 -74c13 -41 30 -101 104 -101c89 0 119 83 119 165c0 110 -57 175 -133 175c-53 0 -100 -31 -127 -70h-53l27 324h193c46 0 75 4 91 28h76
l-29 -110c-4 -15 -17 -23 -32 -23h-267l-14 -175c31 45 116 87 196 87z" />
    <glyph glyph-name="six" unicode="6" horiz-adv-x="579" 
d="M445 554c-36 27 -66 36 -102 36c-127 0 -140 -123 -144 -251c15 24 58 67 134 67c102 0 211 -72 211 -202c0 -134 -115 -219 -249 -219c-166 0 -260 128 -260 307c0 196 114 344 308 344c48 0 105 -11 138 -37zM200 270c0 -91 14 -237 99 -237c73 0 86 108 86 164
c0 78 -23 160 -86 160c-66 0 -99 -74 -99 -87z" />
    <glyph glyph-name="seven" unicode="7" horiz-adv-x="504" 
d="M479 621l-242 -586c-13 -32 -36 -47 -67 -47c-35 0 -59 25 -59 59c0 40 14 53 271 469h-185c-67 0 -103 -10 -129 -63h-38l47 177h59c18 -7 33 -9 81 -9h262z" />
    <glyph glyph-name="eight" unicode="8" horiz-adv-x="580" 
d="M402 335c87 -29 143 -93 143 -166c0 -105 -104 -185 -255 -185s-255 80 -255 185c0 73 55 136 141 166c-66 29 -102 83 -102 141c0 86 79 161 216 161s212 -75 212 -161c0 -56 -35 -111 -100 -141zM290 589c-54 0 -80 -41 -80 -113c0 -74 26 -122 80 -122
c53 0 76 48 76 122c0 72 -23 113 -76 113zM290 33c69 0 91 52 91 136c0 81 -22 144 -91 144c-72 0 -91 -63 -91 -144c0 -84 21 -136 91 -136z" />
    <glyph glyph-name="nine" unicode="9" horiz-adv-x="579" 
d="M134 73c36 -27 66 -36 102 -36c127 0 140 123 144 251c-15 -24 -58 -67 -134 -67c-102 0 -211 72 -211 202c0 134 115 219 249 219c166 0 260 -128 260 -307c0 -196 -114 -344 -308 -344c-48 0 -105 11 -138 37zM379 357c0 91 -14 237 -99 237c-73 0 -86 -108 -86 -164
c0 -78 23 -160 86 -160c66 0 99 74 99 87z" />
    <glyph glyph-name="zero.osf" horiz-adv-x="626" 
d="M591 250c0 -142 -107 -265 -277 -265s-279 122 -279 265c0 141 109 260 279 260s277 -119 277 -260zM314 34c97 0 107 149 107 216c0 65 -10 212 -107 212c-99 0 -109 -147 -109 -212c0 -67 10 -216 109 -216z" />
    <glyph glyph-name="one.osf" horiz-adv-x="372" 
d="M262 81c0 -25 27 -33 65 -37v-44c-94 3 -190 3 -284 0v44c35 4 62 12 62 37v296c0 40 -10 39 -60 38v43c137 14 154 53 193 53c22 0 30 -9 30 -33c0 -36 -6 -94 -6 -150v-247z" />
    <glyph glyph-name="two.osf" horiz-adv-x="548" 
d="M523 182l-40 -159c-4 -15 -17 -23 -32 -23h-416v80c92 53 300 132 300 276c0 66 -32 107 -80 107c-52 0 -86 -40 -86 -103c0 -45 12 -48 12 -76c0 -32 -24 -59 -70 -59c-55 0 -82 47 -82 98c0 111 90 188 226 188c162 0 232 -76 232 -165c0 -126 -156 -192 -306 -248h164
c46 0 75 11 91 33l35 51h52z" />
    <glyph glyph-name="three.osf" horiz-adv-x="585" 
d="M342 218c118 22 213 -43 213 -148c0 -134 -146 -212 -280 -212c-144 0 -240 78 -240 160c0 35 21 66 63 66c60 0 72 -49 72 -79c0 -45 29 -102 105 -102c87 0 125 78 125 155c0 66 -34 120 -89 120c-27 0 -46 -8 -78 -19l-16 42l38 17c72 33 105 81 105 137
c0 70 -31 110 -86 110c-53 0 -91 -40 -91 -101c0 -35 12 -42 12 -74c0 -33 -24 -54 -60 -54c-51 0 -79 41 -79 92c0 107 89 183 218 183c136 0 214 -67 214 -148c0 -75 -75 -126 -146 -145z" />
    <glyph glyph-name="four.osf" horiz-adv-x="589" 
d="M527 164h32l-26 -107c-4 -15 -17 -23 -34 -23h-70v-170h-164v170h-208l-22 79l321 388h73v-386h36c24 0 38 -1 51 26zM265 115v211l-177 -211h177z" />
    <glyph glyph-name="five.osf" horiz-adv-x="578" 
d="M312 318c69 0 231 -51 231 -228c0 -145 -139 -233 -275 -233c-127 0 -212 63 -230 137c-11 46 10 82 58 82c54 0 57 -41 67 -75c13 -37 26 -99 103 -99c87 0 120 84 120 175c0 102 -54 164 -127 164c-50 0 -103 -29 -131 -64h-55l27 324h193c46 0 75 4 91 28h76l-29 -110
c-4 -15 -17 -23 -32 -23h-267l-14 -175c34 47 89 97 194 97z" />
    <glyph glyph-name="six.osf" horiz-adv-x="579" 
d="M448 592c-229 0 -246 -133 -249 -253c15 24 64 67 141 67c102 0 204 -72 204 -203c0 -133 -116 -218 -251 -218c-165 0 -258 128 -258 307c0 196 140 344 386 344zM200 270c0 -107 18 -237 93 -237c85 0 92 110 92 165c0 78 -23 159 -84 159c-68 0 -101 -74 -101 -87z
" />
    <glyph glyph-name="seven.osf" horiz-adv-x="504" 
d="M479 501l-242 -607c-13 -31 -36 -46 -67 -46c-35 0 -59 25 -59 59c0 40 14 53 271 489h-167c-56 0 -95 -13 -119 -63h-66l47 177h59c18 -7 33 -9 81 -9h262z" />
    <glyph glyph-name="eight.osf" horiz-adv-x="580" 
d="M402 335c87 -29 143 -93 143 -166c0 -105 -104 -185 -255 -185s-255 80 -255 185c0 73 55 136 141 166c-66 29 -102 83 -102 141c0 86 79 161 216 161s212 -75 212 -161c0 -56 -35 -111 -100 -141zM290 589c-54 0 -80 -41 -80 -113c0 -74 26 -122 80 -122
c53 0 76 48 76 122c0 72 -23 113 -76 113zM290 33c69 0 91 52 91 136c0 81 -22 144 -91 144c-72 0 -91 -63 -91 -144c0 -84 21 -136 91 -136z" />
    <glyph glyph-name="nine.osf" horiz-adv-x="579" 
d="M131 -96c229 0 246 133 249 253c-15 -24 -64 -67 -141 -67c-102 0 -204 72 -204 203c0 133 116 218 251 218c165 0 258 -128 258 -307c0 -196 -140 -344 -386 -344zM379 226c0 107 -18 237 -93 237c-85 0 -92 -110 -92 -165c0 -78 23 -159 84 -159c68 0 101 74 101 87z
" />
    <glyph glyph-name="zero.tf" horiz-adv-x="600" 
d="M573 313c0 -178 -103 -328 -278 -328s-280 148 -280 328c0 176 105 323 280 323s278 -147 278 -323zM295 34c95 0 111 162 111 279c0 113 -16 275 -111 275c-96 0 -113 -162 -113 -275c0 -117 17 -279 113 -279z" />
    <glyph glyph-name="one.tf" horiz-adv-x="600" 
d="M376 81c0 -25 47 -33 85 -37v-44c-94 3 -230 3 -324 0v44c34 4 82 12 82 37v419c0 39 -9 38 -59 33v43c130 14 156 53 184 53c25 0 38 -9 38 -33c0 -36 -6 -94 -6 -150v-365z" />
    <glyph glyph-name="two.tf" horiz-adv-x="600" 
d="M540 182l-39 -159c-4 -15 -17 -23 -32 -23h-416l-4 43c91 84 307 269 307 442c0 64 -29 106 -84 106c-56 0 -86 -43 -86 -108c0 -43 12 -47 12 -75c0 -33 -28 -63 -70 -63c-57 0 -82 52 -82 107c0 106 89 185 231 185c138 0 232 -71 232 -183c0 -146 -166 -252 -322 -349
h166c56 0 99 4 121 37l28 40h38z" />
    <glyph glyph-name="three.tf" horiz-adv-x="600" 
d="M347 344c118 22 213 -42 213 -148c0 -132 -146 -209 -281 -209c-143 0 -239 75 -239 154c0 38 21 69 67 69c56 0 68 -49 68 -77c0 -47 29 -101 104 -101c88 0 126 76 126 150c0 69 -34 122 -89 122c-27 0 -46 -8 -78 -19l-16 42l38 17c72 33 105 81 105 145
c0 62 -31 102 -86 102c-53 0 -91 -40 -91 -101c0 -35 12 -42 12 -72c0 -35 -25 -56 -60 -56c-49 0 -79 41 -79 98c0 102 89 177 219 177c134 0 213 -69 213 -147c0 -76 -75 -127 -146 -146z" />
    <glyph glyph-name="four.tf" horiz-adv-x="600" 
d="M534 300h29l-26 -107c-4 -15 -17 -23 -34 -23h-70v-89c0 -25 19 -33 76 -37v-44c-104 3 -211 3 -325 0v44c66 4 85 12 85 37v89h-208l-22 79l321 388h73v-386h21c43 0 58 -1 70 26zM269 251v211l-177 -211h177z" />
    <glyph glyph-name="five.tf" horiz-adv-x="600" 
d="M325 426c94 0 229 -58 229 -210c0 -151 -136 -230 -277 -230c-122 0 -211 56 -228 132c-11 46 10 82 59 82c53 0 56 -41 66 -74c13 -41 30 -101 104 -101c89 0 119 83 119 165c0 110 -57 175 -133 175c-53 0 -100 -31 -127 -70h-53l27 324h193c46 0 75 4 91 28h76
l-29 -110c-4 -15 -17 -23 -32 -23h-267l-14 -175c31 45 116 87 196 87z" />
    <glyph glyph-name="six.tf" horiz-adv-x="600" 
d="M446 554c-36 27 -66 36 -102 36c-127 0 -140 -123 -144 -251c15 24 58 67 134 67c102 0 211 -72 211 -202c0 -134 -115 -219 -249 -219c-166 0 -260 128 -260 307c0 196 114 344 308 344c48 0 105 -11 138 -37zM201 270c0 -91 14 -237 99 -237c73 0 86 108 86 164
c0 78 -23 160 -86 160c-66 0 -99 -74 -99 -87z" />
    <glyph glyph-name="seven.tf" horiz-adv-x="600" 
d="M518 621l-242 -586c-13 -32 -36 -47 -67 -47c-35 0 -59 25 -59 59c0 40 14 53 271 469h-185c-67 0 -103 -10 -129 -63h-38l47 177h59c18 -7 33 -9 81 -9h262z" />
    <glyph glyph-name="eight.tf" horiz-adv-x="600" 
d="M412 335c87 -29 143 -93 143 -166c0 -105 -104 -185 -255 -185s-255 80 -255 185c0 73 55 136 141 166c-66 29 -102 83 -102 141c0 86 79 161 216 161s212 -75 212 -161c0 -56 -35 -111 -100 -141zM300 589c-54 0 -80 -41 -80 -113c0 -74 26 -122 80 -122
c53 0 76 48 76 122c0 72 -23 113 -76 113zM300 33c69 0 91 52 91 136c0 81 -22 144 -91 144c-72 0 -91 -63 -91 -144c0 -84 21 -136 91 -136z" />
    <glyph glyph-name="nine.tf" horiz-adv-x="600" 
d="M135 70c36 -27 66 -36 102 -36c127 0 140 123 144 251c-15 -24 -58 -67 -134 -67c-102 0 -211 72 -211 202c0 134 115 219 249 219c166 0 260 -128 260 -307c0 -196 -114 -344 -308 -344c-48 0 -105 11 -138 37zM380 354c0 91 -14 237 -99 237c-73 0 -86 -108 -86 -164
c0 -78 23 -160 86 -160c66 0 99 74 99 87z" />
    <glyph glyph-name="zero.dnom" horiz-adv-x="302" 
d="M267 116c0 -65 -49 -127 -116 -127c-68 0 -116 62 -116 127c0 64 48 128 116 128c67 0 116 -64 116 -128zM151 43c36 0 47 40 47 73c0 32 -11 74 -47 74c-37 0 -48 -42 -48 -74c0 -33 11 -73 48 -73z" />
    <glyph glyph-name="one.dnom" horiz-adv-x="219" 
d="M145 51c0 -15 15 -17 29 -18v-39h-127v39c14 1 29 3 29 18v131l-31 -10v45l56 25c19 8 46 -4 44 -15v-176z" />
    <glyph glyph-name="two.dnom" horiz-adv-x="274" 
d="M249 64l-10 -56c-2 -9 -10 -14 -21 -14h-188c14 69 67 108 103 130c25 15 46 37 46 56c0 18 -16 30 -35 30c-14 0 -30 -7 -34 -19c-5 -17 5 -26 2 -38c-14 -32 -72 -18 -72 11c1 44 32 84 102 84c62 0 93 -29 93 -76c0 -48 -43 -73 -75 -92c-30 -17 -28 -17 -34 -37h61
c11 0 17 2 21 8l9 13h32z" />
    <glyph glyph-name="three.dnom" horiz-adv-x="281" 
d="M199 144c31 -9 52 -32 52 -66c0 -50 -41 -89 -112 -89c-68 0 -104 39 -104 79c0 14 10 26 28 26c34 0 26 -25 32 -43c5 -14 24 -26 41 -26c33 0 50 29 49 46c1 41 -30 42 -64 26l-17 33l24 11c25 9 33 22 33 44c0 14 -10 26 -32 26c-21 0 -29 -30 -22 -54l-54 6
c-8 3 -12 9 -12 14c-1 40 32 71 95 71c66 0 96 -35 96 -61c0 -20 -10 -34 -33 -43z" />
    <glyph glyph-name="four.dnom" horiz-adv-x="259" 
d="M229 62h-29v-27c0 -11 8 -18 25 -18v-23h-120v23c17 0 24 7 24 18v27h-94v44l120 139c12 15 45 6 45 -9v-128h29v-46z" />
    <glyph glyph-name="five.dnom" horiz-adv-x="291" 
d="M256 81c0 -57 -45 -92 -112 -92c-69 0 -106 29 -109 78c-1 14 9 32 34 32c40 0 34 -30 40 -48c5 -13 18 -27 35 -27c15 0 37 20 37 57c0 23 -25 48 -43 48c-24 0 -39 -9 -52 -12h-37l10 125h134l7 5h28l-3 -47l-12 -10h-107l-3 -35c15 14 34 19 58 19c39 0 95 -35 95 -93
z" />
    <glyph glyph-name="six.dnom" horiz-adv-x="281" 
d="M208 204c-8 -15 -30 7 -53 7c-33 0 -39 -27 -43 -61c11 6 21 8 47 8c41 0 87 -34 87 -84c0 -40 -34 -85 -102 -85c-82 0 -109 58 -109 124c0 64 34 135 118 135c22 0 46 -8 59 -17c8 -6 2 -16 -4 -27zM144 27c22 0 31 15 31 49c0 26 -13 42 -28 42c-25 0 -37 -7 -37 -13
c-2 -58 16 -78 34 -78z" />
    <glyph glyph-name="seven.dnom" horiz-adv-x="268" 
d="M164 190h-81l-6 -17h-47l13 55c2 9 9 14 21 14h179l-125 -250h-25c-16 0 -31 14 -20 35z" />
    <glyph glyph-name="eight.dnom" horiz-adv-x="288" 
d="M197 133c29 -5 56 -34 56 -69c0 -42 -36 -75 -111 -75s-107 32 -107 80c0 31 23 64 52 62c-20 6 -38 21 -38 50c0 30 32 63 93 63c57 0 94 -30 94 -62c0 -26 -19 -43 -39 -49zM139 156l19 -3c12 -2 20 19 20 28c0 10 -3 28 -35 28c-24 0 -30 -17 -30 -27
c0 -9 3 -22 26 -26zM180 65c0 16 -9 30 -35 35l-31 6c-11 2 -16 -21 -16 -38c0 -19 15 -43 44 -43c26 0 38 18 38 40z" />
    <glyph glyph-name="nine.dnom" horiz-adv-x="281" 
d="M73 33c8 15 30 -7 53 -7c33 0 39 27 43 61c-11 -6 -21 -8 -47 -8c-41 0 -87 34 -87 84c0 40 34 85 102 85c82 0 109 -58 109 -124c0 -64 -34 -135 -118 -135c-22 0 -46 8 -59 17c-8 6 -2 16 4 27zM137 210c-22 0 -31 -15 -31 -49c0 -26 13 -42 28 -42c25 0 37 7 37 13
c2 58 -16 78 -34 78z" />
    <glyph glyph-name="zero.numr" horiz-adv-x="302" 
d="M267 515c0 -65 -49 -127 -116 -127c-68 0 -116 62 -116 127c0 64 48 128 116 128c67 0 116 -64 116 -128zM151 442c36 0 47 40 47 73c0 32 -11 74 -47 74c-37 0 -48 -42 -48 -74c0 -33 11 -73 48 -73z" />
    <glyph glyph-name="one.numr" horiz-adv-x="219" 
d="M145 449c0 -15 15 -17 29 -18v-39h-127v39c14 1 29 3 29 18v131l-31 -10v45l56 25c19 8 46 -4 44 -15v-176z" />
    <glyph glyph-name="two.numr" horiz-adv-x="274" 
d="M249 457l-10 -56c-2 -9 -10 -14 -21 -14h-188c14 69 67 108 103 130c25 15 46 37 46 56c0 18 -16 30 -35 30c-14 0 -30 -7 -34 -19c-5 -17 5 -26 2 -38c-14 -32 -72 -18 -72 11c1 44 32 84 102 84c62 0 93 -29 93 -76c0 -48 -43 -73 -75 -92c-30 -17 -28 -17 -34 -37h61
c11 0 17 2 21 8l9 13h32z" />
    <glyph glyph-name="three.numr" horiz-adv-x="281" 
d="M199 538c31 -9 52 -32 52 -66c0 -50 -41 -89 -112 -89c-68 0 -104 39 -104 79c0 14 10 26 28 26c34 0 26 -25 32 -43c5 -14 24 -26 41 -26c33 0 50 29 49 46c1 41 -30 42 -64 26l-17 33l24 11c25 9 33 22 33 44c0 14 -10 26 -32 26c-21 0 -29 -30 -22 -54l-54 6
c-8 3 -12 9 -12 14c-1 40 32 71 95 71c66 0 96 -35 96 -61c0 -20 -10 -34 -33 -43z" />
    <glyph glyph-name="four.numr" horiz-adv-x="259" 
d="M229 453h-29v-27c0 -11 8 -18 25 -18v-23h-120v23c17 0 24 7 24 18v27h-94v44l120 139c12 15 45 6 45 -9v-128h29v-46z" />
    <glyph glyph-name="five.numr" horiz-adv-x="291" 
d="M256 481c0 -57 -45 -92 -112 -92c-69 0 -106 29 -109 78c-1 14 9 32 34 32c40 0 34 -30 40 -48c5 -13 18 -27 35 -27c15 0 37 20 37 57c0 23 -25 48 -43 48c-24 0 -39 -9 -52 -12h-37l10 125h134l7 5h28l-3 -47l-12 -10h-107l-3 -35c15 14 34 19 58 19
c39 0 95 -35 95 -93z" />
    <glyph glyph-name="six.numr" horiz-adv-x="281" 
d="M208 597c-8 -15 -30 7 -53 7c-33 0 -39 -27 -43 -61c11 6 21 8 47 8c41 0 87 -34 87 -84c0 -40 -34 -85 -102 -85c-82 0 -109 58 -109 124c0 64 34 135 118 135c22 0 46 -8 59 -17c8 -6 2 -16 -4 -27zM144 420c22 0 31 15 31 49c0 26 -13 42 -28 42c-25 0 -37 -7 -37 -13
c-2 -58 16 -78 34 -78z" />
    <glyph glyph-name="seven.numr" horiz-adv-x="268" 
d="M164 588h-81l-6 -17h-47l13 55c2 9 9 14 21 14h179l-125 -250h-25c-16 0 -31 14 -20 35z" />
    <glyph glyph-name="eight.numr" horiz-adv-x="288" 
d="M197 531c29 -5 56 -34 56 -69c0 -42 -36 -75 -111 -75s-107 32 -107 80c0 31 23 64 52 62c-20 6 -38 21 -38 50c0 30 32 63 93 63c57 0 94 -30 94 -62c0 -26 -19 -43 -39 -49zM139 554l19 -3c12 -2 20 19 20 28c0 10 -3 28 -35 28c-24 0 -30 -17 -30 -27
c0 -9 3 -22 26 -26zM180 463c0 16 -9 30 -35 35l-31 6c-11 2 -16 -21 -16 -38c0 -19 15 -43 44 -43c26 0 38 18 38 40z" />
    <glyph glyph-name="nine.numr" horiz-adv-x="281" 
d="M73 427c8 15 30 -7 53 -7c33 0 39 27 43 61c-11 -6 -21 -8 -47 -8c-41 0 -87 34 -87 84c0 40 34 85 102 85c82 0 109 -58 109 -124c0 -64 -34 -135 -118 -135c-22 0 -46 8 -59 17c-8 6 -2 16 4 27zM137 604c-22 0 -31 -15 -31 -49c0 -26 13 -42 28 -42c25 0 37 7 37 13
c2 58 -16 78 -34 78z" />
    <glyph glyph-name="uni00B9" unicode="&#xb9;" horiz-adv-x="219" 
d="M145 449c0 -15 15 -17 29 -18v-39h-127v39c14 1 29 3 29 18v131l-31 -10v45l56 25c19 8 46 -4 44 -15v-176z" />
    <glyph glyph-name="uni00B2" unicode="&#xb2;" horiz-adv-x="274" 
d="M249 457l-10 -56c-2 -9 -10 -14 -21 -14h-188c14 69 67 108 103 130c25 15 46 37 46 56c0 18 -16 30 -35 30c-14 0 -30 -7 -34 -19c-5 -17 5 -26 2 -38c-14 -32 -72 -18 -72 11c1 44 32 84 102 84c62 0 93 -29 93 -76c0 -48 -43 -73 -75 -92c-30 -17 -28 -17 -34 -37h61
c11 0 17 2 21 8l9 13h32z" />
    <glyph glyph-name="uni00B3" unicode="&#xb3;" horiz-adv-x="281" 
d="M199 538c31 -9 52 -32 52 -66c0 -50 -41 -89 -112 -89c-68 0 -104 39 -104 79c0 14 10 26 28 26c34 0 26 -25 32 -43c5 -14 24 -26 41 -26c33 0 50 29 49 46c1 41 -30 42 -64 26l-17 33l24 11c25 9 33 22 33 44c0 14 -10 26 -32 26c-21 0 -29 -30 -22 -54l-54 6
c-8 3 -12 9 -12 14c-1 40 32 71 95 71c66 0 96 -35 96 -61c0 -20 -10 -34 -33 -43z" />
    <glyph glyph-name="fraction" unicode="&#x2044;" horiz-adv-x="193" 
d="M277 636h91l-433 -641h-90z" />
    <glyph glyph-name="onehalf" unicode="&#xbd;" horiz-adv-x="686" 
d="M145 449c0 -15 15 -17 29 -18v-39h-127v39c14 1 29 3 29 18v131l-31 -10v45l56 25c19 8 46 -4 44 -15v-176zM496 636h91l-433 -641h-90zM661 64l-10 -56c-2 -9 -10 -14 -21 -14h-188c14 69 67 108 103 130c25 15 46 37 46 56c0 18 -16 30 -35 30c-14 0 -30 -7 -34 -19
c-5 -17 5 -26 2 -38c-14 -32 -72 -18 -72 11c1 44 32 84 102 84c62 0 93 -29 93 -76c0 -48 -43 -73 -75 -92c-30 -17 -28 -17 -34 -37h61c11 0 17 2 21 8l9 13h32z" />
    <glyph glyph-name="onequarter" unicode="&#xbc;" horiz-adv-x="671" 
d="M47 431c14 1 29 3 29 18v131l-31 -10v45l56 25c19 8 46 -4 44 -15v-176c0 -15 15 -17 29 -18v-39h-127v39zM496 636h91l-433 -641h-90zM641 62h-29v-27c0 -11 8 -18 25 -18v-23h-120v23c17 0 24 7 24 18v27h-94v44l120 139c12 15 45 6 45 -9v-128h29v-46z" />
    <glyph glyph-name="threequarters" unicode="&#xbe;" horiz-adv-x="696" 
d="M251 472c0 -50 -41 -89 -112 -89c-68 0 -104 39 -104 79c0 14 10 26 28 26c34 0 26 -25 32 -43c5 -14 24 -26 41 -26c33 0 50 29 49 46c1 41 -30 42 -64 26l-17 33l24 11c25 9 33 22 33 44c0 14 -10 26 -32 26c-21 0 -29 -30 -22 -54l-54 6c-8 3 -12 9 -12 14
c-1 40 32 71 95 71c66 0 96 -35 96 -61c0 -20 -10 -34 -33 -43c31 -9 52 -32 52 -66zM554 636h91l-433 -641h-90zM666 62h-29v-27c0 -11 8 -18 25 -18v-23h-120v23c17 0 24 7 24 18v27h-94v44l120 139c12 15 45 6 45 -9v-128h29v-46z" />
    <glyph glyph-name="oneeighth" unicode="&#x215b;" horiz-adv-x="700" 
d="M145 449c0 -15 15 -17 29 -18v-39h-127v39c14 1 29 3 29 18v131l-31 -10v45l56 25c19 8 46 -4 44 -15v-176zM496 636h91l-433 -641h-90zM609 133c29 -5 56 -34 56 -69c0 -42 -36 -75 -111 -75s-107 32 -107 80c0 31 23 64 52 62c-20 6 -38 21 -38 50c0 30 32 63 93 63
c57 0 94 -30 94 -62c0 -26 -19 -43 -39 -49zM551 156l19 -3c12 -2 20 19 20 28c0 10 -3 28 -35 28c-24 0 -30 -17 -30 -27c0 -9 3 -22 26 -26zM592 65c0 16 -9 30 -35 35l-31 6c-11 2 -16 -21 -16 -38c0 -19 15 -43 44 -43c26 0 38 18 38 40z" />
    <glyph glyph-name="threeeighths" unicode="&#x215c;" horiz-adv-x="720" 
d="M199 538c31 -9 52 -32 52 -66c0 -50 -41 -89 -112 -89c-68 0 -104 39 -104 79c0 14 10 26 28 26c34 0 26 -25 32 -43c5 -14 24 -26 41 -26c33 0 50 29 49 46c1 41 -30 42 -64 26l-17 33l24 11c25 9 33 22 33 44c0 14 -10 26 -32 26c-21 0 -29 -30 -22 -54l-54 6
c-8 3 -12 9 -12 14c-1 40 32 71 95 71c66 0 96 -35 96 -61c0 -20 -10 -34 -33 -43zM553 636h91l-433 -641h-90zM633 133c29 -5 56 -34 56 -69c0 -42 -36 -75 -111 -75s-107 32 -107 80c0 31 23 64 52 62c-20 6 -38 21 -38 50c0 30 32 63 93 63c57 0 94 -30 94 -62
c0 -26 -19 -43 -39 -49zM575 156l19 -3c12 -2 20 19 20 28c0 10 -3 28 -35 28c-24 0 -30 -17 -30 -27c0 -9 3 -22 26 -26zM616 65c0 16 -9 30 -35 35l-31 6c-11 2 -16 -21 -16 -38c0 -19 15 -43 44 -43c26 0 38 18 38 40z" />
    <glyph glyph-name="fiveeighths" unicode="&#x215d;" horiz-adv-x="729" 
d="M256 481c0 -57 -45 -92 -112 -92c-69 0 -106 29 -109 78c-1 14 9 32 34 32c40 0 34 -30 40 -48c5 -13 18 -27 35 -27c15 0 37 20 37 57c0 23 -25 48 -43 48c-24 0 -39 -9 -52 -12h-37l10 125h134l7 5h28l-3 -47l-12 -10h-107l-3 -35c15 14 34 19 58 19
c39 0 95 -35 95 -93zM558 636h91l-433 -641h-90zM638 133c29 -5 56 -34 56 -69c0 -42 -36 -75 -111 -75s-107 32 -107 80c0 31 23 64 52 62c-20 6 -38 21 -38 50c0 30 32 63 93 63c57 0 94 -30 94 -62c0 -26 -19 -43 -39 -49zM580 156l19 -3c12 -2 20 19 20 28
c0 10 -3 28 -35 28c-24 0 -30 -17 -30 -27c0 -9 3 -22 26 -26zM621 65c0 16 -9 30 -35 35l-31 6c-11 2 -16 -21 -16 -38c0 -19 15 -43 44 -43c26 0 38 18 38 40z" />
    <glyph glyph-name="seveneighths" unicode="&#x215e;" horiz-adv-x="694" 
d="M164 588h-81l-6 -17h-47l13 55c2 9 9 14 21 14h179l-125 -250h-25c-16 0 -31 14 -20 35zM533 636h91l-433 -641h-90zM613 133c29 -5 56 -34 56 -69c0 -42 -36 -75 -111 -75s-107 32 -107 80c0 31 23 64 52 62c-20 6 -38 21 -38 50c0 30 32 63 93 63c57 0 94 -30 94 -62
c0 -26 -19 -43 -39 -49zM555 156l19 -3c12 -2 20 19 20 28c0 10 -3 28 -35 28c-24 0 -30 -17 -30 -27c0 -9 3 -22 26 -26zM596 65c0 16 -9 30 -35 35l-31 6c-11 2 -16 -21 -16 -38c0 -19 15 -43 44 -43c26 0 38 18 38 40z" />
    <glyph glyph-name="asterisk" unicode="*" horiz-adv-x="359" 
d="M169 520c5 -13 14 -13 19 0l31 78c-3 23 -17 36 -40 39c-23 -3 -37 -16 -40 -39zM154 508l-55 67c-21 9 -40 4 -54 -14c-9 -21 -6 -40 13 -54l80 -18c14 -3 25 9 16 19zM205 508c-9 -10 2 -22 16 -19l80 18c18 14 22 33 13 54c-15 18 -33 23 -54 14zM139 473l-81 -17
c-19 -15 -22 -33 -13 -55c14 -18 33 -23 54 -14l54 67c9 10 -1 22 -14 19zM220 473c-13 3 -23 -9 -14 -19l54 -67c21 -9 39 -4 54 14c9 22 5 40 -13 55zM169 444l-30 -78c3 -23 17 -36 40 -39c23 3 37 16 40 39l-30 78c-5 13 -15 13 -20 0z" />
    <glyph glyph-name="backslash" unicode="\" horiz-adv-x="469" 
d="M157 721l267 -801h-112l-267 801h112z" />
    <glyph glyph-name="periodcentered" unicode="&#xb7;" horiz-adv-x="250" 
d="M115 220c-41 0 -75 34 -75 76c0 41 34 75 75 75s75 -34 75 -75c0 -42 -34 -76 -75 -76z" />
    <glyph glyph-name="bullet" unicode="&#x2022;" horiz-adv-x="400" 
d="M200 142c-84 0 -150 66 -150 149c0 84 66 150 150 150c83 0 150 -66 150 -150c0 -83 -67 -149 -150 -149z" />
    <glyph glyph-name="colon" unicode=":" horiz-adv-x="240" 
d="M110 304c-41 0 -75 34 -75 76c0 41 34 75 75 75s75 -34 75 -75c0 -42 -34 -76 -75 -76zM110 -10c-41 0 -75 34 -75 76c0 41 34 75 75 75s75 -34 75 -75c0 -42 -34 -76 -75 -76z" />
    <glyph glyph-name="comma" unicode="," horiz-adv-x="233" 
d="M129 -124c-8 -8 -16 -8 -23 -2l-11 12c28 31 37 64 37 91c0 3 0 7 -2 12c-5 -1 -10 -2 -18 -2c-48 0 -77 39 -77 75c0 43 35 78 81 78c53 0 82 -46 82 -103c0 -71 -36 -127 -69 -161z" />
    <glyph glyph-name="ellipsis" unicode="&#x2026;" horiz-adv-x="655" 
d="M110 -10c-41 0 -75 34 -75 76c0 41 34 75 75 75s75 -34 75 -75c0 -42 -34 -76 -75 -76zM318 -10c-41 0 -75 34 -75 76c0 41 34 75 75 75s75 -34 75 -75c0 -42 -34 -76 -75 -76zM525 -10c-41 0 -75 34 -75 76c0 41 34 75 75 75s75 -34 75 -75c0 -42 -34 -76 -75 -76z" />
    <glyph glyph-name="exclam" unicode="!" horiz-adv-x="271" 
d="M109 217c-3 172 -57 262 -57 331c0 59 47 89 85 89s84 -30 84 -89c0 -69 -53 -159 -56 -331h-56zM115 -10c-41 0 -75 34 -75 76c0 41 34 75 75 75s75 -34 75 -75c0 -42 -34 -76 -75 -76z" />
    <glyph glyph-name="exclamdown" unicode="&#xa1;" horiz-adv-x="271" 
d="M115 513c41 0 75 -34 75 -76c0 -41 -34 -75 -75 -75s-75 34 -75 75c0 42 34 76 75 76zM109 286h56c3 -172 56 -262 56 -331c0 -59 -46 -89 -84 -89s-85 30 -85 89c0 69 54 159 57 331z" />
    <glyph glyph-name="numbersign" unicode="#" horiz-adv-x="617" 
d="M558 466c10 0 15 -5 14 -15l-7 -74c-2 -10 -6 -15 -16 -15h-79l-28 -114h75c10 0 15 -5 14 -15l-7 -73c-1 -10 -6 -15 -16 -15h-92l-44 -175h-110l45 175h-71l-44 -175h-110l45 175h-68c-10 0 -15 5 -14 15l7 73c1 10 6 15 16 15h86l30 114h-84c-10 0 -16 5 -14 15l7 74
c1 10 6 15 16 15h102l53 206h105l-52 -206h73l53 206h105l-52 -206h62zM334 248l29 114h-72l-29 -114h72z" />
    <glyph glyph-name="period" unicode="." horiz-adv-x="220" 
d="M110 -10c-41 0 -75 34 -75 76c0 41 34 75 75 75s75 -34 75 -75c0 -42 -34 -76 -75 -76z" />
    <glyph glyph-name="question" unicode="?" horiz-adv-x="507" 
d="M224 185c-20 124 105 144 105 290c0 72 -29 116 -82 116c-52 0 -80 -40 -80 -106c0 -44 13 -54 13 -75c0 -38 -26 -64 -68 -64c-57 0 -82 49 -82 106c0 104 84 185 219 185c143 0 228 -70 228 -171c0 -147 -183 -144 -206 -281h-47zM247 -10c-41 0 -75 34 -75 76
c0 41 34 75 75 75s75 -34 75 -75c0 -42 -34 -76 -75 -76z" />
    <glyph glyph-name="questiondown" unicode="&#xbf;" horiz-adv-x="512" 
d="M265 513c41 0 75 -34 75 -76c0 -41 -34 -75 -75 -75s-75 34 -75 75c0 42 34 76 75 76zM288 318c20 -124 -105 -144 -105 -290c0 -72 29 -116 82 -116c52 0 80 40 80 106c0 44 -13 54 -13 75c0 38 26 64 68 64c57 0 82 -49 82 -106c0 -104 -84 -185 -219 -185
c-143 0 -228 70 -228 171c0 147 183 144 206 281h47z" />
    <glyph glyph-name="quotedbl" unicode="&#x22;" horiz-adv-x="366" 
d="M69 435c2 -16 14 -27 32 -27c19 0 27 11 30 27l31 127c10 49 -25 75 -61 75c-39 0 -74 -26 -63 -75zM236 435c2 -16 14 -27 32 -27c19 0 27 11 30 27l31 127c10 49 -25 75 -61 75c-39 0 -74 -26 -63 -75z" />
    <glyph glyph-name="quotesingle" unicode="'" horiz-adv-x="200" 
d="M69 435c2 -16 14 -27 32 -27c19 0 27 11 30 27l31 127c10 49 -25 75 -61 75c-39 0 -74 -26 -63 -75z" />
    <glyph glyph-name="semicolon" unicode=";" horiz-adv-x="233" 
d="M118 303c-41 0 -75 34 -75 76c0 41 34 75 75 75s75 -34 75 -75c0 -42 -34 -76 -75 -76zM130 -124c-8 -8 -16 -8 -23 -2l-11 12c28 31 37 64 37 91c0 3 0 7 -2 12c-5 -1 -10 -2 -18 -2c-48 0 -77 39 -77 75c0 43 35 78 81 78c53 0 82 -46 82 -103c0 -71 -36 -127 -69 -161
z" />
    <glyph glyph-name="slash" unicode="/" horiz-adv-x="469" 
d="M312 721h112l-267 -801h-112z" />
    <glyph glyph-name="underscore" unicode="_" horiz-adv-x="592" 
d="M40 -20h512v-98h-512v98z" />
    <glyph glyph-name="braceleft" unicode="{" horiz-adv-x="302" 
d="M237 43c0 -97 -6 -158 40 -182l-51 -27c-101 41 -117 119 -117 209v172c0 31 -15 39 -64 61v39c49 22 64 30 64 61v172c0 90 16 168 117 209l51 -27c-46 -24 -40 -85 -40 -182v-131c0 -71 -30 -106 -90 -120v-3c60 -14 90 -49 90 -120v-131z" />
    <glyph glyph-name="braceright" unicode="}" horiz-adv-x="302" 
d="M65 43v131c0 71 30 106 90 120v3c-60 14 -90 49 -90 120v131c0 97 6 158 -40 182l51 27c101 -41 117 -119 117 -209v-172c0 -31 15 -39 64 -61v-39c-49 -22 -64 -30 -64 -61v-172c0 -90 -16 -168 -117 -209l-51 27c46 24 40 85 40 182z" />
    <glyph glyph-name="bracketleft" unicode="[" horiz-adv-x="347" 
d="M205 698v-803l96 -6c12 -1 21 -7 21 -16v-39l-277 16v893l277 16v-39c0 -9 -9 -15 -21 -16z" />
    <glyph glyph-name="bracketright" unicode="]" horiz-adv-x="347" 
d="M142 698l-96 6c-12 1 -21 7 -21 16v39l277 -16v-893l-277 -16v39c0 9 9 15 21 16l96 6v803z" />
    <glyph glyph-name="parenleft" unicode="(" horiz-adv-x="341" 
d="M171 296c0 -215 47 -347 142 -444c10 -10 7 -18 -5 -18h-33c-8 0 -13 2 -19 7c-151 102 -216 268 -216 455s65 353 216 455c6 5 11 7 19 7h31c13 0 19 -6 12 -13c-96 -97 -147 -237 -147 -449z" />
    <glyph glyph-name="parenright" unicode=")" horiz-adv-x="341" 
d="M170 296c0 212 -51 352 -147 449c-7 7 -1 13 12 13h31c8 0 13 -2 19 -7c151 -102 216 -268 216 -455s-65 -353 -216 -455c-6 -5 -11 -7 -19 -7h-33c-12 0 -15 8 -5 18c95 97 142 229 142 444z" />
    <glyph glyph-name="emdash" unicode="&#x2014;" horiz-adv-x="900" 
d="M40 290h820v-54h-820v54z" />
    <glyph glyph-name="endash" unicode="&#x2013;" horiz-adv-x="662" 
d="M40 290h582v-54h-582v54z" />
    <glyph glyph-name="uni2015" unicode="&#x2015;" horiz-adv-x="899" 
d="M40 290h820v-54h-820v54z" />
    <glyph glyph-name="hyphen" unicode="-" horiz-adv-x="350" 
d="M40 290h270v-54h-270v54z" />
    <glyph glyph-name="uni00AD" unicode="&#xad;" horiz-adv-x="350" 
d="M40 290h270v-54h-270v54z" />
    <glyph glyph-name="guillemotleft" unicode="&#xab;" horiz-adv-x="445" 
d="M30 268l194 167l24 -28l-122 -152l122 -152l-24 -28l-194 167v26zM197 268l194 167l24 -28l-122 -152l122 -152l-24 -28l-194 167v26z" />
    <glyph glyph-name="guillemotright" unicode="&#xbb;" horiz-adv-x="445" 
d="M248 268v-26l-194 -167l-24 28l122 152l-122 152l24 28zM415 268v-26l-194 -167l-24 28l122 152l-122 152l24 28z" />
    <glyph glyph-name="guilsinglleft" unicode="&#x2039;" horiz-adv-x="278" 
d="M30 268l194 167l24 -28l-122 -152l122 -152l-24 -28l-194 167v26z" />
    <glyph glyph-name="guilsinglright" unicode="&#x203a;" horiz-adv-x="278" 
d="M248 268v-26l-194 -167l-24 28l122 152l-122 152l24 28z" />
    <glyph glyph-name="quotedblbase" unicode="&#x201e;" horiz-adv-x="429" 
d="M129 -124c-8 -8 -16 -8 -23 -2l-11 12c28 31 37 64 37 91c0 3 0 7 -2 12c-5 -1 -10 -2 -18 -2c-48 0 -77 39 -77 75c0 43 35 78 81 78c53 0 82 -46 82 -103c0 -71 -36 -127 -69 -161zM325 -124c-8 -8 -16 -8 -23 -2l-11 12c28 31 37 64 37 91c0 3 0 7 -2 12
c-5 -1 -10 -2 -18 -2c-48 0 -77 39 -77 75c0 43 35 78 81 78c53 0 82 -46 82 -103c0 -71 -36 -127 -69 -161z" />
    <glyph glyph-name="quotedblleft" unicode="&#x201c;" horiz-adv-x="419" 
d="M114 674c8 8 16 8 23 2l11 -12c-28 -31 -37 -64 -37 -91c0 -3 0 -7 2 -12c5 1 10 2 18 2c48 0 77 -39 77 -75c0 -43 -35 -78 -81 -78c-53 0 -82 46 -82 103c0 71 36 127 69 161zM310 674c8 8 16 8 23 2l11 -12c-28 -31 -37 -64 -37 -91c0 -3 0 -7 2 -12c5 1 10 2 18 2
c48 0 77 -39 77 -75c0 -43 -35 -78 -81 -78c-53 0 -82 46 -82 103c0 71 36 127 69 161z" />
    <glyph glyph-name="quotedblright" unicode="&#x201d;" horiz-adv-x="419" 
d="M109 416c-8 -8 -16 -8 -23 -2l-11 12c28 31 37 64 37 91c0 3 0 7 -2 12c-5 -1 -10 -2 -18 -2c-48 0 -77 39 -77 75c0 43 35 78 81 78c53 0 82 -46 82 -103c0 -71 -36 -127 -69 -161zM305 416c-8 -8 -16 -8 -23 -2l-11 12c28 31 37 64 37 91c0 3 0 7 -2 12
c-5 -1 -10 -2 -18 -2c-48 0 -77 39 -77 75c0 43 35 78 81 78c53 0 82 -46 82 -103c0 -71 -36 -127 -69 -161z" />
    <glyph glyph-name="quoteleft" unicode="&#x2018;" horiz-adv-x="223" 
d="M114 673c8 8 16 8 23 2l11 -12c-28 -31 -37 -64 -37 -91c0 -3 0 -7 2 -12c5 1 10 2 18 2c48 0 77 -39 77 -75c0 -43 -35 -78 -81 -78c-53 0 -82 46 -82 103c0 71 36 127 69 161z" />
    <glyph glyph-name="quoteright" unicode="&#x2019;" horiz-adv-x="223" 
d="M109 416c-8 -8 -16 -8 -23 -2l-11 12c28 31 37 64 37 91c0 3 0 7 -2 12c-5 -1 -10 -2 -18 -2c-48 0 -77 39 -77 75c0 43 35 78 81 78c53 0 82 -46 82 -103c0 -71 -36 -127 -69 -161z" />
    <glyph glyph-name="quotesinglbase" unicode="&#x201a;" horiz-adv-x="233" 
d="M129 -124c-8 -8 -16 -8 -23 -2l-11 12c28 31 37 64 37 91c0 3 0 7 -2 12c-5 -1 -10 -2 -18 -2c-48 0 -77 39 -77 75c0 43 35 78 81 78c53 0 82 -46 82 -103c0 -71 -36 -127 -69 -161z" />
    <glyph glyph-name="space" unicode=" " horiz-adv-x="220" 
 />
    <glyph glyph-name="cent" unicode="&#xa2;" horiz-adv-x="522" 
d="M333 34c38 0 87 15 112 71h43c-41 -87 -107 -116 -189 -116c-25 0 -50 3 -74 9l-15 -59h-51l19 75c-84 36 -148 116 -148 240c0 174 135 256 262 256h11l20 78h51l-21 -84c79 -17 139 -68 139 -133c0 -30 -20 -64 -69 -64c-47 0 -67 32 -67 64c0 29 -2 60 -17 78
l-95 -374c21 -25 50 -41 89 -41zM196 266c0 -42 4 -85 15 -122l81 322c-69 -5 -96 -92 -96 -200z" />
    <glyph glyph-name="currency" unicode="&#xa4;" horiz-adv-x="597" 
d="M506 228c0 -44 -14 -85 -37 -119l76 -75l-55 -55l-76 76c-34 -23 -74 -36 -117 -36c-42 0 -82 13 -115 35l-75 -75l-55 55l75 74c-23 34 -37 76 -37 120c0 43 13 83 36 117l-74 73l55 56l74 -74c33 23 73 36 116 36c44 0 85 -14 118 -37l75 75l55 -56l-75 -74
c23 -33 36 -73 36 -116zM168 228c0 -72 57 -135 130 -135c72 0 132 63 132 135s-60 133 -132 133c-73 0 -130 -61 -130 -133z" />
    <glyph glyph-name="dollar" unicode="$" horiz-adv-x="516" 
d="M491 174c0 -130 -114 -184 -206 -189v-46h-50v49c-55 11 -86 41 -117 41c-23 0 -34 -18 -36 -29h-46l-11 158h46c38 -87 116 -121 172 -121s93 33 93 85c0 46 -25 84 -124 134c-90 46 -178 99 -178 208c0 112 91 173 198 173h3v52h50v-57c36 -8 58 -20 76 -20
c12 0 22 6 24 17h47l9 -150h-38c-44 95 -100 110 -137 110c-55 0 -86 -35 -86 -76c0 -52 41 -84 112 -117c73 -35 199 -86 199 -222z" />
    <glyph glyph-name="Euro" unicode="&#x20ac;" horiz-adv-x="737" 
d="M660 170h54c-23 -92 -94 -186 -256 -186c-149 0 -261 81 -305 206h-118l17 81h83c-2 15 -3 30 -3 46c0 8 0 16 1 24h-71l16 82h69c39 134 155 214 298 214c77 0 102 -26 165 -26c13 0 26 0 57 9c3 -59 15 -118 38 -176h-82c-39 84 -91 143 -174 143
c-84 0 -127 -61 -140 -164h179l-16 -82h-167c0 -24 2 -47 4 -70h153l-17 -81h-119c27 -91 82 -154 168 -154c58 0 129 29 166 134z" />
    <glyph glyph-name="florin" unicode="&#x192;" horiz-adv-x="631" 
d="M620 598c11 -17 9 -44 -14 -58s-46 -7 -53 10c-11 33 -20 74 -71 74c-72 0 -78 -53 -89 -128l-5 -39h135c6 0 13 -4 10 -9l-5 -11c-9 -18 -14 -29 -33 -29h-114l-60 -425c-17 -119 -84 -185 -175 -185c-64 0 -111 37 -127 73c-9 17 -5 44 19 56s47 3 52 -15
c8 -33 13 -71 52 -71c60 0 78 55 89 130l61 437h-52c-6 0 -10 4 -9 10l5 39h63l4 27c17 119 74 183 185 183c74 0 113 -35 132 -69z" />
    <glyph glyph-name="sterling" unicode="&#xa3;" horiz-adv-x="551" 
d="M357 96c27 0 92 12 124 70h45c-32 -140 -109 -166 -178 -166c-49 0 -92 14 -119 29c-29 -17 -57 -29 -100 -29c-46 0 -99 30 -99 86c0 49 36 84 88 84c40 0 60 -24 82 -34c1 5 5 22 5 45c0 27 -12 49 -29 71h-128v47h87c-35 39 -70 84 -70 154c0 111 95 184 239 184
c136 0 222 -81 222 -195c0 -48 -26 -94 -79 -94c-49 0 -71 28 -71 59c0 28 11 36 11 63c0 78 -26 119 -83 119c-49 0 -86 -38 -86 -115c0 -87 33 -130 59 -175h114v-47h-91c6 -18 10 -39 10 -63c0 -33 -7 -55 -21 -78c18 -10 43 -15 68 -15zM128 30c26 0 41 6 52 26
c-30 27 -49 44 -66 44c-16 0 -29 -12 -29 -31c0 -25 26 -39 43 -39z" />
    <glyph glyph-name="yen" unicode="&#xa5;" horiz-adv-x="654" 
d="M435 621c69 -4 138 -4 204 0v-40c-41 -5 -74 -19 -97 -64l-111 -214h97v-56h-120v-26h120v-56h-120v-64c0 -45 19 -57 79 -62v-39c-107 3 -214 3 -321 0v40c59 4 78 16 78 61v64h-109v56h109v26h-109v56h80l-120 218c-19 35 -23 55 -80 60v40c104 -4 211 -4 318 0v-40
c-60 -5 -68 -25 -49 -61l106 -200l103 197c24 45 -19 59 -58 64v40z" />
    <glyph glyph-name="plus" unicode="+" horiz-adv-x="450" 
d="M400 292v-56h-147v-147h-56v147h-147v56h147v147h56v-147h147z" />
    <glyph glyph-name="minus" unicode="&#x2212;" horiz-adv-x="450" 
d="M50 288h350v-57h-350v57z" />
    <glyph glyph-name="multiply" unicode="&#xd7;" horiz-adv-x="433" 
d="M383 354l-102 -102l102 -103l-65 -64l-101 102l-102 -102l-65 64l102 103l-102 102l65 64l102 -102l101 102z" />
    <glyph glyph-name="divide" unicode="&#xf7;" horiz-adv-x="450" 
d="M227 340c-37 0 -66 29 -66 65c0 35 29 65 66 65c35 0 64 -30 64 -65c0 -36 -29 -65 -64 -65zM30 288h350v-57h-350v57zM227 34c-37 0 -66 29 -66 65c0 35 29 65 66 65c35 0 64 -30 64 -65c0 -36 -29 -65 -64 -65z" />
    <glyph glyph-name="equal" unicode="=" horiz-adv-x="450" 
d="M30 378h350v-57h-350v57zM30 198h350v-57h-350v57z" />
    <glyph glyph-name="notequal" unicode="&#x2260;" horiz-adv-x="450" 
d="M380 321h-114l-51 -123h165v-57h-189l-59 -141h-63l59 141h-98v57h122l51 123h-173v57h197l51 123h63l-51 -123h90v-57z" />
    <glyph glyph-name="greater" unicode="&#x3e;" horiz-adv-x="478" 
d="M428 296v-91c-123 -47 -255 -104 -378 -171v75c102 51 175 104 297 142c-122 37 -195 90 -297 141v75c123 -67 255 -124 378 -171z" />
    <glyph glyph-name="less" unicode="&#x3c;" horiz-adv-x="478" 
d="M50 296c123 47 255 104 378 171v-75c-102 -51 -175 -104 -297 -141c122 -38 195 -91 297 -142v-75c-123 67 -255 124 -378 171v91z" />
    <glyph glyph-name="greaterequal" unicode="&#x2265;" horiz-adv-x="499" 
d="M449 378v-91c-123 -47 -255 -104 -378 -171v75c102 51 175 104 297 142c-122 37 -195 90 -297 141v75c123 -67 255 -124 378 -171zM50 57h368v-57h-368v57z" />
    <glyph glyph-name="lessequal" unicode="&#x2264;" horiz-adv-x="499" 
d="M50 378c123 47 255 104 378 171v-75c-102 -51 -175 -104 -297 -141c122 -38 195 -91 297 -142v-75c-123 67 -255 124 -378 171v91zM449 57v-57h-368v57h368z" />
    <glyph glyph-name="plusminus" unicode="&#xb1;" horiz-adv-x="450" 
d="M253 393h147v-56h-147v-147h-56v147h-147v56h147v147h56v-147zM50 0v57h350v-57h-350z" />
    <glyph glyph-name="approxequal" unicode="&#x2248;" horiz-adv-x="562" 
d="M512 399h-60c-13 -27 -36 -47 -71 -47c-76 0 -84 63 -178 63c-76 0 -136 -58 -153 -132h62c12 29 42 53 74 53c61 0 86 -73 180 -73c62 0 135 53 146 136zM512 229h-60c-13 -27 -36 -47 -71 -47c-76 0 -84 63 -178 63c-76 0 -136 -58 -153 -132h62c12 29 42 53 74 53
c61 0 86 -73 180 -73c62 0 135 53 146 136z" />
    <glyph glyph-name="asciitilde" unicode="~" horiz-adv-x="527" 
d="M477 310h-56c-12 -27 -33 -47 -65 -47c-70 0 -78 63 -165 63c-70 0 -125 -58 -141 -132h57c11 29 39 53 69 53c56 0 79 -73 166 -73c57 0 125 53 135 136z" />
    <glyph glyph-name="logicalnot" unicode="&#xac;" horiz-adv-x="545" 
d="M495 387v-244h-91v153h-354v91h445z" />
    <glyph glyph-name="emptyset" unicode="&#x2205;" horiz-adv-x="588" 
d="M474 437c49 -47 79 -113 79 -186c0 -143 -116 -259 -259 -259c-51 0 -99 15 -139 40l-25 -32h-77l55 70c-45 47 -73 111 -73 181c0 143 116 259 259 259c48 0 93 -13 131 -36l34 43h78zM101 251c0 -49 18 -94 48 -128l235 299c-27 14 -57 22 -90 22
c-107 0 -193 -86 -193 -193zM294 58c107 0 193 86 193 193c0 52 -20 99 -54 134l-237 -301c29 -16 62 -26 98 -26z" />
    <glyph glyph-name="infinity" unicode="&#x221e;" horiz-adv-x="713" 
d="M500 465c84 0 158 -79 158 -215c0 -137 -74 -212 -158 -212c-57 0 -114 35 -144 101c-26 -66 -77 -101 -134 -101c-84 0 -167 75 -167 212c0 136 79 215 167 215c57 0 108 -37 134 -103c29 66 85 103 144 103zM222 174c72 0 112 23 112 76c0 54 -40 80 -112 80
c-75 0 -126 -26 -126 -80c0 -53 51 -76 126 -76zM500 174c73 0 110 23 110 76c0 54 -37 80 -110 80c-75 0 -125 -26 -125 -80c0 -53 50 -76 125 -76z" />
    <glyph glyph-name="integral" unicode="&#x222b;" horiz-adv-x="519" 
d="M502 726c10 -25 -1 -62 -31 -72c-23 -8 -40 1 -51 20c-5 2 -12 51 -54 51c-36 0 -36 -29 -36 -62v-687c0 -125 -69 -191 -156 -191c-85 0 -128 39 -152 74c-17 25 -3 56 24 67c23 10 44 6 57 -15c8 -4 13 -51 55 -51c36 0 37 29 37 62v687c0 125 68 191 155 191
c85 0 137 -36 152 -74z" />
    <glyph glyph-name="product" unicode="&#x220f;" horiz-adv-x="661" 
d="M591 800v-1000h-92v909h-337v-909h-92v1000h521z" />
    <glyph glyph-name="summation" unicode="&#x2211;" horiz-adv-x="570" 
d="M500 800v-91h-311l284 -410l-284 -408h311v-91h-430v91l290 409l-290 409v91h430z" />
    <glyph glyph-name="radical" unicode="&#x221a;" horiz-adv-x="846" 
d="M288 -200c-15 0 -24 7 -32 24l-122 276c-26 59 -52 71 -68 77l-21 8v66c74 -4 114 -4 181 -2l137 -297l317 849h151v-66l-27 -8c-15 -4 -41 -14 -67 -79l-337 -848h-112z" />
    <glyph glyph-name="uni00B5" unicode="&#xb5;" horiz-adv-x="632" 
d="M552 134c0 -38 26 -47 65 -39v-42c-106 -28 -165 -69 -187 -69c-26 0 -39 18 -35 48l10 75c-22 -39 -75 -123 -173 -123c-26 0 -53 4 -77 16c16 -100 72 -108 69 -133c-11 -74 -151 -100 -151 -12v564c0 21 -8 31 -28 30l-30 -1v44l184 13c16 1 31 -8 31 -28v-298
c0 -69 -1 -126 51 -126c58 0 103 96 114 123v243c0 21 -8 31 -28 30l-30 -1v44l185 13c14 1 30 -8 30 -28v-343z" />
    <glyph glyph-name="partialdiff" unicode="&#x2202;" horiz-adv-x="579" 
d="M134 554l-36 45c33 26 90 37 138 37c194 0 308 -148 308 -344c0 -179 -94 -307 -260 -307c-134 0 -249 85 -249 219c0 130 109 202 211 202c76 0 119 -43 134 -67c-4 128 -17 251 -144 251c-36 0 -66 -9 -102 -36zM379 270c0 13 -33 87 -99 87c-63 0 -86 -82 -86 -160
c0 -56 13 -164 86 -164c85 0 99 146 99 237z" />
    <glyph glyph-name="percent" unicode="%" horiz-adv-x="694" 
d="M302 500c0 -73 -49 -138 -129 -138c-79 0 -128 65 -128 138s49 137 128 137c80 0 129 -64 129 -137zM522 636h82l-414 -641h-83zM173 404c35 0 44 48 44 96c0 50 -9 95 -44 95s-42 -45 -42 -95c0 -48 7 -96 42 -96zM649 127c0 -73 -49 -138 -129 -138
c-79 0 -128 65 -128 138s49 137 128 137c80 0 129 -64 129 -137zM520 31c35 0 43 48 43 96c0 50 -8 95 -43 95s-43 -45 -43 -95c0 -48 8 -96 43 -96z" />
    <glyph glyph-name="perthousand" unicode="&#x2030;" horiz-adv-x="1014" 
d="M302 500c0 -73 -49 -138 -129 -138c-79 0 -128 65 -128 138s49 137 128 137c80 0 129 -64 129 -137zM522 636h82l-414 -641h-83zM173 404c35 0 44 48 44 96c0 50 -9 95 -44 95s-42 -45 -42 -95c0 -48 7 -96 42 -96zM649 127c0 -73 -49 -138 -129 -138
c-79 0 -128 65 -128 138s49 137 128 137c80 0 129 -64 129 -137zM969 127c0 -73 -49 -138 -129 -138c-79 0 -128 65 -128 138s49 137 128 137c80 0 129 -64 129 -137zM520 31c35 0 43 48 43 96c0 50 -8 95 -43 95s-43 -45 -43 -95c0 -48 8 -96 43 -96zM840 31
c35 0 44 48 44 96c0 50 -9 95 -44 95s-42 -45 -42 -95c0 -48 7 -96 42 -96z" />
    <glyph glyph-name="lozenge" unicode="&#x25ca;" horiz-adv-x="412" 
d="M377 310l-130 -310h-82l-130 310l130 311h82zM301 310l-95 247l-95 -247l95 -247z" />
    <glyph glyph-name="at" unicode="@" horiz-adv-x="782" 
d="M391 -83c-193 0 -356 128 -356 331c0 204 166 332 356 332s356 -118 356 -332c0 -112 -63 -190 -171 -190c-56 0 -92 29 -115 58c-19 -27 -58 -59 -122 -59c-61 0 -122 35 -122 98c0 54 36 108 222 138v6c0 44 -1 91 -43 91c-38 0 -45 -29 -45 -60c0 -16 -21 -30 -63 -30
c-40 0 -50 16 -50 40c0 44 51 96 154 96c111 0 161 -44 161 -136v-164c0 -28 13 -32 18 -32c36 0 35 73 35 144c0 183 -87 283 -215 283s-217 -93 -217 -283c0 -179 83 -280 217 -280v-51zM377 113c26 0 47 19 62 49v85c-87 -22 -99 -66 -99 -95c0 -24 15 -39 37 -39z" />
    <glyph glyph-name="ampersand" unicode="&#x26;" horiz-adv-x="762" 
d="M737 509c0 -105 -140 -148 -238 -188c93 -14 144 -66 145 -135c2 -122 -159 -201 -310 -201c-176 0 -309 79 -309 211c0 121 114 171 166 165c-55 7 -115 57 -115 128c0 91 96 148 208 148c83 0 186 -30 186 -132c0 -65 -41 -123 -102 -123c-34 0 -57 19 -57 48
c0 37 39 42 39 93c0 41 -21 74 -61 74c-53 0 -69 -57 -69 -101c0 -53 24 -110 87 -137l-16 -52l-12 1c-50 1 -89 -43 -89 -118c0 -82 46 -161 144 -161c116 0 150 96 150 161c0 45 -17 79 -52 79c-39 0 -54 -41 -23 -69h-55c-20 10 -32 25 -32 47c0 33 28 59 65 83l125 84
c46 31 86 62 86 103c0 33 -27 52 -78 41c-6 -2 -13 3 -19 20c-7 17 -3 24 6 28c21 8 58 16 87 16c63 0 143 -32 143 -113z" />
    <glyph glyph-name="paragraph" unicode="&#xb6;" horiz-adv-x="699" 
d="M654 565c-26 -5 -45 -10 -45 -33v-493c0 -23 9 -33 45 -38v-68h-421v68c50 5 59 15 59 38v199h-20c-142 0 -247 74 -247 192c0 119 105 191 247 191h382v-56zM270 292h22v267h-22c-84 0 -109 -65 -109 -129c0 -63 25 -138 109 -138zM486 39v492c0 24 -7 28 -23 28h-49
v-520c0 -23 9 -33 36 -33s36 10 36 33z" />
    <glyph glyph-name="copyright" unicode="&#xa9;" horiz-adv-x="773" 
d="M389 654c193 0 334 -137 334 -340s-140 -340 -334 -340c-192 0 -339 137 -339 340s147 340 339 340zM648 314c0 172 -108 281 -259 281c-153 0 -264 -109 -264 -281s111 -281 264 -281c151 0 259 109 259 281zM499 233h61c-17 -27 -33 -65 -37 -97c-19 6 -29 6 -35 6
c-35 0 -43 -14 -91 -14c-120 0 -188 73 -188 190c0 113 82 182 178 182c47 0 63 -14 100 -14c6 0 17 0 37 5c4 -29 13 -70 24 -101h-71c-21 45 -57 82 -96 82c-52 0 -70 -58 -70 -136c0 -80 20 -178 85 -178c46 0 78 34 103 75z" />
    <glyph glyph-name="registered" unicode="&#xae;" horiz-adv-x="773" 
d="M389 654c193 0 334 -137 334 -340s-140 -340 -334 -340c-192 0 -339 137 -339 340s147 340 339 340zM648 314c0 172 -108 281 -259 281c-153 0 -264 -109 -264 -281s111 -281 264 -281c151 0 259 109 259 281zM514 203c15 -22 26 -30 49 -32l-2 -25h-122
c-1 22 -8 40 -18 55l-61 82h-8v-91c0 -14 10 -19 32 -21v-25h-163v25c31 2 42 7 42 21v238c0 12 -5 23 -35 26v24h138c127 0 166 -34 166 -96c0 -58 -36 -81 -82 -91zM352 309h13c53 0 83 25 83 76c0 46 -17 69 -60 69h-36v-145z" />
    <glyph glyph-name="trademark" unicode="&#x2122;" horiz-adv-x="630" 
d="M237 621c8 0 15 -7 15 -13l3 -48h-22l-8 16c-3 6 -6 8 -13 8h-45v-155c0 -7 15 -10 26 -10v-25h-111v25c13 0 25 3 25 10v155h-44c-7 0 -10 -2 -13 -8l-8 -16h-22l3 48c0 6 7 13 15 13h199zM606 597c-13 -5 -17 -6 -17 -19v-145c0 -11 3 -11 21 -16v-23h-98v23
c17 5 22 6 22 16v110l-77 -125c-7 -15 -21 -15 -29 0l-86 126v-111c0 -10 6 -11 22 -16v-23h-82v23c18 5 22 6 22 16v145c0 12 -5 14 -22 18v25h76l91 -138l90 138h67v-24z" />
    <glyph glyph-name="degree" unicode="&#xb0;" horiz-adv-x="305" 
d="M153 634c62 0 112 -49 112 -115s-50 -115 -112 -115s-113 49 -113 115s51 115 113 115zM194 519c0 30 -14 56 -43 56c-26 0 -42 -26 -42 -56c0 -31 16 -56 42 -56c29 0 43 25 43 56z" />
    <glyph glyph-name="bar" unicode="|" horiz-adv-x="278" 
d="M90 800h98v-1015h-98v1015z" />
    <glyph glyph-name="brokenbar" unicode="&#xa6;" horiz-adv-x="278" 
d="M90 451v349h98v-349h-98zM90 -215v349h98v-349h-98z" />
    <glyph glyph-name="dagger" unicode="&#x2020;" horiz-adv-x="505" 
d="M384 518c42 0 71 -29 71 -67c0 -37 -29 -67 -71 -67c-34 0 -62 30 -97 38l2 -29l50 -48l-66 -222h-41l-66 222l50 48l2 29c-35 -8 -62 -38 -96 -38c-43 0 -72 30 -72 67c0 38 29 67 72 67c34 0 62 -31 98 -39c-3 42 -39 70 -39 101c0 38 29 67 72 67c42 0 71 -29 71 -67
c0 -31 -35 -59 -39 -101c36 8 65 39 99 39z" />
    <glyph glyph-name="daggerdbl" unicode="&#x2021;" horiz-adv-x="505" 
d="M384 218c42 0 71 -29 71 -67c0 -37 -29 -67 -71 -67c-34 0 -63 33 -101 41c7 -44 41 -72 41 -103c0 -38 -29 -67 -71 -67c-43 0 -72 29 -72 67c0 31 35 59 41 103c-38 -8 -66 -41 -100 -41c-43 0 -72 30 -72 67c0 38 29 67 72 67c34 0 62 -33 100 -41v25l-57 100l57 98
v25c-38 -8 -66 -41 -100 -41c-43 0 -72 30 -72 67c0 38 29 67 72 67c34 0 62 -33 100 -41c-6 44 -41 72 -41 103c0 38 29 67 72 67c42 0 71 -29 71 -67c0 -31 -34 -59 -41 -103c38 8 67 41 101 41c42 0 71 -29 71 -67c0 -37 -29 -67 -71 -67c-34 0 -63 33 -101 41v-25
l57 -99l-57 -99v-25c38 8 67 41 101 41z" />
    <glyph glyph-name="asciicircum" unicode="^" horiz-adv-x="393" 
d="M174 684c14 19 37 11 45 0l144 -195c12 -15 1 -38 -23 -38h-12c-19 0 -33 15 -44 25l-87 86l-88 -86c-10 -10 -26 -25 -46 -25h-12c-22 0 -33 23 -21 38z" />
    <glyph glyph-name="uni0308" unicode="&#x308;" horiz-adv-x="0" 
d="M-298 560c-39 0 -72 33 -72 72s33 71 72 71c40 0 71 -32 71 -71s-31 -72 -71 -72zM-71 560c-39 0 -72 33 -72 72s33 71 72 71s71 -32 71 -71s-32 -72 -71 -72z" />
    <glyph glyph-name="uni0307" unicode="&#x307;" horiz-adv-x="0" 
d="M-140 550c-45 0 -81 37 -81 82s36 80 81 80s80 -35 80 -80s-35 -82 -80 -82z" />
    <glyph glyph-name="gravecomb" unicode="&#x300;" horiz-adv-x="0" 
d="M-50 587l-135 116c-32 27 -65 27 -85 0c-19 -28 -5 -68 36 -83l167 -59z" />
    <glyph glyph-name="acutecomb" unicode="&#x301;" horiz-adv-x="0" 
d="M-279 587l17 -26l167 59c41 15 55 55 36 83c-20 27 -53 27 -85 0z" />
    <glyph glyph-name="uni030B" unicode="&#x30b;" horiz-adv-x="0" 
d="M-438 587l16 -26l151 59c37 15 50 55 33 83c-18 27 -48 27 -77 0zM-258 587l16 -26l151 59c37 15 50 55 33 83c-18 27 -48 27 -77 0z" />
    <glyph glyph-name="uni0302" unicode="&#x302;" horiz-adv-x="0" 
d="M-153 716l153 -175l-25 -22l-138 110l-139 -110l-26 22l153 175h22z" />
    <glyph glyph-name="uni030C" unicode="&#x30c;" horiz-adv-x="0" 
d="M-153 521h-22l-153 175l26 22l139 -110l138 110l25 -22z" />
    <glyph glyph-name="uni0306" unicode="&#x306;" horiz-adv-x="0" 
d="M-204 570c-81 0 -148 43 -154 139h69c6 -28 40 -50 85 -50s79 22 85 50h69c-6 -96 -73 -139 -154 -139z" />
    <glyph glyph-name="uni030A" unicode="&#x30a;" horiz-adv-x="0" 
d="M-129 553c-45 0 -79 36 -79 79c0 44 34 78 79 78s79 -34 79 -78c0 -43 -34 -79 -79 -79zM-129 596c18 0 35 18 35 36c0 17 -17 35 -35 35s-35 -18 -35 -35c0 -18 17 -36 35 -36z" />
    </font>
</defs>
</svg>
