<?xml version="1.0" standalone="no"?>
<!DOCTYPE svg PUBLIC "-//W3C//DTD SVG 1.1//EN" "http://www.w3.org/Graphics/SVG/1.1/DTD/svg11.dtd" >
<svg xmlns="http://www.w3.org/2000/svg" xmlns:xlink="http://www.w3.org/1999/xlink" version="1.1">
<metadata>
Created by FontForge 20190801 at Wed Mar 29 02:42:37 2017
 By Jimmy Wärting
Copyright \(c\) 2015 by Connary Fagen. All rights reserved.
</metadata>
<defs>
<font id="ArgentCF-LightItalic" horiz-adv-x="0" >
  <font-face 
    font-family="Argent CF Light"
    font-weight="300"
    font-style="italic"
    font-stretch="normal"
    units-per-em="1000"
    panose-1="0 0 4 0 0 0 0 0 0 0"
    ascent="800"
    descent="-200"
    x-height="506"
    cap-height="621"
    bbox="-401 -268.75 980 822"
    underline-thickness="50"
    underline-position="-100"
    slope="-8"
    stemh="45"
    stemv="85"
    unicode-range="U+0020-FB02"
  />
<missing-glyph horiz-adv-x="515" 
d="M422 800v-1030h-326v1030h326zM343 731h-170v-34h67v-38h-68v-34h171v34h-68v38h68v34zM275 598h-103v-107h171v35h-68v72zM240 563v-37h-34v37h34zM343 463h-171v-34h68v-38h-68v-34h103v72h68v34zM343 401h-34v-68h-137v-35h171v103zM343 276h-103v-58h35v24h34v-49
h-103v83h-34v-117h171v117zM343 98h-171v-117h171v117zM309 64v-49h-103v49h103zM343 -43h-171v-34h72l-72 -48v-34h171v34h-105l72 48h33v34z" />
    <glyph glyph-name="fi" unicode="fi" horiz-adv-x="587" 
d="M310 680c-38 0 -67 -52 -89 -180h88c5 0 9 -3 8 -9l-3 -16c-1 -5 -3 -7 -8 -7h-90l-51 -340c-41 -274 -155 -347 -251 -347c-60 0 -86 32 -86 61c0 23 16 45 43 45c48 0 43 -72 89 -72c35 0 83 79 101 214l61 426c1 4 1 9 2 13h-80c-5 0 -9 2 -8 8l3 17c1 5 3 7 8 7h83
c36 162 133 214 220 214c67 0 94 -30 94 -59c0 -25 -19 -47 -47 -47c-51 0 -41 72 -87 72zM545 94c6 -5 6 -10 -1 -20c-39 -56 -94 -81 -133 -81c-43 0 -51 34 -47 61l68 356c4 20 -1 30 -15 30c-20 0 -39 -14 -59 -35c-9 -9 -12 -8 -18 -2c-5 5 -5 9 1 17
c48 64 102 90 143 90c38 0 49 -27 42 -62l-67 -360c-4 -20 1 -29 16 -29c19 0 41 19 55 34c6 6 9 6 15 1z" />
    <glyph glyph-name="fl" unicode="fl" horiz-adv-x="583" 
d="M541 94c5 -5 5 -10 -1 -20c-39 -56 -95 -81 -134 -81c-43 0 -51 34 -46 61l69 422c21 126 -13 198 -87 198c-64 0 -98 -50 -121 -174h86c5 0 9 -3 8 -9l-3 -16c-1 -5 -3 -7 -8 -7h-88v-1l-51 -339c-41 -274 -154 -347 -252 -347c-58 0 -85 31 -85 61c0 23 16 45 45 45
c46 0 41 -72 87 -72c35 0 83 79 101 214l60 421l3 18h-80c-5 0 -9 2 -8 8l3 17c1 5 3 7 8 7h83c38 157 136 208 228 208c96 0 185 -60 157 -232l-62 -388c-3 -20 3 -29 18 -29c18 0 40 19 55 34c6 6 9 6 15 1z" />
    <glyph glyph-name=".notdef" horiz-adv-x="515" 
d="M422 800v-1030h-326v1030h326zM343 731h-170v-34h67v-38h-68v-34h171v34h-68v38h68v34zM275 598h-103v-107h171v35h-68v72zM240 563v-37h-34v37h34zM343 463h-171v-34h68v-38h-68v-34h103v72h68v34zM343 401h-34v-68h-137v-35h171v103zM343 276h-103v-58h35v24h34v-49
h-103v83h-34v-117h171v117zM343 98h-171v-117h171v117zM309 64v-49h-103v49h103zM343 -43h-171v-34h72l-72 -48v-34h171v34h-105l72 48h33v34z" />
    <glyph glyph-name="A" unicode="A" horiz-adv-x="617" 
d="M503 91c9 -42 10 -58 76 -64l-2 -27c-76 3 -157 3 -234 0l2 27c70 6 70 21 62 61l-25 122h-205l-61 -133c-16 -35 16 -44 70 -50l-2 -27c-62 3 -139 3 -202 0l2 27c60 6 85 24 106 70l246 529h55zM191 240h184l-57 277z" />
    <glyph glyph-name="Aacute" unicode="&#xc1;" horiz-adv-x="617" 
d="M455 749l-168 -67l-9 14l146 107c15 11 30 17 39 17c18 0 29 -13 29 -30c0 -20 -14 -32 -37 -41zM503 91c9 -42 10 -58 76 -64l-2 -27c-76 3 -157 3 -234 0l2 27c70 6 70 21 62 61l-25 122h-205l-61 -133c-16 -35 16 -44 70 -50l-2 -27c-62 3 -139 3 -202 0l2 27
c60 6 85 24 106 70l246 529h55zM191 240h184l-57 277z" />
    <glyph glyph-name="Abreve" unicode="&#x102;" horiz-adv-x="617" 
d="M378 690c-74 0 -117 59 -111 125h32c0 -30 31 -67 87 -67s95 37 103 67h32c-12 -66 -69 -125 -143 -125zM503 91c9 -42 10 -58 76 -64l-2 -27c-76 3 -157 3 -234 0l2 27c70 6 70 21 62 61l-25 122h-205l-61 -133c-16 -35 16 -44 70 -50l-2 -27c-62 3 -139 3 -202 0l2 27
c60 6 85 24 106 70l246 529h55zM191 240h184l-57 277z" />
    <glyph glyph-name="uni01CD" unicode="&#x1cd;" horiz-adv-x="617" 
d="M378 653h-19l-118 150l21 16l116 -99l144 99l16 -16zM503 91c9 -42 10 -58 76 -64l-2 -27c-76 3 -157 3 -234 0l2 27c70 6 70 21 62 61l-25 122h-205l-61 -133c-16 -35 16 -44 70 -50l-2 -27c-62 3 -139 3 -202 0l2 27c60 6 85 24 106 70l246 529h55zM191 240h184
l-57 277z" />
    <glyph glyph-name="Acircumflex" unicode="&#xc2;" horiz-adv-x="617" 
d="M381 752l-144 -99l-16 16l160 150h19l118 -150l-21 -16zM503 91c9 -42 10 -58 76 -64l-2 -27c-76 3 -157 3 -234 0l2 27c70 6 70 21 62 61l-25 122h-205l-61 -133c-16 -35 16 -44 70 -50l-2 -27c-62 3 -139 3 -202 0l2 27c60 6 85 24 106 70l246 529h55zM191 240h184
l-57 277z" />
    <glyph glyph-name="Adieresis" unicode="&#xc4;" horiz-adv-x="617" 
d="M298 716c-25 0 -48 21 -48 48c0 25 23 47 48 47s48 -22 48 -47c0 -27 -23 -48 -48 -48zM478 716c-25 0 -48 21 -48 48c0 25 23 47 48 47s48 -22 48 -47c0 -27 -23 -48 -48 -48zM503 91c9 -42 10 -58 76 -64l-2 -27c-76 3 -157 3 -234 0l2 27c70 6 70 21 62 61l-25 122
h-205l-61 -133c-16 -35 16 -44 70 -50l-2 -27c-62 3 -139 3 -202 0l2 27c60 6 85 24 106 70l246 529h55zM191 240h184l-57 277z" />
    <glyph glyph-name="Agrave" unicode="&#xc0;" horiz-adv-x="617" 
d="M289 748c-24 10 -33 35 -21 56c11 21 39 22 63 3l140 -111l-9 -15zM503 91c9 -42 10 -58 76 -64l-2 -27c-76 3 -157 3 -234 0l2 27c70 6 70 21 62 61l-25 122h-205l-61 -133c-16 -35 16 -44 70 -50l-2 -27c-62 3 -139 3 -202 0l2 27c60 6 85 24 106 70l246 529h55z
M191 240h184l-57 277z" />
    <glyph glyph-name="Amacron" unicode="&#x100;" horiz-adv-x="617" 
d="M251 713c-10 0 -14 3 -13 14l3 21c1 11 6 15 17 15h255c10 0 15 -4 14 -15l-3 -21c-1 -11 -7 -14 -18 -14h-255zM503 91c9 -42 10 -58 76 -64l-2 -27c-76 3 -157 3 -234 0l2 27c70 6 70 21 62 61l-25 122h-205l-61 -133c-16 -35 16 -44 70 -50l-2 -27
c-62 3 -139 3 -202 0l2 27c60 6 85 24 106 70l246 529h55zM191 240h184l-57 277z" />
    <glyph glyph-name="Aogonek" unicode="&#x104;" horiz-adv-x="615" 
d="M502 93c9 -42 11 -60 77 -66l-3 -27c-28 3 -53 5 -74 5c-105 0 -203 -31 -203 -116c0 -30 19 -48 48 -48c33 0 55 18 71 42l18 -13c-21 -33 -58 -72 -131 -72c-36 0 -84 17 -84 71c0 61 48 97 110 129c49 26 77 36 77 66c0 8 -1 14 -3 22l-26 124h-204l-60 -131
c-20 -39 28 -48 71 -52l-4 -27c-37 2 -165 2 -202 0l4 27c60 6 84 22 106 68l245 531h55zM189 240h184l-57 277z" />
    <glyph glyph-name="Aring" unicode="&#xc5;" horiz-adv-x="617" 
d="M375 681c-40 0 -67 31 -62 71c5 39 40 70 80 70c39 0 66 -31 61 -70c-5 -40 -40 -71 -79 -71zM343 752c-3 -23 12 -41 36 -41c23 0 42 18 45 41c3 22 -12 40 -35 40c-24 0 -43 -18 -46 -40zM503 91c9 -42 10 -58 76 -64l-2 -27c-76 3 -157 3 -234 0l2 27
c70 6 70 21 62 61l-25 122h-205l-61 -133c-16 -35 16 -44 70 -50l-2 -27c-62 3 -139 3 -202 0l2 27c60 6 85 24 106 70l246 529h55zM191 240h184l-57 277z" />
    <glyph glyph-name="Atilde" unicode="&#xc3;" horiz-adv-x="617" 
d="M315 756c-29 0 -50 -27 -53 -45l-23 4c7 59 49 100 98 100c75 0 103 -61 149 -61c30 0 53 23 57 42l23 -4c-8 -64 -51 -101 -107 -101c-74 0 -105 65 -144 65zM503 91c9 -42 10 -58 76 -64l-2 -27c-76 3 -157 3 -234 0l2 27c70 6 70 21 62 61l-25 122h-205l-61 -133
c-16 -35 16 -44 70 -50l-2 -27c-62 3 -139 3 -202 0l2 27c60 6 85 24 106 70l246 529h55zM191 240h184l-57 277z" />
    <glyph glyph-name="AE" unicode="&#xc6;" horiz-adv-x="900" 
d="M877 621c12 0 14 -5 14 -20l-3 -106h-27l-6 23c-18 52 -43 71 -90 71h-109c-6 0 -10 -6 -11 -11l-35 -246h116c47 0 61 28 76 68l23 -4c-12 -55 -20 -108 -23 -163l-23 4c-3 40 -8 63 -55 63h-118l-37 -259c-1 -6 1 -8 7 -8h97c57 0 89 19 115 62l40 63l28 -2
c-24 -56 -39 -104 -49 -156c-141 4 -264 2 -403 0l3 30c50 5 68 14 72 39l6 43l13 98h-260l-112 -131c-26 -30 7 -46 62 -52l-4 -27c-63 3 -141 3 -204 0l4 27c60 6 82 28 117 68l429 493c-9 3 -23 4 -42 6l3 27h386zM265 240h238l45 325z" />
    <glyph glyph-name="B" unicode="B" horiz-adv-x="564" 
d="M375 342c98 -13 154 -68 154 -147c0 -132 -123 -195 -274 -195h-264l3 27c51 4 68 13 72 38l67 477c5 35 -17 48 -55 52l2 27c28 -1 54 -2 79 -2c50 0 93 2 131 2c171 0 215 -67 215 -131c0 -61 -28 -107 -130 -148zM235 589l-38 -258l52 8c102 16 161 57 161 158
c0 50 -29 93 -109 93c-35 0 -49 0 -66 -1zM253 32c114 0 177 66 177 169c0 68 -42 119 -120 119l-116 -18l-34 -241c-4 -31 6 -29 93 -29z" />
    <glyph glyph-name="C" unicode="C" horiz-adv-x="558" 
d="M488 168h33c-33 -90 -105 -181 -244 -181c-150 0 -241 114 -241 274c0 196 131 376 311 376c73 0 90 -20 145 -20c12 0 18 0 32 1c4 -57 9 -109 26 -169h-44c-26 100 -74 157 -173 157c-136 0 -195 -197 -195 -352c0 -140 53 -232 147 -232c91 0 159 48 203 146z" />
    <glyph glyph-name="Cacute" unicode="&#x106;" horiz-adv-x="564" 
d="M261 696l9 -14l168 67c23 9 37 21 37 41c0 17 -11 30 -29 30c-9 0 -24 -6 -39 -17zM488 168h33c-33 -90 -105 -181 -244 -181c-150 0 -241 114 -241 274c0 196 131 376 311 376c73 0 90 -20 145 -20c12 0 18 0 32 1c4 -57 9 -109 26 -169h-44c-26 100 -74 157 -173 157
c-136 0 -195 -197 -195 -352c0 -140 53 -232 147 -232c91 0 159 48 203 146z" />
    <glyph glyph-name="Ccaron" unicode="&#x10c;" horiz-adv-x="564" 
d="M300 653l-118 150l21 16l116 -99l144 99l16 -16l-160 -150h-19zM488 168h33c-33 -90 -105 -181 -244 -181c-150 0 -241 114 -241 274c0 196 131 376 311 376c73 0 90 -20 145 -20c12 0 18 0 32 1c4 -57 9 -109 26 -169h-44c-26 100 -74 157 -173 157
c-136 0 -195 -197 -195 -352c0 -140 53 -232 147 -232c91 0 159 48 203 146z" />
    <glyph glyph-name="Ccedilla" unicode="&#xc7;" horiz-adv-x="564" 
d="M285 22c91 0 159 48 203 146h33c-33 -89 -103 -178 -238 -181l-10 -19c36 -11 93 -36 93 -86c0 -52 -51 -82 -109 -82c-49 0 -85 19 -85 53c0 15 11 26 25 26c50 0 5 -63 57 -63c32 0 52 27 52 55c0 31 -20 50 -60 62c-11 3 -16 8 -14 19c1 5 9 12 24 36
c-138 10 -220 121 -220 273c0 196 131 376 311 376c73 0 90 -20 145 -20c12 0 18 0 32 1c4 -57 9 -109 26 -169h-44c-26 100 -74 157 -173 157c-136 0 -195 -197 -195 -352c0 -140 53 -232 147 -232z" />
    <glyph glyph-name="D" unicode="D" horiz-adv-x="589" 
d="M290 621c168 0 276 -77 276 -248c0 -209 -126 -371 -324 -371c-27 0 -85 14 -125 14c-43 0 -77 -11 -125 -16l2 28c49 8 71 27 74 50l65 464c5 35 -17 48 -55 52l2 27c28 -1 52 -2 75 -2c46 0 87 2 135 2zM241 33c155 3 224 176 224 354c0 118 -47 204 -161 204
c-20 0 -41 0 -69 -2l-73 -514c-3 -14 -3 -31 12 -34c32 -6 54 -8 67 -8z" />
    <glyph glyph-name="Eth" unicode="&#xd0;" horiz-adv-x="589" 
d="M290 621c168 0 276 -77 276 -248c0 -209 -126 -371 -324 -371c-27 0 -85 14 -125 14c-43 0 -77 -11 -125 -16l2 28c49 8 71 27 74 50l30 211h-63l7 43h62l29 210c5 35 -17 48 -55 52l2 27c28 -1 52 -2 75 -2c46 0 87 2 135 2zM241 33c155 3 224 176 224 354
c0 118 -47 204 -161 204c-20 0 -41 0 -69 -2l-36 -257h67l-6 -43h-68l-30 -214c-3 -14 -3 -31 12 -34c32 -6 54 -8 67 -8z" />
    <glyph glyph-name="Dcaron" unicode="&#x10e;" horiz-adv-x="589" 
d="M344 653l-118 150l21 16l116 -99l144 99l16 -16l-160 -150h-19zM290 621c168 0 276 -77 276 -248c0 -209 -126 -371 -324 -371c-27 0 -85 14 -125 14c-43 0 -77 -11 -125 -16l2 28c49 8 71 27 74 50l65 464c5 35 -17 48 -55 52l2 27c28 -1 52 -2 75 -2c46 0 87 2 135 2z
M241 33c155 3 224 176 224 354c0 118 -47 204 -161 204c-20 0 -41 0 -69 -2l-73 -514c-3 -14 -3 -31 12 -34c32 -6 54 -8 67 -8z" />
    <glyph glyph-name="Dcroat" unicode="&#x110;" horiz-adv-x="589" 
d="M290 621c168 0 276 -77 276 -248c0 -209 -126 -371 -324 -371c-27 0 -85 14 -125 14c-43 0 -77 -11 -125 -16l2 28c49 8 71 27 74 50l30 211h-63l7 43h62l29 210c5 35 -17 48 -55 52l2 27c28 -1 52 -2 75 -2c46 0 87 2 135 2zM241 33c155 3 224 176 224 354
c0 118 -47 204 -161 204c-20 0 -41 0 -69 -2l-36 -257h67l-6 -43h-68l-30 -214c-3 -14 -3 -31 12 -34c32 -6 54 -8 67 -8z" />
    <glyph glyph-name="uni1E0C" unicode="&#x1e0c;" horiz-adv-x="589" 
d="M290 621c168 0 276 -77 276 -248c0 -209 -126 -371 -324 -371c-27 0 -85 14 -125 14c-43 0 -77 -11 -125 -16l2 28c49 8 71 27 74 50l65 464c5 35 -17 48 -55 52l2 27c28 -1 52 -2 75 -2c46 0 87 2 135 2zM241 33c155 3 224 176 224 354c0 118 -47 204 -161 204
c-20 0 -41 0 -69 -2l-73 -514c-3 -14 -3 -31 12 -34c32 -6 54 -8 67 -8zM196 -171c-29 0 -53 24 -53 53c0 28 24 51 53 51c28 0 52 -23 52 -51c0 -29 -24 -53 -52 -53z" />
    <glyph glyph-name="E" unicode="E" horiz-adv-x="487" 
d="M464 621c12 0 14 -5 14 -20l-3 -106h-27l-6 23c-18 52 -43 71 -90 71h-109c-6 0 -10 -6 -11 -11l-35 -246h116c47 0 61 28 76 68l23 -4c-12 -55 -20 -108 -23 -163l-23 4c-3 40 -8 63 -55 63h-118l-37 -259c-1 -6 1 -8 7 -8h97c57 0 89 19 115 62l40 63l28 -2
c-24 -56 -39 -104 -49 -156c-141 4 -264 2 -403 0l3 30c50 5 68 14 72 39l69 491c3 25 -11 30 -60 34l3 27h386z" />
    <glyph glyph-name="Eacute" unicode="&#xc9;" horiz-adv-x="487" 
d="M385 749l-168 -67l-9 14l146 107c15 11 30 17 39 17c18 0 29 -13 29 -30c0 -20 -14 -32 -37 -41zM464 621c12 0 14 -5 14 -20l-3 -106h-27l-6 23c-18 52 -43 71 -90 71h-109c-6 0 -10 -6 -11 -11l-35 -246h116c47 0 61 28 76 68l23 -4c-12 -55 -20 -108 -23 -163l-23 4
c-3 40 -8 63 -55 63h-118l-37 -259c-1 -6 1 -8 7 -8h97c57 0 89 19 115 62l40 63l28 -2c-24 -56 -39 -104 -49 -156c-141 4 -264 2 -403 0l3 30c50 5 68 14 72 39l69 491c3 25 -11 30 -60 34l3 27h386z" />
    <glyph glyph-name="Ecaron" unicode="&#x11a;" horiz-adv-x="487" 
d="M308 653h-19l-118 150l21 16l116 -99l144 99l16 -16zM464 621c12 0 14 -5 14 -20l-3 -106h-27l-6 23c-18 52 -43 71 -90 71h-109c-6 0 -10 -6 -11 -11l-35 -246h116c47 0 61 28 76 68l23 -4c-12 -55 -20 -108 -23 -163l-23 4c-3 40 -8 63 -55 63h-118l-37 -259
c-1 -6 1 -8 7 -8h97c57 0 89 19 115 62l40 63l28 -2c-24 -56 -39 -104 -49 -156c-141 4 -264 2 -403 0l3 30c50 5 68 14 72 39l69 491c3 25 -11 30 -60 34l3 27h386z" />
    <glyph glyph-name="Ecircumflex" unicode="&#xca;" horiz-adv-x="487" 
d="M311 752l-144 -99l-16 16l160 150h19l118 -150l-21 -16zM464 621c12 0 14 -5 14 -20l-3 -106h-27l-6 23c-18 52 -43 71 -90 71h-109c-6 0 -10 -6 -11 -11l-35 -246h116c47 0 61 28 76 68l23 -4c-12 -55 -20 -108 -23 -163l-23 4c-3 40 -8 63 -55 63h-118l-37 -259
c-1 -6 1 -8 7 -8h97c57 0 89 19 115 62l40 63l28 -2c-24 -56 -39 -104 -49 -156c-141 4 -264 2 -403 0l3 30c50 5 68 14 72 39l69 491c3 25 -11 30 -60 34l3 27h386z" />
    <glyph glyph-name="Edieresis" unicode="&#xcb;" horiz-adv-x="487" 
d="M228 716c-25 0 -48 21 -48 48c0 25 23 47 48 47s48 -22 48 -47c0 -27 -23 -48 -48 -48zM408 716c-25 0 -48 21 -48 48c0 25 23 47 48 47s48 -22 48 -47c0 -27 -23 -48 -48 -48zM464 621c12 0 14 -5 14 -20l-3 -106h-27l-6 23c-18 52 -43 71 -90 71h-109
c-6 0 -10 -6 -11 -11l-35 -246h116c47 0 61 28 76 68l23 -4c-12 -55 -20 -108 -23 -163l-23 4c-3 40 -8 63 -55 63h-118l-37 -259c-1 -6 1 -8 7 -8h97c57 0 89 19 115 62l40 63l28 -2c-24 -56 -39 -104 -49 -156c-141 4 -264 2 -403 0l3 30c50 5 68 14 72 39l69 491
c3 25 -11 30 -60 34l3 27h386z" />
    <glyph glyph-name="Edotaccent" unicode="&#x116;" horiz-adv-x="487" 
d="M311 711c-29 0 -53 24 -53 53c0 28 24 51 53 51c28 0 52 -23 52 -51c0 -29 -24 -53 -52 -53zM464 621c12 0 14 -5 14 -20l-3 -106h-27l-6 23c-18 52 -43 71 -90 71h-109c-6 0 -10 -6 -11 -11l-35 -246h116c47 0 61 28 76 68l23 -4c-12 -55 -20 -108 -23 -163l-23 4
c-3 40 -8 63 -55 63h-118l-37 -259c-1 -6 1 -8 7 -8h97c57 0 89 19 115 62l40 63l28 -2c-24 -56 -39 -104 -49 -156c-141 4 -264 2 -403 0l3 30c50 5 68 14 72 39l69 491c3 25 -11 30 -60 34l3 27h386z" />
    <glyph glyph-name="Egrave" unicode="&#xc8;" horiz-adv-x="487" 
d="M219 748c-24 10 -33 35 -21 56c11 21 39 22 63 3l140 -111l-9 -15zM464 621c12 0 14 -5 14 -20l-3 -106h-27l-6 23c-18 52 -43 71 -90 71h-109c-6 0 -10 -6 -11 -11l-35 -246h116c47 0 61 28 76 68l23 -4c-12 -55 -20 -108 -23 -163l-23 4c-3 40 -8 63 -55 63h-118
l-37 -259c-1 -6 1 -8 7 -8h97c57 0 89 19 115 62l40 63l28 -2c-24 -56 -39 -104 -49 -156c-141 4 -264 2 -403 0l3 30c50 5 68 14 72 39l69 491c3 25 -11 30 -60 34l3 27h386z" />
    <glyph glyph-name="Emacron" unicode="&#x112;" horiz-adv-x="487" 
d="M181 713c-10 0 -14 3 -13 14l3 21c1 11 6 15 17 15h255c10 0 15 -4 14 -15l-3 -21c-1 -11 -7 -14 -18 -14h-255zM464 621c12 0 14 -5 14 -20l-3 -106h-27l-6 23c-18 52 -43 71 -90 71h-109c-6 0 -10 -6 -11 -11l-35 -246h116c47 0 61 28 76 68l23 -4
c-12 -55 -20 -108 -23 -163l-23 4c-3 40 -8 63 -55 63h-118l-37 -259c-1 -6 1 -8 7 -8h97c57 0 89 19 115 62l40 63l28 -2c-24 -56 -39 -104 -49 -156c-141 4 -264 2 -403 0l3 30c50 5 68 14 72 39l69 491c3 25 -11 30 -60 34l3 27h386z" />
    <glyph glyph-name="Eogonek" unicode="&#x118;" horiz-adv-x="487" 
d="M464 621c12 0 14 -5 14 -20l-3 -106h-27l-6 23c-18 52 -43 71 -90 71h-109c-6 0 -10 -6 -11 -11l-35 -246h116c47 0 61 28 76 68l23 -4c-12 -55 -20 -108 -23 -163l-23 4c-3 40 -8 63 -55 63h-118l-37 -259c-1 -6 1 -8 7 -8h97c57 0 89 19 115 62l40 63l28 -2
c-24 -56 -39 -104 -49 -156c-22 1 -44 1 -66 1c-74 -49 -84 -80 -84 -111c0 -29 19 -47 48 -47c32 0 53 17 69 40l18 -13c-22 -33 -60 -70 -130 -70c-36 0 -83 17 -83 69c0 63 61 102 126 133c-101 1 -196 0 -301 -2l3 30c50 5 68 14 72 39l69 491c3 25 -11 30 -60 34l3 27
h386z" />
    <glyph glyph-name="F" unicode="F" horiz-adv-x="467" 
d="M465 621c12 0 14 -5 14 -20l-3 -106h-27l-6 23c-17 52 -42 71 -90 71h-109c-6 0 -10 -6 -11 -11l-35 -246h116c47 0 61 28 76 66h23c-12 -57 -20 -110 -23 -163h-23c-3 42 -8 65 -55 65h-118l-34 -239c-4 -25 12 -29 60 -34l-2 -27c-74 3 -150 3 -226 0l2 27
c51 5 69 13 72 38l70 495c3 25 -11 30 -60 34l3 27h386z" />
    <glyph glyph-name="G" unicode="G" horiz-adv-x="605" 
d="M364 294c73 -3 147 -2 221 1l-3 -27l-22 -4c-22 -4 -33 -13 -39 -41c-12 -55 -21 -117 -25 -172l12 -1c8 -1 12 -7 11 -13l-4 -19c-14 1 -28 2 -43 2c-80 0 -100 -33 -198 -33c-172 0 -261 142 -234 332c25 181 154 318 311 318c68 0 85 -20 139 -20c12 0 18 0 31 1
c4 -57 8 -109 25 -171l-43 4c-25 98 -72 154 -164 154c-78 0 -167 -65 -196 -268c-27 -188 31 -318 135 -318c85 0 124 29 135 104l16 107c4 25 -5 31 -43 35l-25 3z" />
    <glyph glyph-name="Gcommaaccent" unicode="&#x122;" horiz-adv-x="605" 
d="M364 294c73 -3 147 -2 221 1l-3 -27l-22 -4c-22 -4 -33 -13 -39 -41c-12 -55 -21 -117 -25 -172l12 -1c8 -1 12 -7 11 -13l-4 -19c-14 1 -28 2 -43 2c-80 0 -100 -33 -198 -33c-172 0 -261 142 -234 332c25 181 154 318 311 318c68 0 85 -20 139 -20c12 0 18 0 31 1
c4 -57 8 -109 25 -171l-43 4c-25 98 -72 154 -164 154c-78 0 -167 -65 -196 -268c-27 -188 31 -318 135 -318c85 0 124 29 135 104l16 107c4 25 -5 31 -43 35l-25 3zM222 -265c-6 -5 -11 -5 -14 0l-7 10c19 21 38 50 44 77c1 6 1 9 1 12c-5 -1 -9 -1 -15 -1
c-25 0 -45 19 -45 47c0 35 30 62 62 62s48 -27 48 -61c0 -50 -33 -112 -74 -146z" />
    <glyph glyph-name="H" unicode="H" horiz-adv-x="615" 
d="M411 621c75 -3 155 -3 230 0l-3 -27c-49 -5 -69 -14 -73 -39l-69 -493c-3 -25 13 -30 61 -35l-2 -27c-74 3 -154 3 -229 0l2 27c51 5 71 14 74 39l32 229h-239l-33 -233c-4 -25 12 -30 61 -35l-2 -27c-74 3 -153 3 -229 0l2 27c51 5 71 14 74 39l69 493
c4 25 -12 30 -61 35l2 27c74 -3 153 -3 229 0l-2 -27c-51 -5 -70 -14 -73 -39l-33 -229h239l33 233c4 25 -13 30 -62 35z" />
    <glyph glyph-name="Hbar" unicode="&#x126;" horiz-adv-x="615" 
d="M411 621c75 -3 155 -3 230 0l-3 -27c-49 -5 -69 -14 -73 -39l-69 -493c-3 -25 13 -30 61 -35l-2 -27c-74 3 -154 3 -229 0l2 27c51 5 71 14 74 39l32 229h-239l-33 -233c-4 -25 12 -30 61 -35l-2 -27c-74 3 -153 3 -229 0l2 27c51 5 71 14 74 39l69 493
c4 25 -12 30 -61 35l2 27c74 -3 153 -3 229 0l-2 -27c-51 -5 -70 -14 -73 -39l-20 -141h239l20 145c4 25 -13 30 -62 35zM199 326h239l9 58h-239z" />
    <glyph glyph-name="uni1E24" unicode="&#x1e24;" horiz-adv-x="615" 
d="M411 621c75 -3 155 -3 230 0l-3 -27c-49 -5 -69 -14 -73 -39l-69 -493c-3 -25 13 -30 61 -35l-2 -27c-74 3 -154 3 -229 0l2 27c51 5 71 14 74 39l32 229h-239l-33 -233c-4 -25 12 -30 61 -35l-2 -27c-74 3 -153 3 -229 0l2 27c51 5 71 14 74 39l69 493
c4 25 -12 30 -61 35l2 27c74 -3 153 -3 229 0l-2 -27c-51 -5 -70 -14 -73 -39l-33 -229h239l33 233c4 25 -13 30 -62 35zM263 -67c28 0 52 -23 52 -51c0 -29 -24 -53 -52 -53c-29 0 -53 24 -53 53c0 28 24 51 53 51z" />
    <glyph glyph-name="I" unicode="I" horiz-adv-x="281" 
d="M161 62c-4 -25 13 -30 62 -35l-4 -27c-73 3 -153 3 -229 0l4 27c51 5 70 14 73 39l69 493c4 25 -13 30 -62 35l4 27c74 -3 155 -3 230 0l-3 -27c-51 -5 -71 -14 -74 -39z" />
    <glyph glyph-name="IJ" unicode="&#x132;" horiz-adv-x="562" 
d="M161 62c-4 -25 13 -30 62 -35l-4 -27c-73 3 -153 3 -229 0l4 27c51 5 70 14 73 39l69 493c4 25 -13 30 -62 35l4 27c74 -3 155 -3 230 0l-3 -27c-51 -5 -71 -14 -74 -39zM358 621c75 -3 154 -3 229 0l-2 -27c-50 -5 -70 -14 -74 -39l-64 -456
c-30 -212 -118 -274 -250 -274l3 28c78 0 129 73 142 167l76 539c3 25 -14 30 -62 35z" />
    <glyph glyph-name="Iacute" unicode="&#xcd;" horiz-adv-x="281" 
d="M104 696l9 -14l168 67c23 9 37 21 37 41c0 17 -11 30 -29 30c-9 0 -24 -6 -39 -17zM161 62c-4 -25 13 -30 62 -35l-4 -27c-73 3 -153 3 -229 0l4 27c51 5 70 14 73 39l69 493c4 25 -13 30 -62 35l4 27c74 -3 155 -3 230 0l-3 -27c-51 -5 -71 -14 -74 -39z" />
    <glyph glyph-name="Icircumflex" unicode="&#xce;" horiz-adv-x="281" 
d="M226 819l118 -150l-21 -16l-116 99l-144 -99l-16 16l160 150h19zM161 62c-4 -25 13 -30 62 -35l-4 -27c-73 3 -153 3 -229 0l4 27c51 5 70 14 73 39l69 493c4 25 -13 30 -62 35l4 27c74 -3 155 -3 230 0l-3 -27c-51 -5 -71 -14 -74 -39z" />
    <glyph glyph-name="Idieresis" unicode="&#xcf;" horiz-adv-x="281" 
d="M124 716c-25 0 -48 21 -48 48c0 25 23 47 48 47s48 -22 48 -47c0 -27 -23 -48 -48 -48zM304 716c-25 0 -48 21 -48 48c0 25 23 47 48 47s48 -22 48 -47c0 -27 -23 -48 -48 -48zM161 62c-4 -25 13 -30 62 -35l-4 -27c-73 3 -153 3 -229 0l4 27c51 5 70 14 73 39l69 493
c4 25 -13 30 -62 35l4 27c74 -3 155 -3 230 0l-3 -27c-51 -5 -71 -14 -74 -39z" />
    <glyph glyph-name="Igrave" unicode="&#xcc;" horiz-adv-x="281" 
d="M297 696l-140 111c-24 19 -52 18 -63 -3c-12 -21 -3 -46 21 -56l173 -67zM161 62c-4 -25 13 -30 62 -35l-4 -27c-73 3 -153 3 -229 0l4 27c51 5 70 14 73 39l69 493c4 25 -13 30 -62 35l4 27c74 -3 155 -3 230 0l-3 -27c-51 -5 -71 -14 -74 -39z" />
    <glyph glyph-name="Imacron" unicode="&#x12a;" horiz-adv-x="281" 
d="M67 748c1 11 6 15 17 15h255c10 0 15 -4 14 -15l-3 -21c-1 -11 -7 -14 -18 -14h-255c-10 0 -14 3 -13 14zM161 62c-4 -25 13 -30 62 -35l-4 -27c-73 3 -153 3 -229 0l4 27c51 5 70 14 73 39l69 493c4 25 -13 30 -62 35l4 27c74 -3 155 -3 230 0l-3 -27
c-51 -5 -71 -14 -74 -39z" />
    <glyph glyph-name="Iogonek" unicode="&#x12e;" horiz-adv-x="281" 
d="M78 621c74 -3 155 -3 230 0l-3 -27c-51 -5 -71 -14 -74 -39l-70 -493c-4 -25 13 -30 62 -35l-4 -27c-27 1 -54 2 -82 2c-72 -49 -82 -79 -82 -110c0 -29 19 -47 48 -47c32 0 53 17 69 40l18 -13c-22 -33 -60 -70 -130 -70c-36 0 -83 17 -83 69c0 62 59 101 122 131
c-36 0 -73 -1 -109 -2l4 27c51 5 70 14 73 39l69 493c4 25 -13 30 -62 35z" />
    <glyph glyph-name="J" unicode="J" horiz-adv-x="281" 
d="M77 621c75 -3 154 -3 229 0l-2 -27c-50 -5 -70 -14 -74 -39l-64 -456c-30 -212 -118 -274 -250 -274l3 28c78 0 129 73 142 167l76 539c3 25 -14 30 -62 35z" />
    <glyph glyph-name="K" unicode="K" horiz-adv-x="575" 
d="M589 594c-43 -3 -68 -9 -93 -35l-207 -216c116 -241 195 -326 243 -330l-31 -27c-85 0 -162 69 -283 283l-32 -34l-25 -173c-4 -25 13 -30 62 -35l-2 -27c-75 3 -154 3 -229 0l2 27c50 5 70 14 74 39l69 493c3 25 -13 30 -62 35l2 27c75 -3 154 -3 229 0l-2 -27
c-51 -5 -70 -14 -73 -39l-38 -265l257 268c25 28 -10 33 -54 36l2 27c64 -3 129 -3 193 0z" />
    <glyph glyph-name="Kcommaaccent" unicode="&#x136;" horiz-adv-x="575" 
d="M589 594c-43 -3 -68 -9 -93 -35l-207 -216c116 -241 195 -326 243 -330l-31 -27c-85 0 -162 69 -283 283l-32 -34l-25 -173c-4 -25 13 -30 62 -35l-2 -27c-75 3 -154 3 -229 0l2 27c50 5 70 14 74 39l69 493c3 25 -13 30 -62 35l2 27c75 -3 154 -3 229 0l-2 -27
c-51 -5 -70 -14 -73 -39l-38 -265l257 268c25 28 -10 33 -54 36l2 27c64 -3 129 -3 193 0zM256 -58c32 0 48 -27 48 -61c0 -50 -33 -112 -74 -146c-6 -5 -11 -5 -14 0l-7 10c19 21 38 50 44 77c1 6 1 9 1 12c-5 -1 -9 -1 -15 -1c-25 0 -45 19 -45 47c0 35 30 62 62 62z" />
    <glyph glyph-name="L" unicode="L" horiz-adv-x="479" 
d="M423 157l28 -2c-23 -56 -38 -105 -48 -157c-142 5 -271 5 -410 2l3 30c50 5 68 13 72 38l69 491c3 25 -13 30 -62 35l2 27c75 -3 154 -3 229 0l-2 -27c-51 -5 -70 -14 -73 -39l-73 -515c-1 -6 1 -8 7 -8h104c57 0 89 19 114 62z" />
    <glyph glyph-name="Lacute" unicode="&#x139;" horiz-adv-x="479" 
d="M182 696l9 -14l168 67c23 9 37 21 37 41c0 17 -11 30 -29 30c-9 0 -24 -6 -39 -17zM423 157l28 -2c-23 -56 -38 -105 -48 -157c-142 5 -271 5 -410 2l3 30c50 5 68 13 72 38l69 491c3 25 -13 30 -62 35l2 27c75 -3 154 -3 229 0l-2 -27c-51 -5 -70 -14 -73 -39l-73 -515
c-1 -6 1 -8 7 -8h104c57 0 89 19 114 62z" />
    <glyph glyph-name="Lcaron" unicode="&#x13d;" horiz-adv-x="479" 
d="M423 157l28 -2c-23 -56 -38 -105 -48 -157c-142 5 -271 5 -410 2l3 30c50 5 68 13 72 38l69 491c3 25 -13 30 -62 35l2 27c75 -3 154 -3 229 0l-2 -27c-51 -5 -70 -14 -73 -39l-73 -515c-1 -6 1 -8 7 -8h104c57 0 89 19 114 62zM358 413c-6 -5 -11 -5 -14 0l-7 10
c19 21 38 50 44 77c1 6 1 9 1 12c-5 -1 -9 -1 -15 -1c-25 0 -45 19 -45 47c0 35 30 62 62 62s48 -27 48 -61c0 -50 -33 -112 -74 -146z" />
    <glyph glyph-name="Lcommaaccent" unicode="&#x13b;" horiz-adv-x="479" 
d="M423 157l28 -2c-23 -56 -38 -105 -48 -157c-142 5 -271 5 -410 2l3 30c50 5 68 13 72 38l69 491c3 25 -13 30 -62 35l2 27c75 -3 154 -3 229 0l-2 -27c-51 -5 -70 -14 -73 -39l-73 -515c-1 -6 1 -8 7 -8h104c57 0 89 19 114 62zM144 -265c-6 -5 -11 -5 -14 0l-7 10
c19 21 38 50 44 77c1 6 1 9 1 12c-5 -1 -9 -1 -15 -1c-25 0 -45 19 -45 47c0 35 30 62 62 62s48 -27 48 -61c0 -50 -33 -112 -74 -146z" />
    <glyph glyph-name="Ldot" unicode="&#x13f;" horiz-adv-x="479" 
d="M423 157l28 -2c-23 -56 -38 -105 -48 -157c-142 5 -271 5 -410 2l3 30c50 5 68 13 72 38l69 491c3 25 -13 30 -62 35l2 27c75 -3 154 -3 229 0l-2 -27c-51 -5 -70 -14 -73 -39l-73 -515c-1 -6 1 -8 7 -8h104c57 0 89 19 114 62zM301 338c-25 0 -45 21 -45 48
c0 35 29 65 61 65c26 0 45 -22 45 -48c0 -36 -31 -65 -61 -65z" />
    <glyph glyph-name="Lslash" unicode="&#x141;" horiz-adv-x="486" 
d="M429 157l28 -2c-23 -56 -38 -105 -48 -157c-142 5 -271 5 -410 2l3 30c50 5 68 13 72 38l27 191l-86 -25v32l91 27l37 266c3 25 -13 30 -62 35l2 27c75 -3 154 -3 229 0l-2 -27c-51 -5 -70 -14 -73 -39l-33 -233l109 32v-32l-114 -34l-35 -248c-1 -6 1 -8 7 -8h104
c57 0 89 19 114 62z" />
    <glyph glyph-name="M" unicode="M" horiz-adv-x="716" 
d="M596 62c-3 -25 13 -30 62 -35l-2 -27c-75 3 -155 3 -229 0l2 27c50 5 69 14 73 39l65 464l-243 -530l-143 531l-66 -469c-4 -25 24 -29 82 -35l-2 -27c-69 3 -139 3 -209 0l2 27c62 6 91 14 95 39l68 487c3 27 -20 36 -69 41l2 27c56 -3 113 -3 168 0l117 -451l208 451
c52 -3 109 -3 162 0l-2 -26c-48 -5 -67 -14 -72 -39z" />
    <glyph glyph-name="N" unicode="N" horiz-adv-x="610" 
d="M427 621c69 -3 139 -3 208 0l-2 -27c-59 -6 -90 -14 -93 -39l-78 -555h-27l-253 531l-67 -469c-3 -25 24 -29 83 -35l-2 -27c-69 3 -140 3 -210 0l2 27c62 6 91 14 95 39l69 486c4 27 -20 37 -69 42l2 27c55 -3 109 -3 164 0l206 -434l52 372c4 25 -22 29 -82 35z" />
    <glyph glyph-name="Nacute" unicode="&#x143;" horiz-adv-x="610" 
d="M266 696l9 -14l168 67c23 9 37 21 37 41c0 17 -11 30 -29 30c-9 0 -24 -6 -39 -17zM427 621c69 -3 139 -3 208 0l-2 -27c-59 -6 -90 -14 -93 -39l-78 -555h-27l-253 531l-67 -469c-3 -25 24 -29 83 -35l-2 -27c-69 3 -140 3 -210 0l2 27c62 6 91 14 95 39l69 486
c4 27 -20 37 -69 42l2 27c55 -3 109 -3 164 0l206 -434l52 372c4 25 -22 29 -82 35z" />
    <glyph glyph-name="Ncaron" unicode="&#x147;" horiz-adv-x="610" 
d="M347 653l-118 150l21 16l116 -99l144 99l16 -16l-160 -150h-19zM427 621c69 -3 139 -3 208 0l-2 -27c-59 -6 -90 -14 -93 -39l-78 -555h-27l-253 531l-67 -469c-3 -25 24 -29 83 -35l-2 -27c-69 3 -140 3 -210 0l2 27c62 6 91 14 95 39l69 486c4 27 -20 37 -69 42l2 27
c55 -3 109 -3 164 0l206 -434l52 372c4 25 -22 29 -82 35z" />
    <glyph glyph-name="Ncommaaccent" unicode="&#x145;" horiz-adv-x="610" 
d="M427 621c69 -3 139 -3 208 0l-2 -27c-59 -6 -90 -14 -93 -39l-78 -555h-27l-253 531l-67 -469c-3 -25 24 -29 83 -35l-2 -27c-69 3 -140 3 -210 0l2 27c62 6 91 14 95 39l69 486c4 27 -20 37 -69 42l2 27c55 -3 109 -3 164 0l206 -434l52 372c4 25 -22 29 -82 35z
M216 -265c-6 -5 -11 -5 -14 0l-7 10c19 21 38 50 44 77c1 6 1 9 1 12c-5 -1 -9 -1 -15 -1c-25 0 -45 19 -45 47c0 35 30 62 62 62s48 -27 48 -61c0 -50 -33 -112 -74 -146z" />
    <glyph glyph-name="Eng" unicode="&#x14a;" horiz-adv-x="610" 
d="M427 621c69 -3 139 -3 208 0l-2 -27c-59 -6 -90 -14 -93 -39l-58 -412h4l-21 -162c-14 -106 -74 -146 -144 -146c-74 0 -103 44 -97 89c5 32 22 49 53 49c30 0 34 -23 33 -46c-1 -24 1 -56 42 -56c42 0 77 44 85 110l2 19h-4l-253 531l-67 -469c-3 -25 24 -29 83 -35
l-2 -27c-69 3 -140 3 -210 0l2 27c62 6 91 14 95 39l69 486c4 27 -20 37 -69 42l2 27c55 -3 109 -3 164 0l206 -434l52 372c4 25 -22 29 -82 35z" />
    <glyph glyph-name="Ntilde" unicode="&#xd1;" horiz-adv-x="610" 
d="M554 792c-8 -64 -51 -101 -107 -101c-74 0 -105 65 -144 65c-29 0 -50 -27 -53 -45l-23 4c7 59 49 100 98 100c75 0 103 -61 149 -61c30 0 53 23 57 42zM427 621c69 -3 139 -3 208 0l-2 -27c-59 -6 -90 -14 -93 -39l-78 -555h-27l-253 531l-67 -469c-3 -25 24 -29 83 -35
l-2 -27c-69 3 -140 3 -210 0l2 27c62 6 91 14 95 39l69 486c4 27 -20 37 -69 42l2 27c55 -3 109 -3 164 0l206 -434l52 372c4 25 -22 29 -82 35z" />
    <glyph glyph-name="O" unicode="O" horiz-adv-x="583" 
d="M261 -13c-140 0 -226 111 -226 266c0 199 127 384 308 384c139 0 223 -110 223 -262c0 -192 -123 -388 -305 -388zM271 18c137 0 193 214 193 361c0 135 -51 227 -135 227c-135 0 -192 -205 -192 -356c0 -138 51 -232 134 -232z" />
    <glyph glyph-name="Oacute" unicode="&#xd3;" horiz-adv-x="583" 
d="M249 696l9 -14l168 67c23 9 37 21 37 41c0 17 -11 30 -29 30c-9 0 -24 -6 -39 -17zM261 -13c-140 0 -226 111 -226 266c0 199 127 384 308 384c139 0 223 -110 223 -262c0 -192 -123 -388 -305 -388zM271 18c137 0 193 214 193 361c0 135 -51 227 -135 227
c-135 0 -192 -205 -192 -356c0 -138 51 -232 134 -232z" />
    <glyph glyph-name="Ocircumflex" unicode="&#xd4;" horiz-adv-x="583" 
d="M371 819l118 -150l-21 -16l-116 99l-144 -99l-16 16l160 150h19zM261 -13c-140 0 -226 111 -226 266c0 199 127 384 308 384c139 0 223 -110 223 -262c0 -192 -123 -388 -305 -388zM271 18c137 0 193 214 193 361c0 135 -51 227 -135 227c-135 0 -192 -205 -192 -356
c0 -138 51 -232 134 -232z" />
    <glyph glyph-name="Odieresis" unicode="&#xd6;" horiz-adv-x="583" 
d="M269 716c-25 0 -48 21 -48 48c0 25 23 47 48 47s48 -22 48 -47c0 -27 -23 -48 -48 -48zM449 716c-25 0 -48 21 -48 48c0 25 23 47 48 47s48 -22 48 -47c0 -27 -23 -48 -48 -48zM261 -13c-140 0 -226 111 -226 266c0 199 127 384 308 384c139 0 223 -110 223 -262
c0 -192 -123 -388 -305 -388zM271 18c137 0 193 214 193 361c0 135 -51 227 -135 227c-135 0 -192 -205 -192 -356c0 -138 51 -232 134 -232z" />
    <glyph glyph-name="Ograve" unicode="&#xd2;" horiz-adv-x="583" 
d="M442 696l-140 111c-24 19 -52 18 -63 -3c-12 -21 -3 -46 21 -56l173 -67zM261 -13c-140 0 -226 111 -226 266c0 199 127 384 308 384c139 0 223 -110 223 -262c0 -192 -123 -388 -305 -388zM271 18c137 0 193 214 193 361c0 135 -51 227 -135 227
c-135 0 -192 -205 -192 -356c0 -138 51 -232 134 -232z" />
    <glyph glyph-name="Ohungarumlaut" unicode="&#x150;" horiz-adv-x="583" 
d="M189 696l9 -15l156 67c22 10 30 35 19 56c-10 21 -35 22 -57 3zM351 696l9 -15l156 67c22 10 30 35 19 56c-10 21 -35 22 -57 3zM261 -13c-140 0 -226 111 -226 266c0 199 127 384 308 384c139 0 223 -110 223 -262c0 -192 -123 -388 -305 -388zM271 18
c137 0 193 214 193 361c0 135 -51 227 -135 227c-135 0 -192 -205 -192 -356c0 -138 51 -232 134 -232z" />
    <glyph glyph-name="Omacron" unicode="&#x14c;" horiz-adv-x="583" 
d="M212 748c1 11 6 15 17 15h255c10 0 15 -4 14 -15l-3 -21c-1 -11 -7 -14 -18 -14h-255c-10 0 -14 3 -13 14zM261 -13c-140 0 -226 111 -226 266c0 199 127 384 308 384c139 0 223 -110 223 -262c0 -192 -123 -388 -305 -388zM271 18c137 0 193 214 193 361
c0 135 -51 227 -135 227c-135 0 -192 -205 -192 -356c0 -138 51 -232 134 -232z" />
    <glyph glyph-name="Oslash" unicode="&#xd8;" horiz-adv-x="583" 
d="M573 608l-51 -67c29 -44 44 -101 44 -166c0 -192 -123 -388 -305 -388c-50 0 -94 14 -128 40l-32 -42l-38 28l35 46c-41 47 -63 115 -63 194c0 199 127 384 308 384c61 0 112 -21 149 -58l43 57zM137 250c0 -45 5 -85 16 -119l289 382c-22 58 -61 93 -113 93
c-135 0 -192 -205 -192 -356zM464 379c0 28 -2 53 -6 77l-284 -375c23 -40 56 -63 97 -63c137 0 193 214 193 361z" />
    <glyph glyph-name="Otilde" unicode="&#xd5;" horiz-adv-x="583" 
d="M537 792c-8 -64 -51 -101 -107 -101c-74 0 -105 65 -144 65c-29 0 -50 -27 -53 -45l-23 4c7 59 49 100 98 100c75 0 103 -61 149 -61c30 0 53 23 57 42zM261 -13c-140 0 -226 111 -226 266c0 199 127 384 308 384c139 0 223 -110 223 -262c0 -192 -123 -388 -305 -388z
M271 18c137 0 193 214 193 361c0 135 -51 227 -135 227c-135 0 -192 -205 -192 -356c0 -138 51 -232 134 -232z" />
    <glyph glyph-name="OE" unicode="&#x152;" horiz-adv-x="828" 
d="M806 621c12 0 14 -5 14 -20l-3 -106h-27l-6 23c-18 52 -43 71 -90 71h-109c-6 0 -10 -6 -11 -11l-35 -246h116c47 0 61 28 76 68l23 -4c-12 -55 -20 -108 -23 -163l-23 4c-3 40 -8 63 -55 63h-118l-19 -132h5c-2 -7 -5 -13 -8 -20l-15 -107c-1 -6 1 -8 7 -8h97
c57 0 89 19 115 62l40 63l28 -2c-24 -56 -39 -104 -49 -156c-131 4 -246 2 -373 0c-25 -8 -54 -13 -86 -13c-150 0 -241 114 -241 274c0 196 131 376 311 376c52 0 76 -10 105 -16h354zM138 254c0 -140 53 -232 147 -232c18 0 35 2 51 6v2c6 1 11 1 15 2c20 6 38 15 54 27
c2 3 2 6 3 10l65 463c-29 48 -73 74 -140 74c-136 0 -195 -197 -195 -352z" />
    <glyph glyph-name="P" unicode="P" horiz-adv-x="526" 
d="M188 255l-27 -194c-5 -25 9 -30 59 -34l-2 -27c-74 3 -150 3 -226 0l2 27c51 4 69 13 72 38l67 477c4 28 -5 47 -55 52l2 27c83 -4 170 0 224 0c194 0 227 -84 215 -171c-13 -86 -94 -159 -305 -191zM192 286l27 4c142 20 193 85 206 173c9 68 -21 127 -109 127
c-36 0 -64 0 -81 -1z" />
    <glyph glyph-name="Thorn" unicode="&#xde;" horiz-adv-x="522" 
d="M284 501c147 0 228 -74 211 -193c-16 -114 -116 -184 -262 -184h-63l-9 -62c-4 -25 13 -30 62 -35l-4 -27c-73 3 -153 3 -229 0l4 27c51 5 70 14 73 39l69 493c4 25 -13 30 -62 35l4 27c74 -3 155 -3 230 0l-3 -27c-51 -5 -71 -14 -74 -39l-8 -54h61zM401 318
c12 83 -2 151 -108 151h-74l-45 -313h74c105 0 141 72 153 162z" />
    <glyph glyph-name="Q" unicode="Q" horiz-adv-x="631" 
d="M539 -49l34 -4c-13 -88 -69 -142 -146 -142c-98 0 -113 113 -199 113c-60 0 -97 -30 -109 -51h-89c35 53 138 99 224 119c-133 -1 -219 111 -219 267c0 201 131 384 313 384c140 0 228 -105 228 -260c0 -199 -95 -341 -286 -401c-52 -16 -122 -39 -149 -57
c26 13 64 22 104 22c75 0 129 -51 188 -51c57 0 100 33 106 61zM137 249c0 -139 52 -232 132 -232c140 0 205 199 205 359c0 137 -55 229 -136 229c-145 0 -201 -204 -201 -356z" />
    <glyph glyph-name="R" unicode="R" horiz-adv-x="577" 
d="M319 282c93 -184 168 -265 215 -269l-31 -27c-84 0 -160 67 -278 275l-11 -2l-26 -4l-27 -194c-5 -25 9 -30 59 -34l-2 -27c-43 2 -182 2 -226 0l2 27c51 4 68 13 72 38l67 477c5 35 -17 48 -55 52l2 27c109 -4 117 0 224 0c172 0 217 -66 217 -141
c0 -73 -47 -152 -202 -198zM192 287l27 6c129 24 208 83 208 192c0 59 -32 105 -111 105c-36 0 -64 0 -81 -1z" />
    <glyph glyph-name="Racute" unicode="&#x154;" horiz-adv-x="577" 
d="M434 749l-168 -67l-9 14l146 107c15 11 30 17 39 17c18 0 29 -13 29 -30c0 -20 -14 -32 -37 -41zM319 282c93 -184 168 -265 215 -269l-31 -27c-84 0 -160 67 -278 275l-11 -2l-26 -4l-27 -194c-5 -25 9 -30 59 -34l-2 -27c-43 2 -182 2 -226 0l2 27c51 4 68 13 72 38
l67 477c5 35 -17 48 -55 52l2 27c109 -4 117 0 224 0c172 0 217 -66 217 -141c0 -73 -47 -152 -202 -198zM192 287l27 6c129 24 208 83 208 192c0 59 -32 105 -111 105c-36 0 -64 0 -81 -1z" />
    <glyph glyph-name="Rcaron" unicode="&#x158;" horiz-adv-x="577" 
d="M357 653h-19l-118 150l21 16l116 -99l144 99l16 -16zM319 282c93 -184 168 -265 215 -269l-31 -27c-84 0 -160 67 -278 275l-11 -2l-26 -4l-27 -194c-5 -25 9 -30 59 -34l-2 -27c-43 2 -182 2 -226 0l2 27c51 4 68 13 72 38l67 477c5 35 -17 48 -55 52l2 27
c109 -4 117 0 224 0c172 0 217 -66 217 -141c0 -73 -47 -152 -202 -198zM192 287l27 6c129 24 208 83 208 192c0 59 -32 105 -111 105c-36 0 -64 0 -81 -1z" />
    <glyph glyph-name="Rcommaaccent" unicode="&#x156;" horiz-adv-x="577" 
d="M319 282c93 -184 168 -265 215 -269l-31 -27c-84 0 -160 67 -278 275l-11 -2l-26 -4l-27 -194c-5 -25 9 -30 59 -34l-2 -27c-43 2 -182 2 -226 0l2 27c51 4 68 13 72 38l67 477c5 35 -17 48 -55 52l2 27c109 -4 117 0 224 0c172 0 217 -66 217 -141
c0 -73 -47 -152 -202 -198zM192 287l27 6c129 24 208 83 208 192c0 59 -32 105 -111 105c-36 0 -64 0 -81 -1zM232 -58c32 0 48 -27 48 -61c0 -50 -33 -112 -74 -146c-6 -5 -11 -5 -14 0l-7 10c19 21 38 50 44 77c1 6 1 9 1 12c-5 -1 -9 -1 -15 -1c-25 0 -45 19 -45 47
c0 35 30 62 62 62z" />
    <glyph glyph-name="S" unicode="S" horiz-adv-x="456" 
d="M254 371c59 -32 165 -78 165 -191c0 -132 -121 -194 -206 -194c-90 0 -128 39 -152 39c-17 0 -29 -12 -34 -25h-28l11 142h23c9 0 13 -6 16 -20c11 -56 68 -103 142 -103c76 0 132 56 132 128c0 69 -62 103 -122 135c-69 36 -143 84 -143 184c0 88 75 171 201 171
c75 0 95 -23 115 -23c12 0 21 4 26 17h26l-12 -129h-15c-11 0 -13 6 -17 22c-14 51 -64 82 -115 82c-83 0 -121 -56 -121 -109c0 -47 31 -84 108 -126z" />
    <glyph glyph-name="Sacute" unicode="&#x15a;" horiz-adv-x="456" 
d="M185 696l9 -14l168 67c23 9 37 21 37 41c0 17 -11 30 -29 30c-9 0 -24 -6 -39 -17zM254 371c59 -32 165 -78 165 -191c0 -132 -121 -194 -206 -194c-90 0 -128 39 -152 39c-17 0 -29 -12 -34 -25h-28l11 142h23c9 0 13 -6 16 -20c11 -56 68 -103 142 -103
c76 0 132 56 132 128c0 69 -62 103 -122 135c-69 36 -143 84 -143 184c0 88 75 171 201 171c75 0 95 -23 115 -23c12 0 21 4 26 17h26l-12 -129h-15c-11 0 -13 6 -17 22c-14 51 -64 82 -115 82c-83 0 -121 -56 -121 -109c0 -47 31 -84 108 -126z" />
    <glyph glyph-name="Scaron" unicode="&#x160;" horiz-adv-x="456" 
d="M266 653l-118 150l21 16l116 -99l144 99l16 -16l-160 -150h-19zM254 371c59 -32 165 -78 165 -191c0 -132 -121 -194 -206 -194c-90 0 -128 39 -152 39c-17 0 -29 -12 -34 -25h-28l11 142h23c9 0 13 -6 16 -20c11 -56 68 -103 142 -103c76 0 132 56 132 128
c0 69 -62 103 -122 135c-69 36 -143 84 -143 184c0 88 75 171 201 171c75 0 95 -23 115 -23c12 0 21 4 26 17h26l-12 -129h-15c-11 0 -13 6 -17 22c-14 51 -64 82 -115 82c-83 0 -121 -56 -121 -109c0 -47 31 -84 108 -126z" />
    <glyph glyph-name="Scedilla" unicode="&#x15e;" horiz-adv-x="456" 
d="M254 371c59 -32 165 -78 165 -191c0 -132 -121 -194 -206 -194c-7 0 -14 0 -21 1l-10 -19c36 -11 93 -36 93 -86c0 -52 -51 -82 -109 -82c-49 0 -85 19 -85 53c0 15 11 26 25 26c50 0 5 -63 57 -63c32 0 52 27 52 55c0 31 -20 50 -60 62c-11 3 -16 8 -14 19
c1 5 9 12 25 38c-57 10 -86 35 -105 35c-17 0 -29 -12 -34 -25h-28l11 142h23c9 0 13 -6 16 -20c11 -56 68 -103 142 -103c76 0 132 56 132 128c0 69 -62 103 -122 135c-69 36 -143 84 -143 184c0 88 75 171 201 171c75 0 95 -23 115 -23c12 0 21 4 26 17h26l-12 -129h-15
c-11 0 -13 6 -17 22c-14 51 -64 82 -115 82c-83 0 -121 -56 -121 -109c0 -47 31 -84 108 -126z" />
    <glyph glyph-name="Scommaaccent" unicode="&#x218;" horiz-adv-x="456" 
d="M254 371c59 -32 165 -78 165 -191c0 -132 -121 -194 -206 -194c-90 0 -128 39 -152 39c-17 0 -29 -12 -34 -25h-28l11 142h23c9 0 13 -6 16 -20c11 -56 68 -103 142 -103c76 0 132 56 132 128c0 69 -62 103 -122 135c-69 36 -143 84 -143 184c0 88 75 171 201 171
c75 0 95 -23 115 -23c12 0 21 4 26 17h26l-12 -129h-15c-11 0 -13 6 -17 22c-14 51 -64 82 -115 82c-83 0 -121 -56 -121 -109c0 -47 31 -84 108 -126zM135 -265c-6 -5 -11 -5 -14 0l-7 10c19 21 38 50 44 77c1 6 1 9 1 12c-5 -1 -9 -1 -15 -1c-25 0 -45 19 -45 47
c0 35 30 62 62 62s48 -27 48 -61c0 -50 -33 -112 -74 -146z" />
    <glyph glyph-name="uni1E62" unicode="&#x1e62;" horiz-adv-x="451" 
d="M254 371c59 -32 165 -78 165 -191c0 -132 -121 -194 -206 -194c-90 0 -128 39 -152 39c-17 0 -29 -12 -34 -25h-28l11 142h23c9 0 13 -6 16 -20c11 -56 68 -103 142 -103c76 0 132 56 132 128c0 69 -62 103 -122 135c-69 36 -143 84 -143 184c0 88 75 171 201 171
c75 0 95 -23 115 -23c12 0 21 4 26 17h26l-12 -129h-15c-11 0 -13 6 -17 22c-14 51 -64 82 -115 82c-83 0 -121 -56 -121 -109c0 -47 31 -84 108 -126zM185 -171c-29 0 -53 24 -53 53c0 28 24 51 53 51c28 0 52 -23 52 -51c0 -29 -24 -53 -52 -53z" />
    <glyph glyph-name="T" unicode="T" horiz-adv-x="512" 
d="M517 631l23 -1l-51 -156h-29c15 74 15 116 -23 116h-85l-73 -528c-4 -25 12 -30 61 -35l-3 -27c-73 3 -153 3 -229 0l2 27c51 5 71 14 74 39l74 524h-76c-37 0 -48 -37 -96 -116h-30l53 156l23 -1c22 -7 36 -8 80 -8h221c45 0 60 3 84 10z" />
    <glyph glyph-name="Tbar" unicode="&#x166;" horiz-adv-x="512" 
d="M517 631l23 -1l-51 -156h-29c15 74 15 116 -23 116h-85l-36 -258h84c12 0 18 -5 16 -17l-1 -7c-2 -12 -9 -17 -21 -17h-83l-32 -229c-4 -25 12 -30 61 -35l-3 -27c-73 3 -153 3 -229 0l2 27c51 5 71 14 74 39l32 225h-88c-13 0 -19 5 -17 17l2 7c1 12 9 17 21 17h88
l36 258h-76c-37 0 -48 -37 -96 -116h-30l53 156l23 -1c22 -7 36 -8 80 -8h221c45 0 60 3 84 10z" />
    <glyph glyph-name="Tcaron" unicode="&#x164;" horiz-adv-x="512" 
d="M319 653h-19l-118 150l21 16l116 -99l144 99l16 -16zM517 631l23 -1l-51 -156h-29c15 74 15 116 -23 116h-85l-73 -528c-4 -25 12 -30 61 -35l-3 -27c-73 3 -153 3 -229 0l2 27c51 5 71 14 74 39l74 524h-76c-37 0 -48 -37 -96 -116h-30l53 156l23 -1c22 -7 36 -8 80 -8
h221c45 0 60 3 84 10z" />
    <glyph glyph-name="uni0162" unicode="&#x162;" horiz-adv-x="512" 
d="M517 631l23 -1l-51 -156h-29c15 74 15 116 -23 116h-85l-73 -528c-4 -25 12 -30 61 -35l-3 -27c-73 3 -153 3 -229 0l2 27c51 5 71 14 74 39l74 524h-76c-37 0 -48 -37 -96 -116h-30l53 156l23 -1c22 -7 36 -8 80 -8h221c45 0 60 3 84 10zM216 -32c36 -11 93 -36 93 -86
c0 -52 -51 -82 -109 -82c-49 0 -85 19 -85 53c0 15 11 26 25 26c50 0 5 -63 57 -63c32 0 52 27 52 55c0 31 -20 50 -60 62c-11 3 -16 8 -14 19c1 6 11 14 31 48h27z" />
    <glyph glyph-name="uni021A" unicode="&#x21a;" horiz-adv-x="512" 
d="M517 631l23 -1l-51 -156h-29c15 74 15 116 -23 116h-85l-73 -528c-4 -25 12 -30 61 -35l-3 -27c-73 3 -153 3 -229 0l2 27c51 5 71 14 74 39l74 524h-76c-37 0 -48 -37 -96 -116h-30l53 156l23 -1c22 -7 36 -8 80 -8h221c45 0 60 3 84 10zM195 -58c32 0 48 -27 48 -61
c0 -50 -33 -112 -74 -146c-6 -5 -11 -5 -14 0l-7 10c19 21 38 50 44 77c1 6 1 9 1 12c-5 -1 -9 -1 -15 -1c-25 0 -45 19 -45 47c0 35 30 62 62 62z" />
    <glyph glyph-name="uni1E6C" unicode="&#x1e6c;" horiz-adv-x="512" 
d="M517 631l23 -1l-51 -156h-29c15 74 15 116 -23 116h-85l-73 -528c-4 -25 12 -30 61 -35l-3 -27c-73 3 -153 3 -229 0l2 27c51 5 71 14 74 39l74 524h-76c-37 0 -48 -37 -96 -116h-30l53 156l23 -1c22 -7 36 -8 80 -8h221c45 0 60 3 84 10zM214 -67c28 0 52 -23 52 -51
c0 -29 -24 -53 -52 -53c-29 0 -53 24 -53 53c0 28 24 51 53 51z" />
    <glyph glyph-name="U" unicode="U" horiz-adv-x="647" 
d="M443 621c77 -2 153 -2 229 0l-2 -27c-49 -5 -69 -14 -73 -39l-70 -493c-3 -25 14 -30 62 -35l-2 -27c-42 2 -148 2 -177 0l3 29c11 9 18 19 21 37l5 38c-36 -54 -102 -114 -200 -114c-105 0 -166 66 -166 165c0 41 6 68 54 404c4 25 -13 30 -62 35l2 27
c77 -2 155 -2 231 0l-2 -27c-49 -5 -69 -14 -73 -39c-50 -357 -55 -383 -55 -406c0 -76 34 -123 97 -123c81 0 146 70 181 127l57 406c4 25 -13 30 -62 35z" />
    <glyph glyph-name="Uacute" unicode="&#xda;" horiz-adv-x="647" 
d="M464 749l-168 -67l-9 14l146 107c15 11 30 17 39 17c18 0 29 -13 29 -30c0 -20 -14 -32 -37 -41zM443 621c77 -2 153 -2 229 0l-2 -27c-49 -5 -69 -14 -73 -39l-70 -493c-3 -25 14 -30 62 -35l-2 -27c-42 2 -148 2 -177 0l3 29c11 9 18 19 21 37l5 38
c-36 -54 -102 -114 -200 -114c-105 0 -166 66 -166 165c0 41 6 68 54 404c4 25 -13 30 -62 35l2 27c77 -2 155 -2 231 0l-2 -27c-49 -5 -69 -14 -73 -39c-50 -357 -55 -383 -55 -406c0 -76 34 -123 97 -123c81 0 146 70 181 127l57 406c4 25 -13 30 -62 35z" />
    <glyph glyph-name="Ucircumflex" unicode="&#xdb;" horiz-adv-x="647" 
d="M390 752l-144 -99l-16 16l160 150h19l118 -150l-21 -16zM443 621c77 -2 153 -2 229 0l-2 -27c-49 -5 -69 -14 -73 -39l-70 -493c-3 -25 14 -30 62 -35l-2 -27c-42 2 -148 2 -177 0l3 29c11 9 18 19 21 37l5 38c-36 -54 -102 -114 -200 -114c-105 0 -166 66 -166 165
c0 41 6 68 54 404c4 25 -13 30 -62 35l2 27c77 -2 155 -2 231 0l-2 -27c-49 -5 -69 -14 -73 -39c-50 -357 -55 -383 -55 -406c0 -76 34 -123 97 -123c81 0 146 70 181 127l57 406c4 25 -13 30 -62 35z" />
    <glyph glyph-name="Udieresis" unicode="&#xdc;" horiz-adv-x="647" 
d="M307 716c-25 0 -48 21 -48 48c0 25 23 47 48 47s48 -22 48 -47c0 -27 -23 -48 -48 -48zM487 716c-25 0 -48 21 -48 48c0 25 23 47 48 47s48 -22 48 -47c0 -27 -23 -48 -48 -48zM443 621c77 -2 153 -2 229 0l-2 -27c-49 -5 -69 -14 -73 -39l-70 -493c-3 -25 14 -30 62 -35
l-2 -27c-42 2 -148 2 -177 0l3 29c11 9 18 19 21 37l5 38c-36 -54 -102 -114 -200 -114c-105 0 -166 66 -166 165c0 41 6 68 54 404c4 25 -13 30 -62 35l2 27c77 -2 155 -2 231 0l-2 -27c-49 -5 -69 -14 -73 -39c-50 -357 -55 -383 -55 -406c0 -76 34 -123 97 -123
c81 0 146 70 181 127l57 406c4 25 -13 30 -62 35z" />
    <glyph glyph-name="Ugrave" unicode="&#xd9;" horiz-adv-x="647" 
d="M298 748c-24 10 -33 35 -21 56c11 21 39 22 63 3l140 -111l-9 -15zM443 621c77 -2 153 -2 229 0l-2 -27c-49 -5 -69 -14 -73 -39l-70 -493c-3 -25 14 -30 62 -35l-2 -27c-42 2 -148 2 -177 0l3 29c11 9 18 19 21 37l5 38c-36 -54 -102 -114 -200 -114
c-105 0 -166 66 -166 165c0 41 6 68 54 404c4 25 -13 30 -62 35l2 27c77 -2 155 -2 231 0l-2 -27c-49 -5 -69 -14 -73 -39c-50 -357 -55 -383 -55 -406c0 -76 34 -123 97 -123c81 0 146 70 181 127l57 406c4 25 -13 30 -62 35z" />
    <glyph glyph-name="Uhungarumlaut" unicode="&#x170;" horiz-adv-x="647" 
d="M392 748l-156 -67l-9 15l127 111c22 19 47 18 57 -3c11 -21 3 -46 -19 -56zM398 681l-9 15l127 111c22 19 47 18 57 -3c11 -21 3 -46 -19 -56zM443 621c77 -2 153 -2 229 0l-2 -27c-49 -5 -69 -14 -73 -39l-70 -493c-3 -25 14 -30 62 -35l-2 -27c-42 2 -148 2 -177 0
l3 29c11 9 18 19 21 37l5 38c-36 -54 -102 -114 -200 -114c-105 0 -166 66 -166 165c0 41 6 68 54 404c4 25 -13 30 -62 35l2 27c77 -2 155 -2 231 0l-2 -27c-49 -5 -69 -14 -73 -39c-50 -357 -55 -383 -55 -406c0 -76 34 -123 97 -123c81 0 146 70 181 127l57 406
c4 25 -13 30 -62 35z" />
    <glyph glyph-name="Umacron" unicode="&#x16a;" horiz-adv-x="647" 
d="M260 713c-10 0 -14 3 -13 14l3 21c1 11 6 15 17 15h255c10 0 15 -4 14 -15l-3 -21c-1 -11 -7 -14 -18 -14h-255zM443 621c77 -2 153 -2 229 0l-2 -27c-49 -5 -69 -14 -73 -39l-70 -493c-3 -25 14 -30 62 -35l-2 -27c-42 2 -148 2 -177 0l3 29c11 9 18 19 21 37l5 38
c-36 -54 -102 -114 -200 -114c-105 0 -166 66 -166 165c0 41 6 68 54 404c4 25 -13 30 -62 35l2 27c77 -2 155 -2 231 0l-2 -27c-49 -5 -69 -14 -73 -39c-50 -357 -55 -383 -55 -406c0 -76 34 -123 97 -123c81 0 146 70 181 127l57 406c4 25 -13 30 -62 35z" />
    <glyph glyph-name="Uogonek" unicode="&#x172;" horiz-adv-x="647" 
d="M443 621c77 -2 153 -2 229 0l-2 -27c-49 -5 -69 -14 -73 -39l-70 -493c-3 -25 14 -30 62 -35l-2 -27c-42 2 -148 2 -177 0l3 29c11 9 18 19 21 37l5 38c-27 -41 -72 -85 -133 -104c-66 -28 -79 -67 -79 -97c0 -38 24 -62 59 -62s55 17 68 40l21 -13
c-19 -33 -54 -70 -127 -70c-43 0 -101 20 -101 83c0 49 41 85 94 109h-2c-105 0 -166 66 -166 165c0 41 6 68 54 404c4 25 -13 30 -62 35l2 27c77 -2 155 -2 231 0l-2 -27c-49 -5 -69 -14 -73 -39c-50 -357 -55 -383 -55 -406c0 -76 34 -123 97 -123c81 0 146 70 181 127
l57 406c4 25 -13 30 -62 35z" />
    <glyph glyph-name="Uring" unicode="&#x16e;" horiz-adv-x="647" 
d="M384 681c-40 0 -67 31 -62 71c5 39 40 70 80 70c39 0 66 -31 61 -70c-5 -40 -40 -71 -79 -71zM352 752c-3 -23 12 -41 36 -41c23 0 42 18 45 41c3 22 -12 40 -35 40c-24 0 -43 -18 -46 -40zM443 621c77 -2 153 -2 229 0l-2 -27c-49 -5 -69 -14 -73 -39l-70 -493
c-3 -25 14 -30 62 -35l-2 -27c-42 2 -148 2 -177 0l3 29c11 9 18 19 21 37l5 38c-36 -54 -102 -114 -200 -114c-105 0 -166 66 -166 165c0 41 6 68 54 404c4 25 -13 30 -62 35l2 27c77 -2 155 -2 231 0l-2 -27c-49 -5 -69 -14 -73 -39c-50 -357 -55 -383 -55 -406
c0 -76 34 -123 97 -123c81 0 146 70 181 127l57 406c4 25 -13 30 -62 35z" />
    <glyph glyph-name="V" unicode="V" horiz-adv-x="615" 
d="M256 -9l-124 569c-5 23 -13 29 -63 34l3 27c76 -3 151 -3 229 0l-2 -27c-50 -5 -74 -15 -70 -38l95 -429l201 433c12 25 -19 29 -67 34l2 27c62 -3 127 -3 191 0l-3 -27c-50 -5 -78 -13 -89 -38l-267 -565h-36z" />
    <glyph glyph-name="W" unicode="W" horiz-adv-x="903" 
d="M747 621c63 -3 128 -3 191 0l-2 -27c-51 -5 -80 -13 -90 -38l-251 -565h-37l-85 449l-196 -449h-36l-109 569c-4 23 -13 29 -63 34l3 27c76 -3 151 -3 229 0l-2 -27c-50 -5 -73 -15 -70 -38l80 -429l154 364l-13 69c-4 23 -14 29 -63 34l2 27c77 -3 153 -3 230 0l-2 -27
c-50 -5 -73 -15 -70 -38l79 -429l187 433c11 25 -20 29 -68 34z" />
    <glyph glyph-name="Wacute" unicode="&#x1e82;" horiz-adv-x="903" 
d="M596 749l-168 -67l-9 14l146 107c15 11 30 17 39 17c18 0 29 -13 29 -30c0 -20 -14 -32 -37 -41zM747 621c63 -3 128 -3 191 0l-2 -27c-51 -5 -80 -13 -90 -38l-251 -565h-37l-85 449l-196 -449h-36l-109 569c-4 23 -13 29 -63 34l3 27c76 -3 151 -3 229 0l-2 -27
c-50 -5 -73 -15 -70 -38l80 -429l154 364l-13 69c-4 23 -14 29 -63 34l2 27c77 -3 153 -3 230 0l-2 -27c-50 -5 -73 -15 -70 -38l79 -429l187 433c11 25 -20 29 -68 34z" />
    <glyph glyph-name="Wcircumflex" unicode="&#x174;" horiz-adv-x="903" 
d="M522 752l-144 -99l-16 16l160 150h19l118 -150l-21 -16zM747 621c63 -3 128 -3 191 0l-2 -27c-51 -5 -80 -13 -90 -38l-251 -565h-37l-85 449l-196 -449h-36l-109 569c-4 23 -13 29 -63 34l3 27c76 -3 151 -3 229 0l-2 -27c-50 -5 -73 -15 -70 -38l80 -429l154 364
l-13 69c-4 23 -14 29 -63 34l2 27c77 -3 153 -3 230 0l-2 -27c-50 -5 -73 -15 -70 -38l79 -429l187 433c11 25 -20 29 -68 34z" />
    <glyph glyph-name="Wdieresis" unicode="&#x1e84;" horiz-adv-x="903" 
d="M439 716c-25 0 -48 21 -48 48c0 25 23 47 48 47s48 -22 48 -47c0 -27 -23 -48 -48 -48zM619 716c-25 0 -48 21 -48 48c0 25 23 47 48 47s48 -22 48 -47c0 -27 -23 -48 -48 -48zM747 621c63 -3 128 -3 191 0l-2 -27c-51 -5 -80 -13 -90 -38l-251 -565h-37l-85 449
l-196 -449h-36l-109 569c-4 23 -13 29 -63 34l3 27c76 -3 151 -3 229 0l-2 -27c-50 -5 -73 -15 -70 -38l80 -429l154 364l-13 69c-4 23 -14 29 -63 34l2 27c77 -3 153 -3 230 0l-2 -27c-50 -5 -73 -15 -70 -38l79 -429l187 433c11 25 -20 29 -68 34z" />
    <glyph glyph-name="Wgrave" unicode="&#x1e80;" horiz-adv-x="903" 
d="M430 748c-24 10 -33 35 -21 56c11 21 39 22 63 3l140 -111l-9 -15zM747 621c63 -3 128 -3 191 0l-2 -27c-51 -5 -80 -13 -90 -38l-251 -565h-37l-85 449l-196 -449h-36l-109 569c-4 23 -13 29 -63 34l3 27c76 -3 151 -3 229 0l-2 -27c-50 -5 -73 -15 -70 -38l80 -429
l154 364l-13 69c-4 23 -14 29 -63 34l2 27c77 -3 153 -3 230 0l-2 -27c-50 -5 -73 -15 -70 -38l79 -429l187 433c11 25 -20 29 -68 34z" />
    <glyph glyph-name="X" unicode="X" horiz-adv-x="580" 
d="M571 594c-41 -5 -74 -33 -97 -64l-140 -186l122 -260c19 -40 25 -53 66 -57l-2 -27c-64 3 -129 3 -197 0l2 27c28 4 53 17 45 34l-96 204l-149 -198c-19 -24 -1 -36 36 -40l-3 -27c-54 3 -110 3 -167 0l3 27c41 4 75 25 102 60l162 214l-109 232c-17 35 -31 56 -72 61
l2 27c65 -3 132 -3 197 0l-2 -27c-28 -5 -47 -23 -39 -38l82 -176l128 169c16 22 -5 40 -41 45l2 27c56 -3 111 -3 167 0z" />
    <glyph glyph-name="Y" unicode="Y" horiz-adv-x="578" 
d="M427 621c62 -2 124 -2 186 0l-2 -27c-59 -3 -79 -19 -98 -50l-177 -279l-28 -203c-3 -25 13 -30 62 -33l-2 -29c-75 3 -155 3 -230 0l2 27c50 5 71 14 74 39l27 197l-109 295c-8 20 -18 33 -67 36l2 27c77 -2 153 -2 229 0l-2 -27c-49 -3 -64 -20 -58 -40l92 -246
l150 242c19 30 4 41 -53 44z" />
    <glyph glyph-name="Yacute" unicode="&#xdd;" horiz-adv-x="578" 
d="M254 696l9 -14l168 67c23 9 37 21 37 41c0 17 -11 30 -29 30c-9 0 -24 -6 -39 -17zM427 621c62 -2 124 -2 186 0l-2 -27c-59 -3 -79 -19 -98 -50l-177 -279l-28 -203c-3 -25 13 -30 62 -33l-2 -29c-75 3 -155 3 -230 0l2 27c50 5 71 14 74 39l27 197l-109 295
c-8 20 -18 33 -67 36l2 27c77 -2 153 -2 229 0l-2 -27c-49 -3 -64 -20 -58 -40l92 -246l150 242c19 30 4 41 -53 44z" />
    <glyph glyph-name="Ycircumflex" unicode="&#x176;" horiz-adv-x="578" 
d="M376 819l118 -150l-21 -16l-116 99l-144 -99l-16 16l160 150h19zM427 621c62 -2 124 -2 186 0l-2 -27c-59 -3 -79 -19 -98 -50l-177 -279l-28 -203c-3 -25 13 -30 62 -33l-2 -29c-75 3 -155 3 -230 0l2 27c50 5 71 14 74 39l27 197l-109 295c-8 20 -18 33 -67 36l2 27
c77 -2 153 -2 229 0l-2 -27c-49 -3 -64 -20 -58 -40l92 -246l150 242c19 30 4 41 -53 44z" />
    <glyph glyph-name="Ydieresis" unicode="&#x178;" horiz-adv-x="578" 
d="M274 716c-25 0 -48 21 -48 48c0 25 23 47 48 47s48 -22 48 -47c0 -27 -23 -48 -48 -48zM454 716c-25 0 -48 21 -48 48c0 25 23 47 48 47s48 -22 48 -47c0 -27 -23 -48 -48 -48zM427 621c62 -2 124 -2 186 0l-2 -27c-59 -3 -79 -19 -98 -50l-177 -279l-28 -203
c-3 -25 13 -30 62 -33l-2 -29c-75 3 -155 3 -230 0l2 27c50 5 71 14 74 39l27 197l-109 295c-8 20 -18 33 -67 36l2 27c77 -2 153 -2 229 0l-2 -27c-49 -3 -64 -20 -58 -40l92 -246l150 242c19 30 4 41 -53 44z" />
    <glyph glyph-name="Ygrave" unicode="&#x1ef2;" horiz-adv-x="578" 
d="M447 696l-140 111c-24 19 -52 18 -63 -3c-12 -21 -3 -46 21 -56l173 -67zM427 621c62 -2 124 -2 186 0l-2 -27c-59 -3 -79 -19 -98 -50l-177 -279l-28 -203c-3 -25 13 -30 62 -33l-2 -29c-75 3 -155 3 -230 0l2 27c50 5 71 14 74 39l27 197l-109 295c-8 20 -18 33 -67 36
l2 27c77 -2 153 -2 229 0l-2 -27c-49 -3 -64 -20 -58 -40l92 -246l150 242c19 30 4 41 -53 44z" />
    <glyph glyph-name="Z" unicode="Z" horiz-adv-x="517" 
d="M433 154l45 -2c-29 -37 -56 -82 -78 -121l22 -3c8 -1 12 -7 11 -12l-2 -16h-441l428 592h-216c-37 0 -47 -18 -95 -100l-30 2l53 136l21 -1c24 -7 37 -8 82 -8h311l-426 -591h142c58 0 85 31 112 60z" />
    <glyph glyph-name="Zacute" unicode="&#x179;" horiz-adv-x="517" 
d="M402 749l-168 -67l-9 14l146 107c15 11 30 17 39 17c18 0 29 -13 29 -30c0 -20 -14 -32 -37 -41zM433 154l45 -2c-29 -37 -56 -82 -78 -121l22 -3c8 -1 12 -7 11 -12l-2 -16h-441l428 592h-216c-37 0 -47 -18 -95 -100l-30 2l53 136l21 -1c24 -7 37 -8 82 -8h311
l-426 -591h142c58 0 85 31 112 60z" />
    <glyph glyph-name="Zcaron" unicode="&#x17d;" horiz-adv-x="517" 
d="M325 653h-19l-118 150l21 16l116 -99l144 99l16 -16zM433 154l45 -2c-29 -37 -56 -82 -78 -121l22 -3c8 -1 12 -7 11 -12l-2 -16h-441l428 592h-216c-37 0 -47 -18 -95 -100l-30 2l53 136l21 -1c24 -7 37 -8 82 -8h311l-426 -591h142c58 0 85 31 112 60z" />
    <glyph glyph-name="Zdotaccent" unicode="&#x17b;" horiz-adv-x="517" 
d="M328 711c-29 0 -53 24 -53 53c0 28 24 51 53 51c28 0 52 -23 52 -51c0 -29 -24 -53 -52 -53zM433 154l45 -2c-29 -37 -56 -82 -78 -121l22 -3c8 -1 12 -7 11 -12l-2 -16h-441l428 592h-216c-37 0 -47 -18 -95 -100l-30 2l53 136l21 -1c24 -7 37 -8 82 -8h311l-426 -591
h142c58 0 85 31 112 60z" />
    <glyph glyph-name="uni1E92" unicode="&#x1e92;" horiz-adv-x="517" 
d="M433 154l45 -2c-29 -37 -56 -82 -78 -121l22 -3c8 -1 12 -7 11 -12l-2 -16h-441l428 592h-216c-37 0 -47 -18 -95 -100l-30 2l53 136l21 -1c24 -7 37 -8 82 -8h311l-426 -591h142c58 0 85 31 112 60zM193 -67c28 0 52 -23 52 -51c0 -29 -24 -53 -52 -53
c-29 0 -53 24 -53 53c0 28 24 51 53 51z" />
    <glyph glyph-name="a" unicode="a" horiz-adv-x="520" 
d="M478 94c6 -5 6 -10 -1 -20c-39 -56 -94 -81 -132 -81c-44 0 -53 34 -49 61l19 104c-37 -94 -77 -165 -170 -165c-66 0 -126 38 -126 152c0 171 132 364 312 364c25 0 75 -4 125 -26l-67 -395c-3 -20 4 -29 19 -29c18 0 41 19 55 34c6 6 9 6 15 1zM180 36
c74 0 137 178 159 295l23 127c-9 19 -33 24 -52 24c-142 0 -193 -222 -193 -323c0 -72 25 -123 63 -123z" />
    <glyph glyph-name="aacute" unicode="&#xe1;" horiz-adv-x="520" 
d="M218 576l9 -14l168 67c23 9 37 21 37 41c0 17 -11 30 -29 30c-9 0 -24 -6 -39 -17zM478 94c6 -5 6 -10 -1 -20c-39 -56 -94 -81 -132 -81c-44 0 -53 34 -49 61l19 104c-37 -94 -77 -165 -170 -165c-66 0 -126 38 -126 152c0 171 132 364 312 364c25 0 75 -4 125 -26
l-67 -395c-3 -20 4 -29 19 -29c18 0 41 19 55 34c6 6 9 6 15 1zM180 36c74 0 137 178 159 295l23 127c-9 19 -33 24 -52 24c-142 0 -193 -222 -193 -323c0 -72 25 -123 63 -123z" />
    <glyph glyph-name="abreve" unicode="&#x103;" horiz-adv-x="520" 
d="M318 570c-74 0 -117 59 -111 125h32c0 -30 31 -67 87 -67s95 37 103 67h32c-12 -66 -69 -125 -143 -125zM478 94c6 -5 6 -10 -1 -20c-39 -56 -94 -81 -132 -81c-44 0 -53 34 -49 61l19 104c-37 -94 -77 -165 -170 -165c-66 0 -126 38 -126 152c0 171 132 364 312 364
c25 0 75 -4 125 -26l-67 -395c-3 -20 4 -29 19 -29c18 0 41 19 55 34c6 6 9 6 15 1zM180 36c74 0 137 178 159 295l23 127c-9 19 -33 24 -52 24c-142 0 -193 -222 -193 -323c0 -72 25 -123 63 -123z" />
    <glyph glyph-name="uni01CE" unicode="&#x1ce;" horiz-adv-x="520" 
d="M299 533l-118 150l21 16l116 -99l144 99l16 -16l-160 -150h-19zM478 94c6 -5 6 -10 -1 -20c-39 -56 -94 -81 -132 -81c-44 0 -53 34 -49 61l19 104c-37 -94 -77 -165 -170 -165c-66 0 -126 38 -126 152c0 171 132 364 312 364c25 0 75 -4 125 -26l-67 -395
c-3 -20 4 -29 19 -29c18 0 41 19 55 34c6 6 9 6 15 1zM180 36c74 0 137 178 159 295l23 127c-9 19 -33 24 -52 24c-142 0 -193 -222 -193 -323c0 -72 25 -123 63 -123z" />
    <glyph glyph-name="acircumflex" unicode="&#xe2;" horiz-adv-x="520" 
d="M340 699l118 -150l-21 -16l-116 99l-144 -99l-16 16l160 150h19zM478 94c6 -5 6 -10 -1 -20c-39 -56 -94 -81 -132 -81c-44 0 -53 34 -49 61l19 104c-37 -94 -77 -165 -170 -165c-66 0 -126 38 -126 152c0 171 132 364 312 364c25 0 75 -4 125 -26l-67 -395
c-3 -20 4 -29 19 -29c18 0 41 19 55 34c6 6 9 6 15 1zM180 36c74 0 137 178 159 295l23 127c-9 19 -33 24 -52 24c-142 0 -193 -222 -193 -323c0 -72 25 -123 63 -123z" />
    <glyph glyph-name="adieresis" unicode="&#xe4;" horiz-adv-x="520" 
d="M238 596c-25 0 -48 21 -48 48c0 25 23 47 48 47s48 -22 48 -47c0 -27 -23 -48 -48 -48zM418 596c-25 0 -48 21 -48 48c0 25 23 47 48 47s48 -22 48 -47c0 -27 -23 -48 -48 -48zM478 94c6 -5 6 -10 -1 -20c-39 -56 -94 -81 -132 -81c-44 0 -53 34 -49 61l19 104
c-37 -94 -77 -165 -170 -165c-66 0 -126 38 -126 152c0 171 132 364 312 364c25 0 75 -4 125 -26l-67 -395c-3 -20 4 -29 19 -29c18 0 41 19 55 34c6 6 9 6 15 1zM180 36c74 0 137 178 159 295l23 127c-9 19 -33 24 -52 24c-142 0 -193 -222 -193 -323
c0 -72 25 -123 63 -123z" />
    <glyph glyph-name="agrave" unicode="&#xe0;" horiz-adv-x="520" 
d="M411 576l-140 111c-24 19 -52 18 -63 -3c-12 -21 -3 -46 21 -56l173 -67zM478 94c6 -5 6 -10 -1 -20c-39 -56 -94 -81 -132 -81c-44 0 -53 34 -49 61l19 104c-37 -94 -77 -165 -170 -165c-66 0 -126 38 -126 152c0 171 132 364 312 364c25 0 75 -4 125 -26l-67 -395
c-3 -20 4 -29 19 -29c18 0 41 19 55 34c6 6 9 6 15 1zM180 36c74 0 137 178 159 295l23 127c-9 19 -33 24 -52 24c-142 0 -193 -222 -193 -323c0 -72 25 -123 63 -123z" />
    <glyph glyph-name="amacron" unicode="&#x101;" horiz-adv-x="520" 
d="M181 628c1 11 6 15 17 15h255c10 0 15 -4 14 -15l-3 -21c-1 -11 -7 -14 -18 -14h-255c-10 0 -14 3 -13 14zM478 94c6 -5 6 -10 -1 -20c-39 -56 -94 -81 -132 -81c-44 0 -53 34 -49 61l19 104c-37 -94 -77 -165 -170 -165c-66 0 -126 38 -126 152c0 171 132 364 312 364
c25 0 75 -4 125 -26l-67 -395c-3 -20 4 -29 19 -29c18 0 41 19 55 34c6 6 9 6 15 1zM180 36c74 0 137 178 159 295l23 127c-9 19 -33 24 -52 24c-142 0 -193 -222 -193 -323c0 -72 25 -123 63 -123z" />
    <glyph glyph-name="aogonek" unicode="&#x105;" horiz-adv-x="519" 
d="M477 94c6 -5 6 -10 -1 -20c-52 -76 -224 -108 -224 -190c0 -26 18 -43 47 -43c34 0 55 19 71 42l19 -17c-23 -33 -59 -68 -125 -68c-40 0 -88 19 -88 73c0 46 33 94 135 132c-16 12 -19 33 -16 51l18 104c-36 -94 -76 -165 -171 -165c-65 0 -124 35 -124 147
c0 182 125 369 312 369c21 0 67 -4 118 -26l-58 -395c-3 -20 2 -29 17 -29c18 0 40 19 55 34c6 6 9 6 15 1zM176 36c76 0 147 187 163 295l18 127c-13 20 -36 24 -51 24c-145 0 -190 -227 -190 -333c0 -73 27 -113 60 -113z" />
    <glyph glyph-name="aring" unicode="&#xe5;" horiz-adv-x="520" 
d="M315 561c-40 0 -67 31 -62 71c5 39 40 70 80 70c39 0 66 -31 61 -70c-5 -40 -40 -71 -79 -71zM319 591c23 0 42 18 45 41c3 22 -12 40 -35 40c-24 0 -43 -18 -46 -40c-3 -23 12 -41 36 -41zM478 94c6 -5 6 -10 -1 -20c-39 -56 -94 -81 -132 -81c-44 0 -53 34 -49 61
l19 104c-37 -94 -77 -165 -170 -165c-66 0 -126 38 -126 152c0 171 132 364 312 364c25 0 75 -4 125 -26l-67 -395c-3 -20 4 -29 19 -29c18 0 41 19 55 34c6 6 9 6 15 1zM180 36c74 0 137 178 159 295l23 127c-9 19 -33 24 -52 24c-142 0 -193 -222 -193 -323
c0 -72 25 -123 63 -123z" />
    <glyph glyph-name="atilde" unicode="&#xe3;" horiz-adv-x="520" 
d="M506 672c-8 -64 -51 -101 -107 -101c-74 0 -105 65 -144 65c-29 0 -50 -27 -53 -45l-23 4c7 59 49 100 98 100c75 0 103 -61 149 -61c30 0 53 23 57 42zM478 94c6 -5 6 -10 -1 -20c-39 -56 -94 -81 -132 -81c-44 0 -53 34 -49 61l19 104c-37 -94 -77 -165 -170 -165
c-66 0 -126 38 -126 152c0 171 132 364 312 364c25 0 75 -4 125 -26l-67 -395c-3 -20 4 -29 19 -29c18 0 41 19 55 34c6 6 9 6 15 1zM180 36c74 0 137 178 159 295l23 127c-9 19 -33 24 -52 24c-142 0 -193 -222 -193 -323c0 -72 25 -123 63 -123z" />
    <glyph glyph-name="ae" unicode="&#xe6;" horiz-adv-x="700" 
d="M651 145c11 0 10 -12 2 -25c-42 -73 -104 -127 -190 -127c-79 0 -148 46 -151 163l-3 -7c-36 -85 -74 -156 -170 -156c-65 0 -120 35 -120 147c0 182 121 369 307 369c22 0 70 -4 120 -51l-3 -7c41 36 87 58 134 58c64 0 98 -40 98 -89c0 -115 -183 -196 -267 -228
c-8 -75 27 -143 95 -143c51 0 92 38 125 86c6 8 9 10 16 10h7zM174 36c76 0 145 186 162 295l18 127c-14 20 -36 24 -51 24c-145 0 -188 -227 -188 -333c0 -73 25 -113 59 -113zM559 482c-59 0 -135 -128 -147 -261c152 57 186 143 186 200c0 27 -7 61 -39 61z" />
    <glyph glyph-name="b" unicode="b" horiz-adv-x="505" 
d="M385 509c48 0 105 -40 105 -135c0 -140 -110 -382 -284 -382c-73 0 -174 41 -154 170l65 412c6 37 -19 52 -50 48l4 27c76 12 103 35 125 35c15 0 25 -8 22 -25l-68 -395c56 144 140 245 235 245zM209 19c133 0 188 260 188 371c0 55 -22 79 -45 79
c-87 0 -217 -245 -217 -364c0 -54 21 -86 74 -86z" />
    <glyph glyph-name="c" unicode="c" horiz-adv-x="411" 
d="M289 509c69 0 108 -45 108 -95c0 -37 -20 -61 -48 -61c-22 0 -38 15 -38 36c0 39 28 95 -33 95c-98 0 -163 -161 -163 -289c0 -93 36 -146 94 -146c50 0 95 38 129 86c6 8 9 10 16 10h8c11 0 10 -12 3 -23c-46 -74 -110 -129 -196 -129c-81 0 -148 48 -148 172
c0 174 130 344 268 344z" />
    <glyph glyph-name="cacute" unicode="&#x107;" horiz-adv-x="411" 
d="M184 576l9 -14l168 67c23 9 37 21 37 41c0 17 -11 30 -29 30c-9 0 -24 -6 -39 -17zM289 509c69 0 108 -45 108 -95c0 -37 -20 -61 -48 -61c-22 0 -38 15 -38 36c0 39 28 95 -33 95c-98 0 -163 -161 -163 -289c0 -93 36 -146 94 -146c50 0 95 38 129 86c6 8 9 10 16 10h8
c11 0 10 -12 3 -23c-46 -74 -110 -129 -196 -129c-81 0 -148 48 -148 172c0 174 130 344 268 344z" />
    <glyph glyph-name="ccaron" unicode="&#x10d;" horiz-adv-x="411" 
d="M265 533l-118 150l21 16l116 -99l144 99l16 -16l-160 -150h-19zM289 509c69 0 108 -45 108 -95c0 -37 -20 -61 -48 -61c-22 0 -38 15 -38 36c0 39 28 95 -33 95c-98 0 -163 -161 -163 -289c0 -93 36 -146 94 -146c50 0 95 38 129 86c6 8 9 10 16 10h8c11 0 10 -12 3 -23
c-46 -74 -110 -129 -196 -129c-81 0 -148 48 -148 172c0 174 130 344 268 344z" />
    <glyph glyph-name="ccedilla" unicode="&#xe7;" horiz-adv-x="411" 
d="M349 353c-22 0 -38 15 -38 36c0 39 28 95 -33 95c-98 0 -163 -161 -163 -289c0 -93 36 -146 94 -146c50 0 95 38 129 86c6 8 9 10 16 10h8c11 0 10 -12 3 -23c-44 -70 -104 -124 -184 -129l-13 -25c36 -11 93 -36 93 -86c0 -52 -51 -82 -109 -82c-49 0 -85 19 -85 53
c0 15 11 26 25 26c50 0 5 -63 57 -63c32 0 52 27 52 55c0 31 -20 50 -60 62c-11 3 -16 8 -14 19c1 6 10 13 27 42c-74 5 -133 55 -133 171c0 174 130 344 268 344c69 0 108 -45 108 -95c0 -37 -20 -61 -48 -61z" />
    <glyph glyph-name="d" unicode="d" horiz-adv-x="522" 
d="M480 94c6 -5 6 -10 -1 -20c-39 -56 -94 -81 -132 -81c-44 0 -53 34 -49 61l19 104c-37 -94 -77 -165 -171 -165c-66 0 -127 33 -127 152c0 175 127 364 309 364c14 0 25 -1 39 -2l11 67c6 37 -20 52 -55 48l4 27c81 13 108 35 130 35c15 0 25 -8 22 -25l-86 -571
c-3 -20 2 -29 17 -29c18 0 41 19 55 34c6 6 9 6 15 1zM342 331l18 127c-11 20 -34 24 -51 24c-145 0 -192 -227 -192 -328c0 -78 30 -118 64 -118c75 0 145 187 161 295z" />
    <glyph glyph-name="eth" unicode="&#xf0;" horiz-adv-x="521" 
d="M547 645l-5 -31l-60 -17c7 -26 6 -58 2 -88l-57 -411c-5 -35 12 -40 49 -35l-2 -32c-78 -19 -110 -44 -132 -44c-15 0 -21 13 -17 29l17 62c-29 -42 -73 -90 -143 -90c-102 0 -194 86 -171 250c24 173 136 271 241 271c65 0 96 -36 114 -68l14 99c2 13 2 24 0 33
l-121 -35l4 31l105 30c-19 18 -55 17 -98 14l3 30c77 14 103 15 118 15c31 0 51 -14 64 -34zM342 143l37 259c-16 36 -48 76 -101 76c-76 0 -131 -97 -150 -230c-21 -147 13 -232 83 -232c67 0 117 79 131 127z" />
    <glyph glyph-name="dcaron" unicode="&#x10f;" horiz-adv-x="564" 
d="M480 94c6 -5 6 -10 -1 -20c-39 -56 -94 -81 -132 -81c-44 0 -53 34 -49 61l19 104c-37 -94 -77 -165 -171 -165c-66 0 -127 33 -127 152c0 175 127 364 309 364c14 0 25 -1 39 -2l11 67c6 37 -20 52 -55 48l4 27c81 13 108 35 130 35c15 0 25 -8 22 -25l-86 -571
c-3 -20 2 -29 17 -29c18 0 41 19 55 34c6 6 9 6 15 1zM543 477c-6 -5 -11 -5 -14 0l-7 10c19 21 38 50 44 77c1 6 1 9 1 12c-5 -1 -9 -1 -15 -1c-25 0 -45 19 -45 47c0 35 30 62 62 62s48 -27 48 -61c0 -50 -33 -112 -74 -146zM342 331l18 127c-11 20 -34 24 -51 24
c-145 0 -192 -227 -192 -328c0 -78 30 -118 64 -118c75 0 145 187 161 295z" />
    <glyph glyph-name="dcroat" unicode="&#x111;" horiz-adv-x="522" 
d="M460 533l-67 -445c-3 -20 2 -29 17 -29c18 0 41 19 55 34c6 6 9 6 15 1s6 -10 -1 -20c-39 -56 -94 -81 -132 -81c-44 0 -53 34 -49 61l19 104c-37 -94 -77 -165 -171 -165c-66 0 -127 33 -127 152c0 175 127 364 309 364c14 0 25 -1 39 -2l4 26h-53l2 21h55l3 20
c6 37 -20 52 -55 48l4 27c81 13 108 35 130 35c15 0 25 -8 22 -25l-16 -105h58l-2 -21h-59zM342 331l18 127c-11 20 -34 24 -51 24c-145 0 -192 -227 -192 -328c0 -78 30 -118 64 -118c75 0 145 187 161 295z" />
    <glyph glyph-name="uni1E0D" unicode="&#x1e0d;" horiz-adv-x="522" 
d="M480 94c6 -5 6 -10 -1 -20c-39 -56 -94 -81 -132 -81c-44 0 -53 34 -49 61l19 104c-37 -94 -77 -165 -171 -165c-66 0 -127 33 -127 152c0 175 127 364 309 364c14 0 25 -1 39 -2l11 67c6 37 -20 52 -55 48l4 27c81 13 108 35 130 35c15 0 25 -8 22 -25l-86 -571
c-3 -20 2 -29 17 -29c18 0 41 19 55 34c6 6 9 6 15 1zM342 331l18 127c-11 20 -34 24 -51 24c-145 0 -192 -227 -192 -328c0 -78 30 -118 64 -118c75 0 145 187 161 295zM244 -171c-29 0 -53 24 -53 53c0 28 24 51 53 51c28 0 52 -23 52 -51c0 -29 -24 -53 -52 -53z" />
    <glyph glyph-name="e" unicode="e" horiz-adv-x="419" 
d="M365 145c11 0 10 -12 2 -25c-42 -73 -104 -127 -190 -127c-81 0 -151 48 -151 172c0 164 132 344 265 344c64 0 98 -40 98 -89c0 -115 -183 -196 -267 -228c-8 -75 27 -143 95 -143c51 0 92 38 125 86c6 8 9 10 16 10h7zM312 421c0 27 -7 61 -39 61
c-59 0 -135 -128 -147 -261c152 57 186 143 186 200z" />
    <glyph glyph-name="eacute" unicode="&#xe9;" horiz-adv-x="419" 
d="M176 576l9 -14l168 67c23 9 37 21 37 41c0 17 -11 30 -29 30c-9 0 -24 -6 -39 -17zM365 145c11 0 10 -12 2 -25c-42 -73 -104 -127 -190 -127c-81 0 -151 48 -151 172c0 164 132 344 265 344c64 0 98 -40 98 -89c0 -115 -183 -196 -267 -228c-8 -75 27 -143 95 -143
c51 0 92 38 125 86c6 8 9 10 16 10h7zM312 421c0 27 -7 61 -39 61c-59 0 -135 -128 -147 -261c152 57 186 143 186 200z" />
    <glyph glyph-name="ecaron" unicode="&#x11b;" horiz-adv-x="419" 
d="M257 533l-118 150l21 16l116 -99l144 99l16 -16l-160 -150h-19zM365 145c11 0 10 -12 2 -25c-42 -73 -104 -127 -190 -127c-81 0 -151 48 -151 172c0 164 132 344 265 344c64 0 98 -40 98 -89c0 -115 -183 -196 -267 -228c-8 -75 27 -143 95 -143c51 0 92 38 125 86
c6 8 9 10 16 10h7zM312 421c0 27 -7 61 -39 61c-59 0 -135 -128 -147 -261c152 57 186 143 186 200z" />
    <glyph glyph-name="ecircumflex" unicode="&#xea;" horiz-adv-x="419" 
d="M298 699l118 -150l-21 -16l-116 99l-144 -99l-16 16l160 150h19zM365 145c11 0 10 -12 2 -25c-42 -73 -104 -127 -190 -127c-81 0 -151 48 -151 172c0 164 132 344 265 344c64 0 98 -40 98 -89c0 -115 -183 -196 -267 -228c-8 -75 27 -143 95 -143c51 0 92 38 125 86
c6 8 9 10 16 10h7zM312 421c0 27 -7 61 -39 61c-59 0 -135 -128 -147 -261c152 57 186 143 186 200z" />
    <glyph glyph-name="edieresis" unicode="&#xeb;" horiz-adv-x="419" 
d="M196 596c-25 0 -48 21 -48 48c0 25 23 47 48 47s48 -22 48 -47c0 -27 -23 -48 -48 -48zM376 596c-25 0 -48 21 -48 48c0 25 23 47 48 47s48 -22 48 -47c0 -27 -23 -48 -48 -48zM365 145c11 0 10 -12 2 -25c-42 -73 -104 -127 -190 -127c-81 0 -151 48 -151 172
c0 164 132 344 265 344c64 0 98 -40 98 -89c0 -115 -183 -196 -267 -228c-8 -75 27 -143 95 -143c51 0 92 38 125 86c6 8 9 10 16 10h7zM312 421c0 27 -7 61 -39 61c-59 0 -135 -128 -147 -261c152 57 186 143 186 200z" />
    <glyph glyph-name="edotaccent" unicode="&#x117;" horiz-adv-x="419" 
d="M279 591c-29 0 -53 24 -53 53c0 28 24 51 53 51c28 0 52 -23 52 -51c0 -29 -24 -53 -52 -53zM365 145c11 0 10 -12 2 -25c-42 -73 -104 -127 -190 -127c-81 0 -151 48 -151 172c0 164 132 344 265 344c64 0 98 -40 98 -89c0 -115 -183 -196 -267 -228
c-8 -75 27 -143 95 -143c51 0 92 38 125 86c6 8 9 10 16 10h7zM312 421c0 27 -7 61 -39 61c-59 0 -135 -128 -147 -261c152 57 186 143 186 200z" />
    <glyph glyph-name="egrave" unicode="&#xe8;" horiz-adv-x="419" 
d="M369 576l-140 111c-24 19 -52 18 -63 -3c-12 -21 -3 -46 21 -56l173 -67zM365 145c11 0 10 -12 2 -25c-42 -73 -104 -127 -190 -127c-81 0 -151 48 -151 172c0 164 132 344 265 344c64 0 98 -40 98 -89c0 -115 -183 -196 -267 -228c-8 -75 27 -143 95 -143
c51 0 92 38 125 86c6 8 9 10 16 10h7zM312 421c0 27 -7 61 -39 61c-59 0 -135 -128 -147 -261c152 57 186 143 186 200z" />
    <glyph glyph-name="emacron" unicode="&#x113;" horiz-adv-x="419" 
d="M139 628c1 11 6 15 17 15h255c10 0 15 -4 14 -15l-3 -21c-1 -11 -7 -14 -18 -14h-255c-10 0 -14 3 -13 14zM365 145c11 0 10 -12 2 -25c-42 -73 -104 -127 -190 -127c-81 0 -151 48 -151 172c0 164 132 344 265 344c64 0 98 -40 98 -89c0 -115 -183 -196 -267 -228
c-8 -75 27 -143 95 -143c51 0 92 38 125 86c6 8 9 10 16 10h7zM312 421c0 27 -7 61 -39 61c-59 0 -135 -128 -147 -261c152 57 186 143 186 200z" />
    <glyph glyph-name="eogonek" unicode="&#x119;" horiz-adv-x="414" 
d="M365 145c11 0 10 -12 2 -25c-34 -58 -80 -105 -141 -121c-82 -40 -91 -84 -91 -111c0 -29 19 -47 48 -47c33 0 54 17 69 40l18 -13c-22 -33 -60 -70 -129 -70c-37 0 -84 17 -84 69c0 53 45 99 110 126c-77 4 -141 53 -141 172c0 164 132 344 265 344c64 0 98 -40 98 -89
c0 -115 -183 -196 -267 -228c-8 -75 27 -143 95 -143c51 0 92 38 125 86c6 8 9 10 16 10h7zM273 482c-59 0 -135 -128 -147 -261c152 57 186 143 186 200c0 27 -7 61 -39 61z" />
    <glyph glyph-name="f" unicode="f" horiz-adv-x="283" 
d="M350 714c67 0 94 -30 94 -59c0 -25 -19 -47 -47 -47c-51 0 -41 72 -87 72c-38 0 -67 -52 -89 -180h88c5 0 9 -3 8 -9l-3 -16c-1 -5 -3 -7 -8 -7h-90l-51 -340c-41 -274 -155 -347 -251 -347c-60 0 -86 32 -86 61c0 23 16 45 43 45c48 0 43 -72 89 -72c35 0 83 79 101 214
l61 426c1 4 1 9 2 13h-80c-5 0 -9 2 -8 8l3 17c1 5 3 7 8 7h83c36 162 133 214 220 214z" />
    <glyph glyph-name="g" unicode="g" horiz-adv-x="517" 
d="M481 508c25 0 46 -15 46 -39c0 -21 -15 -39 -43 -39c-15 0 -22 5 -34 5c-15 0 -19 -9 -19 -17c0 -18 7 -36 7 -66c0 -93 -72 -183 -249 -198c-89 -8 -104 -14 -104 -31s20 -20 50 -25l140 -21c95 -15 156 -44 156 -116c0 -114 -144 -178 -276 -178
c-103 0 -187 38 -187 127c0 49 27 90 65 90c23 0 39 -14 39 -33c0 -32 -21 -35 -21 -78c0 -53 46 -79 117 -79c85 0 181 36 181 121c0 48 -30 59 -80 68l-179 32c-58 11 -73 39 -73 68c0 53 55 68 125 76c-56 35 -87 85 -87 144c0 104 94 190 214 190c79 0 118 -37 142 -65
c14 39 36 64 70 64zM225 183c76 0 124 98 124 188c0 59 -21 114 -79 114c-78 0 -125 -102 -125 -190c0 -63 25 -112 80 -112z" />
    <glyph glyph-name="gcommaaccent" unicode="&#x123;" horiz-adv-x="517" 
d="M316 751c6 5 11 5 14 0l7 -10c-19 -21 -38 -50 -44 -77c-1 -6 -1 -9 -1 -12c5 1 9 1 15 1c25 0 45 -19 45 -47c0 -35 -30 -62 -62 -62s-48 27 -48 61c0 50 33 112 74 146zM481 508c25 0 46 -15 46 -39c0 -21 -15 -39 -43 -39c-15 0 -22 5 -34 5c-15 0 -19 -9 -19 -17
c0 -18 7 -36 7 -66c0 -93 -72 -183 -249 -198c-89 -8 -104 -14 -104 -31s20 -20 50 -25l140 -21c95 -15 156 -44 156 -116c0 -114 -144 -178 -276 -178c-103 0 -187 38 -187 127c0 49 27 90 65 90c23 0 39 -14 39 -33c0 -32 -21 -35 -21 -78c0 -53 46 -79 117 -79
c85 0 181 36 181 121c0 48 -30 59 -80 68l-179 32c-58 11 -73 39 -73 68c0 53 55 68 125 76c-56 35 -87 85 -87 144c0 104 94 190 214 190c79 0 118 -37 142 -65c14 39 36 64 70 64zM225 183c76 0 124 98 124 188c0 59 -21 114 -79 114c-78 0 -125 -102 -125 -190
c0 -63 25 -112 80 -112z" />
    <glyph glyph-name="h" unicode="h" horiz-adv-x="494" 
d="M377 509c50 0 100 -21 100 -134c0 -134 -70 -383 -210 -383c-42 0 -64 24 -64 50c0 25 18 42 41 42c49 0 33 -61 60 -61c41 0 80 248 80 356c0 67 -17 90 -46 90c-80 0 -183 -177 -225 -454c-3 -17 -23 -24 -46 -24c-21 0 -44 7 -41 27l91 556c6 35 -19 52 -50 48l4 27
c76 14 103 35 125 35c15 0 25 -8 22 -25l-68 -406c53 156 125 256 227 256z" />
    <glyph glyph-name="hbar" unicode="&#x127;" horiz-adv-x="495" 
d="M379 509c50 0 100 -21 100 -134c0 -134 -70 -383 -210 -383c-42 0 -64 24 -64 50c0 25 18 42 41 42c49 0 33 -61 60 -61c41 0 80 248 80 356c0 67 -17 90 -46 90c-80 0 -183 -177 -225 -454c-3 -17 -23 -24 -46 -24c-21 0 -44 7 -41 27l81 494h-57l3 27h58l6 35
c6 35 -19 52 -50 48l4 27c76 14 103 35 125 35c15 0 25 -8 22 -25l-20 -120h58l-3 -27h-60l-43 -259c53 156 125 256 227 256z" />
    <glyph glyph-name="uni1E25" unicode="&#x1e25;" horiz-adv-x="494" 
d="M377 509c50 0 100 -21 100 -134c0 -134 -70 -383 -210 -383c-42 0 -64 24 -64 50c0 25 18 42 41 42c49 0 33 -61 60 -61c41 0 80 248 80 356c0 67 -17 90 -46 90c-80 0 -183 -177 -225 -454c-3 -17 -23 -24 -46 -24c-21 0 -44 7 -41 27l91 556c6 35 -19 52 -50 48l4 27
c76 14 103 35 125 35c15 0 25 -8 22 -25l-68 -406c53 156 125 256 227 256zM164 -171c-29 0 -53 24 -53 53c0 28 24 51 53 51c28 0 52 -23 52 -51c0 -29 -24 -53 -52 -53z" />
    <glyph glyph-name="i" unicode="i" horiz-adv-x="288" 
d="M205 591c-28 0 -53 23 -53 52s25 52 53 52s53 -23 53 -52s-25 -52 -53 -52zM246 94c6 -5 6 -10 -1 -20c-39 -56 -94 -81 -133 -81c-43 0 -51 34 -47 61l68 356c4 20 -1 30 -15 30c-20 0 -39 -14 -59 -35c-9 -9 -12 -7 -18 -2c-5 5 -5 9 1 17c47 65 102 90 143 90
c38 0 49 -27 42 -62l-67 -360c-4 -20 1 -29 16 -29c19 0 41 19 55 34c6 6 9 6 15 1z" />
    <glyph glyph-name="dotlessi" unicode="&#x131;" horiz-adv-x="288" 
d="M246 94c6 -5 6 -10 -1 -20c-39 -56 -94 -81 -133 -81c-43 0 -51 34 -47 61l68 356c4 20 -1 30 -15 30c-20 0 -39 -14 -59 -35c-9 -9 -12 -8 -18 -2c-5 5 -5 9 1 17c48 64 102 90 143 90c38 0 49 -27 42 -62l-67 -360c-4 -20 1 -29 16 -29c19 0 41 19 55 34c6 6 9 6 15 1z
" />
    <glyph glyph-name="iacute" unicode="&#xed;" horiz-adv-x="288" 
d="M95 576l9 -14l168 67c23 9 37 21 37 41c0 17 -11 30 -29 30c-9 0 -24 -6 -39 -17zM246 94c6 -5 6 -10 -1 -20c-39 -56 -94 -81 -133 -81c-43 0 -51 34 -47 61l68 356c4 20 -1 30 -15 30c-20 0 -39 -14 -59 -35c-9 -9 -12 -8 -18 -2c-5 5 -5 9 1 17c48 64 102 90 143 90
c38 0 49 -27 42 -62l-67 -360c-4 -20 1 -29 16 -29c19 0 41 19 55 34c6 6 9 6 15 1z" />
    <glyph glyph-name="icircumflex" unicode="&#xee;" horiz-adv-x="288" 
d="M217 699l118 -150l-21 -16l-116 99l-144 -99l-16 16l160 150h19zM246 94c6 -5 6 -10 -1 -20c-39 -56 -94 -81 -133 -81c-43 0 -51 34 -47 61l68 356c4 20 -1 30 -15 30c-20 0 -39 -14 -59 -35c-9 -9 -12 -8 -18 -2c-5 5 -5 9 1 17c48 64 102 90 143 90
c38 0 49 -27 42 -62l-67 -360c-4 -20 1 -29 16 -29c19 0 41 19 55 34c6 6 9 6 15 1z" />
    <glyph glyph-name="idieresis" unicode="&#xef;" horiz-adv-x="288" 
d="M115 596c-25 0 -48 21 -48 48c0 25 23 47 48 47s48 -22 48 -47c0 -27 -23 -48 -48 -48zM295 596c-25 0 -48 21 -48 48c0 25 23 47 48 47s48 -22 48 -47c0 -27 -23 -48 -48 -48zM246 94c6 -5 6 -10 -1 -20c-39 -56 -94 -81 -133 -81c-43 0 -51 34 -47 61l68 356
c4 20 -1 30 -15 30c-20 0 -39 -14 -59 -35c-9 -9 -12 -8 -18 -2c-5 5 -5 9 1 17c48 64 102 90 143 90c38 0 49 -27 42 -62l-67 -360c-4 -20 1 -29 16 -29c19 0 41 19 55 34c6 6 9 6 15 1z" />
    <glyph glyph-name="igrave" unicode="&#xec;" horiz-adv-x="288" 
d="M288 576l-140 111c-24 19 -52 18 -63 -3c-12 -21 -3 -46 21 -56l173 -67zM246 94c6 -5 6 -10 -1 -20c-39 -56 -94 -81 -133 -81c-43 0 -51 34 -47 61l68 356c4 20 -1 30 -15 30c-20 0 -39 -14 -59 -35c-9 -9 -12 -8 -18 -2c-5 5 -5 9 1 17c48 64 102 90 143 90
c38 0 49 -27 42 -62l-67 -360c-4 -20 1 -29 16 -29c19 0 41 19 55 34c6 6 9 6 15 1z" />
    <glyph glyph-name="ij" unicode="&#x133;" horiz-adv-x="514" 
d="M205 591c-28 0 -53 23 -53 52s25 52 53 52s53 -23 53 -52s-25 -52 -53 -52zM452 591c-28 0 -53 23 -53 52s25 52 53 52s52 -23 52 -52s-24 -52 -52 -52zM246 94c6 -5 6 -10 -1 -20c-39 -56 -94 -81 -133 -81c-43 0 -51 34 -47 61l68 356c4 20 -1 30 -15 30
c-20 0 -39 -14 -59 -35c-9 -9 -12 -7 -18 -2c-5 5 -5 9 1 17c47 65 102 90 143 90c38 0 49 -27 42 -62l-67 -360c-4 -20 1 -29 16 -29c19 0 41 19 55 34c6 6 9 6 15 1zM440 510c38 0 48 -27 42 -62l-44 -277c-47 -298 -155 -390 -255 -390c-69 0 -97 30 -97 60
c0 23 18 43 43 43c45 0 57 -62 103 -62c34 0 70 52 93 198l63 390c3 20 -1 30 -15 30c-19 0 -39 -14 -59 -35c-9 -9 -12 -8 -18 -2c-4 5 -4 9 1 17c49 64 102 90 143 90z" />
    <glyph glyph-name="imacron" unicode="&#x12b;" horiz-adv-x="288" 
d="M58 628c1 11 6 15 17 15h255c10 0 15 -4 14 -15l-3 -21c-1 -11 -7 -14 -18 -14h-255c-10 0 -14 3 -13 14zM246 94c6 -5 6 -10 -1 -20c-39 -56 -94 -81 -133 -81c-43 0 -51 34 -47 61l68 356c4 20 -1 30 -15 30c-20 0 -39 -14 -59 -35c-9 -9 -12 -8 -18 -2c-5 5 -5 9 1 17
c48 64 102 90 143 90c38 0 49 -27 42 -62l-67 -360c-4 -20 1 -29 16 -29c19 0 41 19 55 34c6 6 9 6 15 1z" />
    <glyph glyph-name="iogonek" unicode="&#x12f;" horiz-adv-x="306" 
d="M198 591c-29 0 -53 24 -53 53c0 28 24 51 53 51c28 0 52 -23 52 -51c0 -29 -24 -53 -52 -53zM246 94c6 -5 6 -10 -1 -20c-39 -55 -93 -81 -132 -81c-60 -44 -69 -72 -69 -101s19 -47 48 -47c32 0 53 17 69 40l18 -13c-22 -33 -60 -70 -130 -70c-36 0 -83 17 -83 69
c0 60 56 99 118 129c-19 11 -22 35 -19 54l68 356c4 20 -1 30 -15 30c-20 0 -39 -14 -59 -35c-9 -9 -12 -8 -18 -2c-5 5 -5 9 1 17c48 64 102 90 143 90c38 0 49 -27 42 -62l-67 -360c-4 -20 1 -29 16 -29c19 0 41 19 55 34c6 6 9 6 15 1z" />
    <glyph glyph-name="j" unicode="j" horiz-adv-x="261" 
d="M199 591c-28 0 -53 23 -53 52s25 52 53 52s52 -23 52 -52s-24 -52 -52 -52zM187 510c38 0 48 -27 42 -62l-44 -277c-47 -298 -155 -390 -255 -390c-69 0 -97 30 -97 60c0 23 18 43 43 43c45 0 57 -62 103 -62c34 0 70 52 93 198l63 390c3 20 -1 30 -15 30
c-19 0 -39 -14 -59 -35c-9 -9 -12 -8 -18 -2c-4 5 -4 9 1 17c49 64 102 90 143 90z" />
    <glyph glyph-name="uni0237" unicode="&#x237;" horiz-adv-x="261" 
d="M187 510c38 0 48 -27 42 -62l-44 -277c-47 -298 -155 -390 -255 -390c-69 0 -97 30 -97 60c0 23 18 43 43 43c45 0 57 -62 103 -62c34 0 70 52 93 198l63 390c3 20 -1 30 -15 30c-19 0 -39 -14 -59 -35c-9 -9 -12 -8 -18 -2c-4 5 -4 9 1 17c49 64 102 90 143 90z" />
    <glyph glyph-name="k" unicode="k" horiz-adv-x="475" 
d="M225 285c110 -185 178 -268 227 -272l-30 -27c-86 0 -160 65 -270 264l-41 -250h-88l94 574c6 37 -19 52 -50 48l4 27c76 13 103 35 125 35c15 0 25 -8 22 -25l-64 -393c109 78 265 208 116 185l4 28c107 42 155 28 155 -1c0 -25 -22 -54 -204 -193z" />
    <glyph glyph-name="kcommaaccent" unicode="&#x137;" horiz-adv-x="475" 
d="M225 285c110 -185 178 -268 227 -272l-30 -27c-86 0 -160 65 -270 264l-41 -250h-88l94 574c6 37 -19 52 -50 48l4 27c76 13 103 35 125 35c15 0 25 -8 22 -25l-64 -393c109 78 265 208 116 185l4 28c107 42 155 28 155 -1c0 -25 -22 -54 -204 -193zM196 -58
c32 0 48 -27 48 -61c0 -50 -33 -112 -74 -146c-6 -5 -11 -5 -14 0l-7 10c19 21 38 50 44 77c1 6 1 9 1 12c-5 -1 -9 -1 -15 -1c-25 0 -45 19 -45 47c0 35 30 62 62 62z" />
    <glyph glyph-name="l" unicode="l" horiz-adv-x="262" 
d="M122 574c7 41 -19 52 -55 48l4 27c81 13 108 35 130 35c15 0 25 -8 22 -25l-91 -571c-3 -20 3 -29 18 -29c18 0 40 19 55 34c6 6 9 6 15 1c5 -5 5 -10 -1 -20c-39 -56 -95 -81 -134 -81c-43 0 -51 34 -46 61z" />
    <glyph glyph-name="lacute" unicode="&#x13a;" horiz-adv-x="262" 
d="M86 696l9 -14l168 67c23 9 37 21 37 41c0 17 -11 30 -29 30c-9 0 -24 -6 -39 -17zM122 574c7 41 -19 52 -55 48l4 27c81 13 108 35 130 35c15 0 25 -8 22 -25l-91 -571c-3 -20 3 -29 18 -29c18 0 40 19 55 34c6 6 9 6 15 1c5 -5 5 -10 -1 -20c-39 -56 -95 -81 -134 -81
c-43 0 -51 34 -46 61z" />
    <glyph glyph-name="lcaron" unicode="&#x13e;" horiz-adv-x="299" 
d="M122 574c7 41 -19 52 -55 48l4 27c81 13 108 35 130 35c15 0 25 -8 22 -25l-91 -571c-3 -20 3 -29 18 -29c18 0 40 19 55 34c6 6 9 6 15 1c5 -5 5 -10 -1 -20c-39 -56 -95 -81 -134 -81c-43 0 -51 34 -46 61zM274 447c-6 -5 -11 -5 -14 0l-7 10c19 21 38 50 44 77
c1 6 1 9 1 12c-5 -1 -9 -1 -15 -1c-25 0 -45 19 -45 47c0 35 30 62 62 62s48 -27 48 -61c0 -50 -33 -112 -74 -146z" />
    <glyph glyph-name="lcommaaccent" unicode="&#x13c;" horiz-adv-x="262" 
d="M122 574c7 41 -19 52 -55 48l4 27c81 13 108 35 130 35c15 0 25 -8 22 -25l-91 -571c-3 -20 3 -29 18 -29c18 0 40 19 55 34c6 6 9 6 15 1c5 -5 5 -10 -1 -20c-39 -56 -95 -81 -134 -81c-43 0 -51 34 -46 61zM48 -265c-6 -5 -11 -5 -14 0l-7 10c19 21 38 50 44 77
c1 6 1 9 1 12c-5 -1 -9 -1 -15 -1c-25 0 -45 19 -45 47c0 35 30 62 62 62s48 -27 48 -61c0 -50 -33 -112 -74 -146z" />
    <glyph glyph-name="ldot" unicode="&#x140;" horiz-adv-x="296" 
d="M122 574c7 41 -19 52 -55 48l4 27c81 13 108 35 130 35c15 0 25 -8 22 -25l-91 -571c-3 -20 3 -29 18 -29c18 0 40 19 55 34c6 6 9 6 15 1c5 -5 5 -10 -1 -20c-39 -56 -95 -81 -134 -81c-43 0 -51 34 -46 61zM256 336c-25 0 -45 21 -45 48c0 35 29 65 61 65
c26 0 45 -22 45 -48c0 -36 -31 -65 -61 -65z" />
    <glyph glyph-name="lslash" unicode="&#x142;" horiz-adv-x="294" 
d="M194 304l-34 -216c-3 -20 3 -29 18 -29c18 0 40 19 55 34c6 6 9 6 15 1c5 -5 5 -10 -1 -20c-39 -56 -95 -81 -134 -81c-43 0 -51 34 -46 61l36 223l-93 -28v32l98 29l42 264c7 41 -19 52 -55 48l4 27c81 13 108 35 130 35c15 0 25 -8 22 -25l-51 -321l84 25v-32z" />
    <glyph glyph-name="m" unicode="m" horiz-adv-x="881" 
d="M839 94c6 -5 6 -10 -1 -20c-39 -56 -94 -81 -134 -81c-43 0 -52 34 -47 61l49 295c14 82 7 120 -31 120c-87 0 -187 -177 -226 -469h-84l51 349c12 82 6 120 -32 120c-87 0 -187 -177 -226 -469h-84l60 410c3 20 -2 30 -16 30c-20 0 -39 -14 -59 -35c-9 -9 -12 -8 -18 -2
c-5 5 -5 9 1 17c48 64 103 89 142 89s48 -26 41 -61l-39 -205c53 166 123 266 231 266c64 0 104 -35 81 -160l-21 -106c53 166 122 266 231 266c64 0 109 -35 89 -160l-45 -261c-3 -20 2 -29 17 -29c18 0 40 19 55 34c6 6 9 6 15 1z" />
    <glyph glyph-name="n" unicode="n" horiz-adv-x="588" 
d="M546 94c6 -5 6 -10 -1 -20c-39 -56 -94 -81 -134 -81c-42 0 -51 34 -47 61l52 295c14 82 6 120 -33 120c-86 0 -186 -177 -225 -469h-84l60 410c3 20 -2 30 -16 30c-20 0 -39 -14 -59 -35c-9 -9 -12 -8 -18 -2c-5 5 -5 9 1 17c48 64 103 89 144 89c37 0 46 -26 39 -61
l-39 -205c53 166 123 266 231 266c64 0 110 -35 89 -160l-46 -261c-4 -20 1 -29 16 -29c19 0 41 19 55 34c6 6 9 6 15 1z" />
    <glyph glyph-name="nacute" unicode="&#x144;" horiz-adv-x="588" 
d="M225 576l9 -14l168 67c23 9 37 21 37 41c0 17 -11 30 -29 30c-9 0 -24 -6 -39 -17zM546 94c6 -5 6 -10 -1 -20c-39 -56 -94 -81 -134 -81c-42 0 -51 34 -47 61l52 295c14 82 6 120 -33 120c-86 0 -186 -177 -225 -469h-84l60 410c3 20 -2 30 -16 30
c-20 0 -39 -14 -59 -35c-9 -9 -12 -8 -18 -2c-5 5 -5 9 1 17c48 64 103 89 144 89c37 0 46 -26 39 -61l-39 -205c53 166 123 266 231 266c64 0 110 -35 89 -160l-46 -261c-4 -20 1 -29 16 -29c19 0 41 19 55 34c6 6 9 6 15 1z" />
    <glyph glyph-name="ncaron" unicode="&#x148;" horiz-adv-x="588" 
d="M306 533l-118 150l21 16l116 -99l144 99l16 -16l-160 -150h-19zM546 94c6 -5 6 -10 -1 -20c-39 -56 -94 -81 -134 -81c-42 0 -51 34 -47 61l52 295c14 82 6 120 -33 120c-86 0 -186 -177 -225 -469h-84l60 410c3 20 -2 30 -16 30c-20 0 -39 -14 -59 -35
c-9 -9 -12 -8 -18 -2c-5 5 -5 9 1 17c48 64 103 89 144 89c37 0 46 -26 39 -61l-39 -205c53 166 123 266 231 266c64 0 110 -35 89 -160l-46 -261c-4 -20 1 -29 16 -29c19 0 41 19 55 34c6 6 9 6 15 1z" />
    <glyph glyph-name="ncommaaccent" unicode="&#x146;" horiz-adv-x="588" 
d="M546 94c6 -5 6 -10 -1 -20c-39 -56 -94 -81 -134 -81c-42 0 -51 34 -47 61l52 295c14 82 6 120 -33 120c-86 0 -186 -177 -225 -469h-84l60 410c3 20 -2 30 -16 30c-20 0 -39 -14 -59 -35c-9 -9 -12 -8 -18 -2c-5 5 -5 9 1 17c48 64 103 89 144 89c37 0 46 -26 39 -61
l-39 -205c53 166 123 266 231 266c64 0 110 -35 89 -160l-46 -261c-4 -20 1 -29 16 -29c19 0 41 19 55 34c6 6 9 6 15 1zM242 -265c-6 -5 -11 -5 -14 0l-7 10c19 21 38 50 44 77c1 6 1 9 1 12c-5 -1 -9 -1 -15 -1c-25 0 -45 19 -45 47c0 35 30 62 62 62s48 -27 48 -61
c0 -50 -33 -112 -74 -146z" />
    <glyph glyph-name="eng" unicode="&#x14b;" horiz-adv-x="553" 
d="M416 509c65 0 111 -35 90 -160l-31 -178c-52 -297 -156 -390 -255 -390c-69 0 -97 30 -97 60c0 23 17 43 43 43c44 0 56 -62 103 -62c33 0 68 52 93 198l54 329c13 82 6 120 -32 120c-87 0 -187 -177 -226 -469h-84l60 410c3 20 -2 30 -16 30c-20 0 -39 -14 -59 -35
c-9 -9 -12 -8 -18 -2c-5 5 -5 9 1 17c48 64 103 89 144 89c37 0 46 -26 39 -61l-39 -205c53 166 123 266 230 266z" />
    <glyph glyph-name="ntilde" unicode="&#xf1;" horiz-adv-x="588" 
d="M513 672c-8 -64 -51 -101 -107 -101c-74 0 -105 65 -144 65c-29 0 -50 -27 -53 -45l-23 4c7 59 49 100 98 100c75 0 103 -61 149 -61c30 0 53 23 57 42zM546 94c6 -5 6 -10 -1 -20c-39 -56 -94 -81 -134 -81c-42 0 -51 34 -47 61l52 295c14 82 6 120 -33 120
c-86 0 -186 -177 -225 -469h-84l60 410c3 20 -2 30 -16 30c-20 0 -39 -14 -59 -35c-9 -9 -12 -8 -18 -2c-5 5 -5 9 1 17c48 64 103 89 144 89c37 0 46 -26 39 -61l-39 -205c53 166 123 266 231 266c64 0 110 -35 89 -160l-46 -261c-4 -20 1 -29 16 -29c19 0 41 19 55 34
c6 6 9 6 15 1z" />
    <glyph glyph-name="o" unicode="o" horiz-adv-x="480" 
d="M285 509c98 0 170 -64 170 -195c0 -161 -114 -321 -252 -321c-91 0 -173 67 -173 201c0 161 122 315 255 315zM359 330c0 104 -32 153 -83 153c-97 0 -150 -171 -150 -308c0 -101 32 -155 86 -155c94 0 147 177 147 310z" />
    <glyph glyph-name="oacute" unicode="&#xf3;" horiz-adv-x="480" 
d="M202 576l9 -14l168 67c23 9 37 21 37 41c0 17 -11 30 -29 30c-9 0 -24 -6 -39 -17zM285 509c98 0 170 -64 170 -195c0 -161 -114 -321 -252 -321c-91 0 -173 67 -173 201c0 161 122 315 255 315zM359 330c0 104 -32 153 -83 153c-97 0 -150 -171 -150 -308
c0 -101 32 -155 86 -155c94 0 147 177 147 310z" />
    <glyph glyph-name="ocircumflex" unicode="&#xf4;" horiz-adv-x="480" 
d="M324 699l118 -150l-21 -16l-116 99l-144 -99l-16 16l160 150h19zM285 509c98 0 170 -64 170 -195c0 -161 -114 -321 -252 -321c-91 0 -173 67 -173 201c0 161 122 315 255 315zM359 330c0 104 -32 153 -83 153c-97 0 -150 -171 -150 -308c0 -101 32 -155 86 -155
c94 0 147 177 147 310z" />
    <glyph glyph-name="odieresis" unicode="&#xf6;" horiz-adv-x="480" 
d="M222 596c-25 0 -48 21 -48 48c0 25 23 47 48 47s48 -22 48 -47c0 -27 -23 -48 -48 -48zM402 596c-25 0 -48 21 -48 48c0 25 23 47 48 47s48 -22 48 -47c0 -27 -23 -48 -48 -48zM285 509c98 0 170 -64 170 -195c0 -161 -114 -321 -252 -321c-91 0 -173 67 -173 201
c0 161 122 315 255 315zM359 330c0 104 -32 153 -83 153c-97 0 -150 -171 -150 -308c0 -101 32 -155 86 -155c94 0 147 177 147 310z" />
    <glyph glyph-name="ograve" unicode="&#xf2;" horiz-adv-x="480" 
d="M395 576l-140 111c-24 19 -52 18 -63 -3c-12 -21 -3 -46 21 -56l173 -67zM285 509c98 0 170 -64 170 -195c0 -161 -114 -321 -252 -321c-91 0 -173 67 -173 201c0 161 122 315 255 315zM359 330c0 104 -32 153 -83 153c-97 0 -150 -171 -150 -308c0 -101 32 -155 86 -155
c94 0 147 177 147 310z" />
    <glyph glyph-name="ohungarumlaut" unicode="&#x151;" horiz-adv-x="480" 
d="M142 576l9 -15l156 67c22 10 30 35 19 56c-10 21 -35 22 -57 3zM304 576l9 -15l156 67c22 10 30 35 19 56c-10 21 -35 22 -57 3zM285 509c98 0 170 -64 170 -195c0 -161 -114 -321 -252 -321c-91 0 -173 67 -173 201c0 161 122 315 255 315zM359 330
c0 104 -32 153 -83 153c-97 0 -150 -171 -150 -308c0 -101 32 -155 86 -155c94 0 147 177 147 310z" />
    <glyph glyph-name="omacron" unicode="&#x14d;" horiz-adv-x="480" 
d="M165 628c1 11 6 15 17 15h255c10 0 15 -4 14 -15l-3 -21c-1 -11 -7 -14 -18 -14h-255c-10 0 -14 3 -13 14zM285 509c98 0 170 -64 170 -195c0 -161 -114 -321 -252 -321c-91 0 -173 67 -173 201c0 161 122 315 255 315zM359 330c0 104 -32 153 -83 153
c-97 0 -150 -171 -150 -308c0 -101 32 -155 86 -155c94 0 147 177 147 310z" />
    <glyph glyph-name="oslash" unicode="&#xf8;" horiz-adv-x="480" 
d="M417 449c24 -32 38 -77 38 -135c0 -161 -114 -321 -252 -321c-38 0 -74 11 -103 34l-23 -30l-32 25l26 35c-25 33 -41 78 -41 137c0 161 122 315 255 315c39 0 75 -10 103 -31l21 28l32 -25zM126 175c0 -15 1 -29 2 -42l219 290c-14 40 -39 60 -71 60
c-97 0 -150 -171 -150 -308zM212 20c94 0 147 177 147 310c0 14 -1 27 -2 40l-218 -290c15 -39 40 -60 73 -60z" />
    <glyph glyph-name="otilde" unicode="&#xf5;" horiz-adv-x="480" 
d="M490 672c-8 -64 -51 -101 -107 -101c-74 0 -105 65 -144 65c-29 0 -50 -27 -53 -45l-23 4c7 59 49 100 98 100c75 0 103 -61 149 -61c30 0 53 23 57 42zM285 509c98 0 170 -64 170 -195c0 -161 -114 -321 -252 -321c-91 0 -173 67 -173 201c0 161 122 315 255 315z
M359 330c0 104 -32 153 -83 153c-97 0 -150 -171 -150 -308c0 -101 32 -155 86 -155c94 0 147 177 147 310z" />
    <glyph glyph-name="oe" unicode="&#x153;" horiz-adv-x="737" 
d="M688 145c11 0 10 -12 2 -25c-42 -73 -104 -127 -190 -127c-57 0 -109 24 -134 82c-44 -50 -101 -82 -163 -82c-91 0 -173 67 -173 201c0 161 122 315 255 315c71 0 128 -33 154 -101c49 60 112 101 175 101c64 0 98 -40 98 -89c0 -115 -183 -196 -267 -228
c-8 -75 27 -143 95 -143c51 0 92 38 125 86c6 8 9 10 16 10h7zM212 20c94 0 147 177 147 310c0 104 -32 153 -83 153c-97 0 -150 -171 -150 -308c0 -101 32 -155 86 -155zM596 482c-59 0 -135 -128 -147 -261c152 57 186 143 186 200c0 27 -7 61 -39 61z" />
    <glyph glyph-name="p" unicode="p" horiz-adv-x="502" 
d="M377 509c55 0 110 -40 110 -135c0 -143 -111 -382 -283 -382c-27 0 -56 6 -80 19l-17 -107c-4 -34 14 -43 61 -38l-5 -29c-85 -14 -135 -52 -165 -52c-11 0 -18 6 -16 17c4 21 25 14 35 88l71 511c5 35 -20 40 -51 36l3 27c77 14 112 48 131 48c14 0 22 -10 19 -27
l-37 -225c52 146 133 249 224 249zM201 19c137 0 192 260 192 369c0 56 -22 81 -45 81c-87 0 -193 -243 -207 -343c-9 -59 0 -107 60 -107z" />
    <glyph glyph-name="thorn" unicode="&#xfe;" horiz-adv-x="519" 
d="M328 509c91 0 164 -73 164 -207c0 -161 -99 -314 -245 -314c-61 0 -94 29 -114 56l-20 -142c-4 -33 19 -41 60 -36l-3 -29c-85 -13 -138 -52 -165 -52c-12 0 -19 6 -19 18c0 24 23 9 34 89l93 655c5 33 -16 42 -51 36l3 27c77 14 114 48 132 48c14 0 22 -9 19 -27
l-26 -184c29 30 77 62 138 62zM244 16c113 0 152 166 152 303c0 93 -26 159 -85 159c-51 0 -99 -38 -127 -71l-38 -270l1 1c-6 -53 36 -122 97 -122z" />
    <glyph glyph-name="q" unicode="q" horiz-adv-x="494" 
d="M451 482l-81 -578c-5 -34 13 -43 59 -38l-3 -29c-86 -14 -125 -52 -145 -52c-13 0 -18 8 -15 25l47 338c-34 -84 -79 -155 -171 -155c-65 0 -124 35 -124 147c0 182 132 369 286 369c66 0 72 -39 97 -39c12 0 20 8 22 31h14c11 0 16 -8 14 -19zM178 36
c77 0 145 187 161 296l18 125c-11 17 -39 25 -52 25c-135 0 -189 -227 -189 -333c0 -73 27 -113 62 -113z" />
    <glyph glyph-name="r" unicode="r" horiz-adv-x="438" 
d="M392 510c43 0 60 -26 60 -51c0 -27 -21 -52 -50 -52c-40 0 -43 42 -62 42c-71 0 -166 -319 -178 -449h-88l60 410c3 20 -2 30 -16 30c-20 0 -39 -14 -59 -35c-9 -9 -12 -8 -18 -2c-5 5 -5 9 1 17c48 64 103 89 142 89s49 -26 43 -61l-37 -209c57 170 118 271 202 271z
" />
    <glyph glyph-name="racute" unicode="&#x155;" horiz-adv-x="438" 
d="M192 576l9 -14l168 67c23 9 37 21 37 41c0 17 -11 30 -29 30c-9 0 -24 -6 -39 -17zM392 510c43 0 60 -26 60 -51c0 -27 -21 -52 -50 -52c-40 0 -43 42 -62 42c-71 0 -166 -319 -178 -449h-88l60 410c3 20 -2 30 -16 30c-20 0 -39 -14 -59 -35c-9 -9 -12 -8 -18 -2
c-5 5 -5 9 1 17c48 64 103 89 142 89s49 -26 43 -61l-37 -209c57 170 118 271 202 271z" />
    <glyph glyph-name="rcaron" unicode="&#x159;" horiz-adv-x="438" 
d="M273 533l-118 150l21 16l116 -99l144 99l16 -16l-160 -150h-19zM392 510c43 0 60 -26 60 -51c0 -27 -21 -52 -50 -52c-40 0 -43 42 -62 42c-71 0 -166 -319 -178 -449h-88l60 410c3 20 -2 30 -16 30c-20 0 -39 -14 -59 -35c-9 -9 -12 -8 -18 -2c-5 5 -5 9 1 17
c48 64 103 89 142 89s49 -26 43 -61l-37 -209c57 170 118 271 202 271z" />
    <glyph glyph-name="rcommaaccent" unicode="&#x157;" horiz-adv-x="438" 
d="M392 510c43 0 60 -26 60 -51c0 -27 -21 -52 -50 -52c-40 0 -43 42 -62 42c-71 0 -166 -319 -178 -449h-88l60 410c3 20 -2 30 -16 30c-20 0 -39 -14 -59 -35c-9 -9 -12 -8 -18 -2c-5 5 -5 9 1 17c48 64 103 89 142 89s49 -26 43 -61l-37 -209c57 170 118 271 202 271z
M80 -265c-6 -5 -11 -5 -14 0l-7 10c19 21 38 50 44 77c1 6 1 9 1 12c-5 -1 -9 -1 -15 -1c-25 0 -45 19 -45 47c0 35 30 62 62 62s48 -27 48 -61c0 -50 -33 -112 -74 -146z" />
    <glyph glyph-name="s" unicode="s" horiz-adv-x="342" 
d="M301 109c0 -74 -83 -118 -160 -118c-82 0 -135 46 -135 88c0 25 19 39 39 39c58 0 57 -101 120 -101c31 0 52 22 52 57c0 45 -33 90 -74 151c-40 58 -83 108 -83 165c0 65 55 119 150 119c68 0 120 -40 120 -79c0 -22 -16 -33 -35 -33c-57 0 -58 85 -110 85
c-29 0 -47 -24 -47 -53c0 -27 15 -56 69 -135c43 -63 94 -129 94 -185z" />
    <glyph glyph-name="sacute" unicode="&#x15b;" horiz-adv-x="342" 
d="M133 576l9 -14l168 67c23 9 37 21 37 41c0 17 -11 30 -29 30c-9 0 -24 -6 -39 -17zM301 109c0 -74 -83 -118 -160 -118c-82 0 -135 46 -135 88c0 25 19 39 39 39c58 0 57 -101 120 -101c31 0 52 22 52 57c0 45 -33 90 -74 151c-40 58 -83 108 -83 165
c0 65 55 119 150 119c68 0 120 -40 120 -79c0 -22 -16 -33 -35 -33c-57 0 -58 85 -110 85c-29 0 -47 -24 -47 -53c0 -27 15 -56 69 -135c43 -63 94 -129 94 -185z" />
    <glyph glyph-name="scaron" unicode="&#x161;" horiz-adv-x="342" 
d="M214 533l-118 150l21 16l116 -99l144 99l16 -16l-160 -150h-19zM301 109c0 -74 -83 -118 -160 -118c-82 0 -135 46 -135 88c0 25 19 39 39 39c58 0 57 -101 120 -101c31 0 52 22 52 57c0 45 -33 90 -74 151c-40 58 -83 108 -83 165c0 65 55 119 150 119
c68 0 120 -40 120 -79c0 -22 -16 -33 -35 -33c-57 0 -58 85 -110 85c-29 0 -47 -24 -47 -53c0 -27 15 -56 69 -135c43 -63 94 -129 94 -185z" />
    <glyph glyph-name="scedilla" unicode="&#x15f;" horiz-adv-x="342" 
d="M185 482c-29 0 -47 -24 -47 -53c0 -27 15 -56 69 -135c43 -63 94 -129 94 -185c0 -74 -82 -118 -159 -118l-12 -23c36 -11 93 -36 93 -86c0 -52 -51 -82 -109 -82c-49 0 -85 19 -85 53c0 15 11 26 25 26c50 0 5 -63 57 -63c32 0 52 27 52 55c0 31 -20 50 -60 62
c-11 3 -16 8 -14 19c1 6 10 13 27 41c-68 8 -110 49 -110 86c0 25 19 39 39 39c58 0 57 -101 120 -101c31 0 52 22 52 57c0 45 -33 90 -74 151c-40 58 -83 108 -83 165c0 65 55 119 150 119c68 0 120 -40 120 -79c0 -22 -16 -33 -35 -33c-57 0 -58 85 -110 85z" />
    <glyph glyph-name="scommaaccent" unicode="&#x219;" horiz-adv-x="342" 
d="M301 109c0 -74 -83 -118 -160 -118c-82 0 -135 46 -135 88c0 25 19 39 39 39c58 0 57 -101 120 -101c31 0 52 22 52 57c0 45 -33 90 -74 151c-40 58 -83 108 -83 165c0 65 55 119 150 119c68 0 120 -40 120 -79c0 -22 -16 -33 -35 -33c-57 0 -58 85 -110 85
c-29 0 -47 -24 -47 -53c0 -27 15 -56 69 -135c43 -63 94 -129 94 -185zM83 -265c-6 -5 -11 -5 -14 0l-7 10c19 21 38 50 44 77c1 6 1 9 1 12c-5 -1 -9 -1 -15 -1c-25 0 -45 19 -45 47c0 35 30 62 62 62s48 -27 48 -61c0 -50 -33 -112 -74 -146z" />
    <glyph glyph-name="uni1E63" unicode="&#x1e63;" horiz-adv-x="342" 
d="M301 109c0 -74 -83 -118 -160 -118c-82 0 -135 46 -135 88c0 25 19 39 39 39c58 0 57 -101 120 -101c31 0 52 22 52 57c0 45 -33 90 -74 151c-40 58 -83 108 -83 165c0 65 55 119 150 119c68 0 120 -40 120 -79c0 -22 -16 -33 -35 -33c-57 0 -58 85 -110 85
c-29 0 -47 -24 -47 -53c0 -27 15 -56 69 -135c43 -63 94 -129 94 -185zM126 -171c-29 0 -53 24 -53 53c0 28 24 51 53 51c28 0 52 -23 52 -51c0 -29 -24 -53 -52 -53z" />
    <glyph glyph-name="germandbls" unicode="&#xdf;" horiz-adv-x="539" 
d="M165 96c-8 -57 -52 -96 -105 -96h-69l3 27c50 4 68 13 72 38l57 411c14 96 87 145 191 145c127 0 167 -62 167 -127c0 -59 -33 -121 -123 -148c102 -17 146 -67 146 -150c0 -126 -101 -196 -243 -196h-32l4 32h26c95 0 146 82 146 165c0 72 -39 123 -98 123l-113 -17z
M217 468l-20 -138l24 5c106 18 165 70 165 165c0 57 -21 90 -71 90c-54 0 -86 -39 -98 -122z" />
    <glyph glyph-name="t" unicode="t" horiz-adv-x="297" 
d="M301 500c5 0 9 -3 8 -9l-3 -16c-1 -5 -3 -7 -8 -7h-78l-56 -380c-3 -20 1 -29 16 -29c17 0 41 19 55 34c6 6 9 6 15 1s6 -10 -1 -20c-39 -56 -94 -81 -133 -81c-43 0 -51 34 -47 61l61 414h-75c-5 0 -9 2 -8 8l3 17c1 5 3 7 8 7h77l20 137h90l-20 -137h76z" />
    <glyph glyph-name="tbar" unicode="&#x167;" horiz-adv-x="297" 
d="M301 500c5 0 9 -3 8 -9l-3 -16c-1 -5 -3 -7 -8 -7h-78l-16 -109h77c5 0 9 -3 8 -9l-3 -17c-1 -5 -3 -7 -8 -7h-79l-35 -238c-3 -20 1 -29 16 -29c17 0 41 19 55 34c6 6 9 6 15 1s6 -10 -1 -20c-39 -56 -94 -81 -133 -81c-43 0 -51 34 -47 61l40 272h-74c-5 0 -9 2 -8 8
l3 18c1 5 3 7 8 7h76l16 109h-75c-5 0 -9 2 -8 8l3 17c1 5 3 7 8 7h77l20 137h90l-20 -137h76z" />
    <glyph glyph-name="tcaron" unicode="&#x165;" horiz-adv-x="375" 
d="M364 640c32 0 48 -27 48 -61c0 -50 -33 -112 -74 -146c-6 -5 -11 -5 -14 0l-7 10c19 21 38 50 44 77c1 6 1 9 1 12c-5 -1 -9 -1 -15 -1c-25 0 -45 19 -45 47c0 35 30 62 62 62zM301 500c5 0 9 -3 8 -9l-3 -16c-1 -5 -3 -7 -8 -7h-78l-56 -380c-3 -20 1 -29 16 -29
c17 0 41 19 55 34c6 6 9 6 15 1s6 -10 -1 -20c-39 -56 -94 -81 -133 -81c-43 0 -51 34 -47 61l61 414h-75c-5 0 -9 2 -8 8l3 17c1 5 3 7 8 7h77l20 137h90l-20 -137h76z" />
    <glyph glyph-name="uni0163" unicode="&#x163;" horiz-adv-x="297" 
d="M301 500c5 0 9 -3 8 -9l-3 -16c-1 -5 -3 -7 -8 -7h-78l-56 -380c-3 -20 1 -29 16 -29c17 0 41 19 55 34c6 6 9 6 15 1s6 -10 -1 -20c-34 -48 -79 -73 -116 -80l-14 -26c36 -11 93 -36 93 -86c0 -52 -51 -82 -109 -82c-49 0 -85 19 -85 53c0 15 11 26 25 26
c50 0 5 -63 57 -63c32 0 52 27 52 55c0 31 -20 50 -60 62c-11 3 -16 8 -14 19c1 6 10 13 27 42c-33 5 -40 35 -36 60l61 414h-75c-5 0 -9 2 -8 8l3 17c1 5 3 7 8 7h77l20 137h90l-20 -137h76z" />
    <glyph glyph-name="uni021B" unicode="&#x21b;" horiz-adv-x="297" 
d="M301 500c5 0 9 -3 8 -9l-3 -16c-1 -5 -3 -7 -8 -7h-78l-56 -380c-3 -20 1 -29 16 -29c17 0 41 19 55 34c6 6 9 6 15 1s6 -10 -1 -20c-39 -56 -94 -81 -133 -81c-43 0 -51 34 -47 61l61 414h-75c-5 0 -9 2 -8 8l3 17c1 5 3 7 8 7h77l20 137h90l-20 -137h76zM98 -58
c32 0 48 -27 48 -61c0 -50 -33 -112 -74 -146c-6 -5 -11 -5 -14 0l-7 10c19 21 38 50 44 77c1 6 1 9 1 12c-5 -1 -9 -1 -15 -1c-25 0 -45 19 -45 47c0 35 30 62 62 62z" />
    <glyph glyph-name="uni1E6D" unicode="&#x1e6d;" horiz-adv-x="297" 
d="M301 500c5 0 9 -3 8 -9l-3 -16c-1 -5 -3 -7 -8 -7h-78l-56 -380c-3 -20 1 -29 16 -29c17 0 41 19 55 34c6 6 9 6 15 1s6 -10 -1 -20c-39 -56 -94 -81 -133 -81c-43 0 -51 34 -47 61l61 414h-75c-5 0 -9 2 -8 8l3 17c1 5 3 7 8 7h77l20 137h90l-20 -137h76zM116 -67
c28 0 52 -23 52 -51c0 -29 -24 -53 -52 -53c-29 0 -53 24 -53 53c0 28 24 51 53 51z" />
    <glyph glyph-name="u" unicode="u" horiz-adv-x="585" 
d="M42 407c-6 5 -6 10 1 20c39 56 94 81 134 81c42 0 51 -34 47 -61l-53 -295c-16 -82 -5 -120 34 -120c83 0 183 177 222 469h84l-59 -410c-3 -20 1 -30 15 -30c20 0 39 15 59 35c9 9 12 8 18 2c5 -5 5 -9 -1 -17c-48 -64 -103 -89 -144 -89c-37 0 -46 26 -39 61l39 205
c-53 -166 -123 -266 -230 -266c-62 0 -111 35 -89 160l49 261c4 20 -2 29 -17 29c-18 0 -41 -19 -55 -34c-6 -6 -9 -6 -15 -1z" />
    <glyph glyph-name="uacute" unicode="&#xfa;" horiz-adv-x="585" 
d="M239 576l9 -14l168 67c23 9 37 21 37 41c0 17 -11 30 -29 30c-9 0 -24 -6 -39 -17zM42 407c-6 5 -6 10 1 20c39 56 94 81 134 81c42 0 51 -34 47 -61l-53 -295c-16 -82 -5 -120 34 -120c83 0 183 177 222 469h84l-59 -410c-3 -20 1 -30 15 -30c20 0 39 15 59 35
c9 9 12 8 18 2c5 -5 5 -9 -1 -17c-48 -64 -103 -89 -144 -89c-37 0 -46 26 -39 61l39 205c-53 -166 -123 -266 -230 -266c-62 0 -111 35 -89 160l49 261c4 20 -2 29 -17 29c-18 0 -41 -19 -55 -34c-6 -6 -9 -6 -15 -1z" />
    <glyph glyph-name="ubreve" unicode="&#x16d;" horiz-adv-x="585" 
d="M339 570c-74 0 -117 59 -111 125h32c0 -30 31 -67 87 -67s95 37 103 67h32c-12 -66 -69 -125 -143 -125zM42 407c-6 5 -6 10 1 20c39 56 94 81 134 81c42 0 51 -34 47 -61l-53 -295c-16 -82 -5 -120 34 -120c83 0 183 177 222 469h84l-59 -410c-3 -20 1 -30 15 -30
c20 0 39 15 59 35c9 9 12 8 18 2c5 -5 5 -9 -1 -17c-48 -64 -103 -89 -144 -89c-37 0 -46 26 -39 61l39 205c-53 -166 -123 -266 -230 -266c-62 0 -111 35 -89 160l49 261c4 20 -2 29 -17 29c-18 0 -41 -19 -55 -34c-6 -6 -9 -6 -15 -1z" />
    <glyph glyph-name="ucircumflex" unicode="&#xfb;" horiz-adv-x="585" 
d="M361 699l118 -150l-21 -16l-116 99l-144 -99l-16 16l160 150h19zM42 407c-6 5 -6 10 1 20c39 56 94 81 134 81c42 0 51 -34 47 -61l-53 -295c-16 -82 -5 -120 34 -120c83 0 183 177 222 469h84l-59 -410c-3 -20 1 -30 15 -30c20 0 39 15 59 35c9 9 12 8 18 2
c5 -5 5 -9 -1 -17c-48 -64 -103 -89 -144 -89c-37 0 -46 26 -39 61l39 205c-53 -166 -123 -266 -230 -266c-62 0 -111 35 -89 160l49 261c4 20 -2 29 -17 29c-18 0 -41 -19 -55 -34c-6 -6 -9 -6 -15 -1z" />
    <glyph glyph-name="udieresis" unicode="&#xfc;" horiz-adv-x="585" 
d="M259 596c-25 0 -48 21 -48 48c0 25 23 47 48 47s48 -22 48 -47c0 -27 -23 -48 -48 -48zM439 596c-25 0 -48 21 -48 48c0 25 23 47 48 47s48 -22 48 -47c0 -27 -23 -48 -48 -48zM42 407c-6 5 -6 10 1 20c39 56 94 81 134 81c42 0 51 -34 47 -61l-53 -295
c-16 -82 -5 -120 34 -120c83 0 183 177 222 469h84l-59 -410c-3 -20 1 -30 15 -30c20 0 39 15 59 35c9 9 12 8 18 2c5 -5 5 -9 -1 -17c-48 -64 -103 -89 -144 -89c-37 0 -46 26 -39 61l39 205c-53 -166 -123 -266 -230 -266c-62 0 -111 35 -89 160l49 261c4 20 -2 29 -17 29
c-18 0 -41 -19 -55 -34c-6 -6 -9 -6 -15 -1z" />
    <glyph glyph-name="ugrave" unicode="&#xf9;" horiz-adv-x="585" 
d="M432 576l-140 111c-24 19 -52 18 -63 -3c-12 -21 -3 -46 21 -56l173 -67zM42 407c-6 5 -6 10 1 20c39 56 94 81 134 81c42 0 51 -34 47 -61l-53 -295c-16 -82 -5 -120 34 -120c83 0 183 177 222 469h84l-59 -410c-3 -20 1 -30 15 -30c20 0 39 15 59 35c9 9 12 8 18 2
c5 -5 5 -9 -1 -17c-48 -64 -103 -89 -144 -89c-37 0 -46 26 -39 61l39 205c-53 -166 -123 -266 -230 -266c-62 0 -111 35 -89 160l49 261c4 20 -2 29 -17 29c-18 0 -41 -19 -55 -34c-6 -6 -9 -6 -15 -1z" />
    <glyph glyph-name="uhungarumlaut" unicode="&#x171;" horiz-adv-x="585" 
d="M179 576l9 -15l156 67c22 10 30 35 19 56c-10 21 -35 22 -57 3zM341 576l9 -15l156 67c22 10 30 35 19 56c-10 21 -35 22 -57 3zM42 407c-6 5 -6 10 1 20c39 56 94 81 134 81c42 0 51 -34 47 -61l-53 -295c-16 -82 -5 -120 34 -120c83 0 183 177 222 469h84l-59 -410
c-3 -20 1 -30 15 -30c20 0 39 15 59 35c9 9 12 8 18 2c5 -5 5 -9 -1 -17c-48 -64 -103 -89 -144 -89c-37 0 -46 26 -39 61l39 205c-53 -166 -123 -266 -230 -266c-62 0 -111 35 -89 160l49 261c4 20 -2 29 -17 29c-18 0 -41 -19 -55 -34c-6 -6 -9 -6 -15 -1z" />
    <glyph glyph-name="umacron" unicode="&#x16b;" horiz-adv-x="585" 
d="M202 628c1 11 6 15 17 15h255c10 0 15 -4 14 -15l-3 -21c-1 -11 -7 -14 -18 -14h-255c-10 0 -14 3 -13 14zM42 407c-6 5 -6 10 1 20c39 56 94 81 134 81c42 0 51 -34 47 -61l-53 -295c-16 -82 -5 -120 34 -120c83 0 183 177 222 469h84l-59 -410c-3 -20 1 -30 15 -30
c20 0 39 15 59 35c9 9 12 8 18 2c5 -5 5 -9 -1 -17c-48 -64 -103 -89 -144 -89c-37 0 -46 26 -39 61l39 205c-53 -166 -123 -266 -230 -266c-62 0 -111 35 -89 160l49 261c4 20 -2 29 -17 29c-18 0 -41 -19 -55 -34c-6 -6 -9 -6 -15 -1z" />
    <glyph glyph-name="uogonek" unicode="&#x173;" horiz-adv-x="585" 
d="M544 98c5 -5 5 -9 -1 -17c-21 -28 -43 -48 -65 -62l3 -2c-97 -55 -123 -83 -123 -127c0 -30 19 -49 50 -49c39 0 61 17 74 40l21 -13c-19 -33 -55 -70 -128 -70c-53 0 -99 27 -99 83c0 57 42 89 98 117c-16 10 -19 30 -14 55l39 205c-53 -166 -123 -266 -230 -266
c-62 0 -111 35 -89 160l49 261c4 20 -2 29 -17 29c-18 0 -41 -19 -55 -34c-6 -6 -9 -6 -15 -1s-6 10 1 20c39 56 94 81 134 81c42 0 51 -34 47 -61l-53 -295c-16 -82 -5 -120 34 -120c83 0 183 177 222 469h84l-59 -410c-3 -20 1 -30 15 -30c20 0 39 15 59 35c9 9 12 8 18 2
z" />
    <glyph glyph-name="uring" unicode="&#x16f;" horiz-adv-x="585" 
d="M336 561c-40 0 -67 31 -62 71c5 39 40 70 80 70c39 0 66 -31 61 -70c-5 -40 -40 -71 -79 -71zM340 591c23 0 42 18 45 41c3 22 -12 40 -35 40c-24 0 -43 -18 -46 -40c-3 -23 12 -41 36 -41zM42 407c-6 5 -6 10 1 20c39 56 94 81 134 81c42 0 51 -34 47 -61l-53 -295
c-16 -82 -5 -120 34 -120c83 0 183 177 222 469h84l-59 -410c-3 -20 1 -30 15 -30c20 0 39 15 59 35c9 9 12 8 18 2c5 -5 5 -9 -1 -17c-48 -64 -103 -89 -144 -89c-37 0 -46 26 -39 61l39 205c-53 -166 -123 -266 -230 -266c-62 0 -111 35 -89 160l49 261c4 20 -2 29 -17 29
c-18 0 -41 -19 -55 -34c-6 -6 -9 -6 -15 -1z" />
    <glyph glyph-name="v" unicode="v" horiz-adv-x="521" 
d="M502 408c0 -208 -115 -417 -267 -417c-83 0 -143 50 -143 143c0 119 88 218 162 299h-167c-12 0 -17 -6 -17 -15c0 -22 46 -24 46 -65c0 -19 -14 -35 -38 -35c-25 0 -45 23 -45 55c0 77 63 128 141 128h163c-97 -121 -153 -263 -153 -341c0 -73 37 -110 92 -110
c113 0 172 149 172 261c0 83 -41 113 -41 149c0 29 19 46 43 46c37 0 52 -36 52 -98z" />
    <glyph glyph-name="w" unicode="w" horiz-adv-x="761" 
d="M690 506c36 0 52 -36 52 -98c0 -215 -113 -417 -259 -417c-42 0 -85 16 -110 52c-37 -33 -91 -52 -136 -52c-83 0 -145 50 -145 143c0 119 88 218 162 299h-167c-12 0 -17 -6 -17 -15c0 -22 46 -24 46 -65c0 -19 -14 -35 -38 -35c-25 0 -45 23 -45 55
c0 77 63 128 141 128h163c-98 -121 -153 -265 -153 -341c0 -72 40 -110 99 -110c30 0 49 8 71 27c-9 19 -26 60 -26 125c0 123 74 306 170 306c41 0 61 -37 61 -94c0 -117 -54 -231 -117 -315c15 -27 46 -49 87 -49c101 0 158 147 158 261c0 83 -40 113 -40 149
c0 29 18 46 43 46zM493 479c-48 0 -86 -128 -86 -228c0 -44 7 -90 22 -125c54 69 102 183 102 276c0 49 -16 77 -38 77z" />
    <glyph glyph-name="wacute" unicode="&#x1e83;" horiz-adv-x="761" 
d="M349 576l9 -14l168 67c23 9 37 21 37 41c0 17 -11 30 -29 30c-9 0 -24 -6 -39 -17zM690 506c36 0 52 -36 52 -98c0 -215 -113 -417 -259 -417c-42 0 -85 16 -110 52c-37 -33 -91 -52 -136 -52c-83 0 -145 50 -145 143c0 119 88 218 162 299h-167c-12 0 -17 -6 -17 -15
c0 -22 46 -24 46 -65c0 -19 -14 -35 -38 -35c-25 0 -45 23 -45 55c0 77 63 128 141 128h163c-98 -121 -153 -265 -153 -341c0 -72 40 -110 99 -110c30 0 49 8 71 27c-9 19 -26 60 -26 125c0 123 74 306 170 306c41 0 61 -37 61 -94c0 -117 -54 -231 -117 -315
c15 -27 46 -49 87 -49c101 0 158 147 158 261c0 83 -40 113 -40 149c0 29 18 46 43 46zM493 479c-48 0 -86 -128 -86 -228c0 -44 7 -90 22 -125c54 69 102 183 102 276c0 49 -16 77 -38 77z" />
    <glyph glyph-name="wcircumflex" unicode="&#x175;" horiz-adv-x="761" 
d="M471 699l118 -150l-21 -16l-116 99l-144 -99l-16 16l160 150h19zM690 506c36 0 52 -36 52 -98c0 -215 -113 -417 -259 -417c-42 0 -85 16 -110 52c-37 -33 -91 -52 -136 -52c-83 0 -145 50 -145 143c0 119 88 218 162 299h-167c-12 0 -17 -6 -17 -15c0 -22 46 -24 46 -65
c0 -19 -14 -35 -38 -35c-25 0 -45 23 -45 55c0 77 63 128 141 128h163c-98 -121 -153 -265 -153 -341c0 -72 40 -110 99 -110c30 0 49 8 71 27c-9 19 -26 60 -26 125c0 123 74 306 170 306c41 0 61 -37 61 -94c0 -117 -54 -231 -117 -315c15 -27 46 -49 87 -49
c101 0 158 147 158 261c0 83 -40 113 -40 149c0 29 18 46 43 46zM493 479c-48 0 -86 -128 -86 -228c0 -44 7 -90 22 -125c54 69 102 183 102 276c0 49 -16 77 -38 77z" />
    <glyph glyph-name="wdieresis" unicode="&#x1e85;" horiz-adv-x="761" 
d="M369 596c-25 0 -48 21 -48 48c0 25 23 47 48 47s48 -22 48 -47c0 -27 -23 -48 -48 -48zM549 596c-25 0 -48 21 -48 48c0 25 23 47 48 47s48 -22 48 -47c0 -27 -23 -48 -48 -48zM690 506c36 0 52 -36 52 -98c0 -215 -113 -417 -259 -417c-42 0 -85 16 -110 52
c-37 -33 -91 -52 -136 -52c-83 0 -145 50 -145 143c0 119 88 218 162 299h-167c-12 0 -17 -6 -17 -15c0 -22 46 -24 46 -65c0 -19 -14 -35 -38 -35c-25 0 -45 23 -45 55c0 77 63 128 141 128h163c-98 -121 -153 -265 -153 -341c0 -72 40 -110 99 -110c30 0 49 8 71 27
c-9 19 -26 60 -26 125c0 123 74 306 170 306c41 0 61 -37 61 -94c0 -117 -54 -231 -117 -315c15 -27 46 -49 87 -49c101 0 158 147 158 261c0 83 -40 113 -40 149c0 29 18 46 43 46zM493 479c-48 0 -86 -128 -86 -228c0 -44 7 -90 22 -125c54 69 102 183 102 276
c0 49 -16 77 -38 77z" />
    <glyph glyph-name="wgrave" unicode="&#x1e81;" horiz-adv-x="761" 
d="M542 576l-140 111c-24 19 -52 18 -63 -3c-12 -21 -3 -46 21 -56l173 -67zM690 506c36 0 52 -36 52 -98c0 -215 -113 -417 -259 -417c-42 0 -85 16 -110 52c-37 -33 -91 -52 -136 -52c-83 0 -145 50 -145 143c0 119 88 218 162 299h-167c-12 0 -17 -6 -17 -15
c0 -22 46 -24 46 -65c0 -19 -14 -35 -38 -35c-25 0 -45 23 -45 55c0 77 63 128 141 128h163c-98 -121 -153 -265 -153 -341c0 -72 40 -110 99 -110c30 0 49 8 71 27c-9 19 -26 60 -26 125c0 123 74 306 170 306c41 0 61 -37 61 -94c0 -117 -54 -231 -117 -315
c15 -27 46 -49 87 -49c101 0 158 147 158 261c0 83 -40 113 -40 149c0 29 18 46 43 46zM493 479c-48 0 -86 -128 -86 -228c0 -44 7 -90 22 -125c54 69 102 183 102 276c0 49 -16 77 -38 77z" />
    <glyph glyph-name="x" unicode="x" horiz-adv-x="492" 
d="M446 510c39 0 57 -23 57 -49c0 -25 -18 -48 -46 -48c-40 0 -41 35 -61 35c-35 0 -73 -80 -115 -180l63 -182c7 -20 15 -30 30 -30c20 0 44 20 60 37c6 6 9 6 15 1s7 -10 -1 -20c-48 -61 -90 -81 -128 -81c-37 0 -47 27 -58 60l-46 126c-47 -107 -97 -188 -168 -188
c-38 0 -57 23 -57 49c0 25 19 48 46 48c40 0 41 -35 61 -35c32 0 67 69 106 159l-63 173c-8 23 -18 30 -34 30c-13 0 -23 -7 -43 -16c-6 -3 -9 -1 -13 4c-4 6 -5 11 2 15c81 46 101 92 122 92c23 0 27 -18 43 -63l51 -145c50 116 102 208 177 208z" />
    <glyph glyph-name="y" unicode="y" horiz-adv-x="483" 
d="M402 511c36 0 68 -27 68 -88c0 -78 -29 -194 -128 -390c-82 -163 -144 -251 -210 -251c-36 0 -63 27 -63 59c0 31 22 52 52 52c36 0 36 -40 63 -40c18 0 43 35 91 123l-154 409c-9 23 -18 30 -34 30c-13 0 -23 -7 -43 -16c-6 -3 -9 -1 -13 4c-4 6 -5 11 2 15
c81 46 101 92 122 92c23 0 27 -18 43 -63l133 -364c71 141 102 258 102 309c0 27 -14 15 -32 15c-32 0 -55 24 -55 51c0 25 18 53 56 53z" />
    <glyph glyph-name="yacute" unicode="&#xfd;" horiz-adv-x="483" 
d="M369 629l-168 -67l-9 14l146 107c15 11 30 17 39 17c18 0 29 -13 29 -30c0 -20 -14 -32 -37 -41zM402 511c36 0 68 -27 68 -88c0 -78 -29 -194 -128 -390c-82 -163 -144 -251 -210 -251c-36 0 -63 27 -63 59c0 31 22 52 52 52c36 0 36 -40 63 -40c18 0 43 35 91 123
l-154 409c-9 23 -18 30 -34 30c-13 0 -23 -7 -43 -16c-6 -3 -9 -1 -13 4c-4 6 -5 11 2 15c81 46 101 92 122 92c23 0 27 -18 43 -63l133 -364c71 141 102 258 102 309c0 27 -14 15 -32 15c-32 0 -55 24 -55 51c0 25 18 53 56 53z" />
    <glyph glyph-name="ycircumflex" unicode="&#x177;" horiz-adv-x="483" 
d="M295 632l-144 -99l-16 16l160 150h19l118 -150l-21 -16zM402 511c36 0 68 -27 68 -88c0 -78 -29 -194 -128 -390c-82 -163 -144 -251 -210 -251c-36 0 -63 27 -63 59c0 31 22 52 52 52c36 0 36 -40 63 -40c18 0 43 35 91 123l-154 409c-9 23 -18 30 -34 30
c-13 0 -23 -7 -43 -16c-6 -3 -9 -1 -13 4c-4 6 -5 11 2 15c81 46 101 92 122 92c23 0 27 -18 43 -63l133 -364c71 141 102 258 102 309c0 27 -14 15 -32 15c-32 0 -55 24 -55 51c0 25 18 53 56 53z" />
    <glyph glyph-name="ydieresis" unicode="&#xff;" horiz-adv-x="483" 
d="M212 596c-25 0 -48 21 -48 48c0 25 23 47 48 47s48 -22 48 -47c0 -27 -23 -48 -48 -48zM392 596c-25 0 -48 21 -48 48c0 25 23 47 48 47s48 -22 48 -47c0 -27 -23 -48 -48 -48zM402 511c36 0 68 -27 68 -88c0 -78 -29 -194 -128 -390c-82 -163 -144 -251 -210 -251
c-36 0 -63 27 -63 59c0 31 22 52 52 52c36 0 36 -40 63 -40c18 0 43 35 91 123l-154 409c-9 23 -18 30 -34 30c-13 0 -23 -7 -43 -16c-6 -3 -9 -1 -13 4c-4 6 -5 11 2 15c81 46 101 92 122 92c23 0 27 -18 43 -63l133 -364c71 141 102 258 102 309c0 27 -14 15 -32 15
c-32 0 -55 24 -55 51c0 25 18 53 56 53z" />
    <glyph glyph-name="ygrave" unicode="&#x1ef3;" horiz-adv-x="483" 
d="M203 628c-24 10 -33 35 -21 56c11 21 39 22 63 3l140 -111l-9 -15zM402 511c36 0 68 -27 68 -88c0 -78 -29 -194 -128 -390c-82 -163 -144 -251 -210 -251c-36 0 -63 27 -63 59c0 31 22 52 52 52c36 0 36 -40 63 -40c18 0 43 35 91 123l-154 409c-9 23 -18 30 -34 30
c-13 0 -23 -7 -43 -16c-6 -3 -9 -1 -13 4c-4 6 -5 11 2 15c81 46 101 92 122 92c23 0 27 -18 43 -63l133 -364c71 141 102 258 102 309c0 27 -14 15 -32 15c-32 0 -55 24 -55 51c0 25 18 53 56 53z" />
    <glyph glyph-name="z" unicode="z" horiz-adv-x="457" 
d="M368 153c30 0 59 -35 59 -79c0 -42 -34 -91 -99 -91s-129 52 -189 52c-54 0 -81 -31 -102 -55l-26 24l321 396c-6 -6 -24 -14 -59 -14c-76 0 -133 61 -182 61c-10 0 -15 -4 -15 -10c0 -19 58 -23 58 -63c0 -18 -12 -32 -35 -32c-30 0 -59 35 -59 79c0 42 34 91 99 91
s116 -50 187 -50c44 0 71 31 92 55l26 -24l-323 -397c5 6 34 15 71 15c67 0 136 -62 184 -62c11 0 16 4 16 10c0 18 -59 21 -59 62c0 18 13 32 35 32z" />
    <glyph glyph-name="zacute" unicode="&#x17a;" horiz-adv-x="457" 
d="M348 629l-168 -67l-9 14l146 107c15 11 30 17 39 17c18 0 29 -13 29 -30c0 -20 -14 -32 -37 -41zM368 153c30 0 59 -35 59 -79c0 -42 -34 -91 -99 -91s-129 52 -189 52c-54 0 -81 -31 -102 -55l-26 24l321 396c-6 -6 -24 -14 -59 -14c-76 0 -133 61 -182 61
c-10 0 -15 -4 -15 -10c0 -19 58 -23 58 -63c0 -18 -12 -32 -35 -32c-30 0 -59 35 -59 79c0 42 34 91 99 91s116 -50 187 -50c44 0 71 31 92 55l26 -24l-323 -397c5 6 34 15 71 15c67 0 136 -62 184 -62c11 0 16 4 16 10c0 18 -59 21 -59 62c0 18 13 32 35 32z" />
    <glyph glyph-name="zcaron" unicode="&#x17e;" horiz-adv-x="457" 
d="M271 533h-19l-118 150l21 16l116 -99l144 99l16 -16zM368 153c30 0 59 -35 59 -79c0 -42 -34 -91 -99 -91s-129 52 -189 52c-54 0 -81 -31 -102 -55l-26 24l321 396c-6 -6 -24 -14 -59 -14c-76 0 -133 61 -182 61c-10 0 -15 -4 -15 -10c0 -19 58 -23 58 -63
c0 -18 -12 -32 -35 -32c-30 0 -59 35 -59 79c0 42 34 91 99 91s116 -50 187 -50c44 0 71 31 92 55l26 -24l-323 -397c5 6 34 15 71 15c67 0 136 -62 184 -62c11 0 16 4 16 10c0 18 -59 21 -59 62c0 18 13 32 35 32z" />
    <glyph glyph-name="zdotaccent" unicode="&#x17c;" horiz-adv-x="457" 
d="M274 591c-29 0 -53 24 -53 53c0 28 24 51 53 51c28 0 52 -23 52 -51c0 -29 -24 -53 -52 -53zM368 153c30 0 59 -35 59 -79c0 -42 -34 -91 -99 -91s-129 52 -189 52c-54 0 -81 -31 -102 -55l-26 24l321 396c-6 -6 -24 -14 -59 -14c-76 0 -133 61 -182 61
c-10 0 -15 -4 -15 -10c0 -19 58 -23 58 -63c0 -18 -12 -32 -35 -32c-30 0 -59 35 -59 79c0 42 34 91 99 91s116 -50 187 -50c44 0 71 31 92 55l26 -24l-323 -397c5 6 34 15 71 15c67 0 136 -62 184 -62c11 0 16 4 16 10c0 18 -59 21 -59 62c0 18 13 32 35 32z" />
    <glyph glyph-name="uni1E93" unicode="&#x1e93;" horiz-adv-x="457" 
d="M368 153c30 0 59 -35 59 -79c0 -42 -34 -91 -99 -91s-129 52 -189 52c-54 0 -81 -31 -102 -55l-26 24l321 396c-6 -6 -24 -14 -59 -14c-76 0 -133 61 -182 61c-10 0 -15 -4 -15 -10c0 -19 58 -23 58 -63c0 -18 -12 -32 -35 -32c-30 0 -59 35 -59 79c0 42 34 91 99 91
s116 -50 187 -50c44 0 71 31 92 55l26 -24l-323 -397c5 6 34 15 71 15c67 0 136 -62 184 -62c11 0 16 4 16 10c0 18 -59 21 -59 62c0 18 13 32 35 32zM193 -67c28 0 52 -23 52 -51c0 -29 -24 -53 -52 -53c-29 0 -53 24 -53 53c0 28 24 51 53 51z" />
    <glyph glyph-name="f.alt" horiz-adv-x="286" 
d="M325 715c66 0 94 -30 94 -59c0 -25 -19 -46 -47 -46c-51 0 -42 71 -89 71c-39 0 -43 -52 -62 -181h88c5 0 9 -3 8 -9l-3 -16c-1 -5 -3 -7 -8 -7h-90l-51 -340c-41 -274 -155 -347 -251 -347c-60 0 -86 32 -86 61c0 23 16 45 43 45c48 0 43 -72 89 -72c35 0 83 79 101 214
l61 427c1 4 1 8 2 12h-80c-5 0 -9 2 -8 8l3 17c1 5 3 7 8 7h82c33 163 108 215 196 215z" />
    <glyph glyph-name="f.alt2" horiz-adv-x="283" 
d="M350 714c67 0 94 -30 94 -59c0 -25 -19 -47 -47 -47c-51 0 -41 72 -87 72c-39 0 -67 -52 -89 -180h88c5 0 9 -3 8 -9l-3 -16c-1 -5 -3 -7 -8 -7h-90l-52 -345c-42 -281 -149 -347 -247 -347c-17 0 -32 4 -32 17c0 16 23 14 33 14c70 0 122 79 145 238l58 410
c1 4 1 9 2 13h-79c-5 0 -9 2 -8 8l3 17c1 5 3 7 8 7h82c38 162 134 214 221 214z" />
    <glyph glyph-name="f_b" horiz-adv-x="826" 
d="M706 509c48 0 104 -40 104 -135c0 -140 -109 -382 -283 -382c-74 0 -164 41 -145 170l47 314c19 126 -13 198 -87 198c-64 0 -98 -50 -121 -174h86c5 0 9 -3 8 -9l-3 -16c-1 -5 -3 -7 -8 -7h-88v-1l-51 -339c-41 -274 -154 -347 -252 -347c-58 0 -85 31 -85 61
c0 23 16 45 45 45c46 0 41 -72 87 -72c35 0 83 79 101 214l60 421l3 18h-80c-5 0 -9 2 -8 8l3 17c1 5 3 7 8 7h83c38 157 136 208 228 208c96 0 187 -60 157 -232l-36 -218c52 150 128 251 227 251zM530 19c133 0 188 263 188 371c0 55 -21 79 -45 79
c-88 0 -210 -245 -210 -377c0 -48 16 -73 67 -73z" />
    <glyph glyph-name="f_h" horiz-adv-x="821" 
d="M709 509c47 0 95 -25 95 -126c0 -146 -69 -391 -209 -391c-42 0 -64 24 -64 49c0 26 18 43 41 43c49 0 33 -61 60 -61c41 0 80 248 80 376c0 47 -13 70 -37 70c-87 0 -188 -178 -234 -454c-3 -17 -23 -24 -46 -24c-21 0 -44 7 -41 27l75 458c21 126 -13 198 -87 198
c-64 0 -98 -50 -121 -174h86c5 0 9 -3 8 -9l-3 -16c-1 -5 -3 -7 -8 -7h-88v-1l-51 -339c-41 -274 -154 -347 -252 -347c-58 0 -85 31 -85 61c0 23 16 45 45 45c46 0 41 -72 87 -72c35 0 83 79 101 214l60 421l3 18h-80c-5 0 -9 2 -8 8l3 17c1 5 3 7 8 7h83
c38 157 136 208 228 208c96 0 186 -60 157 -232l-38 -235c54 168 128 268 232 268z" />
    <glyph glyph-name="f_k" horiz-adv-x="803" 
d="M553 285c110 -185 178 -268 227 -272l-30 -27c-85 0 -161 65 -271 265l-40 -251h-88l78 476c21 126 -13 198 -87 198c-64 0 -98 -50 -121 -174h86c5 0 9 -3 8 -9l-3 -16c-1 -5 -3 -7 -8 -7h-88v-1l-51 -339c-41 -274 -154 -347 -252 -347c-58 0 -85 31 -85 61
c0 23 16 45 45 45c46 0 41 -72 87 -72c35 0 83 79 101 214l60 421l3 18h-80c-5 0 -9 2 -8 8l3 17c1 5 3 7 8 7h83c38 157 136 208 228 208c96 0 185 -60 157 -232l-34 -211c109 78 267 209 118 186l3 28c107 42 155 28 155 -1c0 -25 -22 -54 -204 -193z" />
    <glyph glyph-name="f_t" horiz-adv-x="591" 
d="M309 500c5 0 9 -3 8 -9l-3 -16c-1 -5 -3 -7 -8 -7h-90l-51 -340c-41 -274 -155 -347 -251 -347c-60 0 -86 32 -86 61c0 23 16 45 43 45c48 0 43 -72 89 -72c35 0 83 79 101 214l61 427c1 4 1 8 2 12h-80c-5 0 -9 2 -8 8l3 17c1 5 3 7 8 7h82c33 163 108 215 196 215
c66 0 94 -30 94 -59c0 -25 -19 -46 -47 -46c-51 0 -42 71 -89 71c-39 0 -43 -52 -62 -181h88zM595 500c5 0 9 -3 8 -9l-3 -16c-1 -5 -3 -7 -8 -7h-78l-56 -380c-3 -20 1 -29 16 -29c17 0 41 19 55 34c6 6 9 6 15 1s6 -10 -1 -20c-39 -56 -94 -81 -133 -81
c-43 0 -51 34 -47 61l61 414h-75c-5 0 -9 2 -8 8l3 17c1 5 3 7 8 7h77l20 137h90l-20 -137h76z" />
    <glyph glyph-name="a.sc" horiz-adv-x="595" 
d="M475 91c11 -42 11 -58 82 -64l-2 -27c-81 3 -166 3 -247 0l2 27c71 6 71 21 63 61l-16 68h-195l-38 -79c-18 -35 16 -44 73 -50l-2 -27c-67 3 -148 3 -213 0l2 27c63 6 90 24 111 70l216 444h58zM176 186h174l-56 246z" />
    <glyph glyph-name="b.sc" horiz-adv-x="576" 
d="M375 302c114 -15 175 -66 162 -151c-13 -92 -108 -151 -280 -151h-266l3 27c53 4 72 13 76 38l56 397c3 28 -7 47 -59 52l2 27c87 -4 159 0 218 0c193 0 224 -80 217 -134c-6 -41 -37 -72 -129 -105zM233 510l-33 -220c147 23 195 59 204 127c6 39 -21 93 -106 93h-65z
M253 32c114 0 168 46 179 129c11 69 -33 121 -127 121l-108 -20l-28 -201c-3 -25 -2 -29 52 -29h32z" />
    <glyph glyph-name="c.sc" horiz-adv-x="581" 
d="M488 170l56 -4c-40 -57 -71 -110 -88 -164c-14 5 -19 5 -27 5c-62 0 -80 -20 -151 -20c-178 0 -267 131 -244 292c21 152 144 278 310 278c71 0 88 -20 146 -20c12 0 19 0 33 1c4 -57 11 -109 29 -171l-46 4c-28 98 -79 154 -174 154c-80 0 -164 -55 -188 -228
c-21 -155 27 -278 136 -278c84 0 139 56 208 151z" />
    <glyph glyph-name="d.sc" horiz-adv-x="613" 
d="M292 541c200 0 313 -95 288 -275c-25 -175 -181 -266 -307 -266c-56 0 -104 15 -147 15c-50 0 -83 -5 -134 -15l2 29c51 12 74 21 78 48l53 384c5 31 -6 48 -58 53l2 27c87 -4 146 0 223 0zM252 32c144 -3 202 116 219 244c17 114 -21 235 -170 235c-20 0 -40 0 -68 -2
l-61 -431c-6 -38 31 -45 80 -46z" />
    <glyph glyph-name="e.sc" horiz-adv-x="516" 
d="M243 509c-6 0 -12 -6 -13 -11l-29 -206h130c50 0 65 27 79 67l26 -4c-13 -54 -21 -107 -23 -162l-26 4c-3 40 -9 63 -59 63h-131l-31 -219c0 -6 2 -8 8 -8h108c61 0 95 19 121 62l38 54l30 -2c-22 -51 -36 -99 -46 -148c-151 4 -286 4 -433 2l2 30c54 6 73 13 76 38
l58 411c3 25 -12 30 -64 34l3 27h416c13 0 15 -5 15 -20l-2 -98h-33l-3 14c-19 53 -46 72 -96 72h-121z" />
    <glyph glyph-name="f.sc" horiz-adv-x="496" 
d="M483 541c13 0 15 -5 15 -20l-3 -101h-31l-5 19c-20 51 -44 70 -95 70h-121c-6 0 -12 -6 -13 -11l-29 -206h130c50 0 65 28 79 68l26 -4c-13 -55 -21 -108 -23 -163l-26 4c-3 40 -9 63 -59 63h-131l-28 -199c-3 -25 12 -29 65 -34l-2 -27c-80 3 -160 3 -240 0l2 27
c53 5 72 13 76 38l58 415c3 25 -12 30 -64 34l3 27h416z" />
    <glyph glyph-name="g.sc" horiz-adv-x="619" 
d="M365 294c75 -2 163 -2 234 1l-3 -27l-24 -4c-44 -7 -47 -53 -58 -131c-3 -26 -7 -57 -9 -84h18c6 -1 9 -6 8 -11l-2 -21c-17 3 -34 3 -43 3c-80 0 -107 -33 -208 -33c-178 0 -267 131 -244 292c21 152 144 278 310 278c71 0 88 -20 146 -20c12 0 19 0 33 1
c4 -57 11 -109 29 -171l-46 4c-28 98 -79 154 -174 154c-80 0 -164 -55 -188 -228c-21 -155 27 -278 136 -278c122 0 133 45 150 172c9 59 14 68 -40 74l-28 3z" />
    <glyph glyph-name="h.sc" horiz-adv-x="645" 
d="M415 541c79 -3 163 -3 244 0l-2 -27c-54 -5 -75 -14 -79 -39l-58 -413c-3 -25 14 -30 67 -35l-2 -27c-80 3 -165 3 -244 0l2 27c53 5 73 14 77 39l27 189h-249l-27 -193c-3 -25 14 -30 67 -35l-2 -27c-80 3 -164 3 -244 0l2 27c53 5 74 14 78 39l58 413
c3 25 -14 30 -66 35l2 27c79 -3 163 -3 244 0l-2 -27c-54 -5 -75 -14 -79 -39l-27 -189h249l28 193c3 25 -14 30 -66 35z" />
    <glyph glyph-name="i.sc" horiz-adv-x="296" 
d="M171 62c-3 -25 14 -30 67 -35l-2 -27c-80 3 -164 3 -244 0l2 27c53 5 74 14 78 39l58 413c3 25 -14 30 -66 35l2 27c79 -3 163 -3 244 0l-2 -27c-54 -5 -75 -14 -79 -39z" />
    <glyph glyph-name="j.sc" horiz-adv-x="300" 
d="M70 541c78 -3 163 -3 244 0l-2 -27c-54 -5 -75 -14 -79 -39l-52 -376c-30 -212 -124 -274 -264 -274l2 28c84 0 137 73 150 167l65 459c3 25 -15 30 -66 35z" />
    <glyph glyph-name="k.sc" horiz-adv-x="599" 
d="M601 514c-47 -3 -74 -10 -100 -35l-183 -180l113 -189c38 -64 91 -94 124 -97l-30 -27c-81 0 -142 16 -194 103l-84 140l-61 -60l-15 -107c-3 -25 14 -30 67 -35l-2 -27c-80 3 -164 3 -244 0l2 27c53 5 74 14 78 39l58 413c3 25 -14 30 -66 35l2 27c79 -3 163 -3 244 0
l-2 -27c-54 -5 -75 -14 -79 -39l-36 -256l261 259c26 27 -12 33 -58 36l2 27c67 -3 135 -3 205 0z" />
    <glyph glyph-name="l.sc" horiz-adv-x="498" 
d="M439 157l31 -2c-26 -56 -40 -105 -52 -157c-150 5 -277 5 -424 2l2 30c54 5 73 13 76 38l58 411c3 25 -14 30 -66 35l2 27c79 -3 163 -3 244 0l-2 -27c-54 -5 -75 -14 -79 -39l-61 -435c0 -6 2 -8 8 -8h100c61 0 95 19 121 62z" />
    <glyph glyph-name="m.sc" horiz-adv-x="747" 
d="M622 62c-3 -25 14 -30 67 -35l-2 -27c-80 3 -165 3 -243 0l3 27c50 5 71 14 75 39l54 384l-253 -450l-148 451l-56 -389c-3 -25 26 -29 87 -35l-2 -27c-72 3 -147 3 -218 0l2 27c62 6 93 14 97 39l57 407c5 27 -21 36 -73 41l2 27c59 -3 119 -3 179 0l124 -373l214 373
c55 -3 113 -3 171 0l-2 -26c-52 -5 -73 -14 -77 -39z" />
    <glyph glyph-name="n.sc" horiz-adv-x="625" 
d="M421 541c72 -3 146 -3 219 0l-2 -27c-62 -6 -95 -14 -99 -39l-66 -475h-29l-269 451l-55 -389c-3 -25 25 -29 87 -35l-2 -27c-73 3 -147 3 -219 0l2 27c63 6 94 14 98 39l57 406c3 27 -22 37 -73 42l2 27c58 -3 110 -3 169 0l222 -366l42 304c3 25 -23 29 -86 35z" />
    <glyph glyph-name="o.sc" horiz-adv-x="598" 
d="M337 557c164 0 256 -130 233 -290c-22 -153 -143 -280 -303 -280c-163 0 -256 131 -233 290c21 154 143 280 303 280zM281 18c74 0 155 58 178 229c23 155 -32 279 -137 279c-74 0 -154 -58 -178 -229c-21 -155 32 -279 137 -279z" />
    <glyph glyph-name="oe.sc" horiz-adv-x="877" 
d="M604 509c-6 0 -11 -6 -12 -11l-29 -206h129c50 0 65 27 79 67l26 -4c-13 -54 -21 -107 -23 -162l-26 4c-3 40 -9 63 -59 63h-131l-31 -219c0 -6 2 -8 8 -8h108c61 0 95 19 121 62l38 54l31 -2c-23 -51 -37 -99 -47 -148c-115 3 -221 4 -330 3c-27 0 -53 0 -80 -1
c-28 -6 -52 -14 -98 -14c-178 0 -267 131 -244 292c21 152 144 278 310 278c51 0 74 -10 104 -16h396c13 0 15 -5 15 -20l-2 -98h-33l-3 14c-19 53 -46 72 -96 72h-121zM143 297c-20 -155 28 -278 137 -278c62 0 109 31 156 85l46 329c-30 59 -77 92 -150 92
c-80 0 -164 -55 -189 -228z" />
    <glyph glyph-name="p.sc" horiz-adv-x="554" 
d="M186 180l-17 -119c-3 -25 12 -30 65 -34l-2 -27c-80 3 -160 3 -240 0l2 27c53 4 72 13 76 38l56 397c3 28 -7 47 -59 52l2 27c87 -4 179 0 237 0c206 0 243 -84 230 -171c-13 -94 -96 -172 -319 -187zM190 212l30 2c150 10 204 81 216 168c10 71 -23 128 -117 128
c-38 0 -69 0 -86 -1z" />
    <glyph glyph-name="q.sc" horiz-adv-x="652" 
d="M559 -46l36 -4c-12 -88 -72 -142 -150 -142c-116 0 -115 110 -209 110c-61 0 -101 -31 -114 -52l-89 3c32 50 143 100 236 118c-165 0 -258 132 -235 292c21 151 143 278 308 278c168 0 256 -131 235 -286c-19 -131 -108 -243 -234 -276c-103 -27 -160 -53 -197 -76
c28 13 68 25 102 25c101 0 129 -51 203 -51c61 0 102 33 108 61zM144 297c-21 -155 32 -279 138 -279c81 0 161 62 185 237c21 150 -32 271 -140 271c-79 0 -159 -58 -183 -229z" />
    <glyph glyph-name="r.sc" horiz-adv-x="565" 
d="M537 370c-10 -71 -59 -133 -178 -165l29 -62c38 -75 95 -121 135 -124l-20 -27c-81 0 -146 32 -200 129l-39 66c-14 -1 -30 -3 -46 -4l-32 -3l-16 -119c-4 -25 11 -30 64 -34l-2 -27c-80 3 -160 3 -240 0l2 27c53 4 73 13 76 38l56 397c4 28 -7 47 -59 52l2 27
c87 -4 179 0 237 0c206 0 243 -84 231 -171zM437 382c10 71 -23 128 -117 128c-38 0 -69 0 -87 -1l-42 -297l29 2c150 10 204 81 217 168z" />
    <glyph glyph-name="s.sc" horiz-adv-x="468" 
d="M325 101c10 68 -47 92 -120 130c-90 43 -169 78 -153 188c11 82 92 138 201 138c78 0 101 -23 122 -23c13 0 23 4 28 17l28 -2l-12 -133l-17 1c-10 1 -16 6 -18 21c-18 51 -66 88 -124 88c-65 0 -110 -35 -117 -88c-8 -53 36 -75 106 -112c77 -37 194 -79 177 -198
c-15 -106 -123 -141 -205 -141c-90 0 -130 38 -156 38c-19 0 -30 -13 -36 -26l-30 2l11 141h24c10 0 14 -6 16 -20c18 -55 71 -102 154 -102c63 0 113 20 121 81z" />
    <glyph glyph-name="t.sc" horiz-adv-x="539" 
d="M531 551l25 -1l-54 -136l-29 2c17 72 14 94 -26 94h-88l-63 -448c-4 -25 15 -30 66 -35l-2 -27c-79 3 -164 3 -244 0l2 27c54 5 75 14 78 39l62 444h-76c-40 0 -54 -17 -104 -98l-30 2l55 136l24 -1c24 -7 39 -8 86 -8h229c48 0 62 3 89 10z" />
    <glyph glyph-name="u.sc" horiz-adv-x="676" 
d="M441 541c80 -3 170 -3 249 0l-2 -27c-54 -5 -75 -14 -77 -39l-59 -413c-4 -25 14 -30 66 -35l-2 -27c-80 3 -138 3 -188 0l2 29c12 9 20 19 22 37l6 40c-38 -56 -108 -116 -207 -116c-119 0 -189 72 -171 201l40 288c4 25 -14 30 -66 35l2 27c80 -3 171 -3 251 0l-2 -27
c-54 -5 -80 -14 -82 -39l-42 -289c-15 -108 23 -160 97 -160c81 0 151 72 186 130l-2 -18l48 341c4 25 -19 30 -71 35z" />
    <glyph glyph-name="v.sc" horiz-adv-x="610" 
d="M141 450c-10 42 -12 58 -82 64l2 27c81 -3 166 -3 248 0l-2 -27c-72 -6 -73 -21 -64 -61l79 -344l171 355c16 35 -18 44 -74 50l3 27c66 -3 147 -3 212 0l-2 -27c-64 -6 -90 -24 -112 -70l-215 -444h-58z" />
    <glyph glyph-name="w.sc" horiz-adv-x="938" 
d="M750 541c66 -3 147 -3 212 0l-2 -27c-64 -6 -90 -24 -112 -70l-215 -444h-58l-89 376l-181 -376h-58l-106 450c-10 42 -12 58 -82 64l2 27c81 -3 166 -3 248 0l-2 -27c-72 -6 -73 -21 -64 -61l79 -344l153 316l-6 25c-10 42 -12 58 -82 64l2 27c81 -3 166 -3 248 0
l-2 -27c-72 -6 -73 -21 -64 -61l79 -344l171 355c16 35 -18 44 -74 50z" />
    <glyph glyph-name="x.sc" horiz-adv-x="583" 
d="M584 514c-44 -5 -79 -36 -106 -64l-142 -157l116 -209c21 -38 28 -53 73 -57l-2 -27c-70 3 -140 3 -212 0l2 27c29 4 57 17 48 34l-89 161l-140 -155c-22 -23 -1 -36 38 -40l-2 -27c-59 3 -118 3 -176 0l2 27c42 4 81 28 110 60l151 166l-111 200c-19 33 -36 56 -80 61
l2 27c70 -3 143 -3 212 0l-2 -27c-30 -5 -50 -24 -41 -38l84 -152l131 145c19 21 -5 40 -44 45l2 27c60 -3 119 -3 178 0z" />
    <glyph glyph-name="y.sc" horiz-adv-x="614" 
d="M440 541c66 -2 132 -2 198 0l-2 -27c-62 -3 -84 -20 -105 -51l-183 -260l-19 -141c-4 -25 14 -30 66 -33l-2 -29c-80 3 -165 3 -245 0l3 27c53 5 74 14 77 39l19 135l-122 277c-9 20 -19 33 -71 36l2 27c82 -2 162 -2 244 0l-2 -27c-53 -3 -70 -20 -62 -40l103 -230
l155 225c21 31 4 42 -56 45z" />
    <glyph glyph-name="z.sc" horiz-adv-x="521" 
d="M419 32c7 -1 13 -7 12 -12l-2 -20c-155 3 -284 3 -439 0l413 512h-204c-40 0 -50 -18 -101 -100l-32 2l55 136l23 -1c25 -7 39 -8 87 -8h305l-413 -511h127c62 0 91 31 119 60l66 64l47 -2c-31 -37 -59 -78 -82 -119z" />
    <glyph glyph-name="ordfeminine" unicode="&#xaa;" horiz-adv-x="329" 
d="M281 391c-2 -14 1 -20 8 -20s14 3 22 7l-3 -31c-28 -13 -33 -13 -45 -13c-24 0 -36 26 -34 59c-18 -33 -49 -60 -95 -60c-47 0 -85 23 -77 75c6 45 40 79 185 100l2 11c7 45 9 83 -35 83c-27 0 -50 -15 -63 -63c-2 -8 -16 -14 -28 -14c-19 0 -28 12 -25 32
c6 42 60 64 113 64c66 0 102 -38 92 -105zM147 363c45 0 69 40 83 62l11 61c-108 -17 -124 -58 -128 -87c-3 -22 11 -36 34 -36zM50 270h234l-6 -38h-234z" />
    <glyph glyph-name="ordmasculine" unicode="&#xba;" horiz-adv-x="327" 
d="M213 620c68 -1 123 -55 110 -146c-12 -88 -80 -140 -145 -140c-67 0 -124 56 -111 145c12 90 83 140 146 141zM268 472c9 64 -19 122 -60 122s-74 -33 -86 -113c-9 -63 21 -120 63 -120c40 0 72 31 83 111zM50 270h234l-6 -38h-234z" />
    <glyph glyph-name="uni0410" unicode="&#x410;" horiz-adv-x="617" 
d="M503 91c9 -42 10 -58 76 -64l-2 -27c-76 3 -157 3 -234 0l2 27c70 6 70 21 62 61l-25 122h-205l-61 -133c-16 -35 16 -44 70 -50l-2 -27c-62 3 -139 3 -202 0l2 27c60 6 85 24 106 70l246 529h55zM191 240h184l-57 277z" />
    <glyph glyph-name="uni0411" unicode="&#x411;" horiz-adv-x="556" 
d="M242 369c222 -11 291 -104 278 -198c-12 -84 -75 -171 -282 -171c-80 3 -164 3 -244 0v27c53 5 76 15 79 40l69 493c4 25 -13 29 -65 34l2 27h427c13 0 16 -6 16 -21l-2 -105h-28l-8 24c-18 52 -44 71 -95 71h-143l-31 -220zM418 181c12 83 -25 150 -175 157l-32 1
l-39 -278c-3 -27 13 -34 80 -34c98 0 155 76 166 154z" />
    <glyph glyph-name="uni0412" unicode="&#x412;" horiz-adv-x="564" 
d="M375 342c98 -13 154 -68 154 -147c0 -132 -123 -195 -274 -195h-264l3 27c51 4 68 13 72 38l67 477c5 35 -17 48 -55 52l2 27c28 -1 54 -2 79 -2c50 0 93 2 131 2c171 0 215 -67 215 -131c0 -61 -28 -107 -130 -148zM235 589l-38 -258l52 8c102 16 161 57 161 158
c0 50 -29 93 -109 93c-35 0 -49 0 -66 -1zM253 32c114 0 177 66 177 169c0 68 -42 119 -120 119l-116 -18l-34 -241c-4 -31 6 -29 93 -29z" />
    <glyph glyph-name="uni0413" unicode="&#x413;" horiz-adv-x="500" 
d="M511 601l-2 -106h-29l-7 23c-15 53 -45 72 -96 72h-132l-74 -528c-3 -25 14 -30 67 -35l-2 -27c-80 3 -164 3 -244 0l2 27c53 5 74 14 78 39l69 493c4 25 -14 30 -66 35l3 27h418c13 0 15 -5 15 -20z" />
    <glyph glyph-name="uni0403" unicode="&#x403;" horiz-adv-x="500" 
d="M215 696l9 -14l168 67c23 9 37 21 37 41c0 17 -11 30 -29 30c-9 0 -24 -6 -39 -17zM511 601l-2 -106h-29l-7 23c-15 53 -45 72 -96 72h-132l-74 -528c-3 -25 14 -30 67 -35l-2 -27c-80 3 -164 3 -244 0l2 27c53 5 74 14 78 39l69 493c4 25 -14 30 -66 35l3 27h418
c13 0 15 -5 15 -20z" />
    <glyph glyph-name="uni0490" unicode="&#x490;" horiz-adv-x="500" 
d="M511 716h29l-28 -110c-4 -15 -6 -16 -19 -16h-258l-74 -528c-3 -25 14 -30 67 -35l-2 -27c-80 3 -164 3 -244 0l2 27c53 5 74 14 78 39l69 493c4 25 -14 30 -66 35l3 27h312c51 0 83 24 117 76z" />
    <glyph glyph-name="uni0414" unicode="&#x414;" horiz-adv-x="590" 
d="M613 594c-54 -5 -75 -14 -79 -39l-69 -493c-3 -25 14 -29 67 -34l-22 -163l-32 2c7 63 13 133 -111 133h-266c-125 0 -141 -74 -153 -137l-30 2l22 163c82 0 126 58 139 154l54 377c4 25 -15 30 -66 35l3 27h546zM64 26l248 2c35 0 50 17 53 38l70 493
c4 25 -13 35 -66 35h-102c-53 0 -75 -14 -79 -39l-46 -331c-15 -107 -32 -167 -78 -198z" />
    <glyph glyph-name="uni0415" unicode="&#x415;" horiz-adv-x="487" 
d="M464 621c12 0 14 -5 14 -20l-3 -106h-27l-6 23c-18 52 -43 71 -90 71h-109c-6 0 -10 -6 -11 -11l-35 -246h116c47 0 61 28 76 68l23 -4c-12 -55 -20 -108 -23 -163l-23 4c-3 40 -8 63 -55 63h-118l-37 -259c-1 -6 1 -8 7 -8h97c57 0 89 19 115 62l40 63l28 -2
c-24 -56 -39 -104 -49 -156c-141 4 -264 2 -403 0l3 30c50 5 68 14 72 39l69 491c3 25 -11 30 -60 34l3 27h386z" />
    <glyph glyph-name="uni0401" unicode="&#x401;" horiz-adv-x="487" 
d="M228 716c-25 0 -48 21 -48 48c0 25 23 47 48 47s48 -22 48 -47c0 -27 -23 -48 -48 -48zM408 716c-25 0 -48 21 -48 48c0 25 23 47 48 47s48 -22 48 -47c0 -27 -23 -48 -48 -48zM464 621c12 0 14 -5 14 -20l-3 -106h-27l-6 23c-18 52 -43 71 -90 71h-109
c-6 0 -10 -6 -11 -11l-35 -246h116c47 0 61 28 76 68l23 -4c-12 -55 -20 -108 -23 -163l-23 4c-3 40 -8 63 -55 63h-118l-37 -259c-1 -6 1 -8 7 -8h97c57 0 89 19 115 62l40 63l28 -2c-24 -56 -39 -104 -49 -156c-141 4 -264 2 -403 0l3 30c50 5 68 14 72 39l69 491
c3 25 -11 30 -60 34l3 27h386z" />
    <glyph glyph-name="uni0416" unicode="&#x416;" horiz-adv-x="957" 
d="M782 110c40 -64 88 -94 122 -97l-31 -27c-80 0 -137 16 -184 92l-130 209l-28 -26l-29 -199c-3 -25 15 -30 67 -35l-2 -27c-79 3 -164 3 -244 0l2 27c53 5 74 14 78 39l27 195l-18 26l-190 -213c-68 -76 -128 -88 -207 -88l-28 27c34 3 90 37 148 101l224 245l-145 202
c-8 11 -15 15 -25 15c-24 0 -21 -37 -62 -37c-26 0 -42 19 -38 47c4 30 37 41 62 41c55 0 82 -41 114 -84l172 -233l35 249c4 25 -14 30 -66 35l2 27c79 -3 164 -3 244 0l-2 -27c-53 -5 -74 -14 -78 -39l-35 -245l237 237c44 43 82 80 134 80c29 0 59 -15 54 -51
c-3 -22 -22 -37 -44 -37c-45 0 -33 37 -52 37c-14 0 -22 -7 -33 -18l-204 -199z" />
    <glyph glyph-name="uni0417" unicode="&#x417;" horiz-adv-x="557" 
d="M340 353c13 3 26 4 38 4c77 0 137 -57 137 -140c0 -134 -141 -230 -287 -230c-140 0 -193 95 -204 183l36 -4c19 -100 76 -144 163 -144c110 0 184 88 184 192c0 69 -45 106 -88 106c-29 0 -43 -6 -85 -23l-12 36l44 18c81 32 138 83 138 169c0 50 -28 87 -80 87
c-80 0 -148 -61 -203 -160l-50 4c36 61 58 114 76 171c14 -5 21 -5 29 -5c62 0 85 20 157 20c101 0 164 -56 164 -127c0 -82 -70 -128 -157 -157z" />
    <glyph glyph-name="uni0418" unicode="&#x418;" horiz-adv-x="652" 
d="M433 621c79 -3 163 -3 244 0l-2 -27c-54 -5 -75 -14 -79 -39l-69 -493c-3 -25 14 -30 67 -35l-2 -27c-80 3 -164 3 -244 0l2 27c53 5 74 14 78 39l54 383l-305 -344l-6 -43c-3 -25 14 -30 67 -35l-2 -27c-80 3 -164 3 -244 0l2 27c53 5 74 14 78 39l69 493
c4 25 -14 30 -66 35l2 27c79 -3 163 -3 244 0l-2 -27c-54 -5 -75 -14 -79 -39l-56 -397l305 345l8 56c4 25 -14 30 -66 35z" />
    <glyph glyph-name="uni0419" unicode="&#x419;" horiz-adv-x="652" 
d="M390 690c-74 0 -117 59 -111 125h32c0 -30 31 -67 87 -67s95 37 103 67h32c-12 -66 -69 -125 -143 -125zM433 621c79 -3 163 -3 244 0l-2 -27c-54 -5 -75 -14 -79 -39l-69 -493c-3 -25 14 -30 67 -35l-2 -27c-80 3 -164 3 -244 0l2 27c53 5 74 14 78 39l54 383l-305 -344
l-6 -43c-3 -25 14 -30 67 -35l-2 -27c-80 3 -164 3 -244 0l2 27c53 5 74 14 78 39l69 493c4 25 -14 30 -66 35l2 27c79 -3 163 -3 244 0l-2 -27c-54 -5 -75 -14 -79 -39l-56 -397l305 345l8 56c4 25 -14 30 -66 35z" />
    <glyph glyph-name="uni041A" unicode="&#x41a;" horiz-adv-x="625" 
d="M451 110c40 -64 88 -94 121 -97l-30 -27c-81 0 -137 16 -184 92l-130 209l-29 -26l-28 -199c-3 -25 14 -30 67 -35l-2 -27c-45 2 -197 2 -244 0l2 27c53 5 74 14 78 39l69 493c4 25 -14 30 -66 35l2 27c82 -2 163 -2 244 0l-2 -27c-54 -5 -75 -14 -79 -39l-34 -245
l237 237c44 43 82 80 133 80c28 0 56 -13 56 -43c0 -27 -22 -45 -45 -45c-45 0 -33 37 -52 37c-15 0 -22 -7 -33 -18l-204 -199z" />
    <glyph glyph-name="uni040C" unicode="&#x40c;" horiz-adv-x="625" 
d="M277 696l9 -14l168 67c23 9 37 21 37 41c0 17 -11 30 -29 30c-9 0 -24 -6 -39 -17zM451 110c40 -64 88 -94 121 -97l-30 -27c-81 0 -137 16 -184 92l-130 209l-29 -26l-28 -199c-3 -25 14 -30 67 -35l-2 -27c-45 2 -197 2 -244 0l2 27c53 5 74 14 78 39l69 493
c4 25 -14 30 -66 35l2 27c82 -2 163 -2 244 0l-2 -27c-54 -5 -75 -14 -79 -39l-34 -245l237 237c44 43 82 80 133 80c28 0 56 -13 56 -43c0 -27 -22 -45 -45 -45c-45 0 -33 37 -52 37c-15 0 -22 -7 -33 -18l-204 -199z" />
    <glyph glyph-name="uni041B" unicode="&#x41b;" horiz-adv-x="664" 
d="M687 594c-54 -5 -75 -14 -79 -39l-69 -493c-3 -25 14 -30 67 -35l-2 -27c-80 3 -165 3 -244 0l2 27c52 5 73 14 77 39l70 493c4 25 -15 35 -66 35h-112c-54 0 -75 -14 -79 -39l-43 -310c-29 -209 -88 -255 -234 -255l2 28c82 0 127 58 141 154l54 387c4 25 -14 30 -66 35
l3 27h581z" />
    <glyph glyph-name="uni041C" unicode="&#x41c;" horiz-adv-x="716" 
d="M596 62c-3 -25 13 -30 62 -35l-2 -27c-75 3 -155 3 -229 0l2 27c50 5 69 14 73 39l65 464l-243 -530l-143 531l-66 -469c-4 -25 24 -29 82 -35l-2 -27c-69 3 -139 3 -209 0l2 27c62 6 91 14 95 39l68 487c3 27 -20 36 -69 41l2 27c56 -3 113 -3 168 0l117 -451l208 451
c52 -3 109 -3 162 0l-2 -26c-48 -5 -67 -14 -72 -39z" />
    <glyph glyph-name="uni041D" unicode="&#x41d;" horiz-adv-x="615" 
d="M411 621c75 -3 155 -3 230 0l-3 -27c-49 -5 -69 -14 -73 -39l-69 -493c-3 -25 13 -30 61 -35l-2 -27c-74 3 -154 3 -229 0l2 27c51 5 71 14 74 39l32 229h-239l-33 -233c-4 -25 12 -30 61 -35l-2 -27c-74 3 -153 3 -229 0l2 27c51 5 71 14 74 39l69 493
c4 25 -12 30 -61 35l2 27c74 -3 153 -3 229 0l-2 -27c-51 -5 -70 -14 -73 -39l-33 -229h239l33 233c4 25 -13 30 -62 35z" />
    <glyph glyph-name="uni041E" unicode="&#x41e;" horiz-adv-x="583" 
d="M261 -13c-140 0 -226 111 -226 266c0 199 127 384 308 384c139 0 223 -110 223 -262c0 -192 -123 -388 -305 -388zM271 18c137 0 193 214 193 361c0 135 -51 227 -135 227c-135 0 -192 -205 -192 -356c0 -138 51 -232 134 -232z" />
    <glyph glyph-name="uni041F" unicode="&#x41f;" horiz-adv-x="652" 
d="M675 594c-54 -5 -75 -14 -79 -39l-69 -493c-3 -25 14 -30 67 -35l-2 -27c-80 3 -164 3 -244 0l2 27c53 5 74 14 78 39l69 493c4 25 -13 35 -66 35h-112c-53 0 -75 -14 -79 -39l-69 -493c-3 -25 14 -30 67 -35l-2 -27c-80 3 -164 3 -244 0l2 27c53 5 74 14 78 39l69 493
c4 25 -14 30 -66 35l3 27h600z" />
    <glyph glyph-name="uni0420" unicode="&#x420;" horiz-adv-x="526" 
d="M188 255l-27 -194c-5 -25 9 -30 59 -34l-2 -27c-74 3 -150 3 -226 0l2 27c51 4 69 13 72 38l67 477c4 28 -5 47 -55 52l2 27c83 -4 170 0 224 0c194 0 227 -84 215 -171c-13 -86 -94 -159 -305 -191zM192 286l27 4c142 20 193 85 206 173c9 68 -21 127 -109 127
c-36 0 -64 0 -81 -1z" />
    <glyph glyph-name="uni0421" unicode="&#x421;" horiz-adv-x="558" 
d="M488 168h33c-33 -90 -105 -181 -244 -181c-150 0 -241 114 -241 274c0 196 131 376 311 376c73 0 90 -20 145 -20c12 0 18 0 32 1c4 -57 9 -109 26 -169h-44c-26 100 -74 157 -173 157c-136 0 -195 -197 -195 -352c0 -140 53 -232 147 -232c91 0 159 48 203 146z" />
    <glyph glyph-name="uni0422" unicode="&#x422;" horiz-adv-x="512" 
d="M517 631l23 -1l-51 -156h-29c15 74 15 116 -23 116h-85l-73 -528c-4 -25 12 -30 61 -35l-3 -27c-73 3 -153 3 -229 0l2 27c51 5 71 14 74 39l74 524h-76c-37 0 -48 -37 -96 -116h-30l53 156l23 -1c22 -7 36 -8 80 -8h221c45 0 60 3 84 10z" />
    <glyph glyph-name="uni0423" unicode="&#x423;" horiz-adv-x="617" 
d="M454 621c66 -2 132 -2 198 0l-2 -27c-62 -3 -85 -20 -105 -51l-346 -525c-5 -9 -8 -14 -26 -14c-21 0 -24 9 -16 18l124 184l-145 352c-8 20 -19 33 -71 36l2 27c82 -2 162 -2 244 0l-2 -27c-53 -3 -70 -20 -62 -40l100 -250l161 245c20 31 4 42 -56 45z" />
    <glyph glyph-name="uni040E" unicode="&#x40e;" horiz-adv-x="617" 
d="M373 690c-74 0 -117 59 -111 125h32c0 -30 31 -67 87 -67s95 37 103 67h32c-12 -66 -69 -125 -143 -125zM454 621c66 -2 132 -2 198 0l-2 -27c-62 -3 -85 -20 -105 -51l-346 -525c-5 -9 -8 -14 -26 -14c-21 0 -24 9 -16 18l124 184l-145 352c-8 20 -19 33 -71 36l2 27
c82 -2 162 -2 244 0l-2 -27c-53 -3 -70 -20 -62 -40l100 -250l161 245c20 31 4 42 -56 45z" />
    <glyph glyph-name="uni0424" unicode="&#x424;" horiz-adv-x="769" 
d="M477 552c185 -5 291 -89 270 -246c-21 -150 -150 -232 -338 -236l-1 -8c-3 -25 14 -30 67 -35l-2 -27c-80 3 -165 3 -245 0l2 27c53 5 74 14 78 39l1 4c-185 5 -291 90 -270 246c21 150 149 232 337 236l1 7c4 25 -14 30 -66 35l3 27c78 -3 163 -3 244 0l-2 -27
c-54 -5 -75 -14 -79 -39v-3zM639 316c15 103 -23 200 -167 206l-58 -421c143 7 210 107 225 215zM313 101l59 421c-143 -8 -211 -108 -225 -216c-15 -102 23 -198 166 -205z" />
    <glyph glyph-name="uni0425" unicode="&#x425;" horiz-adv-x="580" 
d="M571 594c-41 -5 -74 -33 -97 -64l-140 -186l122 -260c19 -40 25 -53 66 -57l-2 -27c-64 3 -129 3 -197 0l2 27c28 4 53 17 45 34l-96 204l-149 -198c-19 -24 -1 -36 36 -40l-3 -27c-54 3 -110 3 -167 0l3 27c41 4 75 25 102 60l162 214l-109 232c-17 35 -31 56 -72 61
l2 27c65 -3 132 -3 197 0l-2 -27c-28 -5 -47 -23 -39 -38l82 -176l128 169c16 22 -5 40 -41 45l2 27c56 -3 111 -3 167 0z" />
    <glyph glyph-name="uni0427" unicode="&#x427;" horiz-adv-x="642" 
d="M666 594c-54 -5 -75 -14 -79 -39l-69 -493c-3 -25 14 -30 67 -35l-3 -27c-79 3 -164 3 -244 0l2 27c53 5 74 14 78 39l22 155l18 55c-21 -29 -86 -98 -188 -98c-106 0 -177 41 -158 177l29 204c4 25 -14 30 -66 35l2 27c79 -3 163 -3 244 0l-2 -27
c-54 -5 -75 -14 -79 -39l-28 -203c-11 -78 12 -128 82 -128c89 0 145 76 158 93l35 242c4 25 -13 30 -65 35l2 27c79 -3 163 -3 244 0z" />
    <glyph glyph-name="uni0426" unicode="&#x426;" horiz-adv-x="652" 
d="M675 594c-54 -5 -75 -14 -79 -39l-69 -493c-3 -25 14 -30 67 -35l-22 -162l-31 2c6 63 12 133 -112 133h-438l3 27c53 5 74 14 78 39l69 493c4 25 -14 30 -66 35l2 27c79 -3 163 -3 244 0l-2 -27c-54 -5 -75 -14 -79 -39l-69 -493c-3 -25 14 -35 67 -35h112
c53 0 74 14 78 39l69 493c4 25 -14 30 -66 35l2 27c79 -3 163 -3 244 0z" />
    <glyph glyph-name="uni0428" unicode="&#x428;" horiz-adv-x="900" 
d="M923 594c-54 -5 -74 -14 -79 -39l-69 -493c-3 -25 14 -30 67 -35l-3 -27h-848l3 27c53 5 74 14 78 39l69 493c4 25 -14 30 -66 35l2 27c79 -3 163 -3 244 0l-2 -27c-54 -5 -75 -14 -79 -39l-69 -493c-3 -25 14 -35 67 -35h58c53 0 74 14 78 39l69 493c4 25 -14 30 -66 35
l2 27c79 -3 164 -3 244 0l-2 -27c-54 -5 -75 -14 -79 -39l-69 -493c-3 -25 14 -35 67 -35h58c53 0 74 14 78 39l69 493c4 25 -14 30 -66 35l2 27c79 -3 164 -3 244 0z" />
    <glyph glyph-name="uni0429" unicode="&#x429;" horiz-adv-x="900" 
d="M923 594c-54 -5 -74 -14 -79 -39l-69 -493c-3 -25 14 -30 67 -35l-22 -162l-31 2c6 63 12 133 -112 133h-686l3 27c53 5 74 14 78 39l69 493c4 25 -14 30 -66 35l2 27c79 -3 163 -3 244 0l-2 -27c-54 -5 -75 -14 -79 -39l-69 -493c-3 -25 14 -35 67 -35h58
c53 0 74 14 78 39l69 493c4 25 -14 30 -66 35l2 27c79 -3 164 -3 244 0l-2 -27c-54 -5 -75 -14 -79 -39l-69 -493c-3 -25 14 -35 67 -35h58c53 0 74 14 78 39l69 493c4 25 -14 30 -66 35l2 27c79 -3 164 -3 244 0z" />
    <glyph glyph-name="uni042C" unicode="&#x42c;" horiz-adv-x="560" 
d="M242 369c222 -11 289 -102 277 -196c-12 -85 -76 -173 -281 -173c-82 3 -166 3 -246 0l2 27c53 5 74 14 78 39l69 493c4 25 -14 30 -66 35l2 27c79 -3 163 -3 244 0l-2 -27c-54 -5 -75 -14 -79 -39l-25 -185zM251 27c99 0 155 74 166 152c12 84 -26 152 -176 159l-31 1
l-39 -277c-4 -29 18 -35 80 -35z" />
    <glyph glyph-name="uni042A" unicode="&#x42a;" horiz-adv-x="651" 
d="M333 369c223 -11 290 -102 277 -196c-12 -85 -75 -173 -280 -173c-82 3 -167 3 -247 0l3 27c52 5 73 14 77 39l73 524h-32c-51 0 -82 -24 -116 -76l-15 -19h-29l29 110c4 15 5 16 18 16h323l-3 -27c-54 -5 -75 -14 -79 -39l-26 -185zM509 179c12 84 -26 152 -176 159
l-31 1l-39 -277c-4 -29 17 -35 80 -35c98 0 155 74 166 152z" />
    <glyph glyph-name="uni042B" unicode="&#x42b;" horiz-adv-x="824" 
d="M242 369c222 -11 289 -102 277 -196c-12 -85 -76 -173 -281 -173c-82 3 -166 3 -246 0l2 27c53 5 74 14 78 39l69 493c4 25 -14 30 -66 35l2 27c79 -3 163 -3 244 0l-2 -27c-54 -5 -75 -14 -79 -39l-25 -185zM704 62c-4 -25 13 -30 62 -35l-4 -27c-73 3 -153 3 -229 0
l4 27c51 5 70 14 73 39l69 493c4 25 -13 30 -62 35l4 27c74 -3 155 -3 230 0l-3 -27c-51 -5 -71 -14 -74 -39zM251 27c99 0 155 74 166 152c12 84 -26 152 -176 159l-31 1l-39 -277c-4 -29 18 -35 80 -35z" />
    <glyph glyph-name="uni0404" unicode="&#x404;" horiz-adv-x="579" 
d="M294 22c95 0 166 48 212 146h36c-35 -90 -111 -181 -257 -181c-175 0 -271 142 -245 332c26 181 154 318 319 318c76 0 94 -20 152 -20c12 0 19 0 33 1c4 -57 10 -109 28 -169h-46c-27 100 -78 157 -182 157c-77 0 -165 -67 -193 -265h245l-5 -31h-244
c-18 -171 37 -288 147 -288z" />
    <glyph glyph-name="uni042D" unicode="&#x42d;" horiz-adv-x="584" 
d="M328 637c169 0 260 -141 234 -328c-26 -184 -158 -322 -329 -322c-151 0 -203 95 -214 181h36c19 -102 75 -146 166 -146c112 0 201 117 234 288h-245l5 31h245c0 2 1 4 1 6c27 195 -39 259 -113 259c-109 0 -177 -61 -232 -156l-50 -1c36 63 58 116 76 173
c14 -5 21 -5 28 -5c63 0 86 20 158 20z" />
    <glyph glyph-name="uni0407" unicode="&#x407;" horiz-adv-x="281" 
d="M124 716c-25 0 -48 21 -48 48c0 25 23 47 48 47s48 -22 48 -47c0 -27 -23 -48 -48 -48zM304 716c-25 0 -48 21 -48 48c0 25 23 47 48 47s48 -22 48 -47c0 -27 -23 -48 -48 -48zM161 62c-4 -25 13 -30 62 -35l-4 -27c-73 3 -153 3 -229 0l4 27c51 5 70 14 73 39l69 493
c4 25 -13 30 -62 35l4 27c74 -3 155 -3 230 0l-3 -27c-51 -5 -71 -14 -74 -39z" />
    <glyph glyph-name="uni042E" unicode="&#x42e;" horiz-adv-x="843" 
d="M604 637c139 0 223 -110 223 -262c0 -192 -123 -388 -305 -388c-140 0 -226 111 -226 266c0 11 0 22 1 33h-104l-32 -224c-4 -25 13 -30 62 -35l-4 -27c-73 3 -153 3 -229 0l4 27c51 5 70 14 73 39l69 493c4 25 -13 30 -62 35l4 27c74 -3 155 -3 230 0l-3 -27
c-51 -5 -71 -14 -74 -39l-33 -235h103c25 172 143 317 303 317zM532 18c137 0 193 214 193 361c0 135 -51 227 -135 227c-135 0 -192 -205 -192 -356c0 -138 51 -232 134 -232z" />
    <glyph glyph-name="uni042F" unicode="&#x42f;" horiz-adv-x="587" 
d="M521 619c28 0 58 1 88 2l-2 -27c-54 -5 -72 -28 -76 -56l-67 -477c-3 -25 12 -30 65 -34l-2 -27c-45 2 -193 2 -241 0l2 27c53 4 72 13 76 38l25 182l-25 3c-3 0 -6 1 -9 1l-119 -133c-85 -95 -156 -126 -235 -126l-18 27c41 3 107 53 170 128l106 122
c-124 34 -169 99 -169 166c0 129 114 186 275 186c43 0 97 -2 156 -2zM394 278l44 312h-84c-111 0 -162 -82 -162 -169c0 -68 42 -120 173 -139z" />
    <glyph glyph-name="uni0430" unicode="&#x430;" horiz-adv-x="520" 
d="M478 94c6 -5 6 -10 -1 -20c-39 -56 -94 -81 -132 -81c-44 0 -53 34 -49 61l19 104c-37 -94 -77 -165 -170 -165c-66 0 -126 38 -126 152c0 171 132 364 312 364c25 0 75 -4 125 -26l-67 -395c-3 -20 4 -29 19 -29c18 0 41 19 55 34c6 6 9 6 15 1zM180 36
c74 0 137 178 159 295l23 127c-9 19 -33 24 -52 24c-142 0 -193 -222 -193 -323c0 -72 25 -123 63 -123z" />
    <glyph glyph-name="uni0431" unicode="&#x431;" horiz-adv-x="513" 
d="M296 509c110 0 168 -82 168 -197c0 -149 -108 -319 -247 -319c-102 0 -177 73 -177 240c0 234 98 429 311 429h101c40 0 54 2 83 26l19 -4c-4 -29 -50 -106 -159 -106h-90c-116 0 -170 -81 -197 -173c45 53 108 104 188 104zM221 20c99 0 147 185 147 310
c0 73 -18 153 -78 153c-111 0 -157 -188 -157 -310c0 -108 39 -153 88 -153z" />
    <glyph glyph-name="uni0432" unicode="&#x432;" horiz-adv-x="441" 
d="M268 261c52 2 133 -29 133 -109c0 -92 -103 -159 -218 -159c-87 0 -157 48 -157 172c0 167 130 344 261 344c69 0 113 -40 113 -90c0 -64 -62 -118 -132 -158zM275 482c-64 0 -139 -124 -152 -261c153 57 199 143 199 203c0 25 -17 58 -47 58zM208 20
c72 0 104 73 104 123c0 72 -48 104 -82 97c-42 -21 -82 -37 -110 -48c-9 -75 13 -172 88 -172z" />
    <glyph glyph-name="uni0433" unicode="&#x433;" horiz-adv-x="399" 
d="M323 67c-50 -47 -104 -78 -172 -78c-79 0 -143 54 -143 132c0 104 122 149 195 184c60 27 112 59 112 116c0 34 -23 62 -67 62c-42 0 -101 -28 -142 -73l-22 19c42 46 99 80 175 80c83 0 133 -51 133 -117c0 -99 -79 -137 -162 -178c-74 -34 -143 -69 -143 -137
c0 -34 25 -61 68 -61c50 0 108 31 148 74z" />
    <glyph glyph-name="uni0453" unicode="&#x453;" horiz-adv-x="399" 
d="M146 576l9 -14l168 67c23 9 37 21 37 41c0 17 -11 30 -29 30c-9 0 -24 -6 -39 -17zM323 67c-50 -47 -104 -78 -172 -78c-79 0 -143 54 -143 132c0 104 122 149 195 184c60 27 112 59 112 116c0 34 -23 62 -67 62c-42 0 -101 -28 -142 -73l-22 19c42 46 99 80 175 80
c83 0 133 -51 133 -117c0 -99 -79 -137 -162 -178c-74 -34 -143 -69 -143 -137c0 -34 25 -61 68 -61c50 0 108 31 148 74z" />
    <glyph glyph-name="uni0491" unicode="&#x491;" horiz-adv-x="410" 
d="M409 596h30l-28 -111c-4 -15 -4 -15 -17 -15h-188l-71 -382c-4 -20 2 -29 17 -29c18 0 40 19 55 34c6 6 9 6 14 1c6 -5 6 -10 -1 -20c-39 -56 -94 -81 -133 -81c-43 0 -51 34 -46 61l72 386c5 25 -13 29 -65 34l2 27h228c51 0 83 27 118 77z" />
    <glyph glyph-name="uni0434" unicode="&#x434;" horiz-adv-x="479" 
d="M455 322c0 -164 -111 -329 -249 -329c-94 0 -176 67 -176 201c0 161 122 315 253 315c31 0 59 -6 84 -19c-12 82 -53 141 -136 141c-40 0 -77 -9 -112 -31l-13 23c40 26 86 38 129 38c155 0 220 -128 220 -339zM126 175c0 -101 32 -155 89 -155c91 2 144 177 144 310
c0 104 -32 153 -81 153c-99 0 -152 -171 -152 -308z" />
    <glyph glyph-name="uni0435" unicode="&#x435;" horiz-adv-x="419" 
d="M365 145c11 0 10 -12 2 -25c-42 -73 -104 -127 -190 -127c-81 0 -151 48 -151 172c0 164 132 344 265 344c64 0 98 -40 98 -89c0 -115 -183 -196 -267 -228c-8 -75 27 -143 95 -143c51 0 92 38 125 86c6 8 9 10 16 10h7zM312 421c0 27 -7 61 -39 61
c-59 0 -135 -128 -147 -261c152 57 186 143 186 200z" />
    <glyph glyph-name="uni0451" unicode="&#x451;" horiz-adv-x="419" 
d="M196 596c-25 0 -48 21 -48 48c0 25 23 47 48 47s48 -22 48 -47c0 -27 -23 -48 -48 -48zM376 596c-25 0 -48 21 -48 48c0 25 23 47 48 47s48 -22 48 -47c0 -27 -23 -48 -48 -48zM365 145c11 0 10 -12 2 -25c-42 -73 -104 -127 -190 -127c-81 0 -151 48 -151 172
c0 164 132 344 265 344c64 0 98 -40 98 -89c0 -115 -183 -196 -267 -228c-8 -75 27 -143 95 -143c51 0 92 38 125 86c6 8 9 10 16 10h7zM312 421c0 27 -7 61 -39 61c-59 0 -135 -128 -147 -261c152 57 186 143 186 200z" />
    <glyph glyph-name="uni0436" unicode="&#x436;" horiz-adv-x="993" 
d="M932 353c-22 0 -38 15 -38 36c0 39 28 95 -33 95c-98 0 -163 -161 -163 -289c0 -93 36 -146 94 -146c50 0 95 38 129 86c6 8 9 10 16 10h8c11 0 10 -12 3 -23c-46 -74 -110 -129 -196 -129c-81 0 -148 48 -148 172c0 21 2 42 5 62h-68l-43 -227h-87l43 227h-70
c-39 -129 -143 -234 -251 -234c-69 0 -108 45 -108 95c0 37 20 61 48 61c22 0 38 -15 38 -36c0 -39 -28 -95 33 -95c98 0 163 161 163 289c0 93 -36 146 -94 146c-50 0 -95 -38 -129 -86c-6 -8 -9 -10 -16 -10h-8c-11 0 -10 12 -3 23c46 74 110 129 196 129
c81 0 148 -48 148 -172c0 -27 -3 -54 -9 -80h67l46 244h87l-46 -244h70c35 137 143 252 256 252c69 0 108 -45 108 -95c0 -37 -20 -61 -48 -61z" />
    <glyph glyph-name="uni0437" unicode="&#x437;" horiz-adv-x="460" 
d="M310 288c60 -2 108 -49 108 -113c0 -108 -119 -185 -233 -185c-98 0 -155 56 -166 144h39c14 -72 52 -112 119 -112c81 0 140 64 140 149c0 44 -27 78 -61 78c-23 0 -33 -3 -73 -16l-11 34l40 14c65 23 102 71 102 131c0 39 -20 66 -53 66c-65 0 -107 -46 -150 -119h-54
c28 50 46 93 61 140c18 -6 22 -6 30 -6c45 0 59 16 119 16c79 0 138 -45 138 -106c0 -48 -31 -85 -95 -115z" />
    <glyph glyph-name="uni0438" unicode="&#x438;" horiz-adv-x="585" 
d="M42 407c-6 5 -6 10 1 20c39 56 94 81 134 81c42 0 51 -34 47 -61l-53 -295c-16 -82 -5 -120 34 -120c83 0 183 177 222 469h84l-59 -410c-3 -20 1 -30 15 -30c20 0 39 15 59 35c9 9 12 8 18 2c5 -5 5 -9 -1 -17c-48 -64 -103 -89 -144 -89c-37 0 -46 26 -39 61l39 205
c-53 -166 -123 -266 -230 -266c-62 0 -111 35 -89 160l49 261c4 20 -2 29 -17 29c-18 0 -41 -19 -55 -34c-6 -6 -9 -6 -15 -1z" />
    <glyph glyph-name="uni0439" unicode="&#x439;" horiz-adv-x="585" 
d="M343 570c-74 0 -117 59 -111 125h32c0 -30 31 -67 87 -67s95 37 103 67h32c-12 -66 -69 -125 -143 -125zM42 407c-6 5 -6 10 1 20c39 56 94 81 134 81c42 0 51 -34 47 -61l-53 -295c-16 -82 -5 -120 34 -120c83 0 183 177 222 469h84l-59 -410c-3 -20 1 -30 15 -30
c20 0 39 15 59 35c9 9 12 8 18 2c5 -5 5 -9 -1 -17c-48 -64 -103 -89 -144 -89c-37 0 -46 26 -39 61l39 205c-53 -166 -123 -266 -230 -266c-62 0 -111 35 -89 160l49 261c4 20 -2 29 -17 29c-18 0 -41 -19 -55 -34c-6 -6 -9 -6 -15 -1z" />
    <glyph glyph-name="uni043A" unicode="&#x43a;" horiz-adv-x="559" 
d="M438 457c-9 0 -18 -7 -29 -18l-111 -116l104 -208c34 -67 80 -94 114 -97l-31 -27c-78 0 -127 16 -167 97l-83 169l-42 -44l-31 -213h-88l60 410c3 20 -2 30 -16 30c-20 0 -39 -14 -59 -35c-9 -9 -12 -8 -18 -2c-5 5 -5 9 1 17c48 64 103 89 144 89c37 0 46 -26 41 -61
l-27 -184l157 165c42 45 79 79 128 79c28 0 57 -13 57 -44c0 -26 -21 -45 -45 -45c-45 0 -35 38 -59 38z" />
    <glyph glyph-name="uni045C" unicode="&#x45c;" horiz-adv-x="559" 
d="M404 629l-168 -67l-9 14l146 107c15 11 30 17 39 17c18 0 29 -13 29 -30c0 -20 -14 -32 -37 -41zM438 457c-9 0 -18 -7 -29 -18l-111 -116l104 -208c34 -67 80 -94 114 -97l-31 -27c-78 0 -127 16 -167 97l-83 169l-42 -44l-31 -213h-88l60 410c3 20 -2 30 -16 30
c-20 0 -39 -14 -59 -35c-9 -9 -12 -8 -18 -2c-5 5 -5 9 1 17c48 64 103 89 144 89c37 0 46 -26 41 -61l-27 -184l157 165c42 45 79 79 128 79c28 0 57 -13 57 -44c0 -26 -21 -45 -45 -45c-45 0 -35 38 -59 38z" />
    <glyph glyph-name="uni043B" unicode="&#x43b;" horiz-adv-x="582" 
d="M540 94c5 -5 6 -10 -1 -20c-39 -56 -95 -81 -134 -81c-43 0 -51 34 -46 61l63 340c5 27 -13 45 -51 45c-81 0 -109 -46 -147 -194c-38 -149 -73 -253 -168 -253c-44 0 -68 26 -68 58c0 31 22 53 49 53c37 0 37 -40 63 -40c40 0 62 91 91 203c55 217 133 244 221 244
c74 0 113 -37 102 -101l-61 -321c-4 -20 2 -29 17 -29c18 0 40 19 55 34c6 6 9 6 15 1z" />
    <glyph glyph-name="uni043C" unicode="&#x43c;" horiz-adv-x="776" 
d="M735 98c4 -5 4 -9 -1 -17c-49 -64 -103 -89 -144 -89c-37 0 -44 26 -39 61l54 362l-259 -415l-121 403c-49 -273 -60 -411 -169 -411c-44 0 -68 26 -68 58c0 31 22 53 49 53c37 0 37 -40 63 -40c39 0 69 213 95 375c2 23 -25 28 -67 28l4 27c55 0 101 3 161 8l105 -348
l219 348h84l-59 -410c-3 -20 2 -30 16 -30c19 0 39 15 59 35c9 9 12 8 18 2z" />
    <glyph glyph-name="uni043D" unicode="&#x43d;" horiz-adv-x="574" 
d="M532 94c6 -5 6 -10 -1 -20c-39 -56 -94 -81 -133 -81c-43 0 -50 34 -45 61l29 173h-196l-38 -227h-87l68 413c3 20 -2 29 -17 29c-18 0 -41 -19 -55 -34c-6 -6 -9 -6 -15 -1s-6 10 1 20c39 56 94 81 134 81c42 0 50 -34 45 -61l-31 -190h196l40 244h86l-67 -413
c-3 -20 2 -29 17 -29c18 0 40 19 55 34c6 6 8 6 14 1z" />
    <glyph glyph-name="uni043E" unicode="&#x43e;" horiz-adv-x="480" 
d="M285 509c98 0 170 -64 170 -195c0 -161 -114 -321 -252 -321c-91 0 -173 67 -173 201c0 161 122 315 255 315zM359 330c0 104 -32 153 -83 153c-97 0 -150 -171 -150 -308c0 -101 32 -155 86 -155c94 0 147 177 147 310z" />
    <glyph glyph-name="uni043F" unicode="&#x43f;" horiz-adv-x="588" 
d="M546 94c6 -5 6 -10 -1 -20c-39 -56 -94 -81 -134 -81c-42 0 -51 34 -47 61l52 295c14 82 6 120 -33 120c-86 0 -186 -177 -225 -469h-84l60 410c3 20 -2 30 -16 30c-20 0 -39 -14 -59 -35c-9 -9 -12 -8 -18 -2c-5 5 -5 9 1 17c48 64 103 89 144 89c37 0 46 -26 39 -61
l-39 -205c53 166 123 266 231 266c64 0 110 -35 89 -160l-46 -261c-4 -20 1 -29 16 -29c19 0 41 19 55 34c6 6 9 6 15 1z" />
    <glyph glyph-name="uni0440" unicode="&#x440;" horiz-adv-x="502" 
d="M377 509c55 0 110 -40 110 -135c0 -143 -111 -382 -283 -382c-27 0 -56 6 -80 19l-17 -107c-4 -34 14 -43 61 -38l-5 -29c-85 -14 -135 -52 -165 -52c-11 0 -18 6 -16 17c4 21 25 14 35 88l71 511c5 35 -20 40 -51 36l3 27c77 14 112 48 131 48c14 0 22 -10 19 -27
l-37 -225c52 146 133 249 224 249zM201 19c137 0 192 260 192 369c0 56 -22 81 -45 81c-87 0 -193 -243 -207 -343c-9 -59 0 -107 60 -107z" />
    <glyph glyph-name="uni0441" unicode="&#x441;" horiz-adv-x="411" 
d="M289 509c69 0 108 -45 108 -95c0 -37 -20 -61 -48 -61c-22 0 -38 15 -38 36c0 39 28 95 -33 95c-98 0 -163 -161 -163 -289c0 -93 36 -146 94 -146c50 0 95 38 129 86c6 8 9 10 16 10h8c11 0 10 -12 3 -23c-46 -74 -110 -129 -196 -129c-81 0 -148 48 -148 172
c0 174 130 344 268 344z" />
    <glyph glyph-name="uni0442" unicode="&#x442;" horiz-adv-x="881" 
d="M839 94c6 -5 6 -10 -1 -20c-39 -56 -94 -81 -134 -81c-43 0 -52 34 -47 61l49 295c14 82 7 120 -31 120c-87 0 -187 -177 -226 -469h-84l51 349c12 82 6 120 -32 120c-87 0 -187 -177 -226 -469h-84l60 410c3 20 -2 30 -16 30c-20 0 -39 -14 -59 -35c-9 -9 -12 -8 -18 -2
c-5 5 -5 9 1 17c48 64 103 89 142 89s48 -26 41 -61l-39 -205c53 166 123 266 231 266c64 0 104 -35 81 -160l-21 -106c53 166 122 266 231 266c64 0 109 -35 89 -160l-45 -261c-3 -20 2 -29 17 -29c18 0 40 19 55 34c6 6 9 6 15 1z" />
    <glyph glyph-name="uni0443" unicode="&#x443;" horiz-adv-x="483" 
d="M402 511c36 0 68 -27 68 -88c0 -78 -29 -194 -128 -390c-82 -163 -144 -251 -210 -251c-36 0 -63 27 -63 59c0 31 22 52 52 52c36 0 36 -40 63 -40c18 0 43 35 91 123l-154 409c-9 23 -18 30 -34 30c-13 0 -23 -7 -43 -16c-6 -3 -9 -1 -13 4c-4 6 -5 11 2 15
c81 46 101 92 122 92c23 0 27 -18 43 -63l133 -364c71 141 102 258 102 309c0 27 -14 15 -32 15c-32 0 -55 24 -55 51c0 25 18 53 56 53z" />
    <glyph glyph-name="uni045E" unicode="&#x45e;" horiz-adv-x="483" 
d="M289 570c-74 0 -117 59 -111 125h32c0 -30 31 -67 87 -67s95 37 103 67h32c-12 -66 -69 -125 -143 -125zM402 511c36 0 68 -27 68 -88c0 -78 -29 -194 -128 -390c-82 -163 -144 -251 -210 -251c-36 0 -63 27 -63 59c0 31 22 52 52 52c36 0 36 -40 63 -40
c18 0 43 35 91 123l-154 409c-9 23 -18 30 -34 30c-13 0 -23 -7 -43 -16c-6 -3 -9 -1 -13 4c-4 6 -5 11 2 15c81 46 101 92 122 92c23 0 27 -18 43 -63l133 -364c71 141 102 258 102 309c0 27 -14 15 -32 15c-32 0 -55 24 -55 51c0 25 18 53 56 53z" />
    <glyph glyph-name="uni0444" unicode="&#x444;" horiz-adv-x="801" 
d="M614 509c95 0 180 -93 158 -250c-25 -177 -129 -269 -227 -269c-83 0 -118 46 -128 84c-55 -225 -148 -293 -233 -293c-70 0 -97 30 -97 60c0 23 17 45 46 45c44 0 53 -64 99 -64c34 0 72 51 98 228l1 7c-23 -33 -68 -67 -138 -67c-101 0 -182 96 -155 279
c22 151 130 240 222 240c70 0 104 -38 127 -71l5 35c25 171 86 237 200 237c91 0 127 -65 127 -98c0 -26 -15 -39 -41 -39c-65 0 -48 110 -107 110s-74 -104 -85 -175l-9 -63c31 32 73 64 137 64zM219 20c62 0 108 57 122 104l26 181l15 102c-21 36 -55 73 -108 73
c-69 0 -112 -70 -133 -221c-18 -131 4 -239 78 -239zM669 269c21 145 -1 211 -66 211c-56 0 -100 -40 -132 -76l-28 -191l-13 -89c-1 -46 29 -104 88 -104c78 0 131 111 151 249z" />
    <glyph glyph-name="uni0445" unicode="&#x445;" horiz-adv-x="492" 
d="M446 510c39 0 57 -23 57 -49c0 -25 -18 -48 -46 -48c-40 0 -41 35 -61 35c-35 0 -73 -80 -115 -180l63 -182c7 -20 15 -30 30 -30c20 0 44 20 60 37c6 6 9 6 15 1s7 -10 -1 -20c-48 -61 -90 -81 -128 -81c-37 0 -47 27 -58 60l-46 126c-47 -107 -97 -188 -168 -188
c-38 0 -57 23 -57 49c0 25 19 48 46 48c40 0 41 -35 61 -35c32 0 67 69 106 159l-63 173c-8 23 -18 30 -34 30c-13 0 -23 -7 -43 -16c-6 -3 -9 -1 -13 4c-4 6 -5 11 2 15c81 46 101 92 122 92c23 0 27 -18 43 -63l51 -145c50 116 102 208 177 208z" />
    <glyph glyph-name="uni0447" unicode="&#x447;" horiz-adv-x="593" 
d="M42 407c-6 5 -6 10 1 20c39 56 94 81 134 81c42 0 52 -34 47 -61l-32 -191c-11 -58 1 -93 53 -93c75 0 152 43 190 338h84l-60 -410c-3 -20 2 -30 16 -30c20 0 39 15 59 35c9 9 12 8 18 2c5 -5 5 -9 -1 -17c-48 -64 -103 -89 -144 -89c-37 0 -46 26 -39 61l40 217
c-44 -124 -132 -147 -194 -147c-80 0 -130 32 -113 133l28 157c3 20 -2 29 -17 29c-18 0 -41 -19 -55 -34c-6 -6 -9 -6 -15 -1z" />
    <glyph glyph-name="uni0446" unicode="&#x446;" horiz-adv-x="590" 
d="M552 87c-25 -47 -80 -78 -80 -126c0 -41 40 -41 40 -85c0 -32 -30 -56 -79 -70l-8 17c20 15 25 23 25 36c0 23 -28 27 -28 64c0 33 20 61 44 88c-24 -13 -47 -19 -67 -19c-37 0 -46 26 -39 61l39 205c-53 -166 -123 -266 -230 -266c-62 0 -111 35 -89 160l49 261
c4 20 -2 29 -17 29c-18 0 -41 -19 -55 -34c-6 -6 -9 -6 -15 -1s-6 10 1 20c39 56 94 81 134 81c42 0 51 -34 47 -61l-53 -295c-16 -82 -5 -120 34 -120c83 0 183 177 222 469h84l-59 -410c-3 -20 1 -30 15 -30c20 0 39 15 59 35c9 9 12 8 18 2c4 -4 5 -8 2 -13z" />
    <glyph glyph-name="uni0448" unicode="&#x448;" horiz-adv-x="884" 
d="M843 98c5 -5 5 -9 0 -17c-49 -64 -103 -89 -144 -89c-38 0 -46 26 -39 61l38 205c-53 -166 -122 -266 -229 -266c-66 0 -119 36 -90 160l25 106c-53 -166 -123 -266 -230 -266c-65 0 -110 35 -90 160l45 261c3 20 -2 29 -17 29c-18 0 -41 -19 -55 -34c-6 -6 -9 -6 -15 -1
s-6 10 1 20c39 56 94 81 134 81c42 0 52 -34 47 -61l-49 -295c-15 -82 -7 -120 31 -120c87 0 187 177 226 469h90l-53 -349c-12 -82 -7 -120 31 -120c87 0 188 177 226 469h84l-59 -410c-3 -20 2 -30 16 -30c19 0 39 15 59 35c9 9 11 8 17 2z" />
    <glyph glyph-name="uni0449" unicode="&#x449;" horiz-adv-x="884" 
d="M843 81c-3 -3 -5 -7 -8 -10c-27 -39 -70 -68 -70 -110c0 -41 40 -41 40 -85c0 -32 -30 -56 -78 -70l-9 17c21 15 26 23 26 36c0 23 -28 27 -28 64c0 31 17 57 38 82c-19 -9 -38 -13 -55 -13c-38 0 -46 26 -39 61l38 205c-53 -166 -122 -266 -229 -266
c-66 0 -119 36 -90 160l25 106c-53 -166 -123 -266 -230 -266c-65 0 -110 35 -90 160l45 261c3 20 -2 29 -17 29c-18 0 -41 -19 -55 -34c-6 -6 -9 -6 -15 -1s-6 10 1 20c39 56 94 81 134 81c42 0 52 -34 47 -61l-49 -295c-15 -82 -7 -120 31 -120c87 0 187 177 226 469h90
l-53 -349c-12 -82 -7 -120 31 -120c87 0 188 177 226 469h84l-59 -410c-3 -20 2 -30 16 -30c19 0 39 15 59 35c9 9 11 8 17 2c5 -5 5 -9 0 -17z" />
    <glyph glyph-name="uni044C" unicode="&#x44c;" horiz-adv-x="529" 
d="M233 338c191 -14 264 -82 264 -163c0 -111 -118 -183 -289 -183c-118 0 -142 52 -124 160l45 261c3 16 -2 29 -17 29c-18 0 -41 -19 -55 -34c-7 -7 -11 -4 -15 -1c-5 5 -6 9 0 18c40 58 95 83 135 83c38 0 52 -33 47 -61l-18 -106zM395 183c0 62 -43 116 -164 124l-30 2
l-26 -157c-14 -75 -8 -128 55 -128c114 0 165 73 165 159z" />
    <glyph glyph-name="uni044A" unicode="&#x44a;" horiz-adv-x="668" 
d="M363 338c191 -14 263 -82 263 -163c0 -111 -117 -183 -288 -183c-118 0 -142 52 -124 160l46 276c-16 -2 -21 -3 -33 -3c-54 0 -69 14 -103 14c-29 0 -53 -16 -67 -31c-7 -7 -11 -5 -15 -1c-5 5 -6 9 0 17c39 60 77 84 126 84c37 0 65 -18 114 -18c31 0 49 3 81 11
l-28 -160zM525 183c0 62 -43 116 -164 124l-31 2l-26 -157c-13 -75 -7 -128 55 -128c114 0 166 73 166 159z" />
    <glyph glyph-name="uni044B" unicode="&#x44b;" horiz-adv-x="778" 
d="M233 338c191 -14 264 -82 264 -163c0 -111 -118 -183 -289 -183c-118 0 -142 52 -124 160l45 261c3 16 -2 29 -17 29c-18 0 -41 -19 -55 -34c-7 -7 -11 -4 -15 -1c-5 5 -6 9 0 18c40 58 95 83 135 83c38 0 52 -33 47 -61l-18 -106zM720 501l-70 -413c-3 -20 1 -29 17 -29
c18 0 40 19 54 34c6 6 9 6 15 1s6 -10 -1 -20c-39 -56 -94 -81 -133 -81c-43 0 -51 34 -47 61l78 447h87zM395 183c0 62 -43 116 -164 124l-30 2l-26 -157c-14 -75 -8 -128 55 -128c114 0 165 73 165 159z" />
    <glyph glyph-name="uni0454" unicode="&#x454;" horiz-adv-x="417" 
d="M355 353c-22 0 -38 15 -38 36c0 39 28 95 -33 95c-76 0 -132 -97 -154 -200h127v-35h-132c-3 -18 -4 -36 -4 -54c0 -93 36 -146 94 -146c50 0 95 38 129 86c6 8 9 10 16 10h8c11 0 10 -12 3 -23c-46 -74 -110 -129 -196 -129c-81 0 -148 48 -148 172
c0 174 130 344 268 344c69 0 108 -45 108 -95c0 -37 -20 -61 -48 -61z" />
    <glyph glyph-name="uni044D" unicode="&#x44d;" horiz-adv-x="422" 
d="M252 509c81 0 148 -48 148 -172c0 -174 -130 -344 -268 -344c-69 0 -108 45 -108 95c0 37 20 61 48 61c22 0 38 -15 38 -36c0 -39 -28 -95 33 -95c76 0 132 97 154 200h-127v35h132c3 18 4 36 4 54c0 93 -36 146 -94 146c-50 0 -95 -38 -129 -86c-6 -8 -9 -10 -16 -10h-8
c-11 0 -10 12 -3 23c46 74 110 129 196 129z" />
    <glyph glyph-name="uni0457" unicode="&#x457;" horiz-adv-x="288" 
d="M115 596c-25 0 -48 21 -48 48c0 25 23 47 48 47s48 -22 48 -47c0 -27 -23 -48 -48 -48zM295 596c-25 0 -48 21 -48 48c0 25 23 47 48 47s48 -22 48 -47c0 -27 -23 -48 -48 -48zM246 94c6 -5 6 -10 -1 -20c-39 -56 -94 -81 -133 -81c-43 0 -51 34 -47 61l68 356
c4 20 -1 30 -15 30c-20 0 -39 -14 -59 -35c-9 -9 -12 -8 -18 -2c-5 5 -5 9 1 17c48 64 102 90 143 90c38 0 49 -27 42 -62l-67 -360c-4 -20 1 -29 16 -29c19 0 41 19 55 34c6 6 9 6 15 1z" />
    <glyph glyph-name="uni044E" unicode="&#x44e;" horiz-adv-x="712" 
d="M517 509c98 0 170 -64 170 -195c0 -161 -114 -321 -252 -321c-91 0 -173 67 -173 201c0 12 1 23 2 35h-83l-45 -229h-88l81 413c4 20 -2 29 -17 29c-18 0 -41 -19 -55 -34c-6 -6 -9 -6 -15 -1s-6 10 1 20c39 56 94 81 134 81c42 0 51 -34 46 -61l-37 -189h82
c27 136 134 251 249 251zM444 20c94 0 147 177 147 310c0 104 -32 153 -83 153c-97 0 -150 -171 -150 -308c0 -101 32 -155 86 -155z" />
    <glyph glyph-name="uni044F" unicode="&#x44f;" horiz-adv-x="542" 
d="M459 418l-45 -330c-3 -20 1 -29 16 -29c19 0 41 19 55 34c6 6 9 6 15 1s6 -10 -1 -20c-39 -56 -94 -81 -133 -81c-43 0 -51 34 -47 61l15 106l-29 3l-35 3l-35 -48c-77 -102 -157 -126 -234 -126l-18 27c41 3 117 49 171 128l28 37c-104 34 -136 98 -126 165
c10 72 65 152 252 152c61 0 139 -4 229 0l-2 -27c-55 -5 -72 -28 -76 -56zM339 192l39 277c-16 1 -46 1 -80 1c-84 0 -132 -61 -141 -127c-10 -72 19 -140 152 -149z" />
    <glyph glyph-name="uni0394" unicode="&#x394;" horiz-adv-x="597" 
d="M527 0h-527l352 634zM80 75h337l-106 418z" />
    <glyph glyph-name="uni03A9" unicode="&#x3a9;" horiz-adv-x="662" 
d="M568 116h29l-35 -95c-5 -15 -18 -21 -30 -21h-166l16 122c70 7 126 92 146 236c20 148 -42 235 -146 235c-110 0 -198 -91 -221 -245c-19 -138 12 -219 81 -226l-17 -122h-165c-12 0 -24 10 -25 25l-9 91h29l11 -29c11 -27 29 -35 60 -37l61 -3c11 -1 16 9 19 34
c-95 26 -160 139 -142 267c21 148 160 289 318 289c162 0 263 -145 241 -299c-16 -114 -113 -232 -216 -263c-6 -23 -5 -29 8 -28l52 3c41 2 62 14 81 41z" />
    <glyph glyph-name="uni03BC" unicode="&#x3bc;" horiz-adv-x="585" 
d="M544 98c5 -5 5 -9 -1 -17c-48 -64 -103 -89 -144 -89c-37 0 -46 26 -39 61l39 205c-53 -166 -123 -266 -230 -266c-18 0 -36 3 -50 11c-5 -105 35 -113 27 -141c-20 -71 -108 -93 -95 -5l30 193c-8 24 -9 57 -1 102l49 261c4 20 -2 29 -17 29c-18 0 -41 -19 -55 -34
c-6 -6 -9 -6 -15 -1s-6 10 1 20c39 56 94 81 134 81c42 0 51 -34 47 -61l-53 -295c-16 -82 -5 -120 34 -120c83 0 183 177 222 469h84l-59 -410c-3 -20 1 -30 15 -30c20 0 39 15 59 35c9 9 12 8 18 2z" />
    <glyph glyph-name="pi" unicode="&#x3c0;" horiz-adv-x="647" 
d="M613 451l-5 -32h-91c-18 0 -27 -10 -30 -32l-43 -312c-4 -27 -3 -52 12 -52c35 0 28 81 75 81c32 0 43 -23 39 -49c-6 -36 -48 -65 -111 -65c-75 0 -109 56 -97 142l40 287h-73l-43 -306c-10 -78 -63 -119 -127 -119c-20 0 -44 3 -62 11l-11 32c48 -15 103 30 111 86
l42 296h-60c-47 0 -57 -60 -50 -112l-42 13c-44 78 -3 131 63 131h463z" />
    <glyph glyph-name="zero" unicode="0" horiz-adv-x="538" 
d="M234 -15c-137 0 -195 122 -195 260c0 194 110 391 281 391c138 0 196 -119 196 -255c0 -195 -110 -396 -282 -396zM233 17c138 0 190 241 190 430c0 101 -29 158 -101 158c-138 0 -190 -239 -190 -427c0 -103 28 -161 101 -161z" />
    <glyph glyph-name="one" unicode="1" horiz-adv-x="271" 
d="M163 62c-4 -25 20 -31 50 -35l-2 -27c-33 2 -67 2 -101 2c-33 0 -66 0 -100 -2l2 27c30 4 56 14 60 39l66 458c6 41 -24 32 -60 29l4 29c100 13 114 47 143 47c13 0 19 -9 19 -27c0 -24 -13 -63 -22 -125z" />
    <glyph glyph-name="two" unicode="2" horiz-adv-x="486" 
d="M449 165l-54 -144c-6 -15 -18 -21 -32 -21h-362l3 28c115 99 361 307 361 485c0 58 -29 93 -81 93c-74 0 -117 -71 -117 -142c0 -17 5 -23 5 -38c0 -30 -22 -50 -48 -50c-30 0 -53 21 -53 65c0 110 93 196 211 196c123 0 176 -67 176 -151c0 -167 -191 -294 -350 -413
l193 2c42 0 66 6 83 33l39 57h26z" />
    <glyph glyph-name="three" unicode="3" horiz-adv-x="537" 
d="M323 349c13 3 27 5 39 5c75 0 134 -55 134 -136c0 -133 -135 -231 -277 -231c-134 0 -199 81 -199 148c0 39 22 59 53 59c34 0 47 -25 47 -55c0 -13 -2 -23 -2 -32c0 -47 28 -89 99 -89c102 0 174 97 174 196c0 68 -45 102 -89 102c-29 0 -44 -5 -86 -21l-10 34l42 18
c81 32 141 88 141 172c0 51 -30 88 -81 88c-75 0 -118 -65 -118 -136c0 -14 3 -21 3 -33c0 -37 -21 -51 -50 -51c-30 0 -54 23 -54 68c0 108 101 182 217 182c113 0 174 -61 174 -128c0 -69 -57 -128 -157 -160z" />
    <glyph glyph-name="four" unicode="4" horiz-adv-x="495" 
d="M445 278h19l-29 -73c-6 -15 -18 -21 -34 -21h-47l-17 -122c-3 -25 13 -30 61 -35l-2 -27c-74 3 -153 3 -229 0l2 27c51 5 71 14 74 39l17 118h-223l-5 46l354 407h32l-57 -405h18c23 0 39 8 52 28zM267 232l38 274l-239 -274h201z" />
    <glyph glyph-name="five" unicode="5" horiz-adv-x="495" 
d="M281 427c106 0 180 -78 180 -189c0 -140 -121 -250 -254 -250c-124 0 -187 80 -187 150c0 34 18 56 49 56c39 0 45 -36 45 -78c0 -48 21 -98 91 -98c99 0 158 111 158 213c0 90 -52 152 -122 152c-65 0 -105 -34 -135 -60l-32 2l67 296h204c40 0 64 6 81 30l44 -2
l-31 -82c-6 -15 -19 -21 -33 -21h-257l-43 -193c41 45 104 74 175 74z" />
    <glyph glyph-name="six" unicode="6" horiz-adv-x="499" 
d="M428 570c-24 20 -53 37 -95 37c-119 0 -170 -156 -191 -280c16 21 73 72 152 72c91 0 165 -64 165 -169c0 -127 -107 -242 -235 -242c-133 0 -188 101 -188 234c0 207 119 414 304 414c42 0 83 -14 111 -40zM134 270c-4 -28 -6 -55 -6 -79c0 -106 35 -172 94 -172
c92 0 144 122 144 225c0 66 -27 124 -88 124c-76 0 -140 -67 -144 -98z" />
    <glyph glyph-name="seven" unicode="7" horiz-adv-x="444" 
d="M471 621l-308 -595c-14 -27 -28 -38 -48 -38c-23 0 -35 14 -35 33c0 27 17 45 319 527l-199 -2c-37 0 -78 -2 -108 -51h-33l52 135l23 -1c23 -7 37 -8 82 -8h255z" />
    <glyph glyph-name="eight" unicode="8" horiz-adv-x="511" 
d="M353 332c79 -23 113 -82 113 -144c0 -90 -82 -201 -245 -201c-138 0 -199 80 -199 163c0 68 49 154 160 186c-58 25 -78 78 -78 126c0 101 89 175 203 175c125 0 163 -78 163 -140c0 -73 -49 -138 -117 -165zM306 606c-79 0 -118 -80 -118 -167c0 -51 20 -92 78 -92
c81 0 120 84 120 171c0 49 -20 88 -80 88zM222 19c98 0 147 89 147 192c0 64 -30 108 -102 108c-99 0 -149 -95 -149 -192c0 -65 30 -108 104 -108z" />
    <glyph glyph-name="nine" unicode="9" horiz-adv-x="490" 
d="M77 59c26 -22 55 -39 97 -39c120 0 171 156 190 280c-14 -21 -72 -72 -152 -72c-90 0 -164 64 -164 169c0 127 108 242 235 242c133 0 188 -101 188 -234c0 -206 -120 -414 -304 -414c-41 0 -83 14 -112 40zM374 357c3 28 5 55 5 79c0 106 -35 172 -93 172
c-92 0 -145 -122 -145 -225c0 -66 27 -124 88 -124c75 0 139 67 145 98z" />
    <glyph glyph-name="zero.osf" horiz-adv-x="569" 
d="M251 -15c-154 0 -218 115 -218 229c0 158 126 296 286 296c153 0 217 -114 217 -225c0 -160 -125 -300 -285 -300zM249 17c125 0 183 158 183 308c0 85 -28 154 -111 154c-126 0 -184 -155 -184 -305c0 -86 27 -157 112 -157z" />
    <glyph glyph-name="one.osf" horiz-adv-x="284" 
d="M171 62c-3 -25 22 -31 55 -35l-2 -27c-72 3 -144 3 -216 0l2 27c33 4 61 14 65 39l47 337c5 33 -4 37 -59 32l2 29c96 14 130 47 148 47c16 0 26 -9 23 -29c-3 -26 -15 -61 -23 -123z" />
    <glyph glyph-name="two.osf" horiz-adv-x="511" 
d="M474 165l-56 -144c-7 -15 -19 -21 -34 -21h-383l7 60c120 63 356 149 356 331c0 55 -30 89 -85 89c-81 0 -130 -67 -130 -142c0 -18 6 -24 6 -41c0 -32 -29 -48 -55 -48c-28 0 -53 20 -53 64c0 115 105 198 230 198c132 0 187 -66 187 -146c0 -146 -155 -210 -340 -293
l192 1c44 0 71 8 89 35l41 57h28z" />
    <glyph glyph-name="three.osf" horiz-adv-x="537" 
d="M305 223c13 3 27 5 39 5c75 0 134 -55 134 -136c0 -133 -135 -231 -277 -231c-134 0 -199 81 -199 148c0 39 22 59 53 59c34 0 47 -25 47 -55c0 -13 -2 -23 -2 -32c0 -47 28 -89 99 -89c102 0 174 97 174 196c0 68 -45 102 -89 102c-29 0 -44 -5 -86 -21l-10 34l42 18
c80 34 141 88 141 172c0 51 -30 88 -81 88c-75 0 -118 -65 -118 -136c0 -14 3 -21 3 -33c0 -37 -21 -51 -50 -51c-30 0 -54 23 -54 68c0 108 101 182 217 182c113 0 174 -61 174 -128c0 -69 -57 -128 -157 -160z" />
    <glyph glyph-name="four.osf" horiz-adv-x="523" 
d="M452 142h21l-32 -73c-6 -15 -19 -21 -36 -21h-49l-27 -184h-100l26 184h-238l-4 46l373 407h33l-57 -405h20c24 0 41 8 54 28zM262 96l38 274l-251 -274h213z" />
    <glyph glyph-name="five.osf" horiz-adv-x="523" 
d="M278 307c113 0 193 -79 193 -194c0 -144 -132 -256 -270 -256c-133 0 -199 82 -199 156c0 33 19 58 52 58c41 0 43 -38 47 -78c7 -53 24 -105 99 -105c105 0 167 113 167 219c0 95 -56 156 -131 156c-69 0 -111 -34 -143 -60l-34 2l68 296h217c43 0 70 6 86 30l47 -2
l-33 -82c-5 -15 -19 -21 -34 -21h-273l-45 -193c44 45 111 74 186 74z" />
    <glyph glyph-name="six.osf" horiz-adv-x="526" 
d="M456 608c-184 0 -279 -104 -307 -281c16 21 76 72 160 72c98 0 177 -64 177 -169c0 -131 -115 -242 -248 -242c-142 0 -202 95 -202 232c0 246 158 416 402 416zM141 270c-18 -123 4 -251 99 -251c92 0 147 119 147 224c0 66 -28 125 -94 125c-81 0 -148 -67 -152 -98z
" />
    <glyph glyph-name="seven.osf" horiz-adv-x="469" 
d="M479 501l-326 -615c-14 -27 -30 -38 -50 -38c-27 0 -41 16 -38 42c3 21 18 36 338 538l-212 -2c-39 0 -83 -2 -114 -52l-35 2l54 134l24 -1c25 -7 40 -8 88 -8h271z" />
    <glyph glyph-name="eight.osf" horiz-adv-x="511" 
d="M353 332c79 -23 113 -82 113 -144c0 -90 -82 -201 -245 -201c-138 0 -199 80 -199 163c0 68 49 154 160 186c-58 25 -78 78 -78 126c0 101 89 175 203 175c125 0 163 -78 163 -140c0 -73 -49 -138 -117 -165zM306 606c-79 0 -118 -80 -118 -167c0 -51 20 -92 78 -92
c81 0 120 84 120 171c0 49 -20 88 -80 88zM222 19c98 0 147 89 147 192c0 64 -30 108 -102 108c-99 0 -149 -95 -149 -192c0 -65 30 -108 104 -108z" />
    <glyph glyph-name="nine.osf" horiz-adv-x="516" 
d="M60 -109c184 0 279 104 307 281c-16 -21 -76 -72 -160 -72c-98 0 -177 64 -177 169c0 131 115 242 248 242c142 0 202 -95 202 -232c0 -246 -158 -416 -402 -416zM375 229c18 123 -4 251 -99 251c-92 0 -147 -119 -147 -224c0 -66 28 -125 94 -125c81 0 148 67 152 98z
" />
    <glyph glyph-name="zero.tf" horiz-adv-x="600" 
d="M245 -15c-137 0 -195 122 -195 260c0 194 110 391 281 391c138 0 196 -119 196 -255c0 -195 -110 -396 -282 -396zM244 17c138 0 190 241 190 430c0 101 -29 158 -101 158c-138 0 -190 -239 -190 -427c0 -103 28 -161 101 -161z" />
    <glyph glyph-name="one.tf" horiz-adv-x="600" 
d="M352 64c0 -25 47 -33 79 -37v-27c-71 3 -183 3 -255 0v27c33 4 79 12 79 37v458c0 34 -12 36 -67 31v29c104 13 114 47 144 47c15 0 26 -7 26 -25c0 -28 -6 -63 -6 -125v-415z" />
    <glyph glyph-name="two.tf" horiz-adv-x="600" 
d="M487 165l-54 -144c-6 -15 -18 -21 -32 -21h-362l3 28c115 99 361 307 361 485c0 58 -29 93 -81 93c-74 0 -117 -71 -117 -142c0 -17 5 -23 5 -38c0 -30 -22 -50 -48 -50c-30 0 -53 21 -53 65c0 110 93 196 211 196c123 0 176 -67 176 -151c0 -167 -191 -294 -350 -413
l193 2c42 0 66 6 83 33l39 57h26z" />
    <glyph glyph-name="three.tf" horiz-adv-x="600" 
d="M352 349c13 3 27 5 39 5c75 0 134 -55 134 -136c0 -133 -135 -231 -277 -231c-134 0 -199 81 -199 148c0 39 22 59 53 59c34 0 47 -25 47 -55c0 -13 -2 -23 -2 -32c0 -47 28 -89 99 -89c102 0 174 97 174 196c0 68 -45 102 -89 102c-29 0 -44 -5 -86 -21l-10 34l42 18
c81 32 141 88 141 172c0 51 -30 88 -81 88c-75 0 -118 -65 -118 -136c0 -14 3 -21 3 -33c0 -37 -21 -51 -50 -51c-30 0 -54 23 -54 68c0 108 101 182 217 182c113 0 174 -61 174 -128c0 -69 -57 -128 -157 -160z" />
    <glyph glyph-name="four.tf" horiz-adv-x="600" 
d="M483 278h19l-29 -73c-6 -15 -18 -21 -34 -21h-47l-17 -122c-3 -25 13 -30 61 -35l-2 -27c-74 3 -153 3 -229 0l2 27c51 5 71 14 74 39l17 118h-223l-5 46l354 407h32l-57 -405h18c23 0 39 8 52 28zM305 232l38 274l-239 -274h201z" />
    <glyph glyph-name="five.tf" horiz-adv-x="600" 
d="M317 427c106 0 180 -78 180 -189c0 -140 -121 -250 -254 -250c-124 0 -187 80 -187 150c0 34 18 56 49 56c39 0 45 -36 45 -78c0 -48 21 -98 91 -98c99 0 158 111 158 213c0 90 -52 152 -122 152c-65 0 -105 -34 -135 -60l-32 2l67 296h204c40 0 64 6 81 30l44 -2
l-31 -82c-6 -15 -19 -21 -33 -21h-257l-43 -193c41 45 104 74 175 74z" />
    <glyph glyph-name="six.tf" horiz-adv-x="600" 
d="M462 570c-24 20 -53 37 -95 37c-119 0 -170 -156 -191 -280c16 21 73 72 152 72c91 0 165 -64 165 -169c0 -127 -107 -242 -235 -242c-133 0 -188 101 -188 234c0 207 119 414 304 414c42 0 83 -14 111 -40zM168 270c-4 -28 -6 -55 -6 -79c0 -106 35 -172 94 -172
c92 0 144 122 144 225c0 66 -27 124 -88 124c-76 0 -140 -67 -144 -98z" />
    <glyph glyph-name="seven.tf" horiz-adv-x="600" 
d="M524 621l-308 -595c-14 -27 -28 -38 -48 -38c-23 0 -35 14 -35 33c0 27 17 45 319 527l-199 -2c-37 0 -78 -2 -108 -51h-33l52 135l23 -1c23 -7 37 -8 82 -8h255z" />
    <glyph glyph-name="eight.tf" horiz-adv-x="600" 
d="M382 332c79 -23 113 -82 113 -144c0 -90 -82 -201 -245 -201c-138 0 -199 80 -199 163c0 68 49 154 160 186c-58 25 -78 78 -78 126c0 101 89 175 203 175c125 0 163 -78 163 -140c0 -73 -49 -138 -117 -165zM335 606c-79 0 -118 -80 -118 -167c0 -51 20 -92 78 -92
c81 0 120 84 120 171c0 49 -20 88 -80 88zM251 19c98 0 147 89 147 192c0 64 -30 108 -102 108c-99 0 -149 -95 -149 -192c0 -65 30 -108 104 -108z" />
    <glyph glyph-name="nine.tf" horiz-adv-x="600" 
d="M111 56c26 -22 55 -39 97 -39c120 0 171 156 190 280c-14 -21 -72 -72 -152 -72c-90 0 -164 64 -164 169c0 127 108 242 235 242c133 0 188 -101 188 -234c0 -206 -120 -414 -304 -414c-41 0 -83 14 -112 40zM408 354c3 28 5 55 5 79c0 106 -35 172 -93 172
c-92 0 -145 -122 -145 -225c0 -66 27 -124 88 -124c75 0 139 67 145 98z" />
    <glyph glyph-name="zero.dnom" horiz-adv-x="271" 
d="M215 116c0 -65 -31 -127 -98 -127c-68 0 -99 62 -99 127c0 64 31 128 99 128c67 0 98 -64 98 -128zM117 26c36 0 47 40 47 90c0 49 -11 91 -47 91c-37 0 -48 -42 -48 -91c0 -50 11 -90 48 -90z" />
    <glyph glyph-name="one.dnom" horiz-adv-x="203" 
d="M113 34c0 -15 15 -17 29 -18v-22h-110v22c14 1 29 3 29 18v165l-31 -10v28l56 25c19 8 27 -4 27 -15v-193z" />
    <glyph glyph-name="two.dnom" horiz-adv-x="280" 
d="M228 56l-10 -48c-2 -9 -10 -14 -21 -14h-180c14 69 59 100 95 122c25 15 46 29 46 57c0 25 -15 45 -38 45c-22 0 -35 -7 -40 -27c-4 -20 5 -26 2 -38c-14 -32 -58 -12 -58 8c-1 47 32 87 97 87c62 0 93 -31 93 -76c0 -46 -43 -65 -75 -84c-30 -17 -61 -33 -67 -53h100
c11 0 17 2 21 8l9 13h26z" />
    <glyph glyph-name="three.dnom" horiz-adv-x="279" 
d="M177 144c21 -9 42 -32 42 -66c0 -50 -46 -89 -102 -89c-63 0 -102 39 -102 79c0 14 8 24 25 24c34 0 26 -25 32 -43c8 -24 19 -32 46 -32c23 0 45 20 45 54c0 49 -37 50 -71 34l-10 25l24 11c25 9 40 22 40 44c0 25 -10 34 -32 34c-38 0 -46 -38 -39 -62l-37 6
c-8 3 -12 9 -12 14c-1 40 32 71 88 71s86 -35 86 -61c0 -20 -10 -34 -23 -43z" />
    <glyph glyph-name="four.dnom" horiz-adv-x="268" 
d="M208 70h-37v-35c0 -11 8 -18 25 -18v-23h-104v23c17 0 24 7 24 18v35h-102v28l120 147c12 15 37 6 37 -9v-136h37v-30zM58 100h58v69z" />
    <glyph glyph-name="five.dnom" horiz-adv-x="274" 
d="M214 81c0 -57 -45 -92 -103 -92c-61 0 -98 29 -101 78c-1 14 9 25 26 25c31 0 26 -25 31 -43c6 -22 21 -33 44 -33c25 0 45 21 45 54c0 40 -22 65 -54 65c-24 0 -36 -10 -49 -18h-29l10 125h132l7 5h22l-3 -39l-12 -10h-116l-3 -43c15 7 34 12 56 12c44 0 97 -30 97 -86z
" />
    <glyph glyph-name="six.dnom" horiz-adv-x="270" 
d="M178 212c-8 -15 -29 7 -52 7c-33 0 -47 -35 -51 -76c11 6 26 12 47 12c48 0 87 -31 87 -81c0 -40 -34 -85 -94 -85c-73 0 -98 61 -98 119c0 61 34 140 107 140c22 0 41 -6 54 -15c8 -6 6 -10 0 -21zM115 19c30 0 40 23 40 57c0 31 -14 50 -37 50c-25 0 -45 -15 -45 -21
c-2 -58 16 -86 42 -86z" />
    <glyph glyph-name="seven.dnom" horiz-adv-x="242" 
d="M157 198h-108l-6 -17h-28l11 47c2 9 9 14 21 14h169l-125 -250h-15c-16 0 -23 12 -16 24z" />
    <glyph glyph-name="eight.dnom" horiz-adv-x="275" 
d="M166 133c29 -12 47 -37 47 -69c0 -37 -44 -75 -102 -75c-59 0 -99 37 -99 80c0 24 15 47 44 62c-20 12 -30 27 -30 50c0 30 29 63 85 63c51 0 85 -30 85 -62c0 -20 -10 -37 -30 -49zM105 148l22 -6c12 -3 25 22 25 39c0 18 -5 36 -40 36c-24 0 -34 -19 -34 -35
s7 -29 27 -34zM155 65c0 24 -9 35 -41 43l-26 6c-10 2 -29 -18 -29 -46c0 -27 15 -51 52 -51c32 0 44 18 44 48z" />
    <glyph glyph-name="nine.dnom" horiz-adv-x="259" 
d="M44 25c8 15 29 -7 52 -7c33 0 47 35 51 76c-11 -6 -26 -12 -47 -12c-48 0 -87 31 -87 81c0 40 34 85 94 85c73 0 98 -61 98 -119c0 -61 -34 -140 -107 -140c-22 0 -41 6 -54 15c-8 6 -6 10 0 21zM107 218c-30 0 -40 -23 -40 -57c0 -31 14 -50 37 -50c25 0 45 15 45 21
c2 58 -16 86 -42 86z" />
    <glyph glyph-name="zero.numr" horiz-adv-x="271" 
d="M271 515c0 -65 -31 -127 -98 -127c-68 0 -99 62 -99 127c0 64 31 128 99 128c67 0 98 -64 98 -128zM173 425c36 0 47 40 47 90c0 49 -11 91 -47 91c-37 0 -48 -42 -48 -91c0 -50 11 -90 48 -90z" />
    <glyph glyph-name="one.numr" horiz-adv-x="203" 
d="M169 432c0 -15 15 -17 29 -18v-22h-110v22c14 1 29 3 29 18v165l-31 -10v28l56 25c19 8 27 -4 27 -15v-193z" />
    <glyph glyph-name="two.numr" horiz-adv-x="280" 
d="M283 449l-10 -48c-2 -9 -10 -14 -21 -14h-180c14 69 59 100 95 122c25 15 46 29 46 57c0 25 -15 45 -38 45c-22 0 -35 -7 -40 -27c-4 -20 5 -26 2 -38c-14 -32 -58 -12 -58 8c-1 47 32 87 97 87c62 0 93 -31 93 -76c0 -46 -43 -65 -75 -84c-30 -17 -61 -33 -67 -53h100
c11 0 17 2 21 8l9 13h26z" />
    <glyph glyph-name="three.numr" horiz-adv-x="279" 
d="M232 538c21 -9 42 -32 42 -66c0 -50 -46 -89 -102 -89c-63 0 -102 39 -102 79c0 14 8 24 25 24c34 0 26 -25 32 -43c8 -24 19 -32 46 -32c23 0 45 20 45 54c0 49 -37 50 -71 34l-10 25l24 11c25 9 40 22 40 44c0 25 -10 34 -32 34c-38 0 -46 -38 -39 -62l-37 6
c-8 3 -12 9 -12 14c-1 40 32 71 88 71s86 -35 86 -61c0 -20 -10 -34 -23 -43z" />
    <glyph glyph-name="four.numr" horiz-adv-x="268" 
d="M263 461h-37v-35c0 -11 8 -18 25 -18v-23h-104v23c17 0 24 7 24 18v35h-102v28l120 147c12 15 37 6 37 -9v-136h37v-30zM113 491h58v69z" />
    <glyph glyph-name="five.numr" horiz-adv-x="274" 
d="M270 481c0 -57 -45 -92 -103 -92c-61 0 -98 29 -101 78c-1 14 9 25 26 25c31 0 26 -25 31 -43c6 -22 21 -33 44 -33c25 0 45 21 45 54c0 40 -22 65 -54 65c-24 0 -36 -10 -49 -18h-29l10 125h132l7 5h22l-3 -39l-12 -10h-116l-3 -43c15 7 34 12 56 12c44 0 97 -30 97 -86
z" />
    <glyph glyph-name="six.numr" horiz-adv-x="269" 
d="M233 605c-8 -15 -29 7 -52 7c-33 0 -47 -35 -51 -76c11 6 26 12 47 12c48 0 87 -31 87 -81c0 -40 -34 -85 -94 -85c-73 0 -98 61 -98 119c0 61 34 140 107 140c22 0 41 -6 54 -15c8 -6 6 -10 0 -21zM170 412c30 0 40 23 40 57c0 31 -14 50 -37 50c-25 0 -45 -15 -45 -21
c-2 -58 16 -86 42 -86z" />
    <glyph glyph-name="seven.numr" horiz-adv-x="242" 
d="M213 596h-108l-6 -17h-28l11 47c2 9 9 14 21 14h169l-125 -250h-15c-16 0 -23 12 -16 24z" />
    <glyph glyph-name="eight.numr" horiz-adv-x="275" 
d="M222 531c29 -12 47 -37 47 -69c0 -37 -44 -75 -102 -75c-59 0 -99 37 -99 80c0 24 15 47 44 62c-20 12 -30 27 -30 50c0 30 29 63 85 63c51 0 85 -30 85 -62c0 -20 -10 -37 -30 -49zM161 546l22 -6c12 -3 25 22 25 39c0 18 -5 36 -40 36c-24 0 -34 -19 -34 -35
s7 -29 27 -34zM211 463c0 24 -9 35 -41 43l-26 6c-10 2 -29 -18 -29 -46c0 -27 15 -51 52 -51c32 0 44 18 44 48z" />
    <glyph glyph-name="nine.numr" horiz-adv-x="259" 
d="M100 419c8 15 29 -7 52 -7c33 0 47 35 51 76c-11 -6 -26 -12 -47 -12c-48 0 -87 31 -87 81c0 40 34 85 94 85c73 0 98 -61 98 -119c0 -61 -34 -140 -107 -140c-22 0 -41 6 -54 15c-8 6 -6 10 0 21zM163 612c-30 0 -40 -23 -40 -57c0 -31 14 -50 37 -50c25 0 45 15 45 21
c2 58 -16 86 -42 86z" />
    <glyph glyph-name="uni00B9" unicode="&#xb9;" horiz-adv-x="203" 
d="M169 432c0 -15 15 -17 29 -18v-22h-110v22c14 1 29 3 29 18v165l-31 -10v28l56 25c19 8 27 -4 27 -15v-193z" />
    <glyph glyph-name="uni00B2" unicode="&#xb2;" horiz-adv-x="280" 
d="M283 449l-10 -48c-2 -9 -10 -14 -21 -14h-180c14 69 59 100 95 122c25 15 46 29 46 57c0 25 -15 45 -38 45c-22 0 -35 -7 -40 -27c-4 -20 5 -26 2 -38c-14 -32 -58 -12 -58 8c-1 47 32 87 97 87c62 0 93 -31 93 -76c0 -46 -43 -65 -75 -84c-30 -17 -61 -33 -67 -53h100
c11 0 17 2 21 8l9 13h26z" />
    <glyph glyph-name="uni00B3" unicode="&#xb3;" horiz-adv-x="279" 
d="M232 538c21 -9 42 -32 42 -66c0 -50 -46 -89 -102 -89c-63 0 -102 39 -102 79c0 14 8 24 25 24c34 0 26 -25 32 -43c8 -24 19 -32 46 -32c23 0 45 20 45 54c0 49 -37 50 -71 34l-10 25l24 11c25 9 40 22 40 44c0 25 -10 34 -32 34c-38 0 -46 -38 -39 -62l-37 6
c-8 3 -12 9 -12 14c-1 40 32 71 88 71s86 -35 86 -61c0 -20 -10 -34 -23 -43z" />
    <glyph glyph-name="fraction" unicode="&#x2044;" horiz-adv-x="158" 
d="M277 636h56l-432 -641h-56z" />
    <glyph glyph-name="onehalf" unicode="&#xbd;" horiz-adv-x="641" 
d="M169 432c0 -15 15 -17 29 -18v-22h-110v22c14 1 29 3 29 18v165l-31 -10v28l56 25c19 8 27 -4 27 -15v-193zM480 636h56l-432 -641h-56zM589 56l-10 -48c-2 -9 -10 -14 -21 -14h-180c14 69 59 100 95 122c25 15 46 29 46 57c0 25 -15 45 -38 45c-22 0 -35 -7 -40 -27
c-4 -20 5 -26 2 -38c-14 -32 -58 -12 -58 8c-1 47 32 87 97 87c62 0 93 -31 93 -76c0 -46 -43 -65 -75 -84c-30 -17 -61 -33 -67 -53h100c11 0 17 2 21 8l9 13h26z" />
    <glyph glyph-name="onequarter" unicode="&#xbc;" horiz-adv-x="629" 
d="M117 432v165l-31 -10v28l56 25c19 8 27 -4 27 -15v-193c0 -15 15 -17 29 -18v-22h-110v22c14 1 29 3 29 18zM480 636h56l-432 -641h-56zM569 70h-37v-35c0 -11 8 -18 25 -18v-23h-104v23c17 0 24 7 24 18v35h-102v28l120 147c12 15 37 6 37 -9v-136h37v-30zM419 100h58
v69z" />
    <glyph glyph-name="threequarters" unicode="&#xbe;" horiz-adv-x="713" 
d="M274 472c0 -50 -46 -89 -102 -89c-63 0 -102 39 -102 79c0 14 8 24 25 24c34 0 26 -25 32 -43c8 -24 19 -32 46 -32c23 0 45 20 45 54c0 49 -37 50 -71 34l-10 25l24 11c25 9 40 22 40 44c0 25 -10 34 -32 34c-38 0 -46 -38 -39 -62l-37 6c-8 3 -12 9 -12 14
c-1 40 32 71 88 71s86 -35 86 -61c0 -20 -10 -34 -23 -43c21 -9 42 -32 42 -66zM562 636h56l-432 -641h-56zM653 70h-37v-35c0 -11 8 -18 25 -18v-23h-104v23c17 0 24 7 24 18v35h-102v28l120 147c12 15 37 6 37 -9v-136h37v-30zM503 100h58v69z" />
    <glyph glyph-name="oneeighth" unicode="&#x215b;" horiz-adv-x="636" 
d="M169 432c0 -15 15 -17 29 -18v-22h-110v22c14 1 29 3 29 18v165l-31 -10v28l56 25c19 8 27 -4 27 -15v-193zM480 636h56l-432 -641h-56zM527 133c29 -12 47 -37 47 -69c0 -37 -44 -75 -102 -75c-59 0 -99 37 -99 80c0 24 15 47 44 62c-20 12 -30 27 -30 50
c0 30 29 63 85 63c51 0 85 -30 85 -62c0 -20 -10 -37 -30 -49zM466 148l22 -6c12 -3 25 22 25 39c0 18 -5 36 -40 36c-24 0 -34 -19 -34 -35s7 -29 27 -34zM516 65c0 24 -9 35 -41 43l-26 6c-10 2 -29 -18 -29 -46c0 -27 15 -51 52 -51c32 0 44 18 44 48z" />
    <glyph glyph-name="threeeighths" unicode="&#x215c;" horiz-adv-x="727" 
d="M232 538c21 -9 42 -32 42 -66c0 -50 -46 -89 -102 -89c-63 0 -102 39 -102 79c0 14 8 24 25 24c34 0 26 -25 32 -43c8 -24 19 -32 46 -32c23 0 45 20 45 54c0 49 -37 50 -71 34l-10 25l24 11c25 9 40 22 40 44c0 25 -10 34 -32 34c-38 0 -46 -38 -39 -62l-37 6
c-8 3 -12 9 -12 14c-1 40 32 71 88 71s86 -35 86 -61c0 -20 -10 -34 -23 -43zM569 636h56l-432 -641h-56zM618 133c29 -12 47 -37 47 -69c0 -37 -44 -75 -102 -75c-59 0 -99 37 -99 80c0 24 15 47 44 62c-20 12 -30 27 -30 50c0 30 29 63 85 63c51 0 85 -30 85 -62
c0 -20 -10 -37 -30 -49zM557 148l22 -6c12 -3 25 22 25 39c0 18 -5 36 -40 36c-24 0 -34 -19 -34 -35s7 -29 27 -34zM607 65c0 24 -9 35 -41 43l-26 6c-10 2 -29 -18 -29 -46c0 -27 15 -51 52 -51c32 0 44 18 44 48z" />
    <glyph glyph-name="fiveeighths" unicode="&#x215d;" horiz-adv-x="716" 
d="M270 481c0 -57 -45 -92 -103 -92c-61 0 -98 29 -101 78c-1 14 9 25 26 25c31 0 26 -25 31 -43c6 -22 21 -33 44 -33c25 0 45 21 45 54c0 40 -22 65 -54 65c-24 0 -36 -10 -49 -18h-29l10 125h132l7 5h22l-3 -39l-12 -10h-116l-3 -43c15 7 34 12 56 12c44 0 97 -30 97 -86
zM558 636h56l-432 -641h-56zM607 133c29 -12 47 -37 47 -69c0 -37 -44 -75 -102 -75c-59 0 -99 37 -99 80c0 24 15 47 44 62c-20 12 -30 27 -30 50c0 30 29 63 85 63c51 0 85 -30 85 -62c0 -20 -10 -37 -30 -49zM546 148l22 -6c12 -3 25 22 25 39c0 18 -5 36 -40 36
c-24 0 -34 -19 -34 -35s7 -29 27 -34zM596 65c0 24 -9 35 -41 43l-26 6c-10 2 -29 -18 -29 -46c0 -27 15 -51 52 -51c32 0 44 18 44 48z" />
    <glyph glyph-name="seveneighths" unicode="&#x215e;" horiz-adv-x="681" 
d="M213 596h-108l-6 -17h-28l11 47c2 9 9 14 21 14h169l-125 -250h-15c-16 0 -23 12 -16 24zM533 636h56l-432 -641h-56zM582 133c29 -12 47 -37 47 -69c0 -37 -44 -75 -102 -75c-59 0 -99 37 -99 80c0 24 15 47 44 62c-20 12 -30 27 -30 50c0 30 29 63 85 63
c51 0 85 -30 85 -62c0 -20 -10 -37 -30 -49zM521 148l22 -6c12 -3 25 22 25 39c0 18 -5 36 -40 36c-24 0 -34 -19 -34 -35s7 -29 27 -34zM571 65c0 24 -9 35 -41 43l-26 6c-10 2 -29 -18 -29 -46c0 -27 15 -51 52 -51c32 0 44 18 44 48z" />
    <glyph glyph-name="asterisk" unicode="*" horiz-adv-x="312" 
d="M184 520c3 -13 11 -13 18 0l40 78c0 23 -11 36 -32 39c-22 -3 -37 -16 -43 -39zM168 508l-42 67c-19 9 -37 4 -53 -14c-11 -21 -11 -40 5 -54l72 -18c13 -3 25 9 18 19zM216 508c-10 -10 -1 -22 13 -19l77 18c19 14 26 33 20 54c-12 18 -28 23 -49 14zM149 473l-78 -17
c-20 -15 -26 -33 -20 -55c10 -18 27 -23 49 -14l60 67c10 10 2 22 -11 19zM225 473c-11 3 -23 -9 -15 -19l41 -67c18 -9 36 -4 53 14c11 22 10 40 -5 55zM173 444l-39 -78c0 -23 11 -36 32 -39c22 3 37 16 43 39l-17 78c-3 13 -12 13 -19 0z" />
    <glyph glyph-name="backslash" unicode="\" horiz-adv-x="387" 
d="M158 721l138 -801h-56l-139 801h57z" />
    <glyph glyph-name="periodcentered" unicode="&#xb7;" horiz-adv-x="212" 
d="M36 237c-25 0 -45 21 -45 48c0 35 29 65 61 65c26 0 45 -22 45 -48c0 -36 -31 -65 -61 -65z" />
    <glyph glyph-name="bullet" unicode="&#x2022;" horiz-adv-x="269" 
d="M128 203c-42 0 -73 34 -73 78c0 53 48 102 98 102c43 0 73 -34 73 -76c0 -55 -47 -104 -98 -104z" />
    <glyph glyph-name="colon" unicode=":" horiz-adv-x="165" 
d="M87 321c-25 0 -45 21 -45 48c0 35 29 65 61 65c26 0 45 -22 45 -48c0 -36 -31 -65 -61 -65zM41 -10c-25 0 -45 21 -45 48c0 35 29 65 61 65c26 0 45 -22 45 -48c0 -36 -31 -65 -61 -65z" />
    <glyph glyph-name="comma" unicode="," horiz-adv-x="173" 
d="M32 -105c-6 -5 -11 -5 -14 0l-7 10c19 21 38 50 44 77c1 6 1 9 1 12c-5 -1 -9 -1 -15 -1c-25 0 -45 19 -45 47c0 35 30 62 62 62s48 -27 48 -61c0 -50 -33 -112 -74 -146z" />
    <glyph glyph-name="ellipsis" unicode="&#x2026;" horiz-adv-x="511" 
d="M41 -10c-25 0 -45 21 -45 48c0 35 29 65 61 65c26 0 45 -22 45 -48c0 -36 -31 -65 -61 -65zM214 -10c-25 0 -45 21 -45 48c0 35 29 65 61 65c26 0 45 -22 45 -48c0 -36 -31 -65 -61 -65zM387 -10c-25 0 -45 21 -45 48c0 35 29 65 61 65c26 0 45 -22 45 -48
c0 -36 -31 -65 -61 -65z" />
    <glyph glyph-name="exclam" unicode="!" horiz-adv-x="205" 
d="M86 217c19 151 -7 244 8 350c6 39 30 70 65 70c36 0 50 -31 45 -70c-15 -106 -66 -199 -91 -350h-27zM67 -10c-25 0 -45 21 -45 48c0 35 29 65 61 65c26 0 45 -22 45 -48c0 -36 -31 -65 -61 -65z" />
    <glyph glyph-name="exclamdown" unicode="&#xa1;" horiz-adv-x="204" 
d="M140 513c28 0 49 -26 45 -57c-5 -30 -32 -56 -61 -56c-28 0 -49 26 -45 56c5 31 32 57 61 57zM96 286h27c-18 -151 7 -244 -8 -350c-5 -39 -28 -70 -64 -70s-51 31 -45 70c14 106 67 199 90 350z" />
    <glyph glyph-name="numbersign" unicode="#" horiz-adv-x="561" 
d="M543 466c9 0 13 -5 11 -15l-6 -22c-1 -10 -7 -15 -17 -15h-98l-69 -183h107c10 0 14 -5 11 -15l-5 -22c-2 -10 -8 -15 -17 -15h-115l-79 -209h-55l80 209h-115l-79 -209h-55l80 209h-84c-10 0 -14 5 -11 15l5 22c2 10 8 15 17 15h93l70 183h-103c-9 0 -12 5 -11 15l5 22
c3 10 8 15 18 15h111l79 206h51l-78 -206h117l79 206h50l-77 -206h90zM311 231l70 183h-116l-69 -183h115z" />
    <glyph glyph-name="period" unicode="." horiz-adv-x="165" 
d="M41 -10c-25 0 -45 21 -45 48c0 35 29 65 61 65c26 0 45 -22 45 -48c0 -36 -31 -65 -61 -65z" />
    <glyph glyph-name="question" unicode="?" horiz-adv-x="439" 
d="M174 155c0 109 167 218 167 354c0 61 -28 97 -79 97c-70 0 -112 -71 -112 -138c0 -20 6 -24 6 -39c0 -33 -27 -53 -54 -53c-26 0 -49 19 -49 60c0 110 96 201 214 201c119 0 169 -65 169 -145c0 -161 -195 -185 -232 -337h-30zM146 -10c-25 0 -45 21 -45 48
c0 35 29 65 61 65c26 0 45 -22 45 -48c0 -36 -31 -65 -61 -65z" />
    <glyph glyph-name="questiondown" unicode="&#xbf;" horiz-adv-x="467" 
d="M283 513c27 0 46 -22 46 -49c0 -33 -30 -64 -62 -64c-25 0 -45 21 -45 47c0 35 30 66 61 66zM274 348c1 -124 -145 -174 -165 -324c-2 -12 -3 -23 -3 -33c0 -59 30 -94 81 -94c70 0 110 70 110 137c0 20 -5 26 -5 40c0 32 27 54 55 54c24 0 47 -20 47 -62
c0 -110 -96 -200 -213 -200c-118 0 -169 66 -169 142c0 140 198 189 232 340h30z" />
    <glyph glyph-name="quotedbl" unicode="&#x22;" horiz-adv-x="291" 
d="M82 421c0 -5 3 -13 13 -13c8 0 13 8 15 13l48 172c6 26 -11 44 -31 44c-22 0 -44 -18 -44 -44zM214 421c0 -5 3 -13 13 -13c8 0 13 8 15 13l48 172c6 26 -11 44 -31 44c-22 0 -44 -18 -44 -44z" />
    <glyph glyph-name="quotesingle" unicode="'" horiz-adv-x="144" 
d="M82 421c0 -5 3 -13 13 -13c8 0 13 8 15 13l48 172c6 26 -11 44 -31 44c-22 0 -44 -18 -44 -44z" />
    <glyph glyph-name="semicolon" unicode=";" horiz-adv-x="173" 
d="M91 320c-25 0 -45 21 -45 48c0 35 29 65 61 65c26 0 45 -22 45 -48c0 -36 -31 -65 -61 -65zM32 -105c-6 -5 -11 -5 -14 0l-7 10c19 21 38 50 44 77c1 6 1 9 1 12c-5 -1 -9 -1 -15 -1c-25 0 -45 19 -45 47c0 35 30 62 62 62s48 -27 48 -61c0 -50 -33 -112 -74 -146z" />
    <glyph glyph-name="slash" unicode="/" horiz-adv-x="398" 
d="M362 721h57l-364 -801h-56z" />
    <glyph glyph-name="underscore" unicode="_" horiz-adv-x="532" 
d="M-13 -20h481l-6 -46h-482z" />
    <glyph glyph-name="braceleft" unicode="{" horiz-adv-x="256" 
d="M148 43c-14 -97 -12 -158 28 -182l-19 -27c-89 41 -93 119 -81 209l26 180c4 31 -9 39 -52 61l3 23c49 22 65 30 69 61l25 180c13 90 39 168 140 209l11 -27c-47 -24 -66 -85 -79 -182l-26 -183c-5 -36 -36 -54 -78 -68l-1 -3c39 -14 64 -32 60 -68z" />
    <glyph glyph-name="braceright" unicode="}" horiz-adv-x="255" 
d="M49 43l25 183c6 36 36 54 79 68v3c-38 14 -64 32 -58 68l25 183c14 97 12 158 -28 182l19 27c89 -41 93 -119 80 -209l-25 -180c-4 -31 9 -39 52 -61l-4 -23c-49 -22 -64 -30 -68 -61l-26 -180c-12 -90 -38 -168 -139 -209l-11 27c46 24 65 85 79 182z" />
    <glyph glyph-name="bracketleft" unicode="[" horiz-adv-x="257" 
d="M198 723l-121 -853l89 -9c12 -1 19 -7 18 -16l-1 -11l-195 10l127 905l198 10l-2 -11c-1 -9 -10 -15 -22 -16z" />
    <glyph glyph-name="bracketright" unicode="]" horiz-adv-x="266" 
d="M202 723l-89 9c-12 1 -19 7 -18 16l2 11l195 -10l-128 -905l-197 -10l2 11c1 9 10 15 22 16l91 9z" />
    <glyph glyph-name="parenleft" unicode="(" horiz-adv-x="278" 
d="M127 296c-24 -174 -1 -347 72 -444c8 -10 4 -18 -7 -18h-11c-8 0 -12 2 -17 7c-95 102 -149 268 -123 455s127 353 251 455c6 5 11 7 19 7h9c12 0 17 -6 10 -13c-104 -97 -178 -275 -203 -449z" />
    <glyph glyph-name="parenright" unicode=")" horiz-adv-x="278" 
d="M163 296c25 174 1 352 -76 449c-5 7 1 13 13 13h10c7 0 12 -2 16 -7c96 -102 150 -268 123 -455c-26 -187 -126 -353 -250 -455c-7 -5 -12 -7 -19 -7h-12c-11 0 -12 8 -2 18c101 97 172 270 197 444z" />
    <glyph glyph-name="emdash" unicode="&#x2014;" horiz-adv-x="884" 
d="M34 276h820v-24h-820v24z" />
    <glyph glyph-name="endash" unicode="&#x2013;" horiz-adv-x="646" 
d="M34 276h582v-24h-582v24z" />
    <glyph glyph-name="uni2015" unicode="&#x2015;" horiz-adv-x="884" 
d="M34 276h820v-24h-820v24z" />
    <glyph glyph-name="hyphen" unicode="-" horiz-adv-x="334" 
d="M34 276h270v-24h-270v24z" />
    <glyph glyph-name="uni00AD" unicode="&#xad;" horiz-adv-x="334" 
d="M34 276h270v-24h-270v24z" />
    <glyph glyph-name="guillemotleft" unicode="&#xab;" horiz-adv-x="384" 
d="M32 265l186 153l16 -19l-129 -144l89 -144l-21 -19l-143 153zM172 265l186 153l16 -19l-129 -144l89 -144l-21 -19l-143 153z" />
    <glyph glyph-name="guillemotright" unicode="&#xbb;" horiz-adv-x="383" 
d="M213 245l-186 -153l-16 19l129 144l-89 144l22 19l142 -153zM351 245l-186 -153l-16 19l129 144l-89 144l22 19l142 -153z" />
    <glyph glyph-name="guilsinglleft" unicode="&#x2039;" horiz-adv-x="244" 
d="M32 265l186 153l16 -19l-129 -144l89 -144l-21 -19l-143 153z" />
    <glyph glyph-name="guilsinglright" unicode="&#x203a;" horiz-adv-x="244" 
d="M213 245l-186 -153l-16 19l129 144l-89 144l22 19l142 -153z" />
    <glyph glyph-name="quotedblbase" unicode="&#x201e;" horiz-adv-x="315" 
d="M32 -105c-6 -5 -11 -5 -14 0l-7 10c19 21 38 50 44 77c1 6 1 9 1 12c-5 -1 -9 -1 -15 -1c-25 0 -45 19 -45 47c0 35 30 62 62 62s48 -27 48 -61c0 -50 -33 -112 -74 -146zM174 -105c-6 -5 -11 -5 -14 0l-7 10c19 21 38 50 44 77c1 6 1 9 1 12c-5 -1 -9 -1 -15 -1
c-25 0 -45 19 -45 47c0 35 30 62 62 62s48 -27 48 -61c0 -50 -33 -112 -74 -146z" />
    <glyph glyph-name="quotedblleft" unicode="&#x201c;" horiz-adv-x="310" 
d="M135 637c6 5 11 5 14 0l7 -10c-19 -21 -38 -50 -44 -77c-1 -6 -1 -9 -1 -12c5 1 9 1 15 1c25 0 45 -19 45 -47c0 -35 -30 -62 -62 -62s-48 27 -48 61c0 50 33 112 74 146zM277 637c6 5 11 5 14 0l7 -10c-19 -21 -38 -50 -44 -77c-1 -6 -1 -9 -1 -12c5 1 9 1 15 1
c25 0 45 -19 45 -47c0 -35 -30 -62 -62 -62s-48 27 -48 61c0 50 33 112 74 146z" />
    <glyph glyph-name="quotedblright" unicode="&#x201d;" horiz-adv-x="305" 
d="M108 435c-6 -5 -11 -5 -14 0l-7 10c19 21 38 50 44 77c1 6 1 9 1 12c-5 -1 -9 -1 -15 -1c-25 0 -45 19 -45 47c0 35 30 62 62 62s48 -27 48 -61c0 -50 -33 -112 -74 -146zM250 435c-6 -5 -11 -5 -14 0l-7 10c19 21 38 50 44 77c1 6 1 9 1 12c-5 -1 -9 -1 -15 -1
c-25 0 -45 19 -45 47c0 35 30 62 62 62s48 -27 48 -61c0 -50 -33 -112 -74 -146z" />
    <glyph glyph-name="quoteleft" unicode="&#x2018;" horiz-adv-x="168" 
d="M135 636c6 5 11 5 14 0l7 -10c-19 -21 -38 -50 -44 -77c-1 -6 -1 -9 -1 -12c5 1 9 1 15 1c25 0 45 -19 45 -47c0 -35 -30 -62 -62 -62s-48 27 -48 61c0 50 33 112 74 146z" />
    <glyph glyph-name="quoteright" unicode="&#x2019;" horiz-adv-x="163" 
d="M108 435c-6 -5 -11 -5 -14 0l-7 10c19 21 38 50 44 77c1 6 1 9 1 12c-5 -1 -9 -1 -15 -1c-25 0 -45 19 -45 47c0 35 30 62 62 62s48 -27 48 -61c0 -50 -33 -112 -74 -146z" />
    <glyph glyph-name="quotesinglbase" unicode="&#x201a;" horiz-adv-x="173" 
d="M32 -105c-6 -5 -11 -5 -14 0l-7 10c19 21 38 50 44 77c1 6 1 9 1 12c-5 -1 -9 -1 -15 -1c-25 0 -45 19 -45 47c0 35 30 62 62 62s48 -27 48 -61c0 -50 -33 -112 -74 -146z" />
    <glyph glyph-name="space" unicode=" " horiz-adv-x="220" 
 />
    <glyph glyph-name="cent" unicode="&#xa2;" horiz-adv-x="411" 
d="M349 353c-22 0 -38 15 -38 36c0 29 15 67 -1 85l-116 -424c5 -1 10 -1 15 -1c50 0 95 38 129 86c6 8 9 10 16 10h8c11 0 10 -12 3 -23c-44 -71 -105 -125 -186 -129l-15 -54h-44l16 57c-66 12 -115 63 -115 169c0 168 122 333 254 343l22 80h44l-22 -82
c50 -11 78 -50 78 -92c0 -37 -20 -61 -48 -61zM115 195c0 -59 15 -103 40 -126l113 414c-92 -9 -153 -164 -153 -288z" />
    <glyph glyph-name="currency" unicode="&#xa4;" horiz-adv-x="518" 
d="M492 418l-67 -62c23 -36 33 -83 26 -133c-7 -49 -30 -93 -62 -129l49 -60l-32 -31l-50 61c-38 -28 -82 -45 -128 -45s-86 17 -116 46l-66 -62l-26 31l67 62c-23 37 -33 85 -26 137c7 48 29 92 61 127l-48 58l33 32l48 -59c36 28 80 45 126 45c48 0 89 -18 119 -48l67 62z
M406 233c12 85 -44 158 -125 158c-85 0 -162 -77 -174 -168c-12 -85 41 -160 123 -160c84 0 164 79 176 170z" />
    <glyph glyph-name="dollar" unicode="$" horiz-adv-x="456" 
d="M254 371c59 -32 165 -78 165 -191c0 -132 -121 -194 -206 -194h-3l-7 -47h-42l7 50c-58 10 -87 36 -107 36c-17 0 -29 -12 -34 -25h-28l11 142h23c9 0 13 -6 16 -20c11 -56 68 -103 142 -103c76 0 132 56 132 128c0 69 -62 103 -122 135c-69 36 -143 84 -143 184
c0 88 75 171 201 171h1l7 52h41l-8 -55c43 -6 58 -20 74 -20c12 0 21 4 26 17h26l-12 -129h-15c-11 0 -13 6 -17 22c-14 51 -64 82 -115 82c-83 0 -121 -56 -121 -109c0 -47 31 -84 108 -126z" />
    <glyph glyph-name="Euro" unicode="&#x20ac;" horiz-adv-x="639" 
d="M366 22c91 0 159 48 203 146h33c-33 -90 -105 -181 -244 -181c-138 0 -226 97 -239 237h-93l10 47h81c1 24 3 47 7 70h-78l10 47h80c42 140 152 249 292 249c73 0 90 -20 145 -20c12 0 18 0 32 1c4 -57 9 -109 26 -169h-44c-26 100 -74 157 -173 157
c-98 0 -156 -103 -181 -218h233l-10 -47h-231c-3 -24 -5 -47 -6 -70h227l-10 -47h-216c7 -123 59 -202 146 -202z" />
    <glyph glyph-name="florin" unicode="&#x192;" horiz-adv-x="291" 
d="M440 598c11 -17 9 -44 -14 -58s-46 -7 -53 10c-11 33 -20 74 -71 74c-72 0 -78 -53 -89 -128l-5 -39h135c6 0 13 -4 10 -9l-5 -11c-9 -18 -14 -29 -33 -29h-114l-60 -425c-17 -119 -84 -185 -175 -185c-64 0 -111 37 -127 73c-9 17 -5 44 19 56s47 3 52 -15
c8 -33 13 -71 52 -71c60 0 78 55 89 130l61 437h-52c-6 0 -10 4 -9 10l5 39h63l4 27c17 119 74 183 185 183c74 0 113 -35 132 -69z" />
    <glyph glyph-name="sterling" unicode="&#xa3;" horiz-adv-x="515" 
d="M296 71c67 0 117 39 155 97l27 -4c-50 -140 -124 -164 -184 -164c-56 0 -96 18 -120 41c-25 -28 -50 -41 -87 -41c-43 0 -77 25 -77 70c0 43 35 83 87 83c35 0 58 -22 75 -38c15 25 23 57 23 76c0 24 -10 48 -23 73h-116l5 30h96c-21 39 -42 84 -42 138
c0 126 93 205 221 205c113 0 168 -69 168 -155c0 -56 -23 -106 -68 -106c-25 0 -43 15 -43 41c0 33 24 41 24 101c0 54 -28 88 -79 88c-83 0 -127 -84 -127 -177c0 -52 13 -93 25 -135h111l-4 -30h-100c4 -20 7 -40 7 -62c0 -43 -10 -74 -35 -111c28 -15 50 -20 81 -20z
M86 21c28 0 46 19 61 45c-26 27 -33 39 -53 39c-19 0 -44 -16 -43 -48c0 -19 10 -36 35 -36z" />
    <glyph glyph-name="yen" unicode="&#xa5;" horiz-adv-x="578" 
d="M427 621c62 -2 124 -2 186 0l-2 -27c-59 -3 -79 -19 -98 -50l-131 -207h105l-6 -47h-129l-16 -25l-5 -37h141l-7 -47h-141l-16 -119c-3 -25 13 -30 62 -33l-2 -29c-75 3 -155 3 -230 0l2 27c50 5 71 14 74 39l16 115h-140l7 47h139l5 35l-10 27h-126l7 47h102l-82 221
c-8 20 -18 33 -67 36l2 27c77 -2 153 -2 229 0l-2 -27c-49 -3 -64 -20 -58 -40l92 -246l150 242c19 30 4 41 -53 44z" />
    <glyph glyph-name="plus" unicode="+" horiz-adv-x="420" 
d="M379 280l-6 -39h-145l-22 -155h-38l23 155h-147l6 39h146l23 156h36l-22 -156h146z" />
    <glyph glyph-name="minus" unicode="&#x2212;" horiz-adv-x="460" 
d="M70 281h329l-6 -39h-329z" />
    <glyph glyph-name="multiply" unicode="&#xd7;" horiz-adv-x="400" 
d="M361 366l-123 -115l91 -114l-44 -40l-91 114l-122 -114l-33 40l123 114l-91 115l44 40l91 -114l123 114z" />
    <glyph glyph-name="divide" unicode="&#xf7;" horiz-adv-x="460" 
d="M252 360c-25 0 -41 23 -37 50c3 20 23 39 43 39c24 0 41 -23 37 -49c-2 -21 -24 -40 -43 -40zM70 281h329l-6 -39h-329zM209 54c-25 0 -41 23 -37 50c3 20 23 39 43 39c24 0 41 -23 37 -49c-2 -21 -24 -40 -43 -40z" />
    <glyph glyph-name="equal" unicode="=" horiz-adv-x="419" 
d="M62 371h329l-6 -39h-329zM37 191h329l-6 -39h-329z" />
    <glyph glyph-name="notequal" unicode="&#x2260;" horiz-adv-x="419" 
d="M385 332h-101l-75 -141h157l-6 -39h-172l-81 -152h-57l81 152h-100l6 39h115l75 141h-171l6 39h185l67 125h57l-67 -125h87z" />
    <glyph glyph-name="greater" unicode="&#x3e;" horiz-adv-x="437" 
d="M396 279l-8 -57c-122 -47 -246 -104 -371 -171l6 41c104 57 230 121 340 159c-99 37 -208 101 -296 158l6 41c106 -67 214 -124 323 -171z" />
    <glyph glyph-name="less" unicode="&#x3c;" horiz-adv-x="438" 
d="M49 279c123 47 246 104 371 171l-5 -41c-104 -57 -230 -121 -341 -158c100 -38 208 -102 296 -159l-5 -41c-106 67 -215 124 -324 171z" />
    <glyph glyph-name="greaterequal" unicode="&#x2265;" horiz-adv-x="438" 
d="M408 361l-8 -57c-122 -47 -246 -104 -371 -171l6 41c104 57 230 121 340 159c-99 37 -208 101 -296 158l6 41c106 -67 214 -124 323 -171zM19 60h329l-6 -39h-329z" />
    <glyph glyph-name="lessequal" unicode="&#x2264;" horiz-adv-x="420" 
d="M61 361c116 47 234 104 350 171l-5 -41c-98 -57 -215 -121 -320 -158c93 -38 194 -104 278 -159l-6 -41c-100 67 -199 124 -303 171zM19 60h329l-6 -39h-329z" />
    <glyph glyph-name="plusminus" unicode="&#xb1;" horiz-adv-x="431" 
d="M247 381h146l-6 -39h-145l-22 -155h-38l23 155h-147l6 39h146l23 156h36zM24 21l6 39h329l-6 -39h-329z" />
    <glyph glyph-name="approxequal" unicode="&#x2248;" horiz-adv-x="442" 
d="M436 383h-35c-19 0 -40 -43 -75 -43c-67 0 -82 58 -154 58c-61 0 -112 -41 -140 -99h35c27 0 32 49 74 49c54 0 85 -68 159 -68c49 0 109 40 136 103zM412 213h-35c-19 0 -40 -43 -75 -43c-67 0 -82 58 -154 58c-61 0 -112 -41 -140 -99h35c27 0 32 49 74 49
c54 0 85 -68 159 -68c49 0 109 40 136 103z" />
    <glyph glyph-name="asciitilde" unicode="~" horiz-adv-x="471" 
d="M422 294h-32c-18 0 -37 -43 -69 -43c-62 0 -76 58 -143 58c-56 0 -103 -41 -129 -99h32c25 0 30 49 69 49c50 0 78 -68 147 -68c45 0 100 40 125 103z" />
    <glyph glyph-name="logicalnot" unicode="&#xac;" horiz-adv-x="493" 
d="M465 370l-32 -227h-54l24 170h-349l9 57h402z" />
    <glyph glyph-name="emptyset" unicode="&#x2205;" horiz-adv-x="485" 
d="M411 456c28 -32 44 -80 44 -142c0 -161 -114 -321 -252 -321c-36 0 -71 11 -100 32l-18 -25l-27 21l20 27c-30 34 -48 82 -48 146c0 161 122 315 255 315c38 0 73 -10 100 -30l16 22l27 -21zM126 175c0 -20 1 -38 4 -54l216 303c-14 40 -38 59 -70 59
c-97 0 -150 -171 -150 -308zM212 20c94 0 147 177 147 310c0 18 -1 35 -3 49l-216 -301c15 -38 39 -58 72 -58z" />
    <glyph glyph-name="infinity" unicode="&#x221e;" horiz-adv-x="662" 
d="M496 448c58 0 141 -46 121 -195c-21 -148 -118 -193 -176 -193c-47 0 -107 27 -123 107c-38 -80 -106 -107 -150 -107c-61 0 -144 45 -123 193c21 149 117 195 178 195c44 0 104 -27 119 -108c39 81 107 108 154 108zM182 153c62 0 124 23 136 100
c11 79 -44 102 -108 102c-66 0 -128 -23 -140 -102c-10 -77 46 -100 112 -100zM454 153c64 0 123 23 133 100c11 79 -41 102 -105 102c-65 0 -128 -23 -139 -102c-11 -77 45 -100 111 -100z" />
    <glyph glyph-name="integral" unicode="&#x222b;" horiz-adv-x="170" 
d="M342 726c7 -19 1 -45 -20 -55c-23 -11 -42 1 -45 20c-4 37 -2 68 -40 68c-35 0 -55 -29 -65 -96l-101 -721c-16 -108 -55 -157 -136 -157c-64 0 -88 36 -101 74c-5 19 1 45 21 55c23 11 42 -1 44 -20c6 -37 3 -68 43 -68c34 0 55 29 64 96l101 721c15 108 54 157 136 157
c64 0 88 -36 99 -74z" />
    <glyph glyph-name="product" unicode="&#x220f;" horiz-adv-x="588" 
d="M600 800l-141 -1000h-53l132 943h-349l-133 -943h-54l141 1000h457z" />
    <glyph glyph-name="summation" unicode="&#x2211;" horiz-adv-x="515" 
d="M537 800l-8 -57h-337l216 -444l-341 -442h338l-8 -57h-405l9 57l334 443l-210 443l8 57h404z" />
    <glyph glyph-name="radical" unicode="&#x221a;" horiz-adv-x="719" 
d="M226 -200c-14 0 -21 7 -27 24l-87 310c-16 58 -39 71 -53 77l-19 8l5 32c53 -4 65 -4 111 -2l99 -331l406 883h110l-5 -32l-27 -8c-14 -4 -42 -14 -74 -79l-424 -882h-15z" />
    <glyph glyph-name="uni00B5" unicode="&#xb5;" horiz-adv-x="585" 
d="M544 98c5 -5 5 -9 -1 -17c-48 -64 -103 -89 -144 -89c-37 0 -46 26 -39 61l39 205c-53 -166 -123 -266 -230 -266c-18 0 -36 3 -50 11c-5 -105 35 -113 27 -141c-20 -71 -108 -93 -95 -5l30 193c-8 24 -9 57 -1 102l49 261c4 20 -2 29 -17 29c-18 0 -41 -19 -55 -34
c-6 -6 -9 -6 -15 -1s-6 10 1 20c39 56 94 81 134 81c42 0 51 -34 47 -61l-53 -295c-16 -82 -5 -120 34 -120c83 0 183 177 222 469h84l-59 -410c-3 -20 1 -30 15 -30c20 0 39 15 59 35c9 9 12 8 18 2z" />
    <glyph glyph-name="partialdiff" unicode="&#x2202;" horiz-adv-x="499" 
d="M142 599c38 24 83 37 122 37c176 0 229 -179 206 -342c-23 -164 -110 -306 -266 -306c-126 0 -192 107 -176 215c17 120 117 196 215 196c81 0 124 -53 134 -72c16 126 10 280 -109 280c-44 0 -77 -19 -109 -42zM370 275c5 28 -40 93 -114 93c-75 0 -121 -83 -133 -165
c-12 -89 2 -184 85 -184c75 0 141 101 162 256z" />
    <glyph glyph-name="percent" unicode="%" horiz-adv-x="604" 
d="M297 500c-11 -73 -61 -138 -129 -138c-66 0 -98 65 -88 138c11 73 61 137 127 137c67 0 100 -64 90 -137zM532 636h46l-471 -641h-46zM172 388c37 0 56 56 63 112c8 56 7 111 -32 111c-38 0 -54 -55 -62 -111c-7 -56 -7 -112 31 -112zM542 127
c-10 -73 -61 -138 -127 -138c-67 0 -98 65 -88 138s59 137 126 137s99 -64 89 -137zM418 15c38 0 55 56 63 112s6 111 -32 111c-37 0 -53 -55 -62 -111c-8 -56 -7 -112 31 -112z" />
    <glyph glyph-name="perthousand" unicode="&#x2030;" horiz-adv-x="867" 
d="M297 500c-11 -73 -61 -138 -129 -138c-66 0 -98 65 -88 138c11 73 61 137 127 137c67 0 100 -64 90 -137zM532 636h46l-471 -641h-46zM172 388c37 0 56 56 63 112c8 56 7 111 -32 111c-38 0 -54 -55 -62 -111c-7 -56 -7 -112 31 -112zM542 127
c-10 -73 -61 -138 -127 -138c-67 0 -98 65 -88 138s59 137 126 137s99 -64 89 -137zM805 127c-10 -73 -61 -138 -127 -138c-67 0 -99 65 -89 138s61 137 127 137c67 0 99 -64 89 -137zM418 15c38 0 55 56 63 112s6 111 -32 111c-37 0 -53 -55 -62 -111
c-8 -56 -7 -112 31 -112zM682 15c37 0 54 56 62 112s6 111 -31 111c-39 0 -55 -55 -63 -111s-7 -112 32 -112z" />
    <glyph glyph-name="lozenge" unicode="&#x25ca;" horiz-adv-x="392" 
d="M365 310l-166 -310h-77l-79 310l166 311h77zM293 310l-54 247l-124 -247l54 -247z" />
    <glyph glyph-name="at" unicode="@" horiz-adv-x="682" 
d="M293 -83c-149 0 -262 113 -262 280c0 203 163 383 356 383c149 0 265 -104 265 -273c0 -123 -68 -243 -172 -243c-25 0 -65 11 -79 70c-33 -45 -79 -74 -134 -74c-47 0 -91 23 -91 77c0 63 40 122 243 151l2 11c3 20 8 43 8 62c0 24 -9 43 -50 43c-61 0 -79 -19 -85 -70
c-2 -17 -18 -23 -41 -23c-21 0 -28 9 -28 25c0 45 74 97 158 97c76 0 114 -29 114 -98c0 -26 -27 -197 -27 -214s6 -28 22 -28c45 0 71 155 71 234c0 131 -56 221 -181 221c-168 0 -261 -182 -261 -367c0 -132 59 -235 177 -235zM297 99c44 0 87 43 105 66l13 94
c-102 -17 -165 -43 -165 -115c0 -25 18 -45 47 -45z" />
    <glyph glyph-name="ampersand" unicode="&#x26;" horiz-adv-x="681" 
d="M448 314c69 -9 114 -49 114 -109c0 -136 -159 -220 -295 -220c-127 0 -241 65 -241 188c0 107 86 195 190 184c-57 16 -96 60 -96 117c0 85 78 163 201 163c83 0 137 -47 137 -116c0 -70 -38 -122 -83 -122c-23 0 -37 11 -37 32c0 38 47 35 47 112c0 43 -23 68 -68 68
c-65 0 -102 -72 -102 -139c0 -54 27 -104 76 -119l-11 -30c-90 15 -154 -55 -154 -157c0 -91 49 -153 148 -153c106 0 192 89 192 194c0 42 -19 73 -53 73c-32 0 -52 -25 -52 -50c0 -9 3 -19 9 -27h-29c-10 6 -20 17 -20 36c0 32 30 54 73 82l120 81c50 34 93 65 93 124
c0 36 -20 57 -58 57c-8 0 -17 -1 -26 -3l-3 26c24 10 48 16 74 16c45 0 99 -32 99 -101c0 -108 -157 -167 -245 -207z" />
    </font>
</defs>
</svg>
